<svg xmlns="http://www.w3.org/2000/svg" width="720" height="380" viewBox="0 0 720 380">
<defs>
<linearGradient id="card" x1="0" y1="0" x2="0" y2="1"><stop offset="0" stop-color="#fffdf8"/><stop offset="1" stop-color="#f3ede1"/></linearGradient>
<style>.sd{font-family:'Fraunces',Georgia,serif;}.st{font-family:'Newsreader',Georgia,serif;}</style>
<marker id="leak" markerWidth="8" markerHeight="8" refX="6" refY="4" orient="auto"><path d="M0 0 L8 4 L0 8 z" fill="#bdb4a2"/></marker>
<marker id="flow" markerWidth="8" markerHeight="8" refX="6" refY="4" orient="auto"><path d="M0 0 L8 4 L0 8 z" fill="#d98a5e"/></marker>
</defs>
<rect x="4" y="4" width="712" height="372" rx="14" fill="url(#card)" stroke="#d9d1c2" stroke-width="1.2"/>
<text x="360" y="46" text-anchor="middle" class="sd" font-size="14" font-weight="600" fill="#9a3415" letter-spacing="3">THE SHIFT</text>
<g transform="translate(30,66)">
  <line x1="330" y1="34" x2="330" y2="266" stroke="#d9d1c2" stroke-width="1.5" stroke-dasharray="3 6"/>
  <text x="150" y="28" text-anchor="middle" class="sd" font-size="15" font-weight="600" fill="#6f685a" letter-spacing="1.5">TRADITIONAL</text>
  <text x="510" y="28" text-anchor="middle" class="sd" font-size="15" font-weight="600" fill="#9a3415" letter-spacing="1.5">AI-NATIVE</text>
  <g class="st" font-size="12.5" fill="#56504e">
    <g opacity="0.9"><circle cx="70" cy="92" r="26" fill="#efe9dd" stroke="#c9c0af" stroke-width="1.3"/><text x="70" y="96" text-anchor="middle">Meetings</text></g>
    <g opacity="0.78"><circle cx="178" cy="74" r="24" fill="#efe9dd" stroke="#c9c0af" stroke-width="1.3"/><text x="178" y="78" text-anchor="middle">Docs</text></g>
    <g opacity="0.62"><circle cx="96" cy="178" r="25" fill="#efe9dd" stroke="#c9c0af" stroke-width="1.3"/><text x="96" y="182" text-anchor="middle">People</text></g>
    <g opacity="0.5"><circle cx="210" cy="166" r="22" fill="#efe9dd" stroke="#c9c0af" stroke-width="1.3"/><text x="210" y="170" text-anchor="middle">Chats</text></g>
    <g opacity="0.32"><circle cx="150" cy="240" r="19" fill="#efe9dd" stroke="#c9c0af" stroke-width="1.2"/><text x="150" y="244" text-anchor="middle">Email</text></g>
  </g>
  <g stroke="#bdb4a2" stroke-width="1.4" fill="none">
    <path d="M250 78 q26 -10 44 -26" marker-end="url(#leak)"/>
    <path d="M232 188 q26 14 46 30" marker-end="url(#leak)"/>
  </g>
  <text x="284" y="44" class="st" font-size="11" fill="#a89e8b" font-style="italic">lost</text>
  <text x="286" y="236" class="st" font-size="11" fill="#a89e8b" font-style="italic">lost</text>
  <g class="st" font-size="12.5" fill="#56504e">
    <text x="400" y="80" text-anchor="middle">Workflows</text>
    <text x="400" y="150" text-anchor="middle">Decisions</text>
    <text x="400" y="222" text-anchor="middle">Signals</text>
  </g>
  <g stroke="#d98a5e" stroke-width="1.8" fill="none" marker-end="url(#flow)">
    <path d="M448 76 C 500 84, 512 120, 540 142"/>
    <path d="M448 150 L 536 150"/>
    <path d="M448 218 C 500 210, 512 178, 540 158"/>
  </g>
  <circle cx="572" cy="150" r="44" fill="#c0441f" stroke="#9a3415" stroke-width="1.5"/>
  <text x="572" y="146" text-anchor="middle" class="sd" font-size="12.5" font-weight="600" fill="#fff">Org</text>
  <text x="572" y="162" text-anchor="middle" class="sd" font-size="12.5" font-weight="600" fill="#fff">Memory</text>
</g>
</svg>
