<svg xmlns="http://www.w3.org/2000/svg" width="600" height="470" viewBox="0 0 600 470">
<defs>
<linearGradient id="card" x1="0" y1="0" x2="0" y2="1"><stop offset="0" stop-color="#fffdf8"/><stop offset="1" stop-color="#f3ede1"/></linearGradient>
<style>.sd{font-family:'Fraunces',Georgia,serif;}.st{font-family:'Newsreader',Georgia,serif;}</style>
<marker id="arc" markerWidth="9" markerHeight="9" refX="6" refY="4.5" orient="auto"><path d="M0 0 L9 4.5 L0 9 z" fill="#c0441f"/></marker>
</defs>
<rect x="4" y="4" width="592" height="462" rx="14" fill="url(#card)" stroke="#d9d1c2" stroke-width="1.2"/>
<text x="300" y="46" text-anchor="middle" class="sd" font-size="14" font-weight="600" fill="#9a3415" letter-spacing="3">THE ENGINE</text>
<g fill="none" stroke="#c0441f" stroke-width="2.4" marker-end="url(#arc)">
<path d="M372.7 142.2 A 130 130 0 0 1 407.8 177.3"/>
<path d="M407.8 322.7 A 130 130 0 0 1 372.7 357.8"/>
<path d="M227.3 357.8 A 130 130 0 0 1 192.2 322.7"/>
<path d="M192.2 177.3 A 130 130 0 0 1 227.3 142.2"/>
</g>
<text x="300" y="242" text-anchor="middle" class="sd" font-size="17" font-weight="600" fill="#1c1a17">Compounding</text>
<text x="300" y="266" text-anchor="middle" class="sd" font-size="17" font-weight="600" fill="#9a3415">Learning</text>
<circle cx="300.0" cy="120.0" r="44" fill="#fffdf8" stroke="#c0441f" stroke-width="2"/><text x="300.0" y="125.0" text-anchor="middle" class="sd" font-size="15" font-weight="600" fill="#1c1a17">Automate</text>
<circle cx="430.0" cy="250.0" r="44" fill="#fffdf8" stroke="#c0441f" stroke-width="2"/><text x="430.0" y="255.0" text-anchor="middle" class="sd" font-size="15" font-weight="600" fill="#1c1a17">Measure</text>
<circle cx="300.0" cy="380.0" r="44" fill="#fffdf8" stroke="#c0441f" stroke-width="2"/><text x="300.0" y="385.0" text-anchor="middle" class="sd" font-size="15" font-weight="600" fill="#1c1a17">Improve</text>
<circle cx="170.0" cy="250.0" r="44" fill="#fffdf8" stroke="#c0441f" stroke-width="2"/><text x="170.0" y="255.0" text-anchor="middle" class="sd" font-size="15" font-weight="600" fill="#1c1a17">Learn</text>
</svg>