<svg xmlns="http://www.w3.org/2000/svg" width="900" height="360" viewBox="0 0 900 360">
<defs>
<linearGradient id="card" x1="0" y1="0" x2="0" y2="1"><stop offset="0" stop-color="#fffdf8"/><stop offset="1" stop-color="#f3ede1"/></linearGradient>
<style>.sd{font-family:'Fraunces',Georgia,serif;}.st{font-family:'Newsreader',Georgia,serif;}</style>
</defs>
<rect x="4" y="4" width="892" height="352" rx="14" fill="url(#card)" stroke="#d9d1c2" stroke-width="1.2"/>
<g fill="#9a3415"><path transform="translate(382.76 56.00) scale(0.00700 -0.00700)" d="M315 1400H1051Q1085 1400 1107.5 1409.0Q1130 1418 1148.0 1426.5Q1166 1435 1184 1435Q1211 1435 1225.5 1421.5Q1240 1408 1249 1374L1315 1040Q1320 1016 1311.5 1000.5Q1303 985 1283 981Q1264 977 1249.5 984.5Q1235 992 1224 1013Q1170 1138 1129.5 1202.0Q1089 1266 1049.5 1289.0Q1010 1312 957 1312H836V146Q836 125 848.0 112.5Q860 100 883 94L945 81Q981 70 981 39Q981 0 931 0H437Q411 0 398.5 10.5Q386 21 386 39Q386 70 422 81L484 94Q508 100 520.0 112.5Q532 125 532 146V1312H410Q358 1312 318.5 1288.0Q279 1264 238.5 1200.0Q198 1136 143 1013Q133 992 118.0 984.5Q103 977 84 981Q64 985 56.0 1000.5Q48 1016 52 1040L118 1374Q127 1408 141.5 1421.5Q156 1435 183 1435Q201 1435 218.5 1426.5Q236 1418 258.5 1409.0Q281 1400 315 1400Z"/><path transform="translate(395.32 56.00) scale(0.00700 -0.00700)" d="M377 706H1227V618H377ZM548 146Q548 125 560.5 112.5Q573 100 596 94L657 81Q694 70 694 39Q694 21 681.5 10.5Q669 0 643 0H149Q123 0 110.5 10.5Q98 21 98 39Q98 70 135 81L196 94Q220 100 232.0 112.5Q244 125 244 146V1254Q244 1275 232.0 1287.5Q220 1300 196 1306L135 1319Q98 1330 98 1361Q98 1380 110.5 1390.0Q123 1400 149 1400H643Q669 1400 681.5 1390.0Q694 1380 694 1361Q694 1330 657 1319L596 1306Q573 1300 560.5 1287.5Q548 1275 548 1254ZM1423 146Q1423 125 1435.0 112.5Q1447 100 1470 94L1532 81Q1568 70 1568 39Q1568 21 1556.0 10.5Q1544 0 1518 0H1024Q998 0 985.5 10.5Q973 21 973 39Q973 70 1009 81L1071 94Q1095 100 1107.0 112.5Q1119 125 1119 146V1254Q1119 1275 1107.0 1287.5Q1095 1300 1071 1306L1009 1319Q973 1330 973 1361Q973 1380 985.5 1390.0Q998 1400 1024 1400H1518Q1544 1400 1556.0 1390.0Q1568 1380 1568 1361Q1568 1330 1532 1319L1470 1306Q1447 1300 1435.0 1287.5Q1423 1275 1423 1254Z"/><path transform="translate(409.99 56.00) scale(0.00700 -0.00700)" d="M444 749H751Q817 749 845.0 776.0Q873 803 886 878Q891 899 901.5 909.0Q912 919 927 920Q960 922 970 883L1051 577Q1057 555 1051.5 541.5Q1046 528 1028 523Q1012 518 997.0 522.5Q982 527 972 543Q941 593 915.0 619.5Q889 646 858.0 656.0Q827 666 781 666H444ZM98 1361Q98 1380 110.0 1390.0Q122 1400 148 1400H926Q960 1400 982.5 1409.5Q1005 1419 1024.0 1428.5Q1043 1438 1065 1438Q1090 1438 1103.5 1423.5Q1117 1409 1126 1375L1208 1079Q1214 1057 1207.5 1043.0Q1201 1029 1183 1023Q1162 1016 1145.0 1024.0Q1128 1032 1117 1053Q1074 1136 1037.5 1187.5Q1001 1239 965.5 1267.0Q930 1295 891.0 1305.0Q852 1315 802 1315H547V173Q547 129 572.5 107.0Q598 85 648 85H828Q895 85 946.0 109.0Q997 133 1047.0 202.0Q1097 271 1159 406Q1168 425 1182.5 432.5Q1197 440 1215 436Q1235 433 1244.0 418.0Q1253 403 1247 379L1158 29Q1148 -4 1134.5 -19.5Q1121 -35 1093 -35Q1073 -35 1054.5 -26.0Q1036 -17 1012.5 -8.5Q989 0 955 0H148Q122 0 110.0 10.5Q98 21 98 39Q98 70 134 81L195 94Q219 100 231.0 112.5Q243 125 243 146V1254Q243 1275 231.0 1287.5Q219 1300 195 1306L134 1319Q98 1330 98 1361Z"/><path transform="translate(427.96 56.00) scale(0.00700 -0.00700)" d="M879 1400Q914 1400 937.5 1409.0Q961 1418 979.5 1426.5Q998 1435 1016 1435Q1042 1435 1055.5 1421.5Q1069 1408 1078 1375L1161 1069Q1167 1049 1156.5 1036.0Q1146 1023 1127 1020Q1111 1017 1095.5 1023.0Q1080 1029 1070 1051Q1016 1159 970.0 1216.0Q924 1273 874.5 1294.0Q825 1315 762 1315H547V146Q547 125 559.0 111.5Q571 98 597 94L691 82Q713 78 722.0 68.0Q731 58 731 39Q731 21 719.0 10.5Q707 0 680 0H148Q122 0 110.0 10.5Q98 21 98 39Q98 70 134 81L195 94Q219 100 231.0 112.5Q243 125 243 146V1254Q243 1275 231.0 1287.5Q219 1300 195 1306L134 1319Q98 1330 98 1361Q98 1380 110.0 1390.0Q122 1400 148 1400ZM435 716H744Q811 716 840.5 743.0Q870 770 884 848Q889 867 899.0 875.5Q909 884 924 885Q959 887 968 850L1044 542Q1049 520 1042.5 508.0Q1036 496 1020 490Q1004 485 989.5 490.5Q975 496 962 513Q932 561 907.0 586.5Q882 612 852.0 622.0Q822 632 775 632H435Z"/><path transform="translate(439.35 56.00) scale(0.00700 -0.00700)" d="M781 1432Q943 1432 1074.0 1378.0Q1205 1324 1299.0 1225.5Q1393 1127 1443.5 992.0Q1494 857 1494 694Q1494 536 1444.0 402.5Q1394 269 1300.5 171.5Q1207 74 1077.0 20.0Q947 -34 787 -34Q626 -34 495.0 20.0Q364 74 270.0 172.5Q176 271 125.5 407.0Q75 543 75 707Q75 864 125.5 996.5Q176 1129 269.0 1227.0Q362 1325 492.0 1378.5Q622 1432 781 1432ZM1182 509Q1182 644 1157.5 768.0Q1133 892 1089.0 996.5Q1045 1101 986.5 1178.5Q928 1256 858.5 1299.5Q789 1343 714 1343Q616 1343 543.0 1290.0Q470 1237 429.5 1136.0Q389 1035 389 892Q389 757 413.5 632.0Q438 507 482.0 402.0Q526 297 584.5 219.0Q643 141 712.5 97.5Q782 54 857 54Q957 54 1029.5 107.5Q1102 161 1142.0 262.0Q1182 363 1182 509Z"/><path transform="translate(453.34 56.00) scale(0.00700 -0.00700)" d="M1337 917Q1337 821 1293.5 742.0Q1250 663 1170.5 610.5Q1091 558 981 538Q945 532 913.0 525.0Q881 518 848.5 513.0Q816 508 777 508Q711 508 654.5 517.0Q598 526 551.5 543.0Q505 560 469 583L476 659Q506 638 544.0 623.5Q582 609 626.5 601.5Q671 594 721 594Q863 594 943.5 674.0Q1024 754 1024 912Q1024 1031 975.5 1123.0Q927 1215 839.0 1268.0Q751 1321 634 1321H547V148Q547 126 557.5 113.5Q568 101 590 94L661 81Q682 74 689.5 64.0Q697 54 697 39Q697 0 646 0H148Q122 0 109.5 10.5Q97 21 97 39Q97 70 133 81L195 94Q219 100 231.0 113.0Q243 126 243 148V1254Q243 1275 231.0 1287.5Q219 1300 195 1306L133 1319Q97 1330 97 1361Q97 1380 109.5 1390.0Q122 1400 148 1400H643Q865 1400 1020.0 1338.5Q1175 1277 1256.0 1168.5Q1337 1060 1337 917ZM763 544 1058 578 1323 151Q1342 121 1362.0 105.5Q1382 90 1415 82Q1441 74 1450.5 64.0Q1460 54 1460 39Q1460 21 1447.5 10.5Q1435 0 1408 0H976Q926 0 926 39Q926 50 932.0 57.0Q938 64 952 71L984 78Q1006 88 1009.5 102.0Q1013 116 998 142Z"/><path transform="translate(466.64 56.00) scale(0.00700 -0.00700)" d="M958 407 871 373 1237 1320Q1254 1365 1276.5 1382.5Q1299 1400 1339 1400H1636Q1662 1400 1675.0 1390.0Q1688 1380 1688 1361Q1688 1346 1679.0 1335.5Q1670 1325 1651 1319L1594 1305Q1563 1297 1551.5 1280.0Q1540 1263 1543 1226L1621 160Q1623 128 1634.0 115.0Q1645 102 1673 94L1729 81Q1747 76 1755.5 66.0Q1764 56 1764 40Q1764 23 1751.5 11.5Q1739 0 1712 0H1224Q1198 0 1185.0 10.5Q1172 21 1172 39Q1172 54 1180.0 64.5Q1188 75 1209 81L1265 94Q1298 103 1309.5 117.0Q1321 131 1319 160L1236 1238L1314 1246L893 137Q877 95 860.5 82.5Q844 70 822 70Q806 70 793.0 75.0Q780 80 768.0 94.5Q756 109 744 141L310 1218L385 1249L299 199Q296 156 318.5 132.5Q341 109 382 93L437 77Q451 71 459.0 62.5Q467 54 467 40Q467 22 454.0 11.0Q441 0 415 0H86Q60 0 47.5 10.5Q35 21 35 39Q35 57 46.0 66.0Q57 75 75 82L119 96Q155 108 177.0 132.0Q199 156 203 200L285 1197Q289 1246 276.5 1271.5Q264 1297 231 1305L178 1317Q157 1323 147.5 1333.5Q138 1344 138 1360Q138 1400 191 1400H487Q525 1400 547.5 1385.0Q570 1370 587 1324Z"/><path transform="translate(482.31 56.00) scale(0.00700 -0.00700)" d="M1175 600 1139 1199Q1136 1245 1116.5 1270.5Q1097 1296 1053 1306L1001 1317Q975 1324 965.0 1334.0Q955 1344 955 1361Q955 1379 968.0 1389.5Q981 1400 1003 1400H1366Q1390 1400 1402.5 1389.5Q1415 1379 1415 1361Q1415 1344 1404.0 1334.0Q1393 1324 1368 1317L1321 1306Q1271 1294 1252.0 1265.5Q1233 1237 1236 1194L1273 603Q1277 551 1279.5 501.5Q1282 452 1283 398Q1285 275 1229.0 177.5Q1173 80 1057.0 23.5Q941 -33 762 -33Q572 -33 446.0 19.5Q320 72 257.0 168.0Q194 264 196 392Q196 417 198.0 454.5Q200 492 203.0 539.5Q206 587 209 640L244 1250Q246 1275 232.5 1288.0Q219 1301 186 1307L130 1317Q83 1327 83 1361Q83 1379 96.0 1389.5Q109 1400 132 1400H659Q683 1400 695.5 1389.5Q708 1379 708 1361Q708 1344 697.5 1333.5Q687 1323 661 1317L603 1307Q576 1302 563.0 1289.0Q550 1276 549 1250L514 642Q509 571 507.5 513.0Q506 455 506 410Q503 233 589.5 149.0Q676 65 829 65Q939 65 1019.0 105.0Q1099 145 1142.5 219.5Q1186 294 1184 397Q1183 466 1180.5 513.0Q1178 560 1175 600Z"/><path transform="translate(495.58 56.00) scale(0.00700 -0.00700)" d="M656 1319 594 1306Q571 1300 559.0 1287.5Q547 1275 547 1254V150Q547 115 567.0 100.0Q587 85 628 85H798Q853 85 894.0 101.0Q935 117 969.5 158.0Q1004 199 1039 275L1107 423Q1117 444 1131.5 451.5Q1146 459 1165 454Q1186 450 1194.0 435.5Q1202 421 1195 397L1105 28Q1095 -5 1081.0 -20.0Q1067 -35 1041 -35Q1023 -35 1004.0 -26.5Q985 -18 961.0 -9.0Q937 0 902 0H148Q122 0 109.5 10.5Q97 21 97 39Q97 70 133 81L195 94Q219 100 231.0 112.5Q243 125 243 146V1254Q243 1275 231.0 1287.5Q219 1300 195 1306L133 1319Q97 1330 97 1361Q97 1380 109.5 1390.0Q122 1400 148 1400H642Q668 1400 680.0 1390.0Q692 1380 692 1361Q692 1330 656 1319Z"/><path transform="translate(507.23 56.00) scale(0.00700 -0.00700)" d="M333 564H909L913 475H327ZM438 39Q438 21 426.0 10.5Q414 0 387 0H73Q47 0 34.5 10.5Q22 21 22 38Q22 51 29.5 60.0Q37 69 55 78L89 91Q119 105 138.5 131.0Q158 157 177 221L498 1222Q511 1265 504.0 1285.0Q497 1305 462 1317Q438 1326 428.0 1336.5Q418 1347 418 1362Q418 1380 430.5 1390.0Q443 1400 470 1400H939Q966 1400 978.5 1390.0Q991 1380 991 1362Q991 1346 981.0 1335.5Q971 1325 948 1318Q922 1311 917.0 1297.0Q912 1283 922 1251L1274 180Q1288 136 1305.5 114.5Q1323 93 1354 84Q1380 74 1388.5 64.5Q1397 55 1397 39Q1397 21 1384.0 10.5Q1371 0 1345 0H904Q878 0 865.0 10.5Q852 21 852 39Q852 53 861.0 62.5Q870 72 889 78L945 89Q971 97 971.0 114.0Q971 131 960 168L600 1283L632 1309L288 233Q275 191 277.5 164.5Q280 138 298.5 120.5Q317 103 353 89L402 77Q420 71 429.0 62.5Q438 54 438 39Z"/></g>
<rect x="40" y="118" width="176" height="92" rx="12" fill="#fffdf8" stroke="#c0441f" stroke-width="2"/><g fill="#1c1a17"><path transform="translate(99.80 158.00) scale(0.00950 -0.00950)" d="M1322 377Q1319 302 1280.0 228.5Q1241 155 1168.5 95.0Q1096 35 994.5 -0.5Q893 -36 766 -36Q552 -36 397.0 56.5Q242 149 158.0 312.5Q74 476 74 689Q74 851 124.5 986.5Q175 1122 265.5 1222.5Q356 1323 479.0 1378.0Q602 1433 748 1433Q847 1433 910.0 1413.0Q973 1393 1009.0 1373.0Q1045 1353 1063 1353Q1086 1353 1101.0 1371.0Q1116 1389 1131.0 1407.0Q1146 1425 1168 1425Q1183 1425 1193.5 1415.5Q1204 1406 1211 1382L1315 1027Q1321 1007 1311.0 991.5Q1301 976 1281 972Q1261 968 1245.0 976.0Q1229 984 1219 1006Q1165 1129 1099.0 1202.5Q1033 1276 956.5 1308.0Q880 1340 792 1340Q703 1340 628.0 1300.0Q553 1260 498.5 1184.0Q444 1108 414.0 1001.0Q384 894 384 760Q384 553 446.5 410.5Q509 268 617.5 195.0Q726 122 865 122Q1001 122 1100.0 190.0Q1199 258 1249 381Q1259 401 1270.5 408.0Q1282 415 1296 412Q1309 410 1315.5 401.0Q1322 392 1322 377Z"/><path transform="translate(112.94 158.00) scale(0.00950 -0.00950)" d="M451 1432V140Q451 113 459.0 100.0Q467 87 484 81L524 71Q552 60 552 37Q552 0 505 0H116Q92 0 81.0 9.5Q70 19 70 35Q70 47 78.0 56.0Q86 65 102 71L144 81Q162 87 170.0 99.5Q178 112 178 140V1277Q178 1299 171.0 1308.5Q164 1318 149 1321L94 1324Q78 1327 71.0 1335.0Q64 1343 64 1355Q64 1369 72.5 1377.5Q81 1386 103 1394L309 1464Q341 1476 360.5 1481.0Q380 1486 397 1486Q424 1486 437.5 1471.5Q451 1457 451 1432ZM422 680 383 721 422 755Q542 863 629.0 910.0Q716 957 793 957Q911 957 976.0 879.0Q1041 801 1055 667L1115 144Q1118 114 1125.5 100.0Q1133 86 1151 80L1189 71Q1206 65 1213.5 56.0Q1221 47 1221 35Q1221 19 1210.0 9.5Q1199 0 1175 0H781Q734 0 734 37Q734 60 762 71L803 81Q822 87 831.5 101.0Q841 115 838 144L783 629Q773 715 740.0 757.5Q707 800 641 800Q600 800 555.5 778.5Q511 757 462 715Z"/><path transform="translate(124.65 158.00) scale(0.00950 -0.00950)" d="M967 577Q967 532 941.0 508.0Q915 484 866 484H243V549H648Q693 549 693 590Q693 731 645.0 802.5Q597 874 519 874Q457 874 410.5 836.0Q364 798 338.0 725.5Q312 653 312 550Q312 354 402.0 256.0Q492 158 640 158Q731 158 798.5 197.0Q866 236 898 307Q912 324 921.0 330.0Q930 336 939 336Q953 336 959.0 324.0Q965 312 965 295Q960 208 905.0 135.0Q850 62 757.0 19.0Q664 -24 544 -24Q403 -24 294.5 34.5Q186 93 125.0 199.0Q64 305 64 447Q64 597 123.0 711.5Q182 826 292.0 891.5Q402 957 554 957Q684 957 776.0 908.0Q868 859 917.5 773.5Q967 688 967 577Z"/><path transform="translate(134.43 158.00) scale(0.00950 -0.00950)" d="M661 121V139L644 141V747Q644 817 609.5 855.5Q575 894 512 894Q452 894 420.0 867.5Q388 841 388 804V717Q388 659 349.0 626.0Q310 593 241 593Q183 593 152.0 621.5Q121 650 121 701Q121 762 171.0 820.5Q221 879 318.5 917.5Q416 956 559 956Q739 956 827.0 882.5Q915 809 915 682V163Q915 133 926.5 118.5Q938 104 959 104Q980 104 991.5 115.0Q1003 126 1010 139Q1015 145 1020.0 149.0Q1025 153 1032 153Q1043 153 1048.0 145.5Q1053 138 1053 126Q1053 95 1030.5 60.5Q1008 26 963.0 1.5Q918 -23 849 -23Q762 -23 711.5 15.5Q661 54 661 121ZM78 207Q78 328 185.5 403.0Q293 478 492 478Q556 478 606.0 466.5Q656 455 693 437L674 384Q640 399 604.5 408.5Q569 418 527 418Q446 418 400.5 374.0Q355 330 355 251Q355 174 394.5 133.0Q434 92 497 92Q549 92 597.0 116.0Q645 140 677 182L697 134Q644 59 554.5 18.0Q465 -23 364 -23Q237 -23 157.5 40.5Q78 104 78 207Z"/><path transform="translate(144.70 158.00) scale(0.00950 -0.00950)" d="M430 900V784L439 763V-326Q439 -354 447.5 -367.5Q456 -381 473 -385L528 -395Q544 -400 552.0 -409.5Q560 -419 560 -432Q560 -448 549.0 -457.0Q538 -466 514 -466H106Q82 -466 71.0 -457.0Q60 -448 60 -432Q60 -419 68.0 -410.0Q76 -401 92 -395L133 -385Q150 -380 158.0 -367.0Q166 -354 166 -326V744Q166 766 159.0 775.5Q152 785 137 788L82 791Q66 794 59.5 802.0Q53 810 53 822Q53 836 61.0 844.0Q69 852 92 861L288 931Q319 944 338.5 948.5Q358 953 374 953Q402 953 416.0 938.5Q430 924 430 900ZM390 664 351 713Q429 829 526.0 893.0Q623 957 742 957Q858 957 949.0 898.0Q1040 839 1092.0 734.5Q1144 630 1144 492Q1144 334 1082.5 218.0Q1021 102 915.0 39.0Q809 -24 677 -24Q562 -24 476.0 28.0Q390 80 334 181L393 229Q438 152 496.5 113.0Q555 74 623 74Q692 74 745.5 114.5Q799 155 830.0 241.0Q861 327 861 462Q861 589 831.5 671.0Q802 753 750.5 793.0Q699 833 633 833Q566 833 504.5 791.5Q443 750 390 664Z"/></g><g fill="#1c1a17"><path transform="translate(93.15 182.00) scale(0.00950 -0.00950)" d="M122 849 68 863Q48 869 39.5 878.0Q31 887 31 900Q31 916 42.5 925.0Q54 934 72 934H139Q159 934 173.0 941.5Q187 949 202 969L327 1129Q344 1151 361.0 1161.5Q378 1172 394 1172Q412 1172 422.0 1160.5Q432 1149 432 1127V275Q432 203 460.0 165.5Q488 128 539 128Q572 128 592.0 140.5Q612 153 624.5 171.0Q637 189 648.5 204.5Q660 220 676 226Q688 228 696.0 219.5Q704 211 703 191Q700 132 665.0 84.5Q630 37 569.0 8.5Q508 -20 429 -20Q303 -20 232.0 42.5Q161 105 161 232V797Q161 819 152.5 830.5Q144 842 122 849ZM328 850 330 934H654Q675 934 686.0 926.0Q697 918 697 902Q697 880 674.5 865.0Q652 850 603 850Z"/><path transform="translate(100.22 182.00) scale(0.00950 -0.00950)" d="M582 956Q732 956 846.0 894.0Q960 832 1024.0 721.0Q1088 610 1088 464Q1088 324 1022.0 213.5Q956 103 840.0 39.5Q724 -24 571 -24Q421 -24 307.5 38.5Q194 101 129.5 212.0Q65 323 65 467Q65 609 131.0 719.0Q197 829 313.0 892.5Q429 956 582 956ZM648 64Q715 74 756.5 126.5Q798 179 809.5 272.5Q821 366 798 499Q776 631 734.0 717.0Q692 803 633.5 841.0Q575 879 505 869Q438 858 397.0 805.5Q356 753 345.0 659.5Q334 566 356 434Q378 303 420.5 216.5Q463 130 521.5 92.0Q580 54 648 64Z"/><path transform="translate(115.10 182.00) scale(0.00950 -0.00950)" d="M1346 337Q1346 188 1218.0 94.0Q1090 0 836 0H148Q122 0 109.5 10.5Q97 21 97 39Q97 70 134 81L195 94Q219 100 231.0 113.0Q243 126 243 148V1254Q243 1275 231.5 1287.5Q220 1300 195 1306L134 1319Q97 1330 97 1361Q97 1380 109.5 1390.0Q122 1400 148 1400H678Q865 1400 996.5 1349.0Q1128 1298 1197.0 1207.5Q1266 1117 1266 997Q1266 897 1210.0 818.5Q1154 740 1045.0 695.0Q936 650 778 650L831 676Q986 676 1102.0 632.5Q1218 589 1282.0 512.5Q1346 436 1346 337ZM724 618H471V687H706Q795 687 856.0 721.0Q917 755 948.0 821.0Q979 887 979 981Q979 1084 938.5 1160.5Q898 1237 821.5 1279.5Q745 1322 637 1322H546V165Q546 121 573.5 99.5Q601 78 654 78H769Q857 78 918.5 111.0Q980 144 1011.0 204.0Q1042 264 1042 345Q1042 469 961.0 543.5Q880 618 724 618Z"/><path transform="translate(128.36 182.00) scale(0.00950 -0.00950)" d="M782 122V187L774 191V742Q774 764 767.5 773.5Q761 783 745 786L690 789Q675 792 668.0 800.0Q661 808 661 820Q661 834 669.5 842.5Q678 851 700 859L905 929Q937 941 957.0 946.0Q977 951 994 951Q1020 951 1034.0 936.5Q1048 922 1048 897V140Q1048 113 1056.0 99.5Q1064 86 1081 81L1122 71Q1139 66 1146.5 57.0Q1154 48 1154 35Q1154 19 1143.0 9.5Q1132 0 1108 0H890Q843 0 812.5 34.0Q782 68 782 122ZM156 270V742Q156 764 149.0 773.5Q142 783 127 786L72 789Q56 792 49.0 800.0Q42 808 42 820Q42 834 50.5 842.5Q59 851 81 859L287 929Q320 941 339.5 946.0Q359 951 373 951Q401 951 415.0 936.5Q429 922 429 897V308Q429 220 471.0 176.5Q513 133 583 133Q627 133 675.5 154.0Q724 175 775 219L815 253L853 213L815 179Q693 67 601.5 22.0Q510 -23 429 -23Q307 -23 231.5 55.0Q156 133 156 270Z"/><path transform="translate(139.90 182.00) scale(0.00950 -0.00950)" d="M452 898V140Q452 113 460.0 99.5Q468 86 485 81L526 71Q543 66 550.5 57.0Q558 48 558 35Q558 19 547.0 9.5Q536 0 512 0H116Q93 0 82.0 9.5Q71 19 71 35Q71 47 78.5 56.0Q86 65 103 71L145 81Q162 87 170.5 99.5Q179 112 179 140V743Q179 765 172.0 774.5Q165 784 149 787L94 790Q79 793 72.0 801.0Q65 809 65 821Q65 835 73.5 843.5Q82 852 104 860L309 930Q343 942 362.5 947.0Q382 952 396 952Q424 952 438.0 937.5Q452 923 452 898ZM296 1100Q219 1100 172.5 1141.5Q126 1183 126 1249Q126 1315 173.0 1355.5Q220 1396 296 1396Q374 1396 421.0 1355.0Q468 1314 468 1249Q468 1183 421.0 1141.5Q374 1100 296 1100Z"/><path transform="translate(145.65 182.00) scale(0.00950 -0.00950)" d="M453 1432V140Q453 113 461.0 99.5Q469 86 486 81L527 71Q544 66 552.0 57.0Q560 48 560 35Q560 19 548.5 9.5Q537 0 513 0H118Q94 0 83.0 9.5Q72 19 72 35Q72 47 80.0 56.0Q88 65 104 71L146 81Q164 87 172.0 99.5Q180 112 180 140V1277Q180 1299 173.0 1308.5Q166 1318 151 1321L96 1324Q80 1327 73.0 1335.0Q66 1343 66 1355Q66 1369 74.5 1377.5Q83 1386 105 1394L311 1464Q344 1476 363.5 1481.0Q383 1486 397 1486Q425 1486 439.0 1471.5Q453 1457 453 1432Z"/><path transform="translate(151.44 182.00) scale(0.00950 -0.00950)" d="M777 157 770 162V1277Q770 1299 763.0 1308.5Q756 1318 741 1321L686 1324Q670 1327 663.5 1335.0Q657 1343 657 1355Q657 1369 665.0 1377.5Q673 1386 696 1394L901 1464Q933 1476 952.5 1481.0Q972 1486 989 1486Q1016 1486 1029.5 1471.5Q1043 1457 1043 1432V140Q1043 113 1051.0 99.5Q1059 86 1076 81L1117 71Q1134 66 1142.0 57.0Q1150 48 1150 35Q1150 19 1138.5 9.5Q1127 0 1103 0H880Q836 0 806.5 28.5Q777 57 777 103ZM66 441Q66 599 128.0 714.5Q190 830 296.5 893.5Q403 957 534 957Q649 957 735.5 904.5Q822 852 878 753L819 704Q774 781 715.0 820.0Q656 859 586 859Q518 859 464.5 818.0Q411 777 380.0 691.5Q349 606 349 470Q349 344 378.5 262.5Q408 181 459.5 141.0Q511 101 577 101Q645 101 706.0 141.5Q767 182 819 267L858 219Q780 103 683.5 39.5Q587 -24 469 -24Q353 -24 261.5 35.0Q170 94 118.0 198.5Q66 303 66 441Z"/></g>
<rect x="248" y="118" width="176" height="92" rx="12" fill="#fffdf8" stroke="#c0441f" stroke-width="2"/><g fill="#1c1a17"><path transform="translate(316.72 158.00) scale(0.00950 -0.00950)" d="M651 -29Q567 -29 508.0 -8.0Q449 13 412.5 33.5Q376 54 358 54Q341 54 327.5 41.0Q314 28 301.5 11.0Q289 -6 275.5 -19.0Q262 -32 244 -32Q226 -32 214.0 -20.5Q202 -9 197 16L128 362Q124 381 132.0 394.0Q140 407 158 414Q178 421 193.0 413.0Q208 405 219 383Q281 260 348.0 189.0Q415 118 486.5 88.0Q558 58 631 58Q734 58 794.0 112.5Q854 167 854 261Q855 320 827.5 369.5Q800 419 726.0 464.0Q652 509 510 556Q357 607 265.0 671.5Q173 736 131.5 821.5Q90 907 90 1018Q90 1139 148.5 1231.0Q207 1323 311.5 1374.0Q416 1425 555 1425Q644 1425 702.0 1406.0Q760 1387 797.0 1368.0Q834 1349 857 1349Q878 1349 892.5 1368.5Q907 1388 923.0 1408.0Q939 1428 964 1428Q982 1428 994.5 1416.0Q1007 1404 1017 1372L1113 1025Q1120 1003 1112.5 986.0Q1105 969 1086 962Q1066 956 1050.5 963.5Q1035 971 1025 991Q958 1123 885.5 1199.0Q813 1275 737.0 1307.0Q661 1339 584 1339Q481 1339 419.5 1279.0Q358 1219 358 1119Q358 1059 384.5 1008.0Q411 957 483.5 909.5Q556 862 691 813Q848 756 940.0 691.5Q1032 627 1072.0 547.5Q1112 468 1112 365Q1111 256 1056.5 166.5Q1002 77 899.5 24.0Q797 -29 651 -29Z"/><path transform="translate(328.13 158.00) scale(0.00950 -0.00950)" d="M661 121V139L644 141V747Q644 817 609.5 855.5Q575 894 512 894Q452 894 420.0 867.5Q388 841 388 804V717Q388 659 349.0 626.0Q310 593 241 593Q183 593 152.0 621.5Q121 650 121 701Q121 762 171.0 820.5Q221 879 318.5 917.5Q416 956 559 956Q739 956 827.0 882.5Q915 809 915 682V163Q915 133 926.5 118.5Q938 104 959 104Q980 104 991.5 115.0Q1003 126 1010 139Q1015 145 1020.0 149.0Q1025 153 1032 153Q1043 153 1048.0 145.5Q1053 138 1053 126Q1053 95 1030.5 60.5Q1008 26 963.0 1.5Q918 -23 849 -23Q762 -23 711.5 15.5Q661 54 661 121ZM78 207Q78 328 185.5 403.0Q293 478 492 478Q556 478 606.0 466.5Q656 455 693 437L674 384Q640 399 604.5 408.5Q569 418 527 418Q446 418 400.5 374.0Q355 330 355 251Q355 174 394.5 133.0Q434 92 497 92Q549 92 597.0 116.0Q645 140 677 182L697 134Q644 59 554.5 18.0Q465 -23 364 -23Q237 -23 157.5 40.5Q78 104 78 207Z"/><path transform="translate(338.40 158.00) scale(0.00950 -0.00950)" d="M490 141Q490 116 500.5 101.5Q511 87 534 84L638 72Q658 70 667.0 60.0Q676 50 676 35Q676 0 631 0H130Q110 0 98.0 9.0Q86 18 86 34Q86 49 95.0 58.0Q104 67 123 72L172 82Q197 89 207.5 102.5Q218 116 218 138V767Q218 785 209.5 796.5Q201 808 177 817L115 834Q88 845 78.0 855.0Q68 865 68 878Q68 892 78.5 901.0Q89 910 110 910H271L220 880V909Q220 938 204.5 965.0Q189 992 168.5 1022.5Q148 1053 132.5 1091.5Q117 1130 117 1182Q117 1304 203.5 1378.0Q290 1452 441 1452Q539 1452 605.5 1421.0Q672 1390 706.5 1338.5Q741 1287 741 1226Q741 1164 708.0 1131.5Q675 1099 623 1099Q567 1099 532.5 1134.0Q498 1169 498 1229V1296Q498 1342 473.5 1365.0Q449 1388 406 1388Q351 1388 322.0 1353.5Q293 1319 293 1256Q293 1209 311.0 1170.0Q329 1131 356.0 1098.0Q383 1065 410.0 1034.5Q437 1004 455.5 973.5Q474 943 474 909V870L445 910H667Q687 910 698.0 902.0Q709 894 709 878Q709 856 686.5 841.0Q664 826 615 826H490Z"/><path transform="translate(345.49 158.00) scale(0.00950 -0.00950)" d="M967 577Q967 532 941.0 508.0Q915 484 866 484H243V549H648Q693 549 693 590Q693 731 645.0 802.5Q597 874 519 874Q457 874 410.5 836.0Q364 798 338.0 725.5Q312 653 312 550Q312 354 402.0 256.0Q492 158 640 158Q731 158 798.5 197.0Q866 236 898 307Q912 324 921.0 330.0Q930 336 939 336Q953 336 959.0 324.0Q965 312 965 295Q960 208 905.0 135.0Q850 62 757.0 19.0Q664 -24 544 -24Q403 -24 294.5 34.5Q186 93 125.0 199.0Q64 305 64 447Q64 597 123.0 711.5Q182 826 292.0 891.5Q402 957 554 957Q684 957 776.0 908.0Q868 859 917.5 773.5Q967 688 967 577Z"/></g><g fill="#1c1a17"><path transform="translate(304.84 182.00) scale(0.00950 -0.00950)" d="M122 849 68 863Q48 869 39.5 878.0Q31 887 31 900Q31 916 42.5 925.0Q54 934 72 934H139Q159 934 173.0 941.5Q187 949 202 969L327 1129Q344 1151 361.0 1161.5Q378 1172 394 1172Q412 1172 422.0 1160.5Q432 1149 432 1127V275Q432 203 460.0 165.5Q488 128 539 128Q572 128 592.0 140.5Q612 153 624.5 171.0Q637 189 648.5 204.5Q660 220 676 226Q688 228 696.0 219.5Q704 211 703 191Q700 132 665.0 84.5Q630 37 569.0 8.5Q508 -20 429 -20Q303 -20 232.0 42.5Q161 105 161 232V797Q161 819 152.5 830.5Q144 842 122 849ZM328 850 330 934H654Q675 934 686.0 926.0Q697 918 697 902Q697 880 674.5 865.0Q652 850 603 850Z"/><path transform="translate(311.91 182.00) scale(0.00950 -0.00950)" d="M582 956Q732 956 846.0 894.0Q960 832 1024.0 721.0Q1088 610 1088 464Q1088 324 1022.0 213.5Q956 103 840.0 39.5Q724 -24 571 -24Q421 -24 307.5 38.5Q194 101 129.5 212.0Q65 323 65 467Q65 609 131.0 719.0Q197 829 313.0 892.5Q429 956 582 956ZM648 64Q715 74 756.5 126.5Q798 179 809.5 272.5Q821 366 798 499Q776 631 734.0 717.0Q692 803 633.5 841.0Q575 879 505 869Q438 858 397.0 805.5Q356 753 345.0 659.5Q334 566 356 434Q378 303 420.5 216.5Q463 130 521.5 92.0Q580 54 648 64Z"/><path transform="translate(326.80 182.00) scale(0.00950 -0.00950)" d="M651 -29Q567 -29 508.0 -8.0Q449 13 412.5 33.5Q376 54 358 54Q341 54 327.5 41.0Q314 28 301.5 11.0Q289 -6 275.5 -19.0Q262 -32 244 -32Q226 -32 214.0 -20.5Q202 -9 197 16L128 362Q124 381 132.0 394.0Q140 407 158 414Q178 421 193.0 413.0Q208 405 219 383Q281 260 348.0 189.0Q415 118 486.5 88.0Q558 58 631 58Q734 58 794.0 112.5Q854 167 854 261Q855 320 827.5 369.5Q800 419 726.0 464.0Q652 509 510 556Q357 607 265.0 671.5Q173 736 131.5 821.5Q90 907 90 1018Q90 1139 148.5 1231.0Q207 1323 311.5 1374.0Q416 1425 555 1425Q644 1425 702.0 1406.0Q760 1387 797.0 1368.0Q834 1349 857 1349Q878 1349 892.5 1368.5Q907 1388 923.0 1408.0Q939 1428 964 1428Q982 1428 994.5 1416.0Q1007 1404 1017 1372L1113 1025Q1120 1003 1112.5 986.0Q1105 969 1086 962Q1066 956 1050.5 963.5Q1035 971 1025 991Q958 1123 885.5 1199.0Q813 1275 737.0 1307.0Q661 1339 584 1339Q481 1339 419.5 1279.0Q358 1219 358 1119Q358 1059 384.5 1008.0Q411 957 483.5 909.5Q556 862 691 813Q848 756 940.0 691.5Q1032 627 1072.0 547.5Q1112 468 1112 365Q1111 256 1056.5 166.5Q1002 77 899.5 24.0Q797 -29 651 -29Z"/><path transform="translate(338.21 182.00) scale(0.00950 -0.00950)" d="M451 1432V140Q451 113 459.0 100.0Q467 87 484 81L524 71Q552 60 552 37Q552 0 505 0H116Q92 0 81.0 9.5Q70 19 70 35Q70 47 78.0 56.0Q86 65 102 71L144 81Q162 87 170.0 99.5Q178 112 178 140V1277Q178 1299 171.0 1308.5Q164 1318 149 1321L94 1324Q78 1327 71.0 1335.0Q64 1343 64 1355Q64 1369 72.5 1377.5Q81 1386 103 1394L309 1464Q341 1476 360.5 1481.0Q380 1486 397 1486Q424 1486 437.5 1471.5Q451 1457 451 1432ZM422 680 383 721 422 755Q542 863 629.0 910.0Q716 957 793 957Q911 957 976.0 879.0Q1041 801 1055 667L1115 144Q1118 114 1125.5 100.0Q1133 86 1151 80L1189 71Q1206 65 1213.5 56.0Q1221 47 1221 35Q1221 19 1210.0 9.5Q1199 0 1175 0H781Q734 0 734 37Q734 60 762 71L803 81Q822 87 831.5 101.0Q841 115 838 144L783 629Q773 715 740.0 757.5Q707 800 641 800Q600 800 555.5 778.5Q511 757 462 715Z"/><path transform="translate(349.91 182.00) scale(0.00950 -0.00950)" d="M452 898V140Q452 113 460.0 99.5Q468 86 485 81L526 71Q543 66 550.5 57.0Q558 48 558 35Q558 19 547.0 9.5Q536 0 512 0H116Q93 0 82.0 9.5Q71 19 71 35Q71 47 78.5 56.0Q86 65 103 71L145 81Q162 87 170.5 99.5Q179 112 179 140V743Q179 765 172.0 774.5Q165 784 149 787L94 790Q79 793 72.0 801.0Q65 809 65 821Q65 835 73.5 843.5Q82 852 104 860L309 930Q343 942 362.5 947.0Q382 952 396 952Q424 952 438.0 937.5Q452 923 452 898ZM296 1100Q219 1100 172.5 1141.5Q126 1183 126 1249Q126 1315 173.0 1355.5Q220 1396 296 1396Q374 1396 421.0 1355.0Q468 1314 468 1249Q468 1183 421.0 1141.5Q374 1100 296 1100Z"/><path transform="translate(355.66 182.00) scale(0.00950 -0.00950)" d="M430 900V784L439 763V-326Q439 -354 447.5 -367.5Q456 -381 473 -385L528 -395Q544 -400 552.0 -409.5Q560 -419 560 -432Q560 -448 549.0 -457.0Q538 -466 514 -466H106Q82 -466 71.0 -457.0Q60 -448 60 -432Q60 -419 68.0 -410.0Q76 -401 92 -395L133 -385Q150 -380 158.0 -367.0Q166 -354 166 -326V744Q166 766 159.0 775.5Q152 785 137 788L82 791Q66 794 59.5 802.0Q53 810 53 822Q53 836 61.0 844.0Q69 852 92 861L288 931Q319 944 338.5 948.5Q358 953 374 953Q402 953 416.0 938.5Q430 924 430 900ZM390 664 351 713Q429 829 526.0 893.0Q623 957 742 957Q858 957 949.0 898.0Q1040 839 1092.0 734.5Q1144 630 1144 492Q1144 334 1082.5 218.0Q1021 102 915.0 39.0Q809 -24 677 -24Q562 -24 476.0 28.0Q390 80 334 181L393 229Q438 152 496.5 113.0Q555 74 623 74Q692 74 745.5 114.5Q799 155 830.0 241.0Q861 327 861 462Q861 589 831.5 671.0Q802 753 750.5 793.0Q699 833 633 833Q566 833 504.5 791.5Q443 750 390 664Z"/></g>
<rect x="456" y="118" width="176" height="92" rx="12" fill="#fffdf8" stroke="#c0441f" stroke-width="2"/><g fill="#1c1a17"><path transform="translate(503.81 158.00) scale(0.00950 -0.00950)" d="M656 1319 594 1306Q571 1300 559.0 1287.5Q547 1275 547 1254V150Q547 115 567.0 100.0Q587 85 628 85H798Q853 85 894.0 101.0Q935 117 969.5 158.0Q1004 199 1039 275L1107 423Q1117 444 1131.5 451.5Q1146 459 1165 454Q1186 450 1194.0 435.5Q1202 421 1195 397L1105 28Q1095 -5 1081.0 -20.0Q1067 -35 1041 -35Q1023 -35 1004.0 -26.5Q985 -18 961.0 -9.0Q937 0 902 0H148Q122 0 109.5 10.5Q97 21 97 39Q97 70 133 81L195 94Q219 100 231.0 112.5Q243 125 243 146V1254Q243 1275 231.0 1287.5Q219 1300 195 1306L133 1319Q97 1330 97 1361Q97 1380 109.5 1390.0Q122 1400 148 1400H642Q668 1400 680.0 1390.0Q692 1380 692 1361Q692 1330 656 1319Z"/><path transform="translate(515.55 158.00) scale(0.00950 -0.00950)" d="M967 577Q967 532 941.0 508.0Q915 484 866 484H243V549H648Q693 549 693 590Q693 731 645.0 802.5Q597 874 519 874Q457 874 410.5 836.0Q364 798 338.0 725.5Q312 653 312 550Q312 354 402.0 256.0Q492 158 640 158Q731 158 798.5 197.0Q866 236 898 307Q912 324 921.0 330.0Q930 336 939 336Q953 336 959.0 324.0Q965 312 965 295Q960 208 905.0 135.0Q850 62 757.0 19.0Q664 -24 544 -24Q403 -24 294.5 34.5Q186 93 125.0 199.0Q64 305 64 447Q64 597 123.0 711.5Q182 826 292.0 891.5Q402 957 554 957Q684 957 776.0 908.0Q868 859 917.5 773.5Q967 688 967 577Z"/><path transform="translate(525.33 158.00) scale(0.00950 -0.00950)" d="M661 121V139L644 141V747Q644 817 609.5 855.5Q575 894 512 894Q452 894 420.0 867.5Q388 841 388 804V717Q388 659 349.0 626.0Q310 593 241 593Q183 593 152.0 621.5Q121 650 121 701Q121 762 171.0 820.5Q221 879 318.5 917.5Q416 956 559 956Q739 956 827.0 882.5Q915 809 915 682V163Q915 133 926.5 118.5Q938 104 959 104Q980 104 991.5 115.0Q1003 126 1010 139Q1015 145 1020.0 149.0Q1025 153 1032 153Q1043 153 1048.0 145.5Q1053 138 1053 126Q1053 95 1030.5 60.5Q1008 26 963.0 1.5Q918 -23 849 -23Q762 -23 711.5 15.5Q661 54 661 121ZM78 207Q78 328 185.5 403.0Q293 478 492 478Q556 478 606.0 466.5Q656 455 693 437L674 384Q640 399 604.5 408.5Q569 418 527 418Q446 418 400.5 374.0Q355 330 355 251Q355 174 394.5 133.0Q434 92 497 92Q549 92 597.0 116.0Q645 140 677 182L697 134Q644 59 554.5 18.0Q465 -23 364 -23Q237 -23 157.5 40.5Q78 104 78 207Z"/><path transform="translate(535.60 158.00) scale(0.00950 -0.00950)" d="M420 524Q420 667 460.5 763.0Q501 859 566.5 908.0Q632 957 706 957Q798 957 847.5 904.0Q897 851 897 753Q897 666 860.5 623.5Q824 581 766 581Q709 581 679.0 612.0Q649 643 649 699L648 735Q648 766 634.5 781.5Q621 797 589 797Q555 797 523.0 768.0Q491 739 471.0 679.5Q451 620 451 527ZM438 897 451 650V142Q451 117 461.5 104.0Q472 91 498 87L587 73Q607 70 616.5 61.0Q626 52 626 35Q626 19 614.0 9.5Q602 0 579 0H116Q93 0 81.5 9.5Q70 19 70 35Q70 47 78.0 56.5Q86 66 103 71L145 81Q162 86 170.0 99.0Q178 112 178 139V742Q178 764 171.0 774.0Q164 784 149 786L93 789Q78 793 71.0 800.5Q64 808 64 820Q64 834 73.0 843.0Q82 852 104 859L306 926Q347 942 366.5 946.5Q386 951 397 951Q416 951 425.5 938.5Q435 926 438 897Z"/><path transform="translate(544.37 158.00) scale(0.00950 -0.00950)" d="M451 898V140Q451 113 459.0 100.0Q467 87 484 81L524 71Q552 60 552 37Q552 0 505 0H116Q92 0 81.0 9.5Q70 19 70 35Q70 47 77.5 56.0Q85 65 102 71L144 81Q162 87 170.0 99.5Q178 112 178 140V743Q178 765 171.0 774.5Q164 784 149 787L94 790Q78 793 71.0 801.0Q64 809 64 821Q64 835 72.5 843.5Q81 852 103 860L309 930Q341 942 360.5 947.0Q380 952 397 952Q424 952 437.5 937.5Q451 923 451 898ZM422 680 383 721 422 755Q542 863 629.0 910.0Q716 957 793 957Q910 957 975.5 879.0Q1041 801 1055 667L1115 144Q1118 114 1125.5 100.0Q1133 86 1151 80L1189 71Q1206 65 1213.5 56.0Q1221 47 1221 35Q1221 19 1210.0 9.5Q1199 0 1175 0H781Q734 0 734 37Q734 60 762 71L803 81Q822 87 831.5 101.0Q841 115 838 144L783 629Q773 715 740.0 757.5Q707 800 641 800Q600 800 555.5 778.5Q511 757 462 715Z"/><path transform="translate(556.07 158.00) scale(0.00950 -0.00950)" d="M452 898V140Q452 113 460.0 99.5Q468 86 485 81L526 71Q543 66 550.5 57.0Q558 48 558 35Q558 19 547.0 9.5Q536 0 512 0H116Q93 0 82.0 9.5Q71 19 71 35Q71 47 78.5 56.0Q86 65 103 71L145 81Q162 87 170.5 99.5Q179 112 179 140V743Q179 765 172.0 774.5Q165 784 149 787L94 790Q79 793 72.0 801.0Q65 809 65 821Q65 835 73.5 843.5Q82 852 104 860L309 930Q343 942 362.5 947.0Q382 952 396 952Q424 952 438.0 937.5Q452 923 452 898ZM296 1100Q219 1100 172.5 1141.5Q126 1183 126 1249Q126 1315 173.0 1355.5Q220 1396 296 1396Q374 1396 421.0 1355.0Q468 1314 468 1249Q468 1183 421.0 1141.5Q374 1100 296 1100Z"/><path transform="translate(561.82 158.00) scale(0.00950 -0.00950)" d="M451 898V140Q451 113 459.0 100.0Q467 87 484 81L524 71Q552 60 552 37Q552 0 505 0H116Q92 0 81.0 9.5Q70 19 70 35Q70 47 77.5 56.0Q85 65 102 71L144 81Q162 87 170.0 99.5Q178 112 178 140V743Q178 765 171.0 774.5Q164 784 149 787L94 790Q78 793 71.0 801.0Q64 809 64 821Q64 835 72.5 843.5Q81 852 103 860L309 930Q341 942 360.5 947.0Q380 952 397 952Q424 952 437.5 937.5Q451 923 451 898ZM422 680 383 721 422 755Q542 863 629.0 910.0Q716 957 793 957Q910 957 975.5 879.0Q1041 801 1055 667L1115 144Q1118 114 1125.5 100.0Q1133 86 1151 80L1189 71Q1206 65 1213.5 56.0Q1221 47 1221 35Q1221 19 1210.0 9.5Q1199 0 1175 0H781Q734 0 734 37Q734 60 762 71L803 81Q822 87 831.5 101.0Q841 115 838 144L783 629Q773 715 740.0 757.5Q707 800 641 800Q600 800 555.5 778.5Q511 757 462 715Z"/><path transform="translate(573.53 158.00) scale(0.00950 -0.00950)" d="M696 82Q561 103 500.0 119.5Q439 136 422.5 151.0Q406 166 406 182Q406 200 419.5 214.0Q433 228 461 240L444 255Q347 244 291.0 217.5Q235 191 212.0 154.5Q189 118 189 76Q189 28 217.5 -6.0Q246 -40 323.0 -66.0Q400 -92 544 -115Q664 -135 730.0 -156.0Q796 -177 822.5 -204.0Q849 -231 849 -267Q849 -313 821.0 -345.0Q793 -377 732.5 -394.0Q672 -411 574 -411Q401 -411 328.5 -354.5Q256 -298 256 -206Q256 -160 294.5 -122.5Q333 -85 407 -73L394 -46Q202 -70 126.5 -129.5Q51 -189 51 -268Q51 -332 97.5 -382.5Q144 -433 250.0 -461.5Q356 -490 534 -490Q801 -490 943.5 -404.0Q1086 -318 1086 -183Q1086 -110 1049.0 -58.5Q1012 -7 927.0 27.0Q842 61 696 82ZM717 863 773 856Q806 923 830.0 947.5Q854 972 885 972Q913 972 929.5 957.0Q946 942 959.5 922.0Q973 902 991.5 887.0Q1010 872 1042 872Q1087 872 1114.0 904.0Q1141 936 1141 989Q1141 1051 1101.5 1086.5Q1062 1122 998 1122Q922 1122 857.0 1071.5Q792 1021 746 922ZM1006 601Q1006 700 952.0 780.0Q898 860 798.0 907.0Q698 954 559 954Q416 954 309.0 905.5Q202 857 143.5 771.0Q85 685 85 571Q85 473 139.5 393.0Q194 313 295.5 266.0Q397 219 535 219Q676 219 782.0 267.5Q888 316 947.0 402.0Q1006 488 1006 601ZM509 881Q593 886 649.0 810.0Q705 734 720 591Q735 453 698.0 377.5Q661 302 580 296Q525 293 481.0 326.0Q437 359 408.5 425.5Q380 492 370 586Q360 678 373.0 742.5Q386 807 421.0 842.0Q456 877 509 881Z"/></g><g fill="#1c1a17"><path transform="translate(521.42 182.00) scale(0.00950 -0.00950)" d="M656 1319 594 1306Q571 1300 559.0 1287.5Q547 1275 547 1254V150Q547 115 567.0 100.0Q587 85 628 85H798Q853 85 894.0 101.0Q935 117 969.5 158.0Q1004 199 1039 275L1107 423Q1117 444 1131.5 451.5Q1146 459 1165 454Q1186 450 1194.0 435.5Q1202 421 1195 397L1105 28Q1095 -5 1081.0 -20.0Q1067 -35 1041 -35Q1023 -35 1004.0 -26.5Q985 -18 961.0 -9.0Q937 0 902 0H148Q122 0 109.5 10.5Q97 21 97 39Q97 70 133 81L195 94Q219 100 231.0 112.5Q243 125 243 146V1254Q243 1275 231.0 1287.5Q219 1300 195 1306L133 1319Q97 1330 97 1361Q97 1380 109.5 1390.0Q122 1400 148 1400H642Q668 1400 680.0 1390.0Q692 1380 692 1361Q692 1330 656 1319Z"/><path transform="translate(533.16 182.00) scale(0.00950 -0.00950)" d="M582 956Q732 956 846.0 894.0Q960 832 1024.0 721.0Q1088 610 1088 464Q1088 324 1022.0 213.5Q956 103 840.0 39.5Q724 -24 571 -24Q421 -24 307.5 38.5Q194 101 129.5 212.0Q65 323 65 467Q65 609 131.0 719.0Q197 829 313.0 892.5Q429 956 582 956ZM648 64Q715 74 756.5 126.5Q798 179 809.5 272.5Q821 366 798 499Q776 631 734.0 717.0Q692 803 633.5 841.0Q575 879 505 869Q438 858 397.0 805.5Q356 753 345.0 659.5Q334 566 356 434Q378 303 420.5 216.5Q463 130 521.5 92.0Q580 54 648 64Z"/><path transform="translate(544.12 182.00) scale(0.00950 -0.00950)" d="M582 956Q732 956 846.0 894.0Q960 832 1024.0 721.0Q1088 610 1088 464Q1088 324 1022.0 213.5Q956 103 840.0 39.5Q724 -24 571 -24Q421 -24 307.5 38.5Q194 101 129.5 212.0Q65 323 65 467Q65 609 131.0 719.0Q197 829 313.0 892.5Q429 956 582 956ZM648 64Q715 74 756.5 126.5Q798 179 809.5 272.5Q821 366 798 499Q776 631 734.0 717.0Q692 803 633.5 841.0Q575 879 505 869Q438 858 397.0 805.5Q356 753 345.0 659.5Q334 566 356 434Q378 303 420.5 216.5Q463 130 521.5 92.0Q580 54 648 64Z"/><path transform="translate(555.08 182.00) scale(0.00950 -0.00950)" d="M430 900V784L439 763V-326Q439 -354 447.5 -367.5Q456 -381 473 -385L528 -395Q544 -400 552.0 -409.5Q560 -419 560 -432Q560 -448 549.0 -457.0Q538 -466 514 -466H106Q82 -466 71.0 -457.0Q60 -448 60 -432Q60 -419 68.0 -410.0Q76 -401 92 -395L133 -385Q150 -380 158.0 -367.0Q166 -354 166 -326V744Q166 766 159.0 775.5Q152 785 137 788L82 791Q66 794 59.5 802.0Q53 810 53 822Q53 836 61.0 844.0Q69 852 92 861L288 931Q319 944 338.5 948.5Q358 953 374 953Q402 953 416.0 938.5Q430 924 430 900ZM390 664 351 713Q429 829 526.0 893.0Q623 957 742 957Q858 957 949.0 898.0Q1040 839 1092.0 734.5Q1144 630 1144 492Q1144 334 1082.5 218.0Q1021 102 915.0 39.0Q809 -24 677 -24Q562 -24 476.0 28.0Q390 80 334 181L393 229Q438 152 496.5 113.0Q555 74 623 74Q692 74 745.5 114.5Q799 155 830.0 241.0Q861 327 861 462Q861 589 831.5 671.0Q802 753 750.5 793.0Q699 833 633 833Q566 833 504.5 791.5Q443 750 390 664Z"/></g>
<g fill="#c0441f"><path transform="translate(222.81 174.00) scale(0.01700 -0.01700)" d="M117 682Q117 704 131.5 717.0Q146 730 166 730H917Q936 730 950.0 717.0Q964 704 964 682Q964 659 950.0 646.5Q936 634 917 634H165Q146 634 131.5 646.5Q117 659 117 682ZM537.0 273.0Q515.0 273.0 502.0 287.5Q489.0 302.0 489.0 322.0V1073.0Q489.0 1092.0 502.0 1106.0Q515.0 1120.0 537.0 1120.0Q560.0 1120.0 572.5 1106.0Q585.0 1092.0 585.0 1073.0V321.0Q585.0 302.0 572.5 287.5Q560.0 273.0 537.0 273.0Z"/></g>
<g fill="#c0441f"><path transform="translate(430.81 174.00) scale(0.01700 -0.01700)" d="M117 682Q117 704 131.5 717.0Q146 730 166 730H917Q936 730 950.0 717.0Q964 704 964 682Q964 659 950.0 646.5Q936 634 917 634H165Q146 634 131.5 646.5Q117 659 117 682ZM537.0 273.0Q515.0 273.0 502.0 287.5Q489.0 302.0 489.0 322.0V1073.0Q489.0 1092.0 502.0 1106.0Q515.0 1120.0 537.0 1120.0Q560.0 1120.0 572.5 1106.0Q585.0 1092.0 585.0 1073.0V321.0Q585.0 302.0 572.5 287.5Q560.0 273.0 537.0 273.0Z"/></g>
<line x1="640" y1="164.0" x2="662" y2="164.0" stroke="#c0441f" stroke-width="3"/><path d="M660 156.0 L676 164.0 L660 172.0 Z" fill="#c0441f"/>
<rect x="672" y="118" width="188" height="92" rx="12" fill="#c0441f" stroke="#9a3415" stroke-width="1.5"/>
<g fill="#fff"><path transform="translate(702.54 158.00) scale(0.00950 -0.00950)" d="M1322 377Q1319 302 1280.0 228.5Q1241 155 1168.5 95.0Q1096 35 994.5 -0.5Q893 -36 766 -36Q552 -36 397.0 56.5Q242 149 158.0 312.5Q74 476 74 689Q74 851 124.5 986.5Q175 1122 265.5 1222.5Q356 1323 479.0 1378.0Q602 1433 748 1433Q847 1433 910.0 1413.0Q973 1393 1009.0 1373.0Q1045 1353 1063 1353Q1086 1353 1101.0 1371.0Q1116 1389 1131.0 1407.0Q1146 1425 1168 1425Q1183 1425 1193.5 1415.5Q1204 1406 1211 1382L1315 1027Q1321 1007 1311.0 991.5Q1301 976 1281 972Q1261 968 1245.0 976.0Q1229 984 1219 1006Q1165 1129 1099.0 1202.5Q1033 1276 956.5 1308.0Q880 1340 792 1340Q703 1340 628.0 1300.0Q553 1260 498.5 1184.0Q444 1108 414.0 1001.0Q384 894 384 760Q384 553 446.5 410.5Q509 268 617.5 195.0Q726 122 865 122Q1001 122 1100.0 190.0Q1199 258 1249 381Q1259 401 1270.5 408.0Q1282 415 1296 412Q1309 410 1315.5 401.0Q1322 392 1322 377Z"/><path transform="translate(715.68 158.00) scale(0.00950 -0.00950)" d="M582 956Q732 956 846.0 894.0Q960 832 1024.0 721.0Q1088 610 1088 464Q1088 324 1022.0 213.5Q956 103 840.0 39.5Q724 -24 571 -24Q421 -24 307.5 38.5Q194 101 129.5 212.0Q65 323 65 467Q65 609 131.0 719.0Q197 829 313.0 892.5Q429 956 582 956ZM648 64Q715 74 756.5 126.5Q798 179 809.5 272.5Q821 366 798 499Q776 631 734.0 717.0Q692 803 633.5 841.0Q575 879 505 869Q438 858 397.0 805.5Q356 753 345.0 659.5Q334 566 356 434Q378 303 420.5 216.5Q463 130 521.5 92.0Q580 54 648 64Z"/><path transform="translate(726.64 158.00) scale(0.00950 -0.00950)" d="M451 898V140Q451 113 459.5 99.5Q468 86 484 81L524 71Q552 60 552 37Q552 0 505 0H116Q92 0 81.0 9.5Q70 19 70 35Q70 47 78.0 56.0Q86 65 102 71L144 81Q162 87 170.0 99.5Q178 112 178 139V743Q178 765 171.0 774.5Q164 784 149 787L93 790Q78 793 71.0 801.0Q64 809 64 820Q64 834 72.5 843.0Q81 852 103 860L309 930Q340 942 360.0 947.0Q380 952 397 952Q424 952 437.5 937.0Q451 922 451 898ZM422 680 383 720 422 754Q544 867 634.5 912.0Q725 957 806 957Q929 957 1003.5 879.0Q1078 801 1078 664V142Q1078 113 1087.0 99.5Q1096 86 1114 80L1149 70Q1176 59 1176 37Q1176 0 1129 0H749Q703 0 703 37Q703 60 730 71L770 81Q789 86 797.0 101.0Q805 116 805 145V626Q805 713 764.0 756.5Q723 800 652 800Q607 800 559.5 779.5Q512 759 461 715ZM1048 680 1009 720 1047 755Q1161 863 1246.5 910.0Q1332 957 1410 957Q1528 957 1595.0 878.5Q1662 800 1676 664L1736 142Q1739 113 1746.5 99.0Q1754 85 1772 80L1808 71Q1824 65 1831.5 56.0Q1839 47 1839 35Q1839 19 1828.0 9.5Q1817 0 1794 0H1403Q1356 0 1356 37Q1356 60 1383 71L1423 81Q1442 86 1452.0 101.0Q1462 116 1459 145L1404 626Q1394 712 1359.5 756.0Q1325 800 1259 800Q1219 800 1176.5 778.5Q1134 757 1086 715Z"/><path transform="translate(744.24 158.00) scale(0.00950 -0.00950)" d="M430 900V784L439 763V-326Q439 -354 447.5 -367.5Q456 -381 473 -385L528 -395Q544 -400 552.0 -409.5Q560 -419 560 -432Q560 -448 549.0 -457.0Q538 -466 514 -466H106Q82 -466 71.0 -457.0Q60 -448 60 -432Q60 -419 68.0 -410.0Q76 -401 92 -395L133 -385Q150 -380 158.0 -367.0Q166 -354 166 -326V744Q166 766 159.0 775.5Q152 785 137 788L82 791Q66 794 59.5 802.0Q53 810 53 822Q53 836 61.0 844.0Q69 852 92 861L288 931Q319 944 338.5 948.5Q358 953 374 953Q402 953 416.0 938.5Q430 924 430 900ZM390 664 351 713Q429 829 526.0 893.0Q623 957 742 957Q858 957 949.0 898.0Q1040 839 1092.0 734.5Q1144 630 1144 492Q1144 334 1082.5 218.0Q1021 102 915.0 39.0Q809 -24 677 -24Q562 -24 476.0 28.0Q390 80 334 181L393 229Q438 152 496.5 113.0Q555 74 623 74Q692 74 745.5 114.5Q799 155 830.0 241.0Q861 327 861 462Q861 589 831.5 671.0Q802 753 750.5 793.0Q699 833 633 833Q566 833 504.5 791.5Q443 750 390 664Z"/><path transform="translate(755.73 158.00) scale(0.00950 -0.00950)" d="M582 956Q732 956 846.0 894.0Q960 832 1024.0 721.0Q1088 610 1088 464Q1088 324 1022.0 213.5Q956 103 840.0 39.5Q724 -24 571 -24Q421 -24 307.5 38.5Q194 101 129.5 212.0Q65 323 65 467Q65 609 131.0 719.0Q197 829 313.0 892.5Q429 956 582 956ZM648 64Q715 74 756.5 126.5Q798 179 809.5 272.5Q821 366 798 499Q776 631 734.0 717.0Q692 803 633.5 841.0Q575 879 505 869Q438 858 397.0 805.5Q356 753 345.0 659.5Q334 566 356 434Q378 303 420.5 216.5Q463 130 521.5 92.0Q580 54 648 64Z"/><path transform="translate(766.69 158.00) scale(0.00950 -0.00950)" d="M782 122V187L774 191V742Q774 764 767.5 773.5Q761 783 745 786L690 789Q675 792 668.0 800.0Q661 808 661 820Q661 834 669.5 842.5Q678 851 700 859L905 929Q937 941 957.0 946.0Q977 951 994 951Q1020 951 1034.0 936.5Q1048 922 1048 897V140Q1048 113 1056.0 99.5Q1064 86 1081 81L1122 71Q1139 66 1146.5 57.0Q1154 48 1154 35Q1154 19 1143.0 9.5Q1132 0 1108 0H890Q843 0 812.5 34.0Q782 68 782 122ZM156 270V742Q156 764 149.0 773.5Q142 783 127 786L72 789Q56 792 49.0 800.0Q42 808 42 820Q42 834 50.5 842.5Q59 851 81 859L287 929Q320 941 339.5 946.0Q359 951 373 951Q401 951 415.0 936.5Q429 922 429 897V308Q429 220 471.0 176.5Q513 133 583 133Q627 133 675.5 154.0Q724 175 775 219L815 253L853 213L815 179Q693 67 601.5 22.0Q510 -23 429 -23Q307 -23 231.5 55.0Q156 133 156 270Z"/><path transform="translate(778.24 158.00) scale(0.00950 -0.00950)" d="M451 898V140Q451 113 459.0 100.0Q467 87 484 81L524 71Q552 60 552 37Q552 0 505 0H116Q92 0 81.0 9.5Q70 19 70 35Q70 47 77.5 56.0Q85 65 102 71L144 81Q162 87 170.0 99.5Q178 112 178 140V743Q178 765 171.0 774.5Q164 784 149 787L94 790Q78 793 71.0 801.0Q64 809 64 821Q64 835 72.5 843.5Q81 852 103 860L309 930Q341 942 360.5 947.0Q380 952 397 952Q424 952 437.5 937.5Q451 923 451 898ZM422 680 383 721 422 755Q542 863 629.0 910.0Q716 957 793 957Q910 957 975.5 879.0Q1041 801 1055 667L1115 144Q1118 114 1125.5 100.0Q1133 86 1151 80L1189 71Q1206 65 1213.5 56.0Q1221 47 1221 35Q1221 19 1210.0 9.5Q1199 0 1175 0H781Q734 0 734 37Q734 60 762 71L803 81Q822 87 831.5 101.0Q841 115 838 144L783 629Q773 715 740.0 757.5Q707 800 641 800Q600 800 555.5 778.5Q511 757 462 715Z"/><path transform="translate(789.94 158.00) scale(0.00950 -0.00950)" d="M777 157 770 162V1277Q770 1299 763.0 1308.5Q756 1318 741 1321L686 1324Q670 1327 663.5 1335.0Q657 1343 657 1355Q657 1369 665.0 1377.5Q673 1386 696 1394L901 1464Q933 1476 952.5 1481.0Q972 1486 989 1486Q1016 1486 1029.5 1471.5Q1043 1457 1043 1432V140Q1043 113 1051.0 99.5Q1059 86 1076 81L1117 71Q1134 66 1142.0 57.0Q1150 48 1150 35Q1150 19 1138.5 9.5Q1127 0 1103 0H880Q836 0 806.5 28.5Q777 57 777 103ZM66 441Q66 599 128.0 714.5Q190 830 296.5 893.5Q403 957 534 957Q649 957 735.5 904.5Q822 852 878 753L819 704Q774 781 715.0 820.0Q656 859 586 859Q518 859 464.5 818.0Q411 777 380.0 691.5Q349 606 349 470Q349 344 378.5 262.5Q408 181 459.5 141.0Q511 101 577 101Q645 101 706.0 141.5Q767 182 819 267L858 219Q780 103 683.5 39.5Q587 -24 469 -24Q353 -24 261.5 35.0Q170 94 118.0 198.5Q66 303 66 441Z"/><path transform="translate(801.35 158.00) scale(0.00950 -0.00950)" d="M452 898V140Q452 113 460.0 99.5Q468 86 485 81L526 71Q543 66 550.5 57.0Q558 48 558 35Q558 19 547.0 9.5Q536 0 512 0H116Q93 0 82.0 9.5Q71 19 71 35Q71 47 78.5 56.0Q86 65 103 71L145 81Q162 87 170.5 99.5Q179 112 179 140V743Q179 765 172.0 774.5Q165 784 149 787L94 790Q79 793 72.0 801.0Q65 809 65 821Q65 835 73.5 843.5Q82 852 104 860L309 930Q343 942 362.5 947.0Q382 952 396 952Q424 952 438.0 937.5Q452 923 452 898ZM296 1100Q219 1100 172.5 1141.5Q126 1183 126 1249Q126 1315 173.0 1355.5Q220 1396 296 1396Q374 1396 421.0 1355.0Q468 1314 468 1249Q468 1183 421.0 1141.5Q374 1100 296 1100Z"/><path transform="translate(807.10 158.00) scale(0.00950 -0.00950)" d="M451 898V140Q451 113 459.0 100.0Q467 87 484 81L524 71Q552 60 552 37Q552 0 505 0H116Q92 0 81.0 9.5Q70 19 70 35Q70 47 77.5 56.0Q85 65 102 71L144 81Q162 87 170.0 99.5Q178 112 178 140V743Q178 765 171.0 774.5Q164 784 149 787L94 790Q78 793 71.0 801.0Q64 809 64 821Q64 835 72.5 843.5Q81 852 103 860L309 930Q341 942 360.5 947.0Q380 952 397 952Q424 952 437.5 937.5Q451 923 451 898ZM422 680 383 721 422 755Q542 863 629.0 910.0Q716 957 793 957Q910 957 975.5 879.0Q1041 801 1055 667L1115 144Q1118 114 1125.5 100.0Q1133 86 1151 80L1189 71Q1206 65 1213.5 56.0Q1221 47 1221 35Q1221 19 1210.0 9.5Q1199 0 1175 0H781Q734 0 734 37Q734 60 762 71L803 81Q822 87 831.5 101.0Q841 115 838 144L783 629Q773 715 740.0 757.5Q707 800 641 800Q600 800 555.5 778.5Q511 757 462 715Z"/><path transform="translate(818.80 158.00) scale(0.00950 -0.00950)" d="M696 82Q561 103 500.0 119.5Q439 136 422.5 151.0Q406 166 406 182Q406 200 419.5 214.0Q433 228 461 240L444 255Q347 244 291.0 217.5Q235 191 212.0 154.5Q189 118 189 76Q189 28 217.5 -6.0Q246 -40 323.0 -66.0Q400 -92 544 -115Q664 -135 730.0 -156.0Q796 -177 822.5 -204.0Q849 -231 849 -267Q849 -313 821.0 -345.0Q793 -377 732.5 -394.0Q672 -411 574 -411Q401 -411 328.5 -354.5Q256 -298 256 -206Q256 -160 294.5 -122.5Q333 -85 407 -73L394 -46Q202 -70 126.5 -129.5Q51 -189 51 -268Q51 -332 97.5 -382.5Q144 -433 250.0 -461.5Q356 -490 534 -490Q801 -490 943.5 -404.0Q1086 -318 1086 -183Q1086 -110 1049.0 -58.5Q1012 -7 927.0 27.0Q842 61 696 82ZM717 863 773 856Q806 923 830.0 947.5Q854 972 885 972Q913 972 929.5 957.0Q946 942 959.5 922.0Q973 902 991.5 887.0Q1010 872 1042 872Q1087 872 1114.0 904.0Q1141 936 1141 989Q1141 1051 1101.5 1086.5Q1062 1122 998 1122Q922 1122 857.0 1071.5Q792 1021 746 922ZM1006 601Q1006 700 952.0 780.0Q898 860 798.0 907.0Q698 954 559 954Q416 954 309.0 905.5Q202 857 143.5 771.0Q85 685 85 571Q85 473 139.5 393.0Q194 313 295.5 266.0Q397 219 535 219Q676 219 782.0 267.5Q888 316 947.0 402.0Q1006 488 1006 601ZM509 881Q593 886 649.0 810.0Q705 734 720 591Q735 453 698.0 377.5Q661 302 580 296Q525 293 481.0 326.0Q437 359 408.5 425.5Q380 492 370 586Q360 678 373.0 742.5Q386 807 421.0 842.0Q456 877 509 881Z"/></g>
<g fill="#fff"><path transform="translate(720.41 182.00) scale(0.00950 -0.00950)" d="M1322 377Q1319 302 1280.0 228.5Q1241 155 1168.5 95.0Q1096 35 994.5 -0.5Q893 -36 766 -36Q552 -36 397.0 56.5Q242 149 158.0 312.5Q74 476 74 689Q74 851 124.5 986.5Q175 1122 265.5 1222.5Q356 1323 479.0 1378.0Q602 1433 748 1433Q847 1433 910.0 1413.0Q973 1393 1009.0 1373.0Q1045 1353 1063 1353Q1086 1353 1101.0 1371.0Q1116 1389 1131.0 1407.0Q1146 1425 1168 1425Q1183 1425 1193.5 1415.5Q1204 1406 1211 1382L1315 1027Q1321 1007 1311.0 991.5Q1301 976 1281 972Q1261 968 1245.0 976.0Q1229 984 1219 1006Q1165 1129 1099.0 1202.5Q1033 1276 956.5 1308.0Q880 1340 792 1340Q703 1340 628.0 1300.0Q553 1260 498.5 1184.0Q444 1108 414.0 1001.0Q384 894 384 760Q384 553 446.5 410.5Q509 268 617.5 195.0Q726 122 865 122Q1001 122 1100.0 190.0Q1199 258 1249 381Q1259 401 1270.5 408.0Q1282 415 1296 412Q1309 410 1315.5 401.0Q1322 392 1322 377Z"/><path transform="translate(733.55 182.00) scale(0.00950 -0.00950)" d="M661 121V139L644 141V747Q644 817 609.5 855.5Q575 894 512 894Q452 894 420.0 867.5Q388 841 388 804V717Q388 659 349.0 626.0Q310 593 241 593Q183 593 152.0 621.5Q121 650 121 701Q121 762 171.0 820.5Q221 879 318.5 917.5Q416 956 559 956Q739 956 827.0 882.5Q915 809 915 682V163Q915 133 926.5 118.5Q938 104 959 104Q980 104 991.5 115.0Q1003 126 1010 139Q1015 145 1020.0 149.0Q1025 153 1032 153Q1043 153 1048.0 145.5Q1053 138 1053 126Q1053 95 1030.5 60.5Q1008 26 963.0 1.5Q918 -23 849 -23Q762 -23 711.5 15.5Q661 54 661 121ZM78 207Q78 328 185.5 403.0Q293 478 492 478Q556 478 606.0 466.5Q656 455 693 437L674 384Q640 399 604.5 408.5Q569 418 527 418Q446 418 400.5 374.0Q355 330 355 251Q355 174 394.5 133.0Q434 92 497 92Q549 92 597.0 116.0Q645 140 677 182L697 134Q644 59 554.5 18.0Q465 -23 364 -23Q237 -23 157.5 40.5Q78 104 78 207Z"/><path transform="translate(743.82 182.00) scale(0.00950 -0.00950)" d="M430 900V784L439 763V-326Q439 -354 447.5 -367.5Q456 -381 473 -385L528 -395Q544 -400 552.0 -409.5Q560 -419 560 -432Q560 -448 549.0 -457.0Q538 -466 514 -466H106Q82 -466 71.0 -457.0Q60 -448 60 -432Q60 -419 68.0 -410.0Q76 -401 92 -395L133 -385Q150 -380 158.0 -367.0Q166 -354 166 -326V744Q166 766 159.0 775.5Q152 785 137 788L82 791Q66 794 59.5 802.0Q53 810 53 822Q53 836 61.0 844.0Q69 852 92 861L288 931Q319 944 338.5 948.5Q358 953 374 953Q402 953 416.0 938.5Q430 924 430 900ZM390 664 351 713Q429 829 526.0 893.0Q623 957 742 957Q858 957 949.0 898.0Q1040 839 1092.0 734.5Q1144 630 1144 492Q1144 334 1082.5 218.0Q1021 102 915.0 39.0Q809 -24 677 -24Q562 -24 476.0 28.0Q390 80 334 181L393 229Q438 152 496.5 113.0Q555 74 623 74Q692 74 745.5 114.5Q799 155 830.0 241.0Q861 327 861 462Q861 589 831.5 671.0Q802 753 750.5 793.0Q699 833 633 833Q566 833 504.5 791.5Q443 750 390 664Z"/><path transform="translate(755.31 182.00) scale(0.00950 -0.00950)" d="M661 121V139L644 141V747Q644 817 609.5 855.5Q575 894 512 894Q452 894 420.0 867.5Q388 841 388 804V717Q388 659 349.0 626.0Q310 593 241 593Q183 593 152.0 621.5Q121 650 121 701Q121 762 171.0 820.5Q221 879 318.5 917.5Q416 956 559 956Q739 956 827.0 882.5Q915 809 915 682V163Q915 133 926.5 118.5Q938 104 959 104Q980 104 991.5 115.0Q1003 126 1010 139Q1015 145 1020.0 149.0Q1025 153 1032 153Q1043 153 1048.0 145.5Q1053 138 1053 126Q1053 95 1030.5 60.5Q1008 26 963.0 1.5Q918 -23 849 -23Q762 -23 711.5 15.5Q661 54 661 121ZM78 207Q78 328 185.5 403.0Q293 478 492 478Q556 478 606.0 466.5Q656 455 693 437L674 384Q640 399 604.5 408.5Q569 418 527 418Q446 418 400.5 374.0Q355 330 355 251Q355 174 394.5 133.0Q434 92 497 92Q549 92 597.0 116.0Q645 140 677 182L697 134Q644 59 554.5 18.0Q465 -23 364 -23Q237 -23 157.5 40.5Q78 104 78 207Z"/><path transform="translate(765.58 182.00) scale(0.00950 -0.00950)" d="M411 1432V101L277 6Q236 -10 217.5 -15.5Q199 -21 182 -21Q162 -21 150.0 -10.0Q138 1 138 23V1277Q138 1299 131.0 1308.5Q124 1318 109 1321L54 1324Q38 1327 31.0 1335.0Q24 1343 24 1355Q24 1369 32.5 1377.5Q41 1386 63 1394L269 1464Q302 1476 321.5 1481.0Q341 1486 355 1486Q383 1486 397.0 1471.5Q411 1457 411 1432ZM362 666 323 714Q401 831 497.5 894.0Q594 957 712 957Q828 957 919.0 898.0Q1010 839 1062.5 734.5Q1115 630 1115 492Q1115 335 1053.5 219.0Q992 103 886.0 39.5Q780 -24 647 -24Q532 -24 445.5 28.5Q359 81 303 180L362 228Q407 152 466.0 113.0Q525 74 594 74Q662 74 715.5 114.5Q769 155 800.0 241.5Q831 328 831 463Q831 589 801.5 671.0Q772 753 721.0 793.0Q670 833 604 833Q537 833 475.5 792.0Q414 751 362 666Z"/><path transform="translate(776.79 182.00) scale(0.00950 -0.00950)" d="M452 898V140Q452 113 460.0 99.5Q468 86 485 81L526 71Q543 66 550.5 57.0Q558 48 558 35Q558 19 547.0 9.5Q536 0 512 0H116Q93 0 82.0 9.5Q71 19 71 35Q71 47 78.5 56.0Q86 65 103 71L145 81Q162 87 170.5 99.5Q179 112 179 140V743Q179 765 172.0 774.5Q165 784 149 787L94 790Q79 793 72.0 801.0Q65 809 65 821Q65 835 73.5 843.5Q82 852 104 860L309 930Q343 942 362.5 947.0Q382 952 396 952Q424 952 438.0 937.5Q452 923 452 898ZM296 1100Q219 1100 172.5 1141.5Q126 1183 126 1249Q126 1315 173.0 1355.5Q220 1396 296 1396Q374 1396 421.0 1355.0Q468 1314 468 1249Q468 1183 421.0 1141.5Q374 1100 296 1100Z"/><path transform="translate(782.54 182.00) scale(0.00950 -0.00950)" d="M453 1432V140Q453 113 461.0 99.5Q469 86 486 81L527 71Q544 66 552.0 57.0Q560 48 560 35Q560 19 548.5 9.5Q537 0 513 0H118Q94 0 83.0 9.5Q72 19 72 35Q72 47 80.0 56.0Q88 65 104 71L146 81Q164 87 172.0 99.5Q180 112 180 140V1277Q180 1299 173.0 1308.5Q166 1318 151 1321L96 1324Q80 1327 73.0 1335.0Q66 1343 66 1355Q66 1369 74.5 1377.5Q83 1386 105 1394L311 1464Q344 1476 363.5 1481.0Q383 1486 397 1486Q425 1486 439.0 1471.5Q453 1457 453 1432Z"/><path transform="translate(788.33 182.00) scale(0.00950 -0.00950)" d="M452 898V140Q452 113 460.0 99.5Q468 86 485 81L526 71Q543 66 550.5 57.0Q558 48 558 35Q558 19 547.0 9.5Q536 0 512 0H116Q93 0 82.0 9.5Q71 19 71 35Q71 47 78.5 56.0Q86 65 103 71L145 81Q162 87 170.5 99.5Q179 112 179 140V743Q179 765 172.0 774.5Q165 784 149 787L94 790Q79 793 72.0 801.0Q65 809 65 821Q65 835 73.5 843.5Q82 852 104 860L309 930Q343 942 362.5 947.0Q382 952 396 952Q424 952 438.0 937.5Q452 923 452 898ZM296 1100Q219 1100 172.5 1141.5Q126 1183 126 1249Q126 1315 173.0 1355.5Q220 1396 296 1396Q374 1396 421.0 1355.0Q468 1314 468 1249Q468 1183 421.0 1141.5Q374 1100 296 1100Z"/><path transform="translate(794.08 182.00) scale(0.00950 -0.00950)" d="M122 849 68 863Q48 869 39.5 878.0Q31 887 31 900Q31 916 42.5 925.0Q54 934 72 934H139Q159 934 173.0 941.5Q187 949 202 969L327 1129Q344 1151 361.0 1161.5Q378 1172 394 1172Q412 1172 422.0 1160.5Q432 1149 432 1127V275Q432 203 460.0 165.5Q488 128 539 128Q572 128 592.0 140.5Q612 153 624.5 171.0Q637 189 648.5 204.5Q660 220 676 226Q688 228 696.0 219.5Q704 211 703 191Q700 132 665.0 84.5Q630 37 569.0 8.5Q508 -20 429 -20Q303 -20 232.0 42.5Q161 105 161 232V797Q161 819 152.5 830.5Q144 842 122 849ZM328 850 330 934H654Q675 934 686.0 926.0Q697 918 697 902Q697 880 674.5 865.0Q652 850 603 850Z"/><path transform="translate(801.15 182.00) scale(0.00950 -0.00950)" d="M674 160 531 -117 134 772Q115 816 94.5 834.5Q74 853 35 863Q18 868 11.0 876.5Q4 885 4 899Q4 915 16.0 924.5Q28 934 49 934H497Q518 934 530.0 924.5Q542 915 542 899Q542 885 534.0 876.5Q526 868 507 864L463 856Q422 847 414.5 824.0Q407 801 430 746ZM487 -169 556 3 588 66 851 731Q874 789 865.5 815.5Q857 842 813 852L769 862Q750 866 741.5 875.5Q733 885 733 899Q733 915 745.0 924.5Q757 934 778 934H1054Q1075 934 1087.0 924.5Q1099 915 1099 899Q1099 887 1091.5 878.0Q1084 869 1065 862Q1019 849 994.5 825.5Q970 802 948 746L587 -153Q536 -280 492.0 -351.0Q448 -422 397.0 -450.5Q346 -479 271 -479Q163 -479 99.5 -420.0Q36 -361 36 -276Q36 -214 66.0 -179.5Q96 -145 146 -145Q194 -145 220.0 -174.0Q246 -203 263 -253L275 -292Q283 -326 300.5 -345.0Q318 -364 342 -364Q365 -364 385.5 -347.5Q406 -331 430.5 -288.5Q455 -246 487 -169Z"/></g>
<g class="st" font-style="italic" font-size="15.5" fill="#6f685a">
<g fill="#000"><path transform="translate(358.85 258.00) scale(0.00800 -0.00800)" d="M851 70Q930 70 1002.0 82.5Q1074 95 1147 122L1101 85L1240 354H1293L1260 58Q1193 25 1081.0 2.5Q969 -20 843 -20Q676 -20 538.5 26.0Q401 72 301.5 160.0Q202 248 148.0 373.5Q94 499 94 658Q94 871 187.5 1029.0Q281 1187 457.0 1273.5Q633 1360 880 1360Q942 1360 1003.0 1352.5Q1064 1345 1149 1325L1095 1315L1220 1398H1238L1296 940L1250 931L1088 1230L1128 1190Q1044 1235 977.0 1251.5Q910 1268 833 1268Q692 1268 585.5 1230.5Q479 1193 408.0 1122.5Q337 1052 301.0 951.5Q265 851 265 725Q265 568 309.0 446.5Q353 325 432.0 241.0Q511 157 618.0 113.5Q725 70 851 70Z"/><path transform="translate(369.90 258.00) scale(0.00800 -0.00800)" d="M602 37 757 85V558Q757 612 734.0 651.5Q711 691 666.0 712.5Q621 734 556 734Q477 734 409.5 704.5Q342 675 316 634L277 666Q330 723 377.5 762.5Q425 802 470.5 826.0Q516 850 564.0 861.0Q612 872 665 872Q786 872 844.5 794.5Q903 717 903 549V85L1057 37V0H602ZM481 0H28V37L180 85V1218Q167 1234 146.0 1250.0Q125 1266 95.0 1282.5Q65 1299 26 1315V1335L316 1419H336L326 1259V85L481 37Z"/><path transform="translate(378.48 258.00) scale(0.00800 -0.00800)" d="M474 872Q571 872 642.0 829.0Q713 786 755.5 703.5Q798 621 808 502H196L198 569L712 593L644 551Q637 623 615.5 677.5Q594 732 556.0 762.5Q518 793 459 793Q389 793 336.0 754.5Q283 716 253.5 642.0Q224 568 224 461Q224 350 267.5 269.0Q311 188 389.0 144.0Q467 100 571 100Q609 100 645.5 110.0Q682 120 718.0 140.0Q754 160 788 189L813 162Q763 100 711.0 59.5Q659 19 601.0 -0.5Q543 -20 476 -20Q360 -20 269.5 36.5Q179 93 127.0 191.0Q75 289 75 414Q75 540 123.0 644.0Q171 748 260.5 810.0Q350 872 474 872Z"/><path transform="translate(385.52 258.00) scale(0.00800 -0.00800)" d="M602 543 618 473Q500 446 425.0 418.5Q350 391 308.0 362.0Q266 333 249.5 300.5Q233 268 233 229Q233 161 273.5 125.0Q314 89 372 89Q419 89 458.0 113.0Q497 137 520.5 176.0Q544 215 544 260V620Q544 692 507.0 735.0Q470 778 385 778Q355 778 316.0 768.5Q277 759 240 740L291 786Q288 758 282.5 730.0Q277 702 269.5 680.0Q262 658 251 646Q235 629 211.0 621.0Q187 613 163 613Q132 613 114.0 627.5Q96 642 96 664Q96 695 126.5 729.5Q157 764 207.5 794.5Q258 825 320.0 844.0Q382 863 446 863Q533 863 587.0 836.5Q641 810 665.5 758.5Q690 707 690 632V175Q690 144 699.0 123.5Q708 103 725.5 92.5Q743 82 769 82Q792 82 818.5 91.0Q845 100 870 115V69Q829 24 783.5 3.0Q738 -18 699 -18Q651 -18 616.5 3.5Q582 25 564.0 65.5Q546 106 546 161L552 171Q539 115 503.5 72.0Q468 29 418.5 4.5Q369 -20 313 -20Q213 -20 148.0 36.0Q83 92 83 197Q83 253 105.5 299.0Q128 345 185.0 385.5Q242 426 343.5 464.5Q445 503 602 543Z"/><path transform="translate(392.43 258.00) scale(0.00800 -0.00800)" d="M836 422Q836 587 758.5 675.5Q681 764 556 764Q498 764 445.5 754.0Q393 744 347.0 724.0Q301 704 261 673V744Q317 779 367.5 803.0Q418 827 463.0 842.5Q508 858 547.5 865.0Q587 872 620 872Q746 872 831.5 821.0Q917 770 961.0 679.5Q1005 589 1005 470Q1005 319 940.5 209.0Q876 99 769.5 39.5Q663 -20 536 -20Q488 -20 442.0 -12.0Q396 -4 347.0 12.5Q298 29 242 57H326V-425L496 -473V-510H28V-473L180 -425V674Q167 688 146.5 699.0Q126 710 97.5 721.5Q69 733 32 745V770L275 872H296L326 749V256Q326 201 355.5 157.0Q385 113 439.5 88.0Q494 63 568 63Q653 63 712.5 107.0Q772 151 804.0 232.0Q836 313 836 422Z"/><path transform="translate(404.63 258.00) scale(0.00800 -0.00800)" d="M1216 772 1086 809V852H1405V809L1298 772L1042 -20H994L697 678H734L442 -20H394L129 762L5 809V852H411V809L281 767L481 170H444L736 872H770L1070 170H1033Z"/><path transform="translate(416.05 258.00) scale(0.00800 -0.00800)" d="M267 1181Q214 1181 180.5 1215.5Q147 1250 147 1300Q147 1350 180.5 1384.5Q214 1419 267 1419Q320 1419 353.5 1384.5Q387 1350 387 1300Q387 1250 353.5 1215.5Q320 1181 267 1181ZM356 872 350 710V85L505 37V0H52V37L204 85V686Q193 698 169.5 712.5Q146 727 116.5 741.0Q87 755 56 764V795L338 872Z"/><path transform="translate(420.32 258.00) scale(0.00800 -0.00800)" d="M306 240Q306 173 346.5 139.5Q387 106 462 106Q497 106 538.0 113.0Q579 120 627 134V87Q569 46 525.5 23.5Q482 1 447.0 -7.5Q412 -16 378 -16Q312 -16 263.0 8.5Q214 33 187.0 81.5Q160 130 160 201V717L52 792V810Q74 826 95.5 842.5Q117 859 139.0 876.0Q161 893 183.0 910.5Q205 928 228.0 946.0Q251 964 275 983H306V822ZM249 760V852H598L582 760Z"/><path transform="translate(425.47 258.00) scale(0.00800 -0.00800)" d="M602 37 757 85V558Q757 612 734.0 651.5Q711 691 666.0 712.5Q621 734 556 734Q477 734 409.5 704.5Q342 675 316 634L277 666Q330 723 377.5 762.5Q425 802 470.5 826.0Q516 850 564.0 861.0Q612 872 665 872Q786 872 844.5 794.5Q903 717 903 549V85L1057 37V0H602ZM481 0H28V37L180 85V1218Q167 1234 146.0 1250.0Q125 1266 95.0 1282.5Q65 1299 26 1315V1335L316 1419H336L326 1259V85L481 37Z"/><path transform="translate(434.05 258.00) scale(0.00800 -0.00800)" d="M508 57Q583 57 642.0 93.5Q701 130 735.0 206.5Q769 283 769 402Q769 530 735.5 617.5Q702 705 642.0 750.0Q582 795 501 795Q426 795 367.0 758.5Q308 722 274.0 645.5Q240 569 240 450Q240 323 273.5 235.0Q307 147 367.5 102.0Q428 57 508 57ZM502 -20Q376 -20 279.5 35.5Q183 91 129.0 189.5Q75 288 75 416Q75 548 131.5 651.0Q188 754 285.5 813.0Q383 872 507 872Q634 872 730.0 816.5Q826 761 880.0 663.0Q934 565 934 436Q934 304 877.5 201.0Q821 98 723.5 39.0Q626 -20 502 -20Z"/><path transform="translate(442.12 258.00) scale(0.00800 -0.00800)" d="M315 282Q315 221 331.5 185.5Q348 150 388.5 134.5Q429 119 500 119Q568 119 631.5 145.0Q695 171 720 211L758 173Q708 119 664.5 82.0Q621 45 580.0 22.5Q539 0 496.0 -10.0Q453 -20 403 -20Q283 -20 226.0 56.5Q169 133 169 286V754L27 814V853L324 867L315 756ZM722 -16 707 166V754L565 814V853L864 867L854 756V140Q863 130 878.0 120.5Q893 111 911.0 102.0Q929 93 947.0 87.0Q965 81 981 79V49L742 -16Z"/><path transform="translate(450.31 258.00) scale(0.00800 -0.00800)" d="M306 240Q306 173 346.5 139.5Q387 106 462 106Q497 106 538.0 113.0Q579 120 627 134V87Q569 46 525.5 23.5Q482 1 447.0 -7.5Q412 -16 378 -16Q312 -16 263.0 8.5Q214 33 187.0 81.5Q160 130 160 201V717L52 792V810Q74 826 95.5 842.5Q117 859 139.0 876.0Q161 893 183.0 910.5Q205 928 228.0 946.0Q251 964 275 983H306V822ZM249 760V852H598L582 760Z"/><path transform="translate(459.00 258.00) scale(0.00800 -0.00800)" d="M875 1277 730 1316 852 1398H869L931 957L887 949L714 1258L749 1212Q697 1249 643.5 1264.5Q590 1280 527 1280Q398 1280 327.0 1219.0Q256 1158 256 1057Q256 990 283.5 944.0Q311 898 359.0 866.0Q407 834 468.0 810.0Q529 786 596 762Q663 738 729.0 709.5Q795 681 849.5 639.5Q904 598 937.0 535.0Q970 472 970 380Q970 251 909.5 162.0Q849 73 742.5 26.5Q636 -20 496 -20Q400 -20 325.0 -6.5Q250 7 169 40L82 386H140L376 41L210 146Q288 104 349.5 84.5Q411 65 481 65Q591 65 669.5 93.5Q748 122 790.0 180.0Q832 238 832 326Q832 403 797.5 454.0Q763 505 706.0 538.5Q649 572 581.5 596.5Q514 621 448 646Q382 671 324.5 700.5Q267 730 223.5 770.0Q180 810 155.5 866.5Q131 923 131 1002Q131 1112 182.5 1192.0Q234 1272 329.5 1316.0Q425 1360 555 1360Q644 1360 720.5 1340.0Q797 1320 875 1277Z"/><path transform="translate(467.54 258.00) scale(0.00800 -0.00800)" d="M602 543 618 473Q500 446 425.0 418.5Q350 391 308.0 362.0Q266 333 249.5 300.5Q233 268 233 229Q233 161 273.5 125.0Q314 89 372 89Q419 89 458.0 113.0Q497 137 520.5 176.0Q544 215 544 260V620Q544 692 507.0 735.0Q470 778 385 778Q355 778 316.0 768.5Q277 759 240 740L291 786Q288 758 282.5 730.0Q277 702 269.5 680.0Q262 658 251 646Q235 629 211.0 621.0Q187 613 163 613Q132 613 114.0 627.5Q96 642 96 664Q96 695 126.5 729.5Q157 764 207.5 794.5Q258 825 320.0 844.0Q382 863 446 863Q533 863 587.0 836.5Q641 810 665.5 758.5Q690 707 690 632V175Q690 144 699.0 123.5Q708 103 725.5 92.5Q743 82 769 82Q792 82 818.5 91.0Q845 100 870 115V69Q829 24 783.5 3.0Q738 -18 699 -18Q651 -18 616.5 3.5Q582 25 564.0 65.5Q546 106 546 161L552 171Q539 115 503.5 72.0Q468 29 418.5 4.5Q369 -20 313 -20Q213 -20 148.0 36.0Q83 92 83 197Q83 253 105.5 299.0Q128 345 185.0 385.5Q242 426 343.5 464.5Q445 503 602 543Z"/><path transform="translate(474.45 258.00) scale(0.00800 -0.00800)" d="M248 760 209 736 39 760V791L223 852H270H627L609 760ZM355 85 526 37V0H57V37L209 85V889Q209 1032 254.0 1133.0Q299 1234 374.5 1297.0Q450 1360 542.0 1389.5Q634 1419 727 1419Q777 1419 812.0 1411.0Q847 1403 869.0 1389.5Q891 1376 901.0 1358.5Q911 1341 911 1321Q911 1281 883.5 1255.5Q856 1230 817 1230Q783 1230 760.0 1244.0Q737 1258 716.5 1276.0Q696 1294 670.0 1308.0Q644 1322 604 1322Q541 1322 484.0 1291.5Q427 1261 391.0 1189.0Q355 1117 355 993Z"/><path transform="translate(479.64 258.00) scale(0.00800 -0.00800)" d="M474 872Q571 872 642.0 829.0Q713 786 755.5 703.5Q798 621 808 502H196L198 569L712 593L644 551Q637 623 615.5 677.5Q594 732 556.0 762.5Q518 793 459 793Q389 793 336.0 754.5Q283 716 253.5 642.0Q224 568 224 461Q224 350 267.5 269.0Q311 188 389.0 144.0Q467 100 571 100Q609 100 645.5 110.0Q682 120 718.0 140.0Q754 160 788 189L813 162Q763 100 711.0 59.5Q659 19 601.0 -0.5Q543 -20 476 -20Q360 -20 269.5 36.5Q179 93 127.0 191.0Q75 289 75 414Q75 540 123.0 644.0Q171 748 260.5 810.0Q350 872 474 872Z"/><path transform="translate(490.22 258.00) scale(0.00800 -0.00800)" d="M143 648H857V564H143ZM143 308H857V224H143Z"/><path transform="translate(501.77 258.00) scale(0.00800 -0.00800)" d="M546 872Q628 872 676.5 853.5Q725 835 746.5 808.0Q768 781 768 755Q768 727 756.5 706.0Q745 685 724.0 673.5Q703 662 676 662Q647 662 624.0 674.5Q601 687 581.5 705.5Q562 724 542.5 742.5Q523 761 500.0 773.5Q477 786 448 786Q393 786 341.5 753.5Q290 721 256.5 654.0Q223 587 223 485Q223 367 263.0 280.5Q303 194 376.0 147.0Q449 100 548 100Q603 100 655.5 123.0Q708 146 757 189L781 162Q733 100 683.0 59.5Q633 19 577.0 -0.5Q521 -20 456 -20Q344 -20 258.0 35.5Q172 91 123.5 186.5Q75 282 75 402Q75 497 106.0 582.0Q137 667 196.5 732.0Q256 797 344.0 834.5Q432 872 546 872Z"/><path transform="translate(508.40 258.00) scale(0.00800 -0.00800)" d="M602 37 757 85V558Q757 612 734.0 651.5Q711 691 666.0 712.5Q621 734 556 734Q477 734 409.5 704.5Q342 675 316 634L277 666Q330 723 377.5 762.5Q425 802 470.5 826.0Q516 850 564.0 861.0Q612 872 665 872Q786 872 844.5 794.5Q903 717 903 549V85L1057 37V0H602ZM481 0H28V37L180 85V1218Q167 1234 146.0 1250.0Q125 1266 95.0 1282.5Q65 1299 26 1315V1335L316 1419H336L326 1259V85L481 37Z"/><path transform="translate(516.99 258.00) scale(0.00800 -0.00800)" d="M602 543 618 473Q500 446 425.0 418.5Q350 391 308.0 362.0Q266 333 249.5 300.5Q233 268 233 229Q233 161 273.5 125.0Q314 89 372 89Q419 89 458.0 113.0Q497 137 520.5 176.0Q544 215 544 260V620Q544 692 507.0 735.0Q470 778 385 778Q355 778 316.0 768.5Q277 759 240 740L291 786Q288 758 282.5 730.0Q277 702 269.5 680.0Q262 658 251 646Q235 629 211.0 621.0Q187 613 163 613Q132 613 114.0 627.5Q96 642 96 664Q96 695 126.5 729.5Q157 764 207.5 794.5Q258 825 320.0 844.0Q382 863 446 863Q533 863 587.0 836.5Q641 810 665.5 758.5Q690 707 690 632V175Q690 144 699.0 123.5Q708 103 725.5 92.5Q743 82 769 82Q792 82 818.5 91.0Q845 100 870 115V69Q829 24 783.5 3.0Q738 -18 699 -18Q651 -18 616.5 3.5Q582 25 564.0 65.5Q546 106 546 161L552 171Q539 115 503.5 72.0Q468 29 418.5 4.5Q369 -20 313 -20Q213 -20 148.0 36.0Q83 92 83 197Q83 253 105.5 299.0Q128 345 185.0 385.5Q242 426 343.5 464.5Q445 503 602 543Z"/><path transform="translate(523.90 258.00) scale(0.00800 -0.00800)" d="M508 57Q583 57 642.0 93.5Q701 130 735.0 206.5Q769 283 769 402Q769 530 735.5 617.5Q702 705 642.0 750.0Q582 795 501 795Q426 795 367.0 758.5Q308 722 274.0 645.5Q240 569 240 450Q240 323 273.5 235.0Q307 147 367.5 102.0Q428 57 508 57ZM502 -20Q376 -20 279.5 35.5Q183 91 129.0 189.5Q75 288 75 416Q75 548 131.5 651.0Q188 754 285.5 813.0Q383 872 507 872Q634 872 730.0 816.5Q826 761 880.0 663.0Q934 565 934 436Q934 304 877.5 201.0Q821 98 723.5 39.0Q626 -20 502 -20Z"/><path transform="translate(531.97 258.00) scale(0.00800 -0.00800)" d="M381 872Q437 872 483.0 861.0Q529 850 587 821L602 585H559L461 828L529 744Q492 773 458.5 787.5Q425 802 384 802Q309 802 265.5 769.0Q222 736 222 677Q222 628 249.0 597.0Q276 566 320.0 543.5Q364 521 414 498Q452 481 489.0 459.5Q526 438 556.0 408.0Q586 378 604.5 336.0Q623 294 623 235Q623 153 582.5 96.0Q542 39 472.5 9.5Q403 -20 314 -20Q256 -20 210.5 -11.5Q165 -3 120 16L75 257H122L256 8L134 86Q172 68 197.5 59.0Q223 50 244.0 47.5Q265 45 287 45Q382 45 437.5 83.0Q493 121 493 196Q493 238 473.5 266.0Q454 294 421.5 314.5Q389 335 351.0 352.0Q313 369 277 387Q229 412 189.0 443.0Q149 474 125.0 521.0Q101 568 101 638Q101 712 137.5 764.0Q174 816 237.5 844.0Q301 872 381 872Z"/><path transform="translate(537.63 258.00) scale(0.00800 -0.00800)" d="M220 224Q273 224 307.0 189.5Q341 155 341 105Q341 56 307.0 21.0Q273 -14 220 -14Q168 -14 133.5 21.0Q99 56 99 105Q99 155 133.5 189.5Q168 224 220 224Z"/></g>
<g fill="#000"><path transform="translate(333.44 285.00) scale(0.00800 -0.00800)" d="M875 1277 730 1316 852 1398H869L931 957L887 949L714 1258L749 1212Q697 1249 643.5 1264.5Q590 1280 527 1280Q398 1280 327.0 1219.0Q256 1158 256 1057Q256 990 283.5 944.0Q311 898 359.0 866.0Q407 834 468.0 810.0Q529 786 596 762Q663 738 729.0 709.5Q795 681 849.5 639.5Q904 598 937.0 535.0Q970 472 970 380Q970 251 909.5 162.0Q849 73 742.5 26.5Q636 -20 496 -20Q400 -20 325.0 -6.5Q250 7 169 40L82 386H140L376 41L210 146Q288 104 349.5 84.5Q411 65 481 65Q591 65 669.5 93.5Q748 122 790.0 180.0Q832 238 832 326Q832 403 797.5 454.0Q763 505 706.0 538.5Q649 572 581.5 596.5Q514 621 448 646Q382 671 324.5 700.5Q267 730 223.5 770.0Q180 810 155.5 866.5Q131 923 131 1002Q131 1112 182.5 1192.0Q234 1272 329.5 1316.0Q425 1360 555 1360Q644 1360 720.5 1340.0Q797 1320 875 1277Z"/><path transform="translate(341.98 285.00) scale(0.00800 -0.00800)" d="M602 543 618 473Q500 446 425.0 418.5Q350 391 308.0 362.0Q266 333 249.5 300.5Q233 268 233 229Q233 161 273.5 125.0Q314 89 372 89Q419 89 458.0 113.0Q497 137 520.5 176.0Q544 215 544 260V620Q544 692 507.0 735.0Q470 778 385 778Q355 778 316.0 768.5Q277 759 240 740L291 786Q288 758 282.5 730.0Q277 702 269.5 680.0Q262 658 251 646Q235 629 211.0 621.0Q187 613 163 613Q132 613 114.0 627.5Q96 642 96 664Q96 695 126.5 729.5Q157 764 207.5 794.5Q258 825 320.0 844.0Q382 863 446 863Q533 863 587.0 836.5Q641 810 665.5 758.5Q690 707 690 632V175Q690 144 699.0 123.5Q708 103 725.5 92.5Q743 82 769 82Q792 82 818.5 91.0Q845 100 870 115V69Q829 24 783.5 3.0Q738 -18 699 -18Q651 -18 616.5 3.5Q582 25 564.0 65.5Q546 106 546 161L552 171Q539 115 503.5 72.0Q468 29 418.5 4.5Q369 -20 313 -20Q213 -20 148.0 36.0Q83 92 83 197Q83 253 105.5 299.0Q128 345 185.0 385.5Q242 426 343.5 464.5Q445 503 602 543Z"/><path transform="translate(348.89 285.00) scale(0.00800 -0.00800)" d="M248 760 209 736 39 760V791L223 852H270H627L609 760ZM355 85 526 37V0H57V37L209 85V889Q209 1032 254.0 1133.0Q299 1234 374.5 1297.0Q450 1360 542.0 1389.5Q634 1419 727 1419Q777 1419 812.0 1411.0Q847 1403 869.0 1389.5Q891 1376 901.0 1358.5Q911 1341 911 1321Q911 1281 883.5 1255.5Q856 1230 817 1230Q783 1230 760.0 1244.0Q737 1258 716.5 1276.0Q696 1294 670.0 1308.0Q644 1322 604 1322Q541 1322 484.0 1291.5Q427 1261 391.0 1189.0Q355 1117 355 993Z"/><path transform="translate(354.08 285.00) scale(0.00800 -0.00800)" d="M474 872Q571 872 642.0 829.0Q713 786 755.5 703.5Q798 621 808 502H196L198 569L712 593L644 551Q637 623 615.5 677.5Q594 732 556.0 762.5Q518 793 459 793Q389 793 336.0 754.5Q283 716 253.5 642.0Q224 568 224 461Q224 350 267.5 269.0Q311 188 389.0 144.0Q467 100 571 100Q609 100 645.5 110.0Q682 120 718.0 140.0Q754 160 788 189L813 162Q763 100 711.0 59.5Q659 19 601.0 -0.5Q543 -20 476 -20Q360 -20 269.5 36.5Q179 93 127.0 191.0Q75 289 75 414Q75 540 123.0 644.0Q171 748 260.5 810.0Q350 872 474 872Z"/><path transform="translate(364.66 285.00) scale(0.00800 -0.00800)" d="M1216 772 1086 809V852H1405V809L1298 772L1042 -20H994L697 678H734L442 -20H394L129 762L5 809V852H411V809L281 767L481 170H444L736 872H770L1070 170H1033Z"/><path transform="translate(376.08 285.00) scale(0.00800 -0.00800)" d="M267 1181Q214 1181 180.5 1215.5Q147 1250 147 1300Q147 1350 180.5 1384.5Q214 1419 267 1419Q320 1419 353.5 1384.5Q387 1350 387 1300Q387 1250 353.5 1215.5Q320 1181 267 1181ZM356 872 350 710V85L505 37V0H52V37L204 85V686Q193 698 169.5 712.5Q146 727 116.5 741.0Q87 755 56 764V795L338 872Z"/><path transform="translate(380.36 285.00) scale(0.00800 -0.00800)" d="M306 240Q306 173 346.5 139.5Q387 106 462 106Q497 106 538.0 113.0Q579 120 627 134V87Q569 46 525.5 23.5Q482 1 447.0 -7.5Q412 -16 378 -16Q312 -16 263.0 8.5Q214 33 187.0 81.5Q160 130 160 201V717L52 792V810Q74 826 95.5 842.5Q117 859 139.0 876.0Q161 893 183.0 910.5Q205 928 228.0 946.0Q251 964 275 983H306V822ZM249 760V852H598L582 760Z"/><path transform="translate(385.50 285.00) scale(0.00800 -0.00800)" d="M602 37 757 85V558Q757 612 734.0 651.5Q711 691 666.0 712.5Q621 734 556 734Q477 734 409.5 704.5Q342 675 316 634L277 666Q330 723 377.5 762.5Q425 802 470.5 826.0Q516 850 564.0 861.0Q612 872 665 872Q786 872 844.5 794.5Q903 717 903 549V85L1057 37V0H602ZM481 0H28V37L180 85V1218Q167 1234 146.0 1250.0Q125 1266 95.0 1282.5Q65 1299 26 1315V1335L316 1419H336L326 1259V85L481 37Z"/><path transform="translate(394.08 285.00) scale(0.00800 -0.00800)" d="M508 57Q583 57 642.0 93.5Q701 130 735.0 206.5Q769 283 769 402Q769 530 735.5 617.5Q702 705 642.0 750.0Q582 795 501 795Q426 795 367.0 758.5Q308 722 274.0 645.5Q240 569 240 450Q240 323 273.5 235.0Q307 147 367.5 102.0Q428 57 508 57ZM502 -20Q376 -20 279.5 35.5Q183 91 129.0 189.5Q75 288 75 416Q75 548 131.5 651.0Q188 754 285.5 813.0Q383 872 507 872Q634 872 730.0 816.5Q826 761 880.0 663.0Q934 565 934 436Q934 304 877.5 201.0Q821 98 723.5 39.0Q626 -20 502 -20Z"/><path transform="translate(402.16 285.00) scale(0.00800 -0.00800)" d="M315 282Q315 221 331.5 185.5Q348 150 388.5 134.5Q429 119 500 119Q568 119 631.5 145.0Q695 171 720 211L758 173Q708 119 664.5 82.0Q621 45 580.0 22.5Q539 0 496.0 -10.0Q453 -20 403 -20Q283 -20 226.0 56.5Q169 133 169 286V754L27 814V853L324 867L315 756ZM722 -16 707 166V754L565 814V853L864 867L854 756V140Q863 130 878.0 120.5Q893 111 911.0 102.0Q929 93 947.0 87.0Q965 81 981 79V49L742 -16Z"/><path transform="translate(410.34 285.00) scale(0.00800 -0.00800)" d="M306 240Q306 173 346.5 139.5Q387 106 462 106Q497 106 538.0 113.0Q579 120 627 134V87Q569 46 525.5 23.5Q482 1 447.0 -7.5Q412 -16 378 -16Q312 -16 263.0 8.5Q214 33 187.0 81.5Q160 130 160 201V717L52 792V810Q74 826 95.5 842.5Q117 859 139.0 876.0Q161 893 183.0 910.5Q205 928 228.0 946.0Q251 964 275 983H306V822ZM249 760V852H598L582 760Z"/><path transform="translate(419.04 285.00) scale(0.00800 -0.00800)" d="M851 70Q930 70 1002.0 82.5Q1074 95 1147 122L1101 85L1240 354H1293L1260 58Q1193 25 1081.0 2.5Q969 -20 843 -20Q676 -20 538.5 26.0Q401 72 301.5 160.0Q202 248 148.0 373.5Q94 499 94 658Q94 871 187.5 1029.0Q281 1187 457.0 1273.5Q633 1360 880 1360Q942 1360 1003.0 1352.5Q1064 1345 1149 1325L1095 1315L1220 1398H1238L1296 940L1250 931L1088 1230L1128 1190Q1044 1235 977.0 1251.5Q910 1268 833 1268Q692 1268 585.5 1230.5Q479 1193 408.0 1122.5Q337 1052 301.0 951.5Q265 851 265 725Q265 568 309.0 446.5Q353 325 432.0 241.0Q511 157 618.0 113.5Q725 70 851 70Z"/><path transform="translate(430.08 285.00) scale(0.00800 -0.00800)" d="M602 37 757 85V558Q757 612 734.0 651.5Q711 691 666.0 712.5Q621 734 556 734Q477 734 409.5 704.5Q342 675 316 634L277 666Q330 723 377.5 762.5Q425 802 470.5 826.0Q516 850 564.0 861.0Q612 872 665 872Q786 872 844.5 794.5Q903 717 903 549V85L1057 37V0H602ZM481 0H28V37L180 85V1218Q167 1234 146.0 1250.0Q125 1266 95.0 1282.5Q65 1299 26 1315V1335L316 1419H336L326 1259V85L481 37Z"/><path transform="translate(438.67 285.00) scale(0.00800 -0.00800)" d="M474 872Q571 872 642.0 829.0Q713 786 755.5 703.5Q798 621 808 502H196L198 569L712 593L644 551Q637 623 615.5 677.5Q594 732 556.0 762.5Q518 793 459 793Q389 793 336.0 754.5Q283 716 253.5 642.0Q224 568 224 461Q224 350 267.5 269.0Q311 188 389.0 144.0Q467 100 571 100Q609 100 645.5 110.0Q682 120 718.0 140.0Q754 160 788 189L813 162Q763 100 711.0 59.5Q659 19 601.0 -0.5Q543 -20 476 -20Q360 -20 269.5 36.5Q179 93 127.0 191.0Q75 289 75 414Q75 540 123.0 644.0Q171 748 260.5 810.0Q350 872 474 872Z"/><path transform="translate(445.70 285.00) scale(0.00800 -0.00800)" d="M602 543 618 473Q500 446 425.0 418.5Q350 391 308.0 362.0Q266 333 249.5 300.5Q233 268 233 229Q233 161 273.5 125.0Q314 89 372 89Q419 89 458.0 113.0Q497 137 520.5 176.0Q544 215 544 260V620Q544 692 507.0 735.0Q470 778 385 778Q355 778 316.0 768.5Q277 759 240 740L291 786Q288 758 282.5 730.0Q277 702 269.5 680.0Q262 658 251 646Q235 629 211.0 621.0Q187 613 163 613Q132 613 114.0 627.5Q96 642 96 664Q96 695 126.5 729.5Q157 764 207.5 794.5Q258 825 320.0 844.0Q382 863 446 863Q533 863 587.0 836.5Q641 810 665.5 758.5Q690 707 690 632V175Q690 144 699.0 123.5Q708 103 725.5 92.5Q743 82 769 82Q792 82 818.5 91.0Q845 100 870 115V69Q829 24 783.5 3.0Q738 -18 699 -18Q651 -18 616.5 3.5Q582 25 564.0 65.5Q546 106 546 161L552 171Q539 115 503.5 72.0Q468 29 418.5 4.5Q369 -20 313 -20Q213 -20 148.0 36.0Q83 92 83 197Q83 253 105.5 299.0Q128 345 185.0 385.5Q242 426 343.5 464.5Q445 503 602 543Z"/><path transform="translate(452.61 285.00) scale(0.00800 -0.00800)" d="M836 422Q836 587 758.5 675.5Q681 764 556 764Q498 764 445.5 754.0Q393 744 347.0 724.0Q301 704 261 673V744Q317 779 367.5 803.0Q418 827 463.0 842.5Q508 858 547.5 865.0Q587 872 620 872Q746 872 831.5 821.0Q917 770 961.0 679.5Q1005 589 1005 470Q1005 319 940.5 209.0Q876 99 769.5 39.5Q663 -20 536 -20Q488 -20 442.0 -12.0Q396 -4 347.0 12.5Q298 29 242 57H326V-425L496 -473V-510H28V-473L180 -425V674Q167 688 146.5 699.0Q126 710 97.5 721.5Q69 733 32 745V770L275 872H296L326 749V256Q326 201 355.5 157.0Q385 113 439.5 88.0Q494 63 568 63Q653 63 712.5 107.0Q772 151 804.0 232.0Q836 313 836 422Z"/><path transform="translate(464.81 285.00) scale(0.00800 -0.00800)" d="M143 648H857V564H143ZM143 308H857V224H143Z"/><path transform="translate(476.36 285.00) scale(0.00800 -0.00800)" d="M306 240Q306 173 346.5 139.5Q387 106 462 106Q497 106 538.0 113.0Q579 120 627 134V87Q569 46 525.5 23.5Q482 1 447.0 -7.5Q412 -16 378 -16Q312 -16 263.0 8.5Q214 33 187.0 81.5Q160 130 160 201V717L52 792V810Q74 826 95.5 842.5Q117 859 139.0 876.0Q161 893 183.0 910.5Q205 928 228.0 946.0Q251 964 275 983H306V822ZM249 760V852H598L582 760Z"/><path transform="translate(481.51 285.00) scale(0.00800 -0.00800)" d="M602 37 757 85V558Q757 612 734.0 651.5Q711 691 666.0 712.5Q621 734 556 734Q477 734 409.5 704.5Q342 675 316 634L277 666Q330 723 377.5 762.5Q425 802 470.5 826.0Q516 850 564.0 861.0Q612 872 665 872Q786 872 844.5 794.5Q903 717 903 549V85L1057 37V0H602ZM481 0H28V37L180 85V1218Q167 1234 146.0 1250.0Q125 1266 95.0 1282.5Q65 1299 26 1315V1335L316 1419H336L326 1259V85L481 37Z"/><path transform="translate(490.09 285.00) scale(0.00800 -0.00800)" d="M474 872Q571 872 642.0 829.0Q713 786 755.5 703.5Q798 621 808 502H196L198 569L712 593L644 551Q637 623 615.5 677.5Q594 732 556.0 762.5Q518 793 459 793Q389 793 336.0 754.5Q283 716 253.5 642.0Q224 568 224 461Q224 350 267.5 269.0Q311 188 389.0 144.0Q467 100 571 100Q609 100 645.5 110.0Q682 120 718.0 140.0Q754 160 788 189L813 162Q763 100 711.0 59.5Q659 19 601.0 -0.5Q543 -20 476 -20Q360 -20 269.5 36.5Q179 93 127.0 191.0Q75 289 75 414Q75 540 123.0 644.0Q171 748 260.5 810.0Q350 872 474 872Z"/><path transform="translate(500.68 285.00) scale(0.00800 -0.00800)" d="M508 57Q583 57 642.0 93.5Q701 130 735.0 206.5Q769 283 769 402Q769 530 735.5 617.5Q702 705 642.0 750.0Q582 795 501 795Q426 795 367.0 758.5Q308 722 274.0 645.5Q240 569 240 450Q240 323 273.5 235.0Q307 147 367.5 102.0Q428 57 508 57ZM502 -20Q376 -20 279.5 35.5Q183 91 129.0 189.5Q75 288 75 416Q75 548 131.5 651.0Q188 754 285.5 813.0Q383 872 507 872Q634 872 730.0 816.5Q826 761 880.0 663.0Q934 565 934 436Q934 304 877.5 201.0Q821 98 723.5 39.0Q626 -20 502 -20Z"/><path transform="translate(508.75 285.00) scale(0.00800 -0.00800)" d="M329 85 484 37V0H31V37L183 85V1218Q170 1234 149.0 1250.0Q128 1266 98.0 1282.5Q68 1299 29 1315V1335L319 1419H339L329 1259Z"/><path transform="translate(512.85 285.00) scale(0.00800 -0.00800)" d="M755 596Q755 679 696.0 734.0Q637 789 523 789Q434 789 371.5 745.0Q309 701 277.0 620.5Q245 540 245 430Q245 320 280.5 243.5Q316 167 379.0 127.5Q442 88 525 88Q602 88 672.5 112.5Q743 137 810 189V118Q738 75 688.0 47.5Q638 20 600.0 5.5Q562 -9 529.5 -14.5Q497 -20 461 -20Q336 -20 250.0 31.0Q164 82 120.0 173.0Q76 264 76 382Q76 497 113.5 587.5Q151 678 216.5 741.5Q282 805 366.5 838.5Q451 872 545 872Q593 872 639.0 864.0Q685 856 734.0 839.5Q783 823 839 795L755 738V1246Q743 1261 724.0 1274.0Q705 1287 680.5 1299.5Q656 1312 627 1324V1342L891 1419H910L901 1257V140Q910 130 925.0 120.5Q940 111 958.0 102.0Q976 93 994.0 87.0Q1012 81 1028 79V49L789 -16H769L755 136Z"/><path transform="translate(524.90 285.00) scale(0.00800 -0.00800)" d="M1216 772 1086 809V852H1405V809L1298 772L1042 -20H994L697 678H734L442 -20H394L129 762L5 809V852H411V809L281 767L481 170H444L736 872H770L1070 170H1033Z"/><path transform="translate(536.32 285.00) scale(0.00800 -0.00800)" d="M508 57Q583 57 642.0 93.5Q701 130 735.0 206.5Q769 283 769 402Q769 530 735.5 617.5Q702 705 642.0 750.0Q582 795 501 795Q426 795 367.0 758.5Q308 722 274.0 645.5Q240 569 240 450Q240 323 273.5 235.0Q307 147 367.5 102.0Q428 57 508 57ZM502 -20Q376 -20 279.5 35.5Q183 91 129.0 189.5Q75 288 75 416Q75 548 131.5 651.0Q188 754 285.5 813.0Q383 872 507 872Q634 872 730.0 816.5Q826 761 880.0 663.0Q934 565 934 436Q934 304 877.5 201.0Q821 98 723.5 39.0Q626 -20 502 -20Z"/><path transform="translate(544.40 285.00) scale(0.00800 -0.00800)" d="M638 865Q689 865 712.0 841.0Q735 817 735 778Q735 733 706.0 705.5Q677 678 626 678Q604 678 582.0 686.5Q560 695 535.5 703.0Q511 711 482 711Q459 711 431.0 704.5Q403 698 376.0 686.0Q349 674 329 658L307 693Q366 737 415.5 769.0Q465 801 506.0 822.5Q547 844 580.0 854.5Q613 865 638 865ZM348 689V85L503 37V0H50V37L202 85V674Q189 688 168.5 699.0Q148 710 119.5 721.5Q91 733 54 745V770L317 872H338Z"/><path transform="translate(550.44 285.00) scale(0.00800 -0.00800)" d="M329 85 484 37V0H31V37L183 85V1218Q170 1234 149.0 1250.0Q128 1266 98.0 1282.5Q68 1299 29 1315V1335L319 1419H339L329 1259Z"/><path transform="translate(554.54 285.00) scale(0.00800 -0.00800)" d="M755 596Q755 679 696.0 734.0Q637 789 523 789Q434 789 371.5 745.0Q309 701 277.0 620.5Q245 540 245 430Q245 320 280.5 243.5Q316 167 379.0 127.5Q442 88 525 88Q602 88 672.5 112.5Q743 137 810 189V118Q738 75 688.0 47.5Q638 20 600.0 5.5Q562 -9 529.5 -14.5Q497 -20 461 -20Q336 -20 250.0 31.0Q164 82 120.0 173.0Q76 264 76 382Q76 497 113.5 587.5Q151 678 216.5 741.5Q282 805 366.5 838.5Q451 872 545 872Q593 872 639.0 864.0Q685 856 734.0 839.5Q783 823 839 795L755 738V1246Q743 1261 724.0 1274.0Q705 1287 680.5 1299.5Q656 1312 627 1324V1342L891 1419H910L901 1257V140Q910 130 925.0 120.5Q940 111 958.0 102.0Q976 93 994.0 87.0Q1012 81 1028 79V49L789 -16H769L755 136Z"/><path transform="translate(563.04 285.00) scale(0.00800 -0.00800)" d="M220 224Q273 224 307.0 189.5Q341 155 341 105Q341 56 307.0 21.0Q273 -14 220 -14Q168 -14 133.5 21.0Q99 56 99 105Q99 155 133.5 189.5Q168 224 220 224Z"/></g>
<g fill="#000"><path transform="translate(306.10 312.00) scale(0.00800 -0.00800)" d="M351 501V592H1012V501ZM1242 93 1390 39V0H900V39L1073 91L611 1195H678L245 91L408 39V0H-14V39L139 91L658 1360H705Z"/><path transform="translate(317.10 312.00) scale(0.00800 -0.00800)" d="M329 85 484 37V0H31V37L183 85V1218Q170 1234 149.0 1250.0Q128 1266 98.0 1282.5Q68 1299 29 1315V1335L319 1419H339L329 1259Z"/><path transform="translate(321.20 312.00) scale(0.00800 -0.00800)" d="M329 85 484 37V0H31V37L183 85V1218Q170 1234 149.0 1250.0Q128 1266 98.0 1282.5Q68 1299 29 1315V1335L319 1419H339L329 1259Z"/><path transform="translate(328.86 312.00) scale(0.00800 -0.00800)" d="M306 240Q306 173 346.5 139.5Q387 106 462 106Q497 106 538.0 113.0Q579 120 627 134V87Q569 46 525.5 23.5Q482 1 447.0 -7.5Q412 -16 378 -16Q312 -16 263.0 8.5Q214 33 187.0 81.5Q160 130 160 201V717L52 792V810Q74 826 95.5 842.5Q117 859 139.0 876.0Q161 893 183.0 910.5Q205 928 228.0 946.0Q251 964 275 983H306V822ZM249 760V852H598L582 760Z"/><path transform="translate(334.00 312.00) scale(0.00800 -0.00800)" d="M602 37 757 85V558Q757 612 734.0 651.5Q711 691 666.0 712.5Q621 734 556 734Q477 734 409.5 704.5Q342 675 316 634L277 666Q330 723 377.5 762.5Q425 802 470.5 826.0Q516 850 564.0 861.0Q612 872 665 872Q786 872 844.5 794.5Q903 717 903 549V85L1057 37V0H602ZM481 0H28V37L180 85V1218Q167 1234 146.0 1250.0Q125 1266 95.0 1282.5Q65 1299 26 1315V1335L316 1419H336L326 1259V85L481 37Z"/><path transform="translate(342.58 312.00) scale(0.00800 -0.00800)" d="M638 865Q689 865 712.0 841.0Q735 817 735 778Q735 733 706.0 705.5Q677 678 626 678Q604 678 582.0 686.5Q560 695 535.5 703.0Q511 711 482 711Q459 711 431.0 704.5Q403 698 376.0 686.0Q349 674 329 658L307 693Q366 737 415.5 769.0Q465 801 506.0 822.5Q547 844 580.0 854.5Q613 865 638 865ZM348 689V85L503 37V0H50V37L202 85V674Q189 688 168.5 699.0Q148 710 119.5 721.5Q91 733 54 745V770L317 872H338Z"/><path transform="translate(348.62 312.00) scale(0.00800 -0.00800)" d="M474 872Q571 872 642.0 829.0Q713 786 755.5 703.5Q798 621 808 502H196L198 569L712 593L644 551Q637 623 615.5 677.5Q594 732 556.0 762.5Q518 793 459 793Q389 793 336.0 754.5Q283 716 253.5 642.0Q224 568 224 461Q224 350 267.5 269.0Q311 188 389.0 144.0Q467 100 571 100Q609 100 645.5 110.0Q682 120 718.0 140.0Q754 160 788 189L813 162Q763 100 711.0 59.5Q659 19 601.0 -0.5Q543 -20 476 -20Q360 -20 269.5 36.5Q179 93 127.0 191.0Q75 289 75 414Q75 540 123.0 644.0Q171 748 260.5 810.0Q350 872 474 872Z"/><path transform="translate(355.66 312.00) scale(0.00800 -0.00800)" d="M474 872Q571 872 642.0 829.0Q713 786 755.5 703.5Q798 621 808 502H196L198 569L712 593L644 551Q637 623 615.5 677.5Q594 732 556.0 762.5Q518 793 459 793Q389 793 336.0 754.5Q283 716 253.5 642.0Q224 568 224 461Q224 350 267.5 269.0Q311 188 389.0 144.0Q467 100 571 100Q609 100 645.5 110.0Q682 120 718.0 140.0Q754 160 788 189L813 162Q763 100 711.0 59.5Q659 19 601.0 -0.5Q543 -20 476 -20Q360 -20 269.5 36.5Q179 93 127.0 191.0Q75 289 75 414Q75 540 123.0 644.0Q171 748 260.5 810.0Q350 872 474 872Z"/><path transform="translate(366.24 312.00) scale(0.00800 -0.00800)" d="M1216 772 1086 809V852H1405V809L1298 772L1042 -20H994L697 678H734L442 -20H394L129 762L5 809V852H411V809L281 767L481 170H444L736 872H770L1070 170H1033Z"/><path transform="translate(377.66 312.00) scale(0.00800 -0.00800)" d="M267 1181Q214 1181 180.5 1215.5Q147 1250 147 1300Q147 1350 180.5 1384.5Q214 1419 267 1419Q320 1419 353.5 1384.5Q387 1350 387 1300Q387 1250 353.5 1215.5Q320 1181 267 1181ZM356 872 350 710V85L505 37V0H52V37L204 85V686Q193 698 169.5 712.5Q146 727 116.5 741.0Q87 755 56 764V795L338 872Z"/><path transform="translate(381.94 312.00) scale(0.00800 -0.00800)" d="M306 240Q306 173 346.5 139.5Q387 106 462 106Q497 106 538.0 113.0Q579 120 627 134V87Q569 46 525.5 23.5Q482 1 447.0 -7.5Q412 -16 378 -16Q312 -16 263.0 8.5Q214 33 187.0 81.5Q160 130 160 201V717L52 792V810Q74 826 95.5 842.5Q117 859 139.0 876.0Q161 893 183.0 910.5Q205 928 228.0 946.0Q251 964 275 983H306V822ZM249 760V852H598L582 760Z"/><path transform="translate(387.08 312.00) scale(0.00800 -0.00800)" d="M602 37 757 85V558Q757 612 734.0 651.5Q711 691 666.0 712.5Q621 734 556 734Q477 734 409.5 704.5Q342 675 316 634L277 666Q330 723 377.5 762.5Q425 802 470.5 826.0Q516 850 564.0 861.0Q612 872 665 872Q786 872 844.5 794.5Q903 717 903 549V85L1057 37V0H602ZM481 0H28V37L180 85V1218Q167 1234 146.0 1250.0Q125 1266 95.0 1282.5Q65 1299 26 1315V1335L316 1419H336L326 1259V85L481 37Z"/><path transform="translate(395.66 312.00) scale(0.00800 -0.00800)" d="M508 57Q583 57 642.0 93.5Q701 130 735.0 206.5Q769 283 769 402Q769 530 735.5 617.5Q702 705 642.0 750.0Q582 795 501 795Q426 795 367.0 758.5Q308 722 274.0 645.5Q240 569 240 450Q240 323 273.5 235.0Q307 147 367.5 102.0Q428 57 508 57ZM502 -20Q376 -20 279.5 35.5Q183 91 129.0 189.5Q75 288 75 416Q75 548 131.5 651.0Q188 754 285.5 813.0Q383 872 507 872Q634 872 730.0 816.5Q826 761 880.0 663.0Q934 565 934 436Q934 304 877.5 201.0Q821 98 723.5 39.0Q626 -20 502 -20Z"/><path transform="translate(403.74 312.00) scale(0.00800 -0.00800)" d="M315 282Q315 221 331.5 185.5Q348 150 388.5 134.5Q429 119 500 119Q568 119 631.5 145.0Q695 171 720 211L758 173Q708 119 664.5 82.0Q621 45 580.0 22.5Q539 0 496.0 -10.0Q453 -20 403 -20Q283 -20 226.0 56.5Q169 133 169 286V754L27 814V853L324 867L315 756ZM722 -16 707 166V754L565 814V853L864 867L854 756V140Q863 130 878.0 120.5Q893 111 911.0 102.0Q929 93 947.0 87.0Q965 81 981 79V49L742 -16Z"/><path transform="translate(411.92 312.00) scale(0.00800 -0.00800)" d="M306 240Q306 173 346.5 139.5Q387 106 462 106Q497 106 538.0 113.0Q579 120 627 134V87Q569 46 525.5 23.5Q482 1 447.0 -7.5Q412 -16 378 -16Q312 -16 263.0 8.5Q214 33 187.0 81.5Q160 130 160 201V717L52 792V810Q74 826 95.5 842.5Q117 859 139.0 876.0Q161 893 183.0 910.5Q205 928 228.0 946.0Q251 964 275 983H306V822ZM249 760V852H598L582 760Z"/><path transform="translate(420.62 312.00) scale(0.00800 -0.00800)" d="M306 240Q306 173 346.5 139.5Q387 106 462 106Q497 106 538.0 113.0Q579 120 627 134V87Q569 46 525.5 23.5Q482 1 447.0 -7.5Q412 -16 378 -16Q312 -16 263.0 8.5Q214 33 187.0 81.5Q160 130 160 201V717L52 792V810Q74 826 95.5 842.5Q117 859 139.0 876.0Q161 893 183.0 910.5Q205 928 228.0 946.0Q251 964 275 983H306V822ZM249 760V852H598L582 760Z"/><path transform="translate(425.76 312.00) scale(0.00800 -0.00800)" d="M602 37 757 85V558Q757 612 734.0 651.5Q711 691 666.0 712.5Q621 734 556 734Q477 734 409.5 704.5Q342 675 316 634L277 666Q330 723 377.5 762.5Q425 802 470.5 826.0Q516 850 564.0 861.0Q612 872 665 872Q786 872 844.5 794.5Q903 717 903 549V85L1057 37V0H602ZM481 0H28V37L180 85V1218Q167 1234 146.0 1250.0Q125 1266 95.0 1282.5Q65 1299 26 1315V1335L316 1419H336L326 1259V85L481 37Z"/><path transform="translate(434.34 312.00) scale(0.00800 -0.00800)" d="M474 872Q571 872 642.0 829.0Q713 786 755.5 703.5Q798 621 808 502H196L198 569L712 593L644 551Q637 623 615.5 677.5Q594 732 556.0 762.5Q518 793 459 793Q389 793 336.0 754.5Q283 716 253.5 642.0Q224 568 224 461Q224 350 267.5 269.0Q311 188 389.0 144.0Q467 100 571 100Q609 100 645.5 110.0Q682 120 718.0 140.0Q754 160 788 189L813 162Q763 100 711.0 59.5Q659 19 601.0 -0.5Q543 -20 476 -20Q360 -20 269.5 36.5Q179 93 127.0 191.0Q75 289 75 414Q75 540 123.0 644.0Q171 748 260.5 810.0Q350 872 474 872Z"/><path transform="translate(444.93 312.00) scale(0.00800 -0.00800)" d="M329 85 484 37V0H31V37L183 85V1218Q170 1234 149.0 1250.0Q128 1266 98.0 1282.5Q68 1299 29 1315V1335L319 1419H339L329 1259Z"/><path transform="translate(449.03 312.00) scale(0.00800 -0.00800)" d="M508 57Q583 57 642.0 93.5Q701 130 735.0 206.5Q769 283 769 402Q769 530 735.5 617.5Q702 705 642.0 750.0Q582 795 501 795Q426 795 367.0 758.5Q308 722 274.0 645.5Q240 569 240 450Q240 323 273.5 235.0Q307 147 367.5 102.0Q428 57 508 57ZM502 -20Q376 -20 279.5 35.5Q183 91 129.0 189.5Q75 288 75 416Q75 548 131.5 651.0Q188 754 285.5 813.0Q383 872 507 872Q634 872 730.0 816.5Q826 761 880.0 663.0Q934 565 934 436Q934 304 877.5 201.0Q821 98 723.5 39.0Q626 -20 502 -20Z"/><path transform="translate(457.10 312.00) scale(0.00800 -0.00800)" d="M508 57Q583 57 642.0 93.5Q701 130 735.0 206.5Q769 283 769 402Q769 530 735.5 617.5Q702 705 642.0 750.0Q582 795 501 795Q426 795 367.0 758.5Q308 722 274.0 645.5Q240 569 240 450Q240 323 273.5 235.0Q307 147 367.5 102.0Q428 57 508 57ZM502 -20Q376 -20 279.5 35.5Q183 91 129.0 189.5Q75 288 75 416Q75 548 131.5 651.0Q188 754 285.5 813.0Q383 872 507 872Q634 872 730.0 816.5Q826 761 880.0 663.0Q934 565 934 436Q934 304 877.5 201.0Q821 98 723.5 39.0Q626 -20 502 -20Z"/><path transform="translate(465.18 312.00) scale(0.00800 -0.00800)" d="M836 422Q836 587 758.5 675.5Q681 764 556 764Q498 764 445.5 754.0Q393 744 347.0 724.0Q301 704 261 673V744Q317 779 367.5 803.0Q418 827 463.0 842.5Q508 858 547.5 865.0Q587 872 620 872Q746 872 831.5 821.0Q917 770 961.0 679.5Q1005 589 1005 470Q1005 319 940.5 209.0Q876 99 769.5 39.5Q663 -20 536 -20Q488 -20 442.0 -12.0Q396 -4 347.0 12.5Q298 29 242 57H326V-425L496 -473V-510H28V-473L180 -425V674Q167 688 146.5 699.0Q126 710 97.5 721.5Q69 733 32 745V770L275 872H296L326 749V256Q326 201 355.5 157.0Q385 113 439.5 88.0Q494 63 568 63Q653 63 712.5 107.0Q772 151 804.0 232.0Q836 313 836 422Z"/><path transform="translate(477.38 312.00) scale(0.00800 -0.00800)" d="M143 648H857V564H143ZM143 308H857V224H143Z"/><path transform="translate(488.93 312.00) scale(0.00800 -0.00800)" d="M474 872Q571 872 642.0 829.0Q713 786 755.5 703.5Q798 621 808 502H196L198 569L712 593L644 551Q637 623 615.5 677.5Q594 732 556.0 762.5Q518 793 459 793Q389 793 336.0 754.5Q283 716 253.5 642.0Q224 568 224 461Q224 350 267.5 269.0Q311 188 389.0 144.0Q467 100 571 100Q609 100 645.5 110.0Q682 120 718.0 140.0Q754 160 788 189L813 162Q763 100 711.0 59.5Q659 19 601.0 -0.5Q543 -20 476 -20Q360 -20 269.5 36.5Q179 93 127.0 191.0Q75 289 75 414Q75 540 123.0 644.0Q171 748 260.5 810.0Q350 872 474 872Z"/><path transform="translate(495.96 312.00) scale(0.00800 -0.00800)" d="M826 90 950 43V0H546V43L669 85L452 374L429 399L158 762L34 809V852H438V809L315 767L511 503L536 476ZM486 396 225 80 345 43V0H22V43L128 80L444 451L481 483L719 772L603 809V852H922V809L815 772L522 428Z"/><path transform="translate(503.68 312.00) scale(0.00800 -0.00800)" d="M836 422Q836 587 758.5 675.5Q681 764 556 764Q498 764 445.5 754.0Q393 744 347.0 724.0Q301 704 261 673V744Q317 779 367.5 803.0Q418 827 463.0 842.5Q508 858 547.5 865.0Q587 872 620 872Q746 872 831.5 821.0Q917 770 961.0 679.5Q1005 589 1005 470Q1005 319 940.5 209.0Q876 99 769.5 39.5Q663 -20 536 -20Q488 -20 442.0 -12.0Q396 -4 347.0 12.5Q298 29 242 57H326V-425L496 -473V-510H28V-473L180 -425V674Q167 688 146.5 699.0Q126 710 97.5 721.5Q69 733 32 745V770L275 872H296L326 749V256Q326 201 355.5 157.0Q385 113 439.5 88.0Q494 63 568 63Q653 63 712.5 107.0Q772 151 804.0 232.0Q836 313 836 422Z"/><path transform="translate(512.33 312.00) scale(0.00800 -0.00800)" d="M474 872Q571 872 642.0 829.0Q713 786 755.5 703.5Q798 621 808 502H196L198 569L712 593L644 551Q637 623 615.5 677.5Q594 732 556.0 762.5Q518 793 459 793Q389 793 336.0 754.5Q283 716 253.5 642.0Q224 568 224 461Q224 350 267.5 269.0Q311 188 389.0 144.0Q467 100 571 100Q609 100 645.5 110.0Q682 120 718.0 140.0Q754 160 788 189L813 162Q763 100 711.0 59.5Q659 19 601.0 -0.5Q543 -20 476 -20Q360 -20 269.5 36.5Q179 93 127.0 191.0Q75 289 75 414Q75 540 123.0 644.0Q171 748 260.5 810.0Q350 872 474 872Z"/><path transform="translate(519.36 312.00) scale(0.00800 -0.00800)" d="M348 689V85L503 37V0H50V37L202 85V674Q186 691 154.0 707.0Q122 723 54 745V770L297 872H318ZM624 37 779 85V558Q779 612 756.0 651.5Q733 691 688.0 712.5Q643 734 578 734Q499 734 431.5 704.5Q364 675 338 634L299 666Q352 723 399.5 762.5Q447 802 492.5 826.0Q538 850 586.0 861.0Q634 872 687 872Q808 872 866.5 794.5Q925 717 925 549V85L1079 37V0H624Z"/><path transform="translate(528.12 312.00) scale(0.00800 -0.00800)" d="M381 872Q437 872 483.0 861.0Q529 850 587 821L602 585H559L461 828L529 744Q492 773 458.5 787.5Q425 802 384 802Q309 802 265.5 769.0Q222 736 222 677Q222 628 249.0 597.0Q276 566 320.0 543.5Q364 521 414 498Q452 481 489.0 459.5Q526 438 556.0 408.0Q586 378 604.5 336.0Q623 294 623 235Q623 153 582.5 96.0Q542 39 472.5 9.5Q403 -20 314 -20Q256 -20 210.5 -11.5Q165 -3 120 16L75 257H122L256 8L134 86Q172 68 197.5 59.0Q223 50 244.0 47.5Q265 45 287 45Q382 45 437.5 83.0Q493 121 493 196Q493 238 473.5 266.0Q454 294 421.5 314.5Q389 335 351.0 352.0Q313 369 277 387Q229 412 189.0 443.0Q149 474 125.0 521.0Q101 568 101 638Q101 712 137.5 764.0Q174 816 237.5 844.0Q301 872 381 872Z"/><path transform="translate(533.78 312.00) scale(0.00800 -0.00800)" d="M267 1181Q214 1181 180.5 1215.5Q147 1250 147 1300Q147 1350 180.5 1384.5Q214 1419 267 1419Q320 1419 353.5 1384.5Q387 1350 387 1300Q387 1250 353.5 1215.5Q320 1181 267 1181ZM356 872 350 710V85L505 37V0H52V37L204 85V686Q193 698 169.5 712.5Q146 727 116.5 741.0Q87 755 56 764V795L338 872Z"/><path transform="translate(538.05 312.00) scale(0.00800 -0.00800)" d="M858 772 537 -20H489L119 762L-5 809V852H406V809L276 767L559 170H544L776 772L646 809V852H965V809Z"/><path transform="translate(546.01 312.00) scale(0.00800 -0.00800)" d="M474 872Q571 872 642.0 829.0Q713 786 755.5 703.5Q798 621 808 502H196L198 569L712 593L644 551Q637 623 615.5 677.5Q594 732 556.0 762.5Q518 793 459 793Q389 793 336.0 754.5Q283 716 253.5 642.0Q224 568 224 461Q224 350 267.5 269.0Q311 188 389.0 144.0Q467 100 571 100Q609 100 645.5 110.0Q682 120 718.0 140.0Q754 160 788 189L813 162Q763 100 711.0 59.5Q659 19 601.0 -0.5Q543 -20 476 -20Q360 -20 269.5 36.5Q179 93 127.0 191.0Q75 289 75 414Q75 540 123.0 644.0Q171 748 260.5 810.0Q350 872 474 872Z"/><path transform="translate(556.59 312.00) scale(0.00800 -0.00800)" d="M348 689V85L503 37V0H50V37L202 85V674Q186 691 154.0 707.0Q122 723 54 745V770L297 872H318ZM624 37 779 85V558Q779 612 756.0 651.5Q733 691 688.0 712.5Q643 734 578 734Q499 734 431.5 704.5Q364 675 338 634L299 666Q352 723 399.5 762.5Q447 802 492.5 826.0Q538 850 586.0 861.0Q634 872 687 872Q808 872 866.5 794.5Q925 717 925 549V85L1079 37V0H624Z"/><path transform="translate(565.35 312.00) scale(0.00800 -0.00800)" d="M508 57Q583 57 642.0 93.5Q701 130 735.0 206.5Q769 283 769 402Q769 530 735.5 617.5Q702 705 642.0 750.0Q582 795 501 795Q426 795 367.0 758.5Q308 722 274.0 645.5Q240 569 240 450Q240 323 273.5 235.0Q307 147 367.5 102.0Q428 57 508 57ZM502 -20Q376 -20 279.5 35.5Q183 91 129.0 189.5Q75 288 75 416Q75 548 131.5 651.0Q188 754 285.5 813.0Q383 872 507 872Q634 872 730.0 816.5Q826 761 880.0 663.0Q934 565 934 436Q934 304 877.5 201.0Q821 98 723.5 39.0Q626 -20 502 -20Z"/><path transform="translate(573.42 312.00) scale(0.00800 -0.00800)" d="M267 1181Q214 1181 180.5 1215.5Q147 1250 147 1300Q147 1350 180.5 1384.5Q214 1419 267 1419Q320 1419 353.5 1384.5Q387 1350 387 1300Q387 1250 353.5 1215.5Q320 1181 267 1181ZM356 872 350 710V85L505 37V0H52V37L204 85V686Q193 698 169.5 712.5Q146 727 116.5 741.0Q87 755 56 764V795L338 872Z"/><path transform="translate(577.70 312.00) scale(0.00800 -0.00800)" d="M381 872Q437 872 483.0 861.0Q529 850 587 821L602 585H559L461 828L529 744Q492 773 458.5 787.5Q425 802 384 802Q309 802 265.5 769.0Q222 736 222 677Q222 628 249.0 597.0Q276 566 320.0 543.5Q364 521 414 498Q452 481 489.0 459.5Q526 438 556.0 408.0Q586 378 604.5 336.0Q623 294 623 235Q623 153 582.5 96.0Q542 39 472.5 9.5Q403 -20 314 -20Q256 -20 210.5 -11.5Q165 -3 120 16L75 257H122L256 8L134 86Q172 68 197.5 59.0Q223 50 244.0 47.5Q265 45 287 45Q382 45 437.5 83.0Q493 121 493 196Q493 238 473.5 266.0Q454 294 421.5 314.5Q389 335 351.0 352.0Q313 369 277 387Q229 412 189.0 443.0Q149 474 125.0 521.0Q101 568 101 638Q101 712 137.5 764.0Q174 816 237.5 844.0Q301 872 381 872Z"/><path transform="translate(583.35 312.00) scale(0.00800 -0.00800)" d="M474 872Q571 872 642.0 829.0Q713 786 755.5 703.5Q798 621 808 502H196L198 569L712 593L644 551Q637 623 615.5 677.5Q594 732 556.0 762.5Q518 793 459 793Q389 793 336.0 754.5Q283 716 253.5 642.0Q224 568 224 461Q224 350 267.5 269.0Q311 188 389.0 144.0Q467 100 571 100Q609 100 645.5 110.0Q682 120 718.0 140.0Q754 160 788 189L813 162Q763 100 711.0 59.5Q659 19 601.0 -0.5Q543 -20 476 -20Q360 -20 269.5 36.5Q179 93 127.0 191.0Q75 289 75 414Q75 540 123.0 644.0Q171 748 260.5 810.0Q350 872 474 872Z"/><path transform="translate(590.38 312.00) scale(0.00800 -0.00800)" d="M220 224Q273 224 307.0 189.5Q341 155 341 105Q341 56 307.0 21.0Q273 -14 220 -14Q168 -14 133.5 21.0Q99 56 99 105Q99 155 133.5 189.5Q168 224 220 224Z"/></g>
</g>
</svg>