<svg xmlns="http://www.w3.org/2000/svg" width="1000" height="560" viewBox="0 0 1000 560">
<defs>
<linearGradient id="paper" x1="0" y1="0" x2="0" y2="1"><stop offset="0" stop-color="#faf6ef"/><stop offset="1" stop-color="#f2ece0"/></linearGradient>
<linearGradient id="lane" x1="0" y1="0" x2="1" y2="0"><stop offset="0" stop-color="#e7c4b4"/><stop offset="1" stop-color="#dca98f"/></linearGradient>
<style>.sd{font-family:'Fraunces',Georgia,serif;}.st{font-family:'Newsreader',Georgia,serif;}</style>
</defs>
<rect x="0" y="0" width="1000" height="560" fill="url(#paper)"/>
<g fill="#9a3415"><path transform="translate(288.04 62.00) scale(0.01300 -0.01300)" d="M315 1400H1051Q1085 1400 1107.5 1409.0Q1130 1418 1148.0 1426.5Q1166 1435 1184 1435Q1211 1435 1225.5 1421.5Q1240 1408 1249 1374L1315 1040Q1320 1016 1311.5 1000.5Q1303 985 1283 981Q1264 977 1249.5 984.5Q1235 992 1224 1013Q1170 1138 1129.5 1202.0Q1089 1266 1049.5 1289.0Q1010 1312 957 1312H836V146Q836 125 848.0 112.5Q860 100 883 94L945 81Q981 70 981 39Q981 0 931 0H437Q411 0 398.5 10.5Q386 21 386 39Q386 70 422 81L484 94Q508 100 520.0 112.5Q532 125 532 146V1312H410Q358 1312 318.5 1288.0Q279 1264 238.5 1200.0Q198 1136 143 1013Q133 992 118.0 984.5Q103 977 84 981Q64 985 56.0 1000.5Q48 1016 52 1040L118 1374Q127 1408 141.5 1421.5Q156 1435 183 1435Q201 1435 218.5 1426.5Q236 1418 258.5 1409.0Q281 1400 315 1400Z"/><path transform="translate(309.81 62.00) scale(0.01300 -0.01300)" d="M377 706H1227V618H377ZM548 146Q548 125 560.5 112.5Q573 100 596 94L657 81Q694 70 694 39Q694 21 681.5 10.5Q669 0 643 0H149Q123 0 110.5 10.5Q98 21 98 39Q98 70 135 81L196 94Q220 100 232.0 112.5Q244 125 244 146V1254Q244 1275 232.0 1287.5Q220 1300 196 1306L135 1319Q98 1330 98 1361Q98 1380 110.5 1390.0Q123 1400 149 1400H643Q669 1400 681.5 1390.0Q694 1380 694 1361Q694 1330 657 1319L596 1306Q573 1300 560.5 1287.5Q548 1275 548 1254ZM1423 146Q1423 125 1435.0 112.5Q1447 100 1470 94L1532 81Q1568 70 1568 39Q1568 21 1556.0 10.5Q1544 0 1518 0H1024Q998 0 985.5 10.5Q973 21 973 39Q973 70 1009 81L1071 94Q1095 100 1107.0 112.5Q1119 125 1119 146V1254Q1119 1275 1107.0 1287.5Q1095 1300 1071 1306L1009 1319Q973 1330 973 1361Q973 1380 985.5 1390.0Q998 1400 1024 1400H1518Q1544 1400 1556.0 1390.0Q1568 1380 1568 1361Q1568 1330 1532 1319L1470 1306Q1447 1300 1435.0 1287.5Q1423 1275 1423 1254Z"/><path transform="translate(335.48 62.00) scale(0.01300 -0.01300)" d="M444 749H751Q817 749 845.0 776.0Q873 803 886 878Q891 899 901.5 909.0Q912 919 927 920Q960 922 970 883L1051 577Q1057 555 1051.5 541.5Q1046 528 1028 523Q1012 518 997.0 522.5Q982 527 972 543Q941 593 915.0 619.5Q889 646 858.0 656.0Q827 666 781 666H444ZM98 1361Q98 1380 110.0 1390.0Q122 1400 148 1400H926Q960 1400 982.5 1409.5Q1005 1419 1024.0 1428.5Q1043 1438 1065 1438Q1090 1438 1103.5 1423.5Q1117 1409 1126 1375L1208 1079Q1214 1057 1207.5 1043.0Q1201 1029 1183 1023Q1162 1016 1145.0 1024.0Q1128 1032 1117 1053Q1074 1136 1037.5 1187.5Q1001 1239 965.5 1267.0Q930 1295 891.0 1305.0Q852 1315 802 1315H547V173Q547 129 572.5 107.0Q598 85 648 85H828Q895 85 946.0 109.0Q997 133 1047.0 202.0Q1097 271 1159 406Q1168 425 1182.5 432.5Q1197 440 1215 436Q1235 433 1244.0 418.0Q1253 403 1247 379L1158 29Q1148 -4 1134.5 -19.5Q1121 -35 1093 -35Q1073 -35 1054.5 -26.0Q1036 -17 1012.5 -8.5Q989 0 955 0H148Q122 0 110.0 10.5Q98 21 98 39Q98 70 134 81L195 94Q219 100 231.0 112.5Q243 125 243 146V1254Q243 1275 231.0 1287.5Q219 1300 195 1306L134 1319Q98 1330 98 1361Z"/><path transform="translate(365.70 62.00) scale(0.01300 -0.01300)" d="M1346 337Q1346 188 1218.0 94.0Q1090 0 836 0H148Q122 0 109.5 10.5Q97 21 97 39Q97 70 134 81L195 94Q219 100 231.0 113.0Q243 126 243 148V1254Q243 1275 231.5 1287.5Q220 1300 195 1306L134 1319Q97 1330 97 1361Q97 1380 109.5 1390.0Q122 1400 148 1400H678Q865 1400 996.5 1349.0Q1128 1298 1197.0 1207.5Q1266 1117 1266 997Q1266 897 1210.0 818.5Q1154 740 1045.0 695.0Q936 650 778 650L831 676Q986 676 1102.0 632.5Q1218 589 1282.0 512.5Q1346 436 1346 337ZM724 618H471V687H706Q795 687 856.0 721.0Q917 755 948.0 821.0Q979 887 979 981Q979 1084 938.5 1160.5Q898 1237 821.5 1279.5Q745 1322 637 1322H546V165Q546 121 573.5 99.5Q601 78 654 78H769Q857 78 918.5 111.0Q980 144 1011.0 204.0Q1042 264 1042 345Q1042 469 961.0 543.5Q880 618 724 618Z"/><path transform="translate(387.83 62.00) scale(0.01300 -0.01300)" d="M781 1432Q943 1432 1074.0 1378.0Q1205 1324 1299.0 1225.5Q1393 1127 1443.5 992.0Q1494 857 1494 694Q1494 536 1444.0 402.5Q1394 269 1300.5 171.5Q1207 74 1077.0 20.0Q947 -34 787 -34Q626 -34 495.0 20.0Q364 74 270.0 172.5Q176 271 125.5 407.0Q75 543 75 707Q75 864 125.5 996.5Q176 1129 269.0 1227.0Q362 1325 492.0 1378.5Q622 1432 781 1432ZM1182 509Q1182 644 1157.5 768.0Q1133 892 1089.0 996.5Q1045 1101 986.5 1178.5Q928 1256 858.5 1299.5Q789 1343 714 1343Q616 1343 543.0 1290.0Q470 1237 429.5 1136.0Q389 1035 389 892Q389 757 413.5 632.0Q438 507 482.0 402.0Q526 297 584.5 219.0Q643 141 712.5 97.5Q782 54 857 54Q957 54 1029.5 107.5Q1102 161 1142.0 262.0Q1182 363 1182 509Z"/><path transform="translate(412.24 62.00) scale(0.01300 -0.01300)" d="M315 1400H1051Q1085 1400 1107.5 1409.0Q1130 1418 1148.0 1426.5Q1166 1435 1184 1435Q1211 1435 1225.5 1421.5Q1240 1408 1249 1374L1315 1040Q1320 1016 1311.5 1000.5Q1303 985 1283 981Q1264 977 1249.5 984.5Q1235 992 1224 1013Q1170 1138 1129.5 1202.0Q1089 1266 1049.5 1289.0Q1010 1312 957 1312H836V146Q836 125 848.0 112.5Q860 100 883 94L945 81Q981 70 981 39Q981 0 931 0H437Q411 0 398.5 10.5Q386 21 386 39Q386 70 422 81L484 94Q508 100 520.0 112.5Q532 125 532 146V1312H410Q358 1312 318.5 1288.0Q279 1264 238.5 1200.0Q198 1136 143 1013Q133 992 118.0 984.5Q103 977 84 981Q64 985 56.0 1000.5Q48 1016 52 1040L118 1374Q127 1408 141.5 1421.5Q156 1435 183 1435Q201 1435 218.5 1426.5Q236 1418 258.5 1409.0Q281 1400 315 1400Z"/><path transform="translate(434.02 62.00) scale(0.01300 -0.01300)" d="M315 1400H1051Q1085 1400 1107.5 1409.0Q1130 1418 1148.0 1426.5Q1166 1435 1184 1435Q1211 1435 1225.5 1421.5Q1240 1408 1249 1374L1315 1040Q1320 1016 1311.5 1000.5Q1303 985 1283 981Q1264 977 1249.5 984.5Q1235 992 1224 1013Q1170 1138 1129.5 1202.0Q1089 1266 1049.5 1289.0Q1010 1312 957 1312H836V146Q836 125 848.0 112.5Q860 100 883 94L945 81Q981 70 981 39Q981 0 931 0H437Q411 0 398.5 10.5Q386 21 386 39Q386 70 422 81L484 94Q508 100 520.0 112.5Q532 125 532 146V1312H410Q358 1312 318.5 1288.0Q279 1264 238.5 1200.0Q198 1136 143 1013Q133 992 118.0 984.5Q103 977 84 981Q64 985 56.0 1000.5Q48 1016 52 1040L118 1374Q127 1408 141.5 1421.5Q156 1435 183 1435Q201 1435 218.5 1426.5Q236 1418 258.5 1409.0Q281 1400 315 1400Z"/><path transform="translate(455.79 62.00) scale(0.01300 -0.01300)" d="M656 1319 594 1306Q571 1300 559.0 1287.5Q547 1275 547 1254V150Q547 115 567.0 100.0Q587 85 628 85H798Q853 85 894.0 101.0Q935 117 969.5 158.0Q1004 199 1039 275L1107 423Q1117 444 1131.5 451.5Q1146 459 1165 454Q1186 450 1194.0 435.5Q1202 421 1195 397L1105 28Q1095 -5 1081.0 -20.0Q1067 -35 1041 -35Q1023 -35 1004.0 -26.5Q985 -18 961.0 -9.0Q937 0 902 0H148Q122 0 109.5 10.5Q97 21 97 39Q97 70 133 81L195 94Q219 100 231.0 112.5Q243 125 243 146V1254Q243 1275 231.0 1287.5Q219 1300 195 1306L133 1319Q97 1330 97 1361Q97 1380 109.5 1390.0Q122 1400 148 1400H642Q668 1400 680.0 1390.0Q692 1380 692 1361Q692 1330 656 1319Z"/><path transform="translate(475.84 62.00) scale(0.01300 -0.01300)" d="M444 749H751Q817 749 845.0 776.0Q873 803 886 878Q891 899 901.5 909.0Q912 919 927 920Q960 922 970 883L1051 577Q1057 555 1051.5 541.5Q1046 528 1028 523Q1012 518 997.0 522.5Q982 527 972 543Q941 593 915.0 619.5Q889 646 858.0 656.0Q827 666 781 666H444ZM98 1361Q98 1380 110.0 1390.0Q122 1400 148 1400H926Q960 1400 982.5 1409.5Q1005 1419 1024.0 1428.5Q1043 1438 1065 1438Q1090 1438 1103.5 1423.5Q1117 1409 1126 1375L1208 1079Q1214 1057 1207.5 1043.0Q1201 1029 1183 1023Q1162 1016 1145.0 1024.0Q1128 1032 1117 1053Q1074 1136 1037.5 1187.5Q1001 1239 965.5 1267.0Q930 1295 891.0 1305.0Q852 1315 802 1315H547V173Q547 129 572.5 107.0Q598 85 648 85H828Q895 85 946.0 109.0Q997 133 1047.0 202.0Q1097 271 1159 406Q1168 425 1182.5 432.5Q1197 440 1215 436Q1235 433 1244.0 418.0Q1253 403 1247 379L1158 29Q1148 -4 1134.5 -19.5Q1121 -35 1093 -35Q1073 -35 1054.5 -26.0Q1036 -17 1012.5 -8.5Q989 0 955 0H148Q122 0 110.0 10.5Q98 21 98 39Q98 70 134 81L195 94Q219 100 231.0 112.5Q243 125 243 146V1254Q243 1275 231.0 1287.5Q219 1300 195 1306L134 1319Q98 1330 98 1361Z"/><path transform="translate(496.69 62.00) scale(0.01300 -0.01300)" d="M521 39Q521 21 508.5 10.5Q496 0 470 0H128Q102 0 89.0 10.5Q76 21 76 39Q76 68 114 82L163 96Q209 113 228.0 136.0Q247 159 247 208V1105Q247 1133 241.0 1151.0Q235 1169 209 1200L123 1315Q109 1334 103.5 1345.0Q98 1356 98 1366Q98 1383 109.5 1391.5Q121 1400 140 1400H384Q409 1400 426.0 1390.5Q443 1381 461 1356L1225 295L1185 195V1192Q1185 1240 1166.5 1263.5Q1148 1287 1100 1304L1045 1318Q1007 1334 1007 1361Q1007 1380 1019.5 1390.0Q1032 1400 1058 1400H1400Q1426 1400 1439.0 1390.0Q1452 1380 1452 1361Q1452 1333 1414 1318L1365 1304Q1319 1288 1300.0 1265.0Q1281 1242 1281 1192V269Q1281 241 1286.5 220.5Q1292 200 1304 182L1368 95Q1385 72 1389.0 60.0Q1393 48 1393 37Q1393 20 1381.5 10.0Q1370 0 1348 0H1078Q1037 0 1037 34Q1037 48 1031.5 61.0Q1026 74 1002 107L259 1138L344 1192V207Q344 160 362.5 137.0Q381 114 428 96L483 82Q521 67 521 39Z"/><path transform="translate(520.32 62.00) scale(0.01300 -0.01300)" d="M444 749H751Q817 749 845.0 776.0Q873 803 886 878Q891 899 901.5 909.0Q912 919 927 920Q960 922 970 883L1051 577Q1057 555 1051.5 541.5Q1046 528 1028 523Q1012 518 997.0 522.5Q982 527 972 543Q941 593 915.0 619.5Q889 646 858.0 656.0Q827 666 781 666H444ZM98 1361Q98 1380 110.0 1390.0Q122 1400 148 1400H926Q960 1400 982.5 1409.5Q1005 1419 1024.0 1428.5Q1043 1438 1065 1438Q1090 1438 1103.5 1423.5Q1117 1409 1126 1375L1208 1079Q1214 1057 1207.5 1043.0Q1201 1029 1183 1023Q1162 1016 1145.0 1024.0Q1128 1032 1117 1053Q1074 1136 1037.5 1187.5Q1001 1239 965.5 1267.0Q930 1295 891.0 1305.0Q852 1315 802 1315H547V173Q547 129 572.5 107.0Q598 85 648 85H828Q895 85 946.0 109.0Q997 133 1047.0 202.0Q1097 271 1159 406Q1168 425 1182.5 432.5Q1197 440 1215 436Q1235 433 1244.0 418.0Q1253 403 1247 379L1158 29Q1148 -4 1134.5 -19.5Q1121 -35 1093 -35Q1073 -35 1054.5 -26.0Q1036 -17 1012.5 -8.5Q989 0 955 0H148Q122 0 110.0 10.5Q98 21 98 39Q98 70 134 81L195 94Q219 100 231.0 112.5Q243 125 243 146V1254Q243 1275 231.0 1287.5Q219 1300 195 1306L134 1319Q98 1330 98 1361Z"/><path transform="translate(541.17 62.00) scale(0.01300 -0.01300)" d="M1322 377Q1319 302 1280.0 228.5Q1241 155 1168.5 95.0Q1096 35 994.5 -0.5Q893 -36 766 -36Q552 -36 397.0 56.5Q242 149 158.0 312.5Q74 476 74 689Q74 851 124.5 986.5Q175 1122 265.5 1222.5Q356 1323 479.0 1378.0Q602 1433 748 1433Q847 1433 910.0 1413.0Q973 1393 1009.0 1373.0Q1045 1353 1063 1353Q1086 1353 1101.0 1371.0Q1116 1389 1131.0 1407.0Q1146 1425 1168 1425Q1183 1425 1193.5 1415.5Q1204 1406 1211 1382L1315 1027Q1321 1007 1311.0 991.5Q1301 976 1281 972Q1261 968 1245.0 976.0Q1229 984 1219 1006Q1165 1129 1099.0 1202.5Q1033 1276 956.5 1308.0Q880 1340 792 1340Q703 1340 628.0 1300.0Q553 1260 498.5 1184.0Q444 1108 414.0 1001.0Q384 894 384 760Q384 553 446.5 410.5Q509 268 617.5 195.0Q726 122 865 122Q1001 122 1100.0 190.0Q1199 258 1249 381Q1259 401 1270.5 408.0Q1282 415 1296 412Q1309 410 1315.5 401.0Q1322 392 1322 377Z"/><path transform="translate(563.15 62.00) scale(0.01300 -0.01300)" d="M450 536 1056 1148Q1096 1187 1107.5 1218.5Q1119 1250 1106.5 1273.5Q1094 1297 1060 1308L1008 1320Q989 1327 980.5 1336.5Q972 1346 972 1361Q972 1380 985.0 1390.0Q998 1400 1024 1400H1420Q1446 1400 1458.5 1390.0Q1471 1380 1471 1362Q1471 1346 1460.5 1337.0Q1450 1328 1419 1317Q1401 1312 1382.0 1303.0Q1363 1294 1338.0 1275.0Q1313 1256 1275.0 1222.5Q1237 1189 1179 1134L489 454ZM694 740 925 937 1397 161Q1419 124 1441.5 108.0Q1464 92 1496 86Q1523 77 1532.0 65.5Q1541 54 1541 38Q1541 21 1528.0 10.5Q1515 0 1489 0H1003Q977 0 964.0 10.5Q951 21 951 39Q951 55 960.0 65.0Q969 75 984 80L1041 90Q1061 95 1062.5 111.5Q1064 128 1045 160ZM547 146Q547 125 558.0 113.0Q569 101 590 94L647 81Q668 73 675.5 63.5Q683 54 683 39Q683 21 671.0 10.5Q659 0 633 0H148Q122 0 110.0 10.5Q98 21 98 39Q98 70 134 81L195 94Q219 100 231.0 112.5Q243 125 243 146V1254Q243 1275 231.0 1287.5Q219 1300 195 1306L134 1319Q98 1330 98 1361Q98 1380 110.0 1390.0Q122 1400 148 1400H642Q669 1400 681.0 1390.0Q693 1380 693 1361Q693 1330 657 1319L595 1306Q572 1300 559.5 1287.5Q547 1275 547 1254Z"/><path transform="translate(596.67 62.00) scale(0.01300 -0.01300)" d="M958 407 871 373 1237 1320Q1254 1365 1276.5 1382.5Q1299 1400 1339 1400H1636Q1662 1400 1675.0 1390.0Q1688 1380 1688 1361Q1688 1346 1679.0 1335.5Q1670 1325 1651 1319L1594 1305Q1563 1297 1551.5 1280.0Q1540 1263 1543 1226L1621 160Q1623 128 1634.0 115.0Q1645 102 1673 94L1729 81Q1747 76 1755.5 66.0Q1764 56 1764 40Q1764 23 1751.5 11.5Q1739 0 1712 0H1224Q1198 0 1185.0 10.5Q1172 21 1172 39Q1172 54 1180.0 64.5Q1188 75 1209 81L1265 94Q1298 103 1309.5 117.0Q1321 131 1319 160L1236 1238L1314 1246L893 137Q877 95 860.5 82.5Q844 70 822 70Q806 70 793.0 75.0Q780 80 768.0 94.5Q756 109 744 141L310 1218L385 1249L299 199Q296 156 318.5 132.5Q341 109 382 93L437 77Q451 71 459.0 62.5Q467 54 467 40Q467 22 454.0 11.0Q441 0 415 0H86Q60 0 47.5 10.5Q35 21 35 39Q35 57 46.0 66.0Q57 75 75 82L119 96Q155 108 177.0 132.0Q199 156 203 200L285 1197Q289 1246 276.5 1271.5Q264 1297 231 1305L178 1317Q157 1323 147.5 1333.5Q138 1344 138 1360Q138 1400 191 1400H487Q525 1400 547.5 1385.0Q570 1370 587 1324Z"/><path transform="translate(624.20 62.00) scale(0.01300 -0.01300)" d="M781 1432Q943 1432 1074.0 1378.0Q1205 1324 1299.0 1225.5Q1393 1127 1443.5 992.0Q1494 857 1494 694Q1494 536 1444.0 402.5Q1394 269 1300.5 171.5Q1207 74 1077.0 20.0Q947 -34 787 -34Q626 -34 495.0 20.0Q364 74 270.0 172.5Q176 271 125.5 407.0Q75 543 75 707Q75 864 125.5 996.5Q176 1129 269.0 1227.0Q362 1325 492.0 1378.5Q622 1432 781 1432ZM1182 509Q1182 644 1157.5 768.0Q1133 892 1089.0 996.5Q1045 1101 986.5 1178.5Q928 1256 858.5 1299.5Q789 1343 714 1343Q616 1343 543.0 1290.0Q470 1237 429.5 1136.0Q389 1035 389 892Q389 757 413.5 632.0Q438 507 482.0 402.0Q526 297 584.5 219.0Q643 141 712.5 97.5Q782 54 857 54Q957 54 1029.5 107.5Q1102 161 1142.0 262.0Q1182 363 1182 509Z"/><path transform="translate(648.61 62.00) scale(0.01300 -0.01300)" d="M961 1361Q961 1380 973.5 1390.0Q986 1400 1012 1400H1332Q1358 1400 1370.5 1390.0Q1383 1380 1383 1362Q1383 1349 1375.0 1340.0Q1367 1331 1347 1323L1309 1310Q1277 1296 1254.5 1267.0Q1232 1238 1212 1177L884 187Q874 155 869.5 134.0Q865 113 865 91V42Q865 22 853.5 11.0Q842 0 823 0H576Q557 0 545.5 11.0Q534 22 534 43V92Q534 107 529.0 126.0Q524 145 516 169L148 1246Q138 1274 127.0 1287.0Q116 1300 96 1308L56 1321Q23 1334 23 1361Q23 1380 36.0 1390.0Q49 1400 75 1400H555Q581 1400 593.5 1390.0Q606 1380 606 1361Q606 1347 597.0 1338.0Q588 1329 569 1322L500 1309Q475 1301 469.5 1283.5Q464 1266 477 1228L834 168L753 97L1114 1184Q1130 1233 1118.0 1263.5Q1106 1294 1054 1310L998 1323Q980 1330 970.5 1338.0Q961 1346 961 1361Z"/><path transform="translate(670.74 62.00) scale(0.01300 -0.01300)" d="M444 749H751Q817 749 845.0 776.0Q873 803 886 878Q891 899 901.5 909.0Q912 919 927 920Q960 922 970 883L1051 577Q1057 555 1051.5 541.5Q1046 528 1028 523Q1012 518 997.0 522.5Q982 527 972 543Q941 593 915.0 619.5Q889 646 858.0 656.0Q827 666 781 666H444ZM98 1361Q98 1380 110.0 1390.0Q122 1400 148 1400H926Q960 1400 982.5 1409.5Q1005 1419 1024.0 1428.5Q1043 1438 1065 1438Q1090 1438 1103.5 1423.5Q1117 1409 1126 1375L1208 1079Q1214 1057 1207.5 1043.0Q1201 1029 1183 1023Q1162 1016 1145.0 1024.0Q1128 1032 1117 1053Q1074 1136 1037.5 1187.5Q1001 1239 965.5 1267.0Q930 1295 891.0 1305.0Q852 1315 802 1315H547V173Q547 129 572.5 107.0Q598 85 648 85H828Q895 85 946.0 109.0Q997 133 1047.0 202.0Q1097 271 1159 406Q1168 425 1182.5 432.5Q1197 440 1215 436Q1235 433 1244.0 418.0Q1253 403 1247 379L1158 29Q1148 -4 1134.5 -19.5Q1121 -35 1093 -35Q1073 -35 1054.5 -26.0Q1036 -17 1012.5 -8.5Q989 0 955 0H148Q122 0 110.0 10.5Q98 21 98 39Q98 70 134 81L195 94Q219 100 231.0 112.5Q243 125 243 146V1254Q243 1275 231.0 1287.5Q219 1300 195 1306L134 1319Q98 1330 98 1361Z"/><path transform="translate(691.59 62.00) scale(0.01300 -0.01300)" d="M98 39Q98 70 134 81L196 94Q220 100 231.5 112.5Q243 125 243 146V1254Q243 1274 231.5 1287.0Q220 1300 196 1306L133 1319Q98 1330 98 1362Q98 1380 110.0 1390.0Q122 1400 148 1400H670Q855 1400 1006.5 1346.0Q1158 1292 1267.0 1192.0Q1376 1092 1435.0 954.5Q1494 817 1494 650Q1494 459 1406.0 312.5Q1318 166 1154.5 83.0Q991 0 764 0H148Q122 0 110.0 10.5Q98 21 98 39ZM740 85Q871 85 969.5 148.0Q1068 211 1123.0 338.5Q1178 466 1178 661Q1178 814 1141.0 935.0Q1104 1056 1034.0 1141.0Q964 1226 865.0 1270.5Q766 1315 642 1315H547V166Q547 124 571.0 104.5Q595 85 642 85Z"/></g>
<g fill="#6f685a"><path transform="translate(349.41 92.00) scale(0.00800 -0.00800)" d="M580 1252 609 1340H891Q1010 1340 1083.5 1304.5Q1157 1269 1190.5 1210.0Q1224 1151 1224 1081Q1224 989 1180.5 908.5Q1137 828 1051.5 774.5Q966 721 841 710L829 725Q968 716 1043.5 641.0Q1119 566 1119 457Q1119 344 1056.5 239.0Q994 134 868.5 67.0Q743 0 553 0H200L229 88H516Q656 88 753.5 135.5Q851 183 902.5 268.5Q954 354 954 467Q954 559 894.5 613.0Q835 667 702 667H401L431 755H735Q838 755 915.0 796.5Q992 838 1035.0 910.0Q1078 982 1078 1073Q1078 1131 1052.5 1171.0Q1027 1211 976.0 1231.5Q925 1252 850 1252ZM494 1249 360 1301 372 1340H674L264 0H-38L-26 39L140 91Z"/><path transform="translate(359.12 92.00) scale(0.00800 -0.00800)" d="M541 35 650 389H657Q583 260 523.5 179.0Q464 98 414.0 55.0Q364 12 320.0 -4.0Q276 -20 232 -20Q163 -20 132.0 11.0Q101 42 101 95Q101 127 111.5 170.0Q122 213 143 268L335 781L361 740Q327 742 282.5 725.5Q238 709 191.0 676.5Q144 644 100 598L67 628Q137 722 196.5 775.0Q256 828 309.0 850.0Q362 872 410 872Q452 872 471.5 857.5Q491 843 481 817L259 220Q252 199 247.5 181.5Q243 164 243 150Q243 127 257.0 114.5Q271 102 303 102Q345 102 399.5 140.5Q454 179 510.5 248.5Q567 318 617.5 412.5Q668 507 702 619L773 852H908L674 80L675 109Q708 105 750.5 118.0Q793 131 839.5 159.0Q886 187 930 227L958 195Q852 71 772.5 25.5Q693 -20 626 -20Q571 -20 552.0 -6.5Q533 7 541 35Z"/><path transform="translate(366.85 92.00) scale(0.00800 -0.00800)" d="M65 35 325 761 354 739Q322 740 280.5 723.0Q239 706 195.0 674.5Q151 643 111 598L81 627Q150 725 207.5 778.0Q265 831 315.0 851.5Q365 872 410 872Q448 872 466.5 857.5Q485 843 476 817L216 71L199 109Q232 105 274.5 118.0Q317 131 363.5 159.0Q410 187 454 227L482 195Q412 113 353.0 66.0Q294 19 244.5 -0.5Q195 -20 150 -20Q95 -20 75.0 -6.0Q55 8 65 35ZM399 1300Q399 1332 413.5 1357.5Q428 1383 453.5 1398.0Q479 1413 513 1413Q564 1413 595.5 1380.5Q627 1348 627 1300Q627 1268 612.5 1242.5Q598 1217 572.5 1202.0Q547 1187 513 1187Q462 1187 430.5 1219.5Q399 1252 399 1300Z"/><path transform="translate(371.13 92.00) scale(0.00800 -0.00800)" d="M404 1268Q386 1285 369.0 1298.5Q352 1312 331.5 1323.5Q311 1335 282 1345L290 1370L559 1419H582L179 81L167 109Q200 105 242.5 118.0Q285 131 331.5 159.0Q378 187 422 227L450 195Q380 113 321.0 66.0Q262 19 212.5 -0.5Q163 -20 118 -20Q71 -20 47.5 -7.0Q24 6 33 35Z"/><path transform="translate(375.05 92.00) scale(0.00800 -0.00800)" d="M713 730Q705 754 678.0 774.0Q651 794 608 794Q534 794 468.5 748.5Q403 703 349.0 630.0Q295 557 255.5 474.5Q216 392 194.5 316.5Q173 241 173 191Q173 147 197.0 125.0Q221 103 258 103Q287 103 328.0 123.0Q369 143 414.0 178.5Q459 214 502.5 262.0Q546 310 581.0 367.5Q616 425 635 487L876 1268Q858 1285 841.0 1298.5Q824 1312 803.5 1323.5Q783 1335 754 1345L762 1370L1031 1419H1054L637 71L620 109Q653 104 695.5 117.0Q738 130 784.5 158.5Q831 187 875 227L903 195Q795 75 716.5 27.5Q638 -20 571 -20Q528 -20 508.5 -2.0Q489 16 499 45L603 367H629Q553 255 491.5 180.5Q430 106 379.5 63.0Q329 20 285.5 1.5Q242 -17 203 -17Q149 -17 109.0 3.0Q69 23 47.0 67.5Q25 112 25 183Q25 259 54.5 350.5Q84 442 136.5 533.0Q189 624 260.0 699.5Q331 775 414.5 821.0Q498 867 589 867Q647 867 684.5 846.5Q722 826 753 785Z"/><path transform="translate(382.51 92.00) scale(0.00800 -0.00800)" d="M65 35 325 761 354 739Q322 740 280.5 723.0Q239 706 195.0 674.5Q151 643 111 598L81 627Q150 725 207.5 778.0Q265 831 315.0 851.5Q365 872 410 872Q448 872 466.5 857.5Q485 843 476 817L216 71L199 109Q232 105 274.5 118.0Q317 131 363.5 159.0Q410 187 454 227L482 195Q412 113 353.0 66.0Q294 19 244.5 -0.5Q195 -20 150 -20Q95 -20 75.0 -6.0Q55 8 65 35ZM399 1300Q399 1332 413.5 1357.5Q428 1383 453.5 1398.0Q479 1413 513 1413Q564 1413 595.5 1380.5Q627 1348 627 1300Q627 1268 612.5 1242.5Q598 1217 572.5 1202.0Q547 1187 513 1187Q462 1187 430.5 1219.5Q399 1252 399 1300Z"/><path transform="translate(386.79 92.00) scale(0.00800 -0.00800)" d="M92 582 56 597Q97 703 145.5 762.5Q194 822 248.0 846.5Q302 871 356 871Q375 871 393.5 868.5Q412 866 430.5 862.0Q449 858 467 852L347 462H341Q385 540 435.5 613.0Q486 686 542.0 743.5Q598 801 658.0 835.0Q718 869 780 869Q863 869 894.5 833.5Q926 798 926 741Q926 709 916.0 670.0Q906 631 889 586L691 71L693 108Q726 108 766.0 122.0Q806 136 849.0 163.0Q892 190 932 227L962 196Q892 114 832.5 66.5Q773 19 723.0 -0.5Q673 -20 628 -20Q563 -20 549.0 -1.5Q535 17 557 73L768 618Q776 639 781.5 659.0Q787 679 787 696Q787 721 771.0 736.0Q755 751 713 751Q665 751 606.0 710.0Q547 669 487.5 597.0Q428 525 377.5 431.5Q327 338 295 233L224 0H89L315 746Q311 746 307.5 746.0Q304 746 300 746Q264 746 230.0 732.0Q196 718 162.0 682.5Q128 647 92 582Z"/><path transform="translate(394.88 92.00) scale(0.00800 -0.00800)" d="M818 725Q797 725 781.5 734.0Q766 743 749.0 756.0Q732 769 709.0 782.0Q686 795 651.5 804.0Q617 813 565 813L542 860Q619 848 673.5 852.0Q728 856 770.5 864.0Q813 872 854 872Q880 872 893.0 860.0Q906 848 906 824Q906 801 898.5 783.0Q891 765 878.5 752.0Q866 739 850.5 732.0Q835 725 818 725ZM330 302Q365 302 399.0 320.0Q433 338 463.5 371.5Q494 405 517.0 451.5Q540 498 553.5 555.0Q567 612 567 678Q567 748 542.5 779.0Q518 810 474 810Q439 810 405.0 792.0Q371 774 340.5 740.5Q310 707 287.0 660.5Q264 614 250.5 557.0Q237 500 237 434Q237 364 261.5 333.0Q286 302 330 302ZM486 872Q555 872 603.0 843.0Q651 814 676.5 762.5Q702 711 702 641Q702 561 671.5 488.5Q641 416 587.5 360.0Q534 304 465.0 272.0Q396 240 318 240Q249 240 201.0 269.0Q153 298 127.5 350.0Q102 402 102 471Q102 551 132.5 623.5Q163 696 216.5 752.0Q270 808 339.0 840.0Q408 872 486 872ZM302 -530Q207 -530 131.5 -515.0Q56 -500 3.0 -470.5Q-50 -441 -78.0 -397.5Q-106 -354 -106 -298Q-106 -234 -64.0 -187.0Q-22 -140 60.5 -109.0Q143 -78 266 -63H351V-87Q277 -90 216.5 -105.0Q156 -120 112.5 -145.0Q69 -170 46.0 -204.5Q23 -239 23 -281Q23 -338 55.0 -379.5Q87 -421 149.5 -444.0Q212 -467 303 -467Q396 -467 455.5 -443.0Q515 -419 544.0 -380.5Q573 -342 573 -299Q573 -258 553.0 -227.0Q533 -196 492.5 -172.0Q452 -148 391.5 -126.5Q331 -105 251 -82Q181 -62 144.0 -33.0Q107 -4 93.5 28.5Q80 61 80 93Q80 134 103.5 169.0Q127 204 172.0 232.0Q217 260 279 278L323 257Q260 247 227.5 220.0Q195 193 195 161Q195 145 202.5 129.5Q210 114 230.0 98.0Q250 82 288.0 64.5Q326 47 386 26Q506 -15 573.5 -57.5Q641 -100 668.0 -148.0Q695 -196 695 -257Q695 -316 667.5 -366.0Q640 -416 588.5 -452.5Q537 -489 464.5 -509.5Q392 -530 302 -530Z"/><path transform="translate(404.84 92.00) scale(0.00800 -0.00800)" d="M818 725Q797 725 781.5 734.0Q766 743 749.0 756.0Q732 769 709.0 782.0Q686 795 651.5 804.0Q617 813 565 813L542 860Q619 848 673.5 852.0Q728 856 770.5 864.0Q813 872 854 872Q880 872 893.0 860.0Q906 848 906 824Q906 801 898.5 783.0Q891 765 878.5 752.0Q866 739 850.5 732.0Q835 725 818 725ZM330 302Q365 302 399.0 320.0Q433 338 463.5 371.5Q494 405 517.0 451.5Q540 498 553.5 555.0Q567 612 567 678Q567 748 542.5 779.0Q518 810 474 810Q439 810 405.0 792.0Q371 774 340.5 740.5Q310 707 287.0 660.5Q264 614 250.5 557.0Q237 500 237 434Q237 364 261.5 333.0Q286 302 330 302ZM486 872Q555 872 603.0 843.0Q651 814 676.5 762.5Q702 711 702 641Q702 561 671.5 488.5Q641 416 587.5 360.0Q534 304 465.0 272.0Q396 240 318 240Q249 240 201.0 269.0Q153 298 127.5 350.0Q102 402 102 471Q102 551 132.5 623.5Q163 696 216.5 752.0Q270 808 339.0 840.0Q408 872 486 872ZM302 -530Q207 -530 131.5 -515.0Q56 -500 3.0 -470.5Q-50 -441 -78.0 -397.5Q-106 -354 -106 -298Q-106 -234 -64.0 -187.0Q-22 -140 60.5 -109.0Q143 -78 266 -63H351V-87Q277 -90 216.5 -105.0Q156 -120 112.5 -145.0Q69 -170 46.0 -204.5Q23 -239 23 -281Q23 -338 55.0 -379.5Q87 -421 149.5 -444.0Q212 -467 303 -467Q396 -467 455.5 -443.0Q515 -419 544.0 -380.5Q573 -342 573 -299Q573 -258 553.0 -227.0Q533 -196 492.5 -172.0Q452 -148 391.5 -126.5Q331 -105 251 -82Q181 -62 144.0 -33.0Q107 -4 93.5 28.5Q80 61 80 93Q80 134 103.5 169.0Q127 204 172.0 232.0Q217 260 279 278L323 257Q260 247 227.5 220.0Q195 193 195 161Q195 145 202.5 129.5Q210 114 230.0 98.0Q250 82 288.0 64.5Q326 47 386 26Q506 -15 573.5 -57.5Q641 -100 668.0 -148.0Q695 -196 695 -257Q695 -316 667.5 -366.0Q640 -416 588.5 -452.5Q537 -489 464.5 -509.5Q392 -530 302 -530Z"/><path transform="translate(411.19 92.00) scale(0.00800 -0.00800)" d="M527 872Q607 872 664.5 837.5Q722 803 753.5 738.0Q785 673 785 580Q785 463 749.5 355.5Q714 248 651.0 163.5Q588 79 503.5 29.5Q419 -20 320 -20Q241 -20 183.0 14.5Q125 49 93.5 114.5Q62 180 62 272Q62 389 97.5 496.5Q133 604 196.0 688.5Q259 773 343.5 822.5Q428 872 527 872ZM322 47Q373 47 420.5 81.0Q468 115 508.5 173.5Q549 232 579.5 306.0Q610 380 627.0 461.0Q644 542 644 620Q644 715 615.5 760.0Q587 805 525 805Q474 805 426.5 771.0Q379 737 338.5 678.5Q298 620 267.5 546.0Q237 472 220.0 391.0Q203 310 203 232Q203 138 231.5 92.5Q260 47 322 47Z"/><path transform="translate(417.97 92.00) scale(0.00800 -0.00800)" d="M125 772 143 852H633L617 772ZM262 211Q258 196 255.0 183.5Q252 171 250.5 161.0Q249 151 249 143Q249 127 255.0 119.0Q261 111 271 111Q292 111 329.0 136.0Q366 161 411.0 205.5Q456 250 501 310L541 284Q498 217 454.5 162.0Q411 107 369.0 66.5Q327 26 287.5 4.0Q248 -18 211 -18Q168 -18 142.0 7.0Q116 32 116 93Q116 120 121.5 155.5Q127 191 140 236L360 1026H495Z"/><path transform="translate(426.37 92.00) scale(0.00800 -0.00800)" d="M458 794Q403 794 356.0 747.0Q309 700 274.5 624.0Q240 548 221.0 458.0Q202 368 202 282Q202 179 234.0 136.0Q266 93 330 93Q371 93 410.0 110.0Q449 127 487.5 167.0Q526 207 563 276H617Q565 162 514.0 97.5Q463 33 407.5 6.5Q352 -20 285 -20Q176 -20 116.5 44.0Q57 108 57 240Q57 371 95.5 485.5Q134 600 200.5 687.0Q267 774 354.5 823.0Q442 872 539 872Q628 872 672.0 833.5Q716 795 716 745Q716 706 693.0 687.0Q670 668 635 667Q620 666 602.0 686.5Q584 707 562 731Q540 755 514.5 774.5Q489 794 458 794Z"/><path transform="translate(431.99 92.00) scale(0.00800 -0.00800)" d="M216 233 146 0H13L395 1268Q377 1285 360.0 1298.5Q343 1312 322.5 1323.5Q302 1335 273 1345L281 1370L550 1419H573L289 487L276 489Q318 561 367.0 629.0Q416 697 470.0 751.0Q524 805 582.5 837.0Q641 869 701 869Q784 869 815.5 833.5Q847 798 847 741Q847 709 837.0 670.0Q827 631 810 586L612 71L614 108Q647 108 687.0 122.0Q727 136 770.0 163.0Q813 190 853 227L883 196Q813 114 753.5 66.5Q694 19 644.0 -0.5Q594 -20 549 -20Q484 -20 470.0 -1.5Q456 17 478 73L689 618Q697 639 702.5 659.0Q708 679 708 696Q708 721 692.0 736.0Q676 751 634 751Q586 751 527.0 710.0Q468 669 408.5 597.0Q349 525 298.5 431.5Q248 338 216 233Z"/><path transform="translate(439.45 92.00) scale(0.00800 -0.00800)" d="M497 805Q438 805 391.0 770.0Q344 735 308.5 677.0Q273 619 249.5 549.5Q226 480 214.0 410.0Q202 340 202 282Q202 179 243.0 136.0Q284 93 350 93Q395 93 434.5 109.0Q474 125 510.5 164.5Q547 204 582 276H638Q589 162 540.5 97.5Q492 33 435.5 6.5Q379 -20 304 -20Q229 -20 173.5 9.5Q118 39 87.5 97.0Q57 155 57 240Q57 345 81.5 440.0Q106 535 150.5 613.5Q195 692 253.5 750.0Q312 808 381.0 840.0Q450 872 523 872Q593 872 637.0 847.5Q681 823 701.5 783.5Q722 744 722 699Q722 656 703.5 613.5Q685 571 656 547Q598 523 540.0 500.0Q482 477 423.5 455.5Q365 434 306.5 413.5Q248 393 189 374L192 446Q288 473 357.0 500.0Q426 527 471.5 553.0Q517 579 543.0 605.5Q569 632 580.0 658.5Q591 685 591 712Q591 740 580.0 760.5Q569 781 548.5 793.0Q528 805 497 805Z"/><path transform="translate(445.39 92.00) scale(0.00800 -0.00800)" d="M488 45 592 367H618Q543 256 483.0 181.5Q423 107 373.5 63.5Q324 20 282.5 1.5Q241 -17 202 -17Q148 -17 108.0 3.0Q68 23 46.0 66.5Q24 110 24 180Q24 255 53.0 345.5Q82 436 133.5 525.5Q185 615 254.5 690.0Q324 765 406.5 810.0Q489 855 578 855Q636 855 673.5 835.0Q711 815 742 774L702 720Q694 744 667.0 763.5Q640 783 597 783Q525 783 461.0 738.0Q397 693 344.0 621.0Q291 549 252.5 467.5Q214 386 193.0 311.5Q172 237 172 188Q172 145 196.0 124.0Q220 103 257 103Q290 103 341.0 132.0Q392 161 447.0 212.5Q502 264 549.5 334.5Q597 405 624 487L741 852H862H877L626 71L609 109Q642 104 684.5 117.0Q727 130 773.5 158.5Q820 187 864 227L892 195Q784 75 705.5 27.5Q627 -20 560 -20Q517 -20 497.5 -2.0Q478 16 488 45Z"/><path transform="translate(452.77 92.00) scale(0.00800 -0.00800)" d="M309 286Q297 239 294.0 212.5Q291 186 291 172Q291 120 319.0 82.5Q347 45 416 45Q461 45 509.5 76.0Q558 107 603.5 161.5Q649 216 685.0 286.0Q721 356 742.5 435.5Q764 515 764 596Q764 671 738.0 707.5Q712 744 653 744Q615 744 575.0 722.0Q535 700 497.0 662.0Q459 624 425.5 575.0Q392 526 367.5 472.0Q343 418 329 365ZM177 73H253L116 -424L286 -473L272 -510H-180L-166 -473L-17 -424L304 746Q303 746 301.5 746.0Q300 746 298 746Q262 746 227.5 732.0Q193 718 159.0 682.5Q125 647 90 582L54 597Q95 703 142.5 763.0Q190 823 241.5 848.0Q293 873 345 873Q372 873 399.5 867.5Q427 862 453 854L359 502L352 532Q413 651 475.5 726.0Q538 801 598.5 836.5Q659 872 712 872Q819 872 866.0 802.5Q913 733 913 643Q913 544 887.5 448.0Q862 352 816.0 267.5Q770 183 706.5 118.5Q643 54 565.5 17.0Q488 -20 402 -20Q341 -20 275.0 2.0Q209 24 177 73Z"/><path transform="translate(460.46 92.00) scale(0.00800 -0.00800)" d="M157 224Q205 224 234.5 195.0Q264 166 264 124Q264 87 246.0 55.5Q228 24 197.0 5.0Q166 -14 125 -14Q77 -14 47.5 15.0Q18 44 18 86Q18 123 36.0 154.5Q54 186 85.5 205.0Q117 224 157 224Z"/><path transform="translate(467.56 92.00) scale(0.00800 -0.00800)" d="M1351 1246H368L479 1267L258 979L221 998L371 1408H388L485 1324L419 1340H1358L1273 1324L1429 1408H1446L1346 978H1309L1272 1265ZM796 1279H948L585 83L724 38L712 0H260L272 38L434 86Z"/><path transform="translate(477.36 92.00) scale(0.00800 -0.00800)" d="M216 233 146 0H13L395 1268Q377 1285 360.0 1298.5Q343 1312 322.5 1323.5Q302 1335 273 1345L281 1370L550 1419H573L289 487L276 489Q318 561 367.0 629.0Q416 697 470.0 751.0Q524 805 582.5 837.0Q641 869 701 869Q784 869 815.5 833.5Q847 798 847 741Q847 709 837.0 670.0Q827 631 810 586L612 71L614 108Q647 108 687.0 122.0Q727 136 770.0 163.0Q813 190 853 227L883 196Q813 114 753.5 66.5Q694 19 644.0 -0.5Q594 -20 549 -20Q484 -20 470.0 -1.5Q456 17 478 73L689 618Q697 639 702.5 659.0Q708 679 708 696Q708 721 692.0 736.0Q676 751 634 751Q586 751 527.0 710.0Q468 669 408.5 597.0Q349 525 298.5 431.5Q248 338 216 233Z"/><path transform="translate(484.83 92.00) scale(0.00800 -0.00800)" d="M497 805Q438 805 391.0 770.0Q344 735 308.5 677.0Q273 619 249.5 549.5Q226 480 214.0 410.0Q202 340 202 282Q202 179 243.0 136.0Q284 93 350 93Q395 93 434.5 109.0Q474 125 510.5 164.5Q547 204 582 276H638Q589 162 540.5 97.5Q492 33 435.5 6.5Q379 -20 304 -20Q229 -20 173.5 9.5Q118 39 87.5 97.0Q57 155 57 240Q57 345 81.5 440.0Q106 535 150.5 613.5Q195 692 253.5 750.0Q312 808 381.0 840.0Q450 872 523 872Q593 872 637.0 847.5Q681 823 701.5 783.5Q722 744 722 699Q722 656 703.5 613.5Q685 571 656 547Q598 523 540.0 500.0Q482 477 423.5 455.5Q365 434 306.5 413.5Q248 393 189 374L192 446Q288 473 357.0 500.0Q426 527 471.5 553.0Q517 579 543.0 605.5Q569 632 580.0 658.5Q591 685 591 712Q591 740 580.0 760.5Q569 781 548.5 793.0Q528 805 497 805Z"/><path transform="translate(494.38 92.00) scale(0.00800 -0.00800)" d="M458 794Q403 794 356.0 747.0Q309 700 274.5 624.0Q240 548 221.0 458.0Q202 368 202 282Q202 179 234.0 136.0Q266 93 330 93Q371 93 410.0 110.0Q449 127 487.5 167.0Q526 207 563 276H617Q565 162 514.0 97.5Q463 33 407.5 6.5Q352 -20 285 -20Q176 -20 116.5 44.0Q57 108 57 240Q57 371 95.5 485.5Q134 600 200.5 687.0Q267 774 354.5 823.0Q442 872 539 872Q628 872 672.0 833.5Q716 795 716 745Q716 706 693.0 687.0Q670 668 635 667Q620 666 602.0 686.5Q584 707 562 731Q540 755 514.5 774.5Q489 794 458 794Z"/><path transform="translate(500.00 92.00) scale(0.00800 -0.00800)" d="M527 872Q607 872 664.5 837.5Q722 803 753.5 738.0Q785 673 785 580Q785 463 749.5 355.5Q714 248 651.0 163.5Q588 79 503.5 29.5Q419 -20 320 -20Q241 -20 183.0 14.5Q125 49 93.5 114.5Q62 180 62 272Q62 389 97.5 496.5Q133 604 196.0 688.5Q259 773 343.5 822.5Q428 872 527 872ZM322 47Q373 47 420.5 81.0Q468 115 508.5 173.5Q549 232 579.5 306.0Q610 380 627.0 461.0Q644 542 644 620Q644 715 615.5 760.0Q587 805 525 805Q474 805 426.5 771.0Q379 737 338.5 678.5Q298 620 267.5 546.0Q237 472 220.0 391.0Q203 310 203 232Q203 138 231.5 92.5Q260 47 322 47Z"/><path transform="translate(506.78 92.00) scale(0.00800 -0.00800)" d="M92 582 56 597Q97 703 145.5 762.5Q194 822 248.0 846.5Q302 871 356 871Q375 871 393.5 868.5Q412 866 430.5 862.0Q449 858 467 852L347 462H341Q385 540 435.5 613.0Q486 686 542.0 743.5Q598 801 658.0 835.0Q718 869 780 869Q863 869 894.5 833.5Q926 798 926 741Q926 709 916.0 670.0Q906 631 889 586L691 71L693 108Q726 108 766.0 122.0Q806 136 849.0 163.0Q892 190 932 227L962 196Q892 114 832.5 66.5Q773 19 723.0 -0.5Q673 -20 628 -20Q563 -20 549.0 -1.5Q535 17 557 73L768 618Q776 639 781.5 659.0Q787 679 787 696Q787 721 771.0 736.0Q755 751 713 751Q665 751 606.0 710.0Q547 669 487.5 597.0Q428 525 377.5 431.5Q327 338 295 233L224 0H89L315 746Q311 746 307.5 746.0Q304 746 300 746Q264 746 230.0 732.0Q196 718 162.0 682.5Q128 647 92 582Z"/><path transform="translate(514.88 92.00) scale(0.00800 -0.00800)" d="M88 202Q102 202 115.0 186.0Q128 170 157 125Q186 80 213.5 63.0Q241 46 269 46Q309 46 340.5 60.5Q372 75 390.0 103.5Q408 132 408 173Q408 202 398.5 232.0Q389 262 364.5 299.5Q340 337 294 389Q249 441 223.0 482.0Q197 523 186.5 558.0Q176 593 176 626Q176 694 207.0 750.0Q238 806 299.0 839.0Q360 872 448 872Q515 872 556.5 854.5Q598 837 618.0 808.0Q638 779 638 744Q638 721 628.0 702.5Q618 684 600.0 673.5Q582 663 558 663Q548 663 534.0 674.5Q520 686 493 724Q466 762 437.5 781.0Q409 800 383 800Q333 800 305.0 771.5Q277 743 277 691Q277 669 288.0 641.0Q299 613 324.5 575.0Q350 537 393 484Q437 432 463.0 387.5Q489 343 501.0 305.5Q513 268 513 234Q513 162 474.0 104.5Q435 47 368.0 13.5Q301 -20 216 -20Q143 -20 95.5 0.0Q48 20 25.0 52.0Q2 84 2 119Q2 142 13.0 161.0Q24 180 43.5 191.0Q63 202 88 202Z"/><path transform="translate(520.03 92.00) scale(0.00800 -0.00800)" d="M125 772 143 852H633L617 772ZM262 211Q258 196 255.0 183.5Q252 171 250.5 161.0Q249 151 249 143Q249 127 255.0 119.0Q261 111 271 111Q292 111 329.0 136.0Q366 161 411.0 205.5Q456 250 501 310L541 284Q498 217 454.5 162.0Q411 107 369.0 66.5Q327 26 287.5 4.0Q248 -18 211 -18Q168 -18 142.0 7.0Q116 32 116 93Q116 120 121.5 155.5Q127 191 140 236L360 1026H495Z"/><path transform="translate(524.81 92.00) scale(0.00800 -0.00800)" d="M315 746Q311 746 307.5 746.0Q304 746 300 746Q264 746 230.0 732.0Q196 718 162.0 682.5Q128 647 92 582L56 597Q97 703 145.5 762.5Q194 822 248.0 846.5Q302 871 356 871Q375 871 393.5 868.5Q412 866 430.5 862.0Q449 858 467 852L364 517H359Q421 639 479.0 717.5Q537 796 595.0 834.0Q653 872 713 872Q770 872 796.5 844.5Q823 817 823 774Q823 742 807.0 717.0Q791 692 765.0 678.0Q739 664 708 664Q700 664 691.0 671.5Q682 679 669 698Q656 718 644.0 728.0Q632 738 616 738Q591 738 559.5 714.5Q528 691 494.0 648.5Q460 606 426.0 547.5Q392 489 361.0 418.5Q330 348 306 269L224 0H89Z"/><path transform="translate(530.76 92.00) scale(0.00800 -0.00800)" d="M65 35 325 761 354 739Q322 740 280.5 723.0Q239 706 195.0 674.5Q151 643 111 598L81 627Q150 725 207.5 778.0Q265 831 315.0 851.5Q365 872 410 872Q448 872 466.5 857.5Q485 843 476 817L216 71L199 109Q232 105 274.5 118.0Q317 131 363.5 159.0Q410 187 454 227L482 195Q412 113 353.0 66.0Q294 19 244.5 -0.5Q195 -20 150 -20Q95 -20 75.0 -6.0Q55 8 65 35ZM399 1300Q399 1332 413.5 1357.5Q428 1383 453.5 1398.0Q479 1413 513 1413Q564 1413 595.5 1380.5Q627 1348 627 1300Q627 1268 612.5 1242.5Q598 1217 572.5 1202.0Q547 1187 513 1187Q462 1187 430.5 1219.5Q399 1252 399 1300Z"/><path transform="translate(535.04 92.00) scale(0.00800 -0.00800)" d="M458 794Q403 794 356.0 747.0Q309 700 274.5 624.0Q240 548 221.0 458.0Q202 368 202 282Q202 179 234.0 136.0Q266 93 330 93Q371 93 410.0 110.0Q449 127 487.5 167.0Q526 207 563 276H617Q565 162 514.0 97.5Q463 33 407.5 6.5Q352 -20 285 -20Q176 -20 116.5 44.0Q57 108 57 240Q57 371 95.5 485.5Q134 600 200.5 687.0Q267 774 354.5 823.0Q442 872 539 872Q628 872 672.0 833.5Q716 795 716 745Q716 706 693.0 687.0Q670 668 635 667Q620 666 602.0 686.5Q584 707 562 731Q540 755 514.5 774.5Q489 794 458 794Z"/><path transform="translate(540.65 92.00) scale(0.00800 -0.00800)" d="M125 772 143 852H633L617 772ZM262 211Q258 196 255.0 183.5Q252 171 250.5 161.0Q249 151 249 143Q249 127 255.0 119.0Q261 111 271 111Q292 111 329.0 136.0Q366 161 411.0 205.5Q456 250 501 310L541 284Q498 217 454.5 162.0Q411 107 369.0 66.5Q327 26 287.5 4.0Q248 -18 211 -18Q168 -18 142.0 7.0Q116 32 116 93Q116 120 121.5 155.5Q127 191 140 236L360 1026H495Z"/><path transform="translate(545.44 92.00) scale(0.00800 -0.00800)" d="M65 35 325 761 354 739Q322 740 280.5 723.0Q239 706 195.0 674.5Q151 643 111 598L81 627Q150 725 207.5 778.0Q265 831 315.0 851.5Q365 872 410 872Q448 872 466.5 857.5Q485 843 476 817L216 71L199 109Q232 105 274.5 118.0Q317 131 363.5 159.0Q410 187 454 227L482 195Q412 113 353.0 66.0Q294 19 244.5 -0.5Q195 -20 150 -20Q95 -20 75.0 -6.0Q55 8 65 35ZM399 1300Q399 1332 413.5 1357.5Q428 1383 453.5 1398.0Q479 1413 513 1413Q564 1413 595.5 1380.5Q627 1348 627 1300Q627 1268 612.5 1242.5Q598 1217 572.5 1202.0Q547 1187 513 1187Q462 1187 430.5 1219.5Q399 1252 399 1300Z"/><path transform="translate(549.72 92.00) scale(0.00800 -0.00800)" d="M527 872Q607 872 664.5 837.5Q722 803 753.5 738.0Q785 673 785 580Q785 463 749.5 355.5Q714 248 651.0 163.5Q588 79 503.5 29.5Q419 -20 320 -20Q241 -20 183.0 14.5Q125 49 93.5 114.5Q62 180 62 272Q62 389 97.5 496.5Q133 604 196.0 688.5Q259 773 343.5 822.5Q428 872 527 872ZM322 47Q373 47 420.5 81.0Q468 115 508.5 173.5Q549 232 579.5 306.0Q610 380 627.0 461.0Q644 542 644 620Q644 715 615.5 760.0Q587 805 525 805Q474 805 426.5 771.0Q379 737 338.5 678.5Q298 620 267.5 546.0Q237 472 220.0 391.0Q203 310 203 232Q203 138 231.5 92.5Q260 47 322 47Z"/><path transform="translate(556.50 92.00) scale(0.00800 -0.00800)" d="M92 582 56 597Q97 703 145.5 762.5Q194 822 248.0 846.5Q302 871 356 871Q375 871 393.5 868.5Q412 866 430.5 862.0Q449 858 467 852L347 462H341Q385 540 435.5 613.0Q486 686 542.0 743.5Q598 801 658.0 835.0Q718 869 780 869Q863 869 894.5 833.5Q926 798 926 741Q926 709 916.0 670.0Q906 631 889 586L691 71L693 108Q726 108 766.0 122.0Q806 136 849.0 163.0Q892 190 932 227L962 196Q892 114 832.5 66.5Q773 19 723.0 -0.5Q673 -20 628 -20Q563 -20 549.0 -1.5Q535 17 557 73L768 618Q776 639 781.5 659.0Q787 679 787 696Q787 721 771.0 736.0Q755 751 713 751Q665 751 606.0 710.0Q547 669 487.5 597.0Q428 525 377.5 431.5Q327 338 295 233L224 0H89L315 746Q311 746 307.5 746.0Q304 746 300 746Q264 746 230.0 732.0Q196 718 162.0 682.5Q128 647 92 582Z"/><path transform="translate(568.21 92.00) scale(0.00800 -0.00800)" d="M379 1300Q379 1332 393.5 1357.5Q408 1383 433.5 1398.0Q459 1413 493 1413Q544 1413 575.5 1380.5Q607 1348 607 1300Q607 1268 592.5 1242.5Q578 1217 552.5 1202.0Q527 1187 493 1187Q442 1187 410.5 1219.5Q379 1252 379 1300ZM217 15Q165 -159 77.0 -281.0Q-11 -403 -114.0 -466.5Q-217 -530 -313 -530Q-378 -530 -412.0 -498.0Q-446 -466 -446 -421Q-446 -381 -421.5 -355.0Q-397 -329 -366 -329Q-357 -329 -344.5 -338.5Q-332 -348 -309 -373Q-286 -398 -261.5 -410.5Q-237 -423 -212 -423Q-176 -423 -141.5 -406.0Q-107 -389 -73.0 -347.5Q-39 -306 -5.5 -233.0Q28 -160 62 -48L305 761L334 739Q302 740 260.5 723.0Q219 706 175.0 674.5Q131 643 91 598L61 627Q123 715 178.0 768.5Q233 822 285.5 847.0Q338 872 390 872Q416 872 432.0 865.5Q448 859 454.5 847.0Q461 835 456 817Z"/><path transform="translate(572.06 92.00) scale(0.00800 -0.00800)" d="M541 35 650 389H657Q583 260 523.5 179.0Q464 98 414.0 55.0Q364 12 320.0 -4.0Q276 -20 232 -20Q163 -20 132.0 11.0Q101 42 101 95Q101 127 111.5 170.0Q122 213 143 268L335 781L361 740Q327 742 282.5 725.5Q238 709 191.0 676.5Q144 644 100 598L67 628Q137 722 196.5 775.0Q256 828 309.0 850.0Q362 872 410 872Q452 872 471.5 857.5Q491 843 481 817L259 220Q252 199 247.5 181.5Q243 164 243 150Q243 127 257.0 114.5Q271 102 303 102Q345 102 399.5 140.5Q454 179 510.5 248.5Q567 318 617.5 412.5Q668 507 702 619L773 852H908L674 80L675 109Q708 105 750.5 118.0Q793 131 839.5 159.0Q886 187 930 227L958 195Q852 71 772.5 25.5Q693 -20 626 -20Q571 -20 552.0 -6.5Q533 7 541 35Z"/><path transform="translate(579.80 92.00) scale(0.00800 -0.00800)" d="M88 202Q102 202 115.0 186.0Q128 170 157 125Q186 80 213.5 63.0Q241 46 269 46Q309 46 340.5 60.5Q372 75 390.0 103.5Q408 132 408 173Q408 202 398.5 232.0Q389 262 364.5 299.5Q340 337 294 389Q249 441 223.0 482.0Q197 523 186.5 558.0Q176 593 176 626Q176 694 207.0 750.0Q238 806 299.0 839.0Q360 872 448 872Q515 872 556.5 854.5Q598 837 618.0 808.0Q638 779 638 744Q638 721 628.0 702.5Q618 684 600.0 673.5Q582 663 558 663Q548 663 534.0 674.5Q520 686 493 724Q466 762 437.5 781.0Q409 800 383 800Q333 800 305.0 771.5Q277 743 277 691Q277 669 288.0 641.0Q299 613 324.5 575.0Q350 537 393 484Q437 432 463.0 387.5Q489 343 501.0 305.5Q513 268 513 234Q513 162 474.0 104.5Q435 47 368.0 13.5Q301 -20 216 -20Q143 -20 95.5 0.0Q48 20 25.0 52.0Q2 84 2 119Q2 142 13.0 161.0Q24 180 43.5 191.0Q63 202 88 202Z"/><path transform="translate(584.95 92.00) scale(0.00800 -0.00800)" d="M125 772 143 852H633L617 772ZM262 211Q258 196 255.0 183.5Q252 171 250.5 161.0Q249 151 249 143Q249 127 255.0 119.0Q261 111 271 111Q292 111 329.0 136.0Q366 161 411.0 205.5Q456 250 501 310L541 284Q498 217 454.5 162.0Q411 107 369.0 66.5Q327 26 287.5 4.0Q248 -18 211 -18Q168 -18 142.0 7.0Q116 32 116 93Q116 120 121.5 155.5Q127 191 140 236L360 1026H495Z"/><path transform="translate(593.35 92.00) scale(0.00800 -0.00800)" d="M315 746Q311 746 307.5 746.0Q304 746 300 746Q264 746 230.0 732.0Q196 718 162.0 682.5Q128 647 92 582L56 597Q97 703 145.5 762.5Q194 822 248.0 846.5Q302 871 356 871Q375 871 393.5 868.5Q412 866 430.5 862.0Q449 858 467 852L364 517H359Q421 639 479.0 717.5Q537 796 595.0 834.0Q653 872 713 872Q770 872 796.5 844.5Q823 817 823 774Q823 742 807.0 717.0Q791 692 765.0 678.0Q739 664 708 664Q700 664 691.0 671.5Q682 679 669 698Q656 718 644.0 728.0Q632 738 616 738Q591 738 559.5 714.5Q528 691 494.0 648.5Q460 606 426.0 547.5Q392 489 361.0 418.5Q330 348 306 269L224 0H89Z"/><path transform="translate(599.29 92.00) scale(0.00800 -0.00800)" d="M497 805Q438 805 391.0 770.0Q344 735 308.5 677.0Q273 619 249.5 549.5Q226 480 214.0 410.0Q202 340 202 282Q202 179 243.0 136.0Q284 93 350 93Q395 93 434.5 109.0Q474 125 510.5 164.5Q547 204 582 276H638Q589 162 540.5 97.5Q492 33 435.5 6.5Q379 -20 304 -20Q229 -20 173.5 9.5Q118 39 87.5 97.0Q57 155 57 240Q57 345 81.5 440.0Q106 535 150.5 613.5Q195 692 253.5 750.0Q312 808 381.0 840.0Q450 872 523 872Q593 872 637.0 847.5Q681 823 701.5 783.5Q722 744 722 699Q722 656 703.5 613.5Q685 571 656 547Q598 523 540.0 500.0Q482 477 423.5 455.5Q365 434 306.5 413.5Q248 393 189 374L192 446Q288 473 357.0 500.0Q426 527 471.5 553.0Q517 579 543.0 605.5Q569 632 580.0 658.5Q591 685 591 712Q591 740 580.0 760.5Q569 781 548.5 793.0Q528 805 497 805Z"/><path transform="translate(605.23 92.00) scale(0.00800 -0.00800)" d="M404 1268Q386 1285 369.0 1298.5Q352 1312 331.5 1323.5Q311 1335 282 1345L290 1370L559 1419H582L179 81L167 109Q200 105 242.5 118.0Q285 131 331.5 159.0Q378 187 422 227L450 195Q380 113 321.0 66.0Q262 19 212.5 -0.5Q163 -20 118 -20Q71 -20 47.5 -7.0Q24 6 33 35Z"/><path transform="translate(609.15 92.00) scale(0.00800 -0.00800)" d="M527 872Q607 872 664.5 837.5Q722 803 753.5 738.0Q785 673 785 580Q785 463 749.5 355.5Q714 248 651.0 163.5Q588 79 503.5 29.5Q419 -20 320 -20Q241 -20 183.0 14.5Q125 49 93.5 114.5Q62 180 62 272Q62 389 97.5 496.5Q133 604 196.0 688.5Q259 773 343.5 822.5Q428 872 527 872ZM322 47Q373 47 420.5 81.0Q468 115 508.5 173.5Q549 232 579.5 306.0Q610 380 627.0 461.0Q644 542 644 620Q644 715 615.5 760.0Q587 805 525 805Q474 805 426.5 771.0Q379 737 338.5 678.5Q298 620 267.5 546.0Q237 472 220.0 391.0Q203 310 203 232Q203 138 231.5 92.5Q260 47 322 47Z"/><path transform="translate(615.93 92.00) scale(0.00800 -0.00800)" d="M458 794Q403 794 356.0 747.0Q309 700 274.5 624.0Q240 548 221.0 458.0Q202 368 202 282Q202 179 234.0 136.0Q266 93 330 93Q371 93 410.0 110.0Q449 127 487.5 167.0Q526 207 563 276H617Q565 162 514.0 97.5Q463 33 407.5 6.5Q352 -20 285 -20Q176 -20 116.5 44.0Q57 108 57 240Q57 371 95.5 485.5Q134 600 200.5 687.0Q267 774 354.5 823.0Q442 872 539 872Q628 872 672.0 833.5Q716 795 716 745Q716 706 693.0 687.0Q670 668 635 667Q620 666 602.0 686.5Q584 707 562 731Q540 755 514.5 774.5Q489 794 458 794Z"/><path transform="translate(621.55 92.00) scale(0.00800 -0.00800)" d="M488 45 592 367H618Q543 256 483.0 181.5Q423 107 373.5 63.5Q324 20 282.5 1.5Q241 -17 202 -17Q148 -17 108.0 3.0Q68 23 46.0 66.5Q24 110 24 180Q24 255 53.0 345.5Q82 436 133.5 525.5Q185 615 254.5 690.0Q324 765 406.5 810.0Q489 855 578 855Q636 855 673.5 835.0Q711 815 742 774L702 720Q694 744 667.0 763.5Q640 783 597 783Q525 783 461.0 738.0Q397 693 344.0 621.0Q291 549 252.5 467.5Q214 386 193.0 311.5Q172 237 172 188Q172 145 196.0 124.0Q220 103 257 103Q290 103 341.0 132.0Q392 161 447.0 212.5Q502 264 549.5 334.5Q597 405 624 487L741 852H862H877L626 71L609 109Q642 104 684.5 117.0Q727 130 773.5 158.5Q820 187 864 227L892 195Q784 75 705.5 27.5Q627 -20 560 -20Q517 -20 497.5 -2.0Q478 16 488 45Z"/><path transform="translate(628.93 92.00) scale(0.00800 -0.00800)" d="M125 772 143 852H633L617 772ZM262 211Q258 196 255.0 183.5Q252 171 250.5 161.0Q249 151 249 143Q249 127 255.0 119.0Q261 111 271 111Q292 111 329.0 136.0Q366 161 411.0 205.5Q456 250 501 310L541 284Q498 217 454.5 162.0Q411 107 369.0 66.5Q327 26 287.5 4.0Q248 -18 211 -18Q168 -18 142.0 7.0Q116 32 116 93Q116 120 121.5 155.5Q127 191 140 236L360 1026H495Z"/><path transform="translate(633.72 92.00) scale(0.00800 -0.00800)" d="M497 805Q438 805 391.0 770.0Q344 735 308.5 677.0Q273 619 249.5 549.5Q226 480 214.0 410.0Q202 340 202 282Q202 179 243.0 136.0Q284 93 350 93Q395 93 434.5 109.0Q474 125 510.5 164.5Q547 204 582 276H638Q589 162 540.5 97.5Q492 33 435.5 6.5Q379 -20 304 -20Q229 -20 173.5 9.5Q118 39 87.5 97.0Q57 155 57 240Q57 345 81.5 440.0Q106 535 150.5 613.5Q195 692 253.5 750.0Q312 808 381.0 840.0Q450 872 523 872Q593 872 637.0 847.5Q681 823 701.5 783.5Q722 744 722 699Q722 656 703.5 613.5Q685 571 656 547Q598 523 540.0 500.0Q482 477 423.5 455.5Q365 434 306.5 413.5Q248 393 189 374L192 446Q288 473 357.0 500.0Q426 527 471.5 553.0Q517 579 543.0 605.5Q569 632 580.0 658.5Q591 685 591 712Q591 740 580.0 760.5Q569 781 548.5 793.0Q528 805 497 805Z"/><path transform="translate(639.65 92.00) scale(0.00800 -0.00800)" d="M713 730Q705 754 678.0 774.0Q651 794 608 794Q534 794 468.5 748.5Q403 703 349.0 630.0Q295 557 255.5 474.5Q216 392 194.5 316.5Q173 241 173 191Q173 147 197.0 125.0Q221 103 258 103Q287 103 328.0 123.0Q369 143 414.0 178.5Q459 214 502.5 262.0Q546 310 581.0 367.5Q616 425 635 487L876 1268Q858 1285 841.0 1298.5Q824 1312 803.5 1323.5Q783 1335 754 1345L762 1370L1031 1419H1054L637 71L620 109Q653 104 695.5 117.0Q738 130 784.5 158.5Q831 187 875 227L903 195Q795 75 716.5 27.5Q638 -20 571 -20Q528 -20 508.5 -2.0Q489 16 499 45L603 367H629Q553 255 491.5 180.5Q430 106 379.5 63.0Q329 20 285.5 1.5Q242 -17 203 -17Q149 -17 109.0 3.0Q69 23 47.0 67.5Q25 112 25 183Q25 259 54.5 350.5Q84 442 136.5 533.0Q189 624 260.0 699.5Q331 775 414.5 821.0Q498 867 589 867Q647 867 684.5 846.5Q722 826 753 785Z"/><path transform="translate(647.11 92.00) scale(0.00800 -0.00800)" d="M157 224Q205 224 234.5 195.0Q264 166 264 124Q264 87 246.0 55.5Q228 24 197.0 5.0Q166 -14 125 -14Q77 -14 47.5 15.0Q18 44 18 86Q18 123 36.0 154.5Q54 186 85.5 205.0Q117 224 157 224Z"/></g>
<line x1="215" y1="120" x2="215" y2="470" stroke="#d9d1c2" stroke-width="1.2" stroke-dasharray="2 7"/><line x1="540" y1="120" x2="540" y2="470" stroke="#d9d1c2" stroke-width="1.2" stroke-dasharray="2 7"/><line x1="858" y1="120" x2="858" y2="470" stroke="#d9d1c2" stroke-width="1.2" stroke-dasharray="2 7"/>
<!-- stage headers -->
<g class="sd" font-size="15" font-weight="600" fill="#56504e" letter-spacing="1.5">
<g fill="#000"><path transform="translate(195.99 498.00) scale(0.00800 -0.00800)" d="M561 39V0H85V39L243 91V1249L85 1301V1340H561V1301L403 1249V91Z"/><path transform="translate(201.16 498.00) scale(0.00800 -0.00800)" d="M1226 688Q1226 972 1050.5 1109.0Q875 1246 570 1246H303V1340H619Q881 1340 1054.5 1271.0Q1228 1202 1314.0 1062.0Q1400 922 1400 710Q1400 485 1298.0 326.5Q1196 168 1019.5 84.0Q843 0 621 0H303V94H592Q782 94 924.5 155.0Q1067 216 1146.5 347.0Q1226 478 1226 688ZM85 0V39L243 91V1249L85 1301V1340H403V0Z"/><path transform="translate(213.12 498.00) scale(0.00800 -0.00800)" d="M884 965V703V441H810L788 656H303V750H788L810 965ZM1137 962 1090 953 925 1267 980 1246H303V1340H944L1056 1389H1072ZM943 68 1124 381 1165 370 1093 -59H1077L962 0H303V94H988ZM85 0V39L243 91V1249L85 1301V1340H403V0Z"/><path transform="translate(223.01 498.00) scale(0.00800 -0.00800)" d="M351 501V592H1012V501ZM1242 93 1390 39V0H900V39L1073 91L611 1195H678L245 91L408 39V0H-14V39L139 91L658 1360H705Z"/></g>
<g fill="#000"><path transform="translate(515.77 498.00) scale(0.00800 -0.00800)" d="M335 1246V1340H668Q815 1340 906.5 1298.5Q998 1257 1040.5 1185.5Q1083 1114 1083 1024Q1083 900 1002.0 815.0Q921 730 782 717L785 732Q960 722 1061.0 632.0Q1162 542 1162 404Q1162 288 1111.0 196.5Q1060 105 952.0 52.5Q844 0 671 0H336V94H661Q764 94 838.0 125.0Q912 156 952.0 221.5Q992 287 992 389Q992 470 958.0 532.0Q924 594 853.0 629.0Q782 664 670 664H335V758H655Q779 758 851.0 821.0Q923 884 923 1011Q923 1081 891.0 1133.5Q859 1186 794.0 1216.0Q729 1246 630 1246ZM85 0V39L243 91V1249L85 1301V1340H403V0Z"/><path transform="translate(525.77 498.00) scale(0.00800 -0.00800)" d="M1188 489V1249L1030 1301V1340H1442V1301L1284 1249V509Q1284 341 1222.5 222.5Q1161 104 1043.5 42.0Q926 -20 758 -20Q583 -20 461.0 43.5Q339 107 275.5 232.5Q212 358 212 543V1249L54 1301V1340H530V1301L372 1249V534Q372 389 417.5 293.0Q463 197 554.0 149.5Q645 102 781 102Q913 102 1003.5 147.5Q1094 193 1141.0 279.5Q1188 366 1188 489Z"/><path transform="translate(537.76 498.00) scale(0.00800 -0.00800)" d="M561 39V0H85V39L243 91V1249L85 1301V1340H561V1301L403 1249V91Z"/><path transform="translate(542.92 498.00) scale(0.00800 -0.00800)" d="M1051 -59H1030L911 0H303V94H1035L893 65L1090 402L1132 392ZM403 1249V0H85V39L243 91V1249L85 1301V1340H561V1301Z"/><path transform="translate(552.27 498.00) scale(0.00800 -0.00800)" d="M1226 688Q1226 972 1050.5 1109.0Q875 1246 570 1246H303V1340H619Q881 1340 1054.5 1271.0Q1228 1202 1314.0 1062.0Q1400 922 1400 710Q1400 485 1298.0 326.5Q1196 168 1019.5 84.0Q843 0 621 0H303V94H592Q782 94 924.5 155.0Q1067 216 1146.5 347.0Q1226 478 1226 688ZM85 0V39L243 91V1249L85 1301V1340H403V0Z"/></g>
<g fill="#000"><path transform="translate(840.20 498.00) scale(0.00800 -0.00800)" d="M875 1277 730 1316 852 1398H869L931 957L887 949L714 1258L749 1212Q697 1249 643.5 1264.5Q590 1280 527 1280Q398 1280 327.0 1219.0Q256 1158 256 1057Q256 990 283.5 944.0Q311 898 359.0 866.0Q407 834 468.0 810.0Q529 786 596 762Q663 738 729.0 709.5Q795 681 849.5 639.5Q904 598 937.0 535.0Q970 472 970 380Q970 251 909.5 162.0Q849 73 742.5 26.5Q636 -20 496 -20Q400 -20 325.0 -6.5Q250 7 169 40L82 386H140L376 41L210 146Q288 104 349.5 84.5Q411 65 481 65Q591 65 669.5 93.5Q748 122 790.0 180.0Q832 238 832 326Q832 403 797.5 454.0Q763 505 706.0 538.5Q649 572 581.5 596.5Q514 621 448 646Q382 671 324.5 700.5Q267 730 223.5 770.0Q180 810 155.5 866.5Q131 923 131 1002Q131 1112 182.5 1192.0Q234 1272 329.5 1316.0Q425 1360 555 1360Q644 1360 720.5 1340.0Q797 1320 875 1277Z"/><path transform="translate(848.73 498.00) scale(0.00800 -0.00800)" d="M403 91 561 39V0H85V39L243 91V1249L85 1301V1340H561V1301L403 1249ZM1316 91 1474 39V0H998V39L1156 91V1249L998 1301V1340H1474V1301L1316 1249ZM303 636V730H1256V636Z"/><path transform="translate(861.20 498.00) scale(0.00800 -0.00800)" d="M561 39V0H85V39L243 91V1249L85 1301V1340H561V1301L403 1249V91Z"/><path transform="translate(866.37 498.00) scale(0.00800 -0.00800)" d="M961 962Q961 1053 921.5 1116.5Q882 1180 791.5 1213.0Q701 1246 546 1246H254L267 1340H632Q811 1340 920.5 1291.5Q1030 1243 1080.5 1160.0Q1131 1077 1131 974Q1131 868 1079.0 779.0Q1027 690 917.0 636.5Q807 583 632 583H267L254 677H657Q744 677 812.5 709.5Q881 742 921.0 805.5Q961 869 961 962ZM403 1340V91L561 39V0H85V39L243 91V1249L85 1301V1340Z"/></g>
</g>
<!-- BEFORE lane -->
<g fill="#9a3415"><path transform="translate(60.00 220.00) scale(0.00750 -0.00750)" d="M1346 337Q1346 188 1218.0 94.0Q1090 0 836 0H148Q122 0 109.5 10.5Q97 21 97 39Q97 70 134 81L195 94Q219 100 231.0 113.0Q243 126 243 148V1254Q243 1275 231.5 1287.5Q220 1300 195 1306L134 1319Q97 1330 97 1361Q97 1380 109.5 1390.0Q122 1400 148 1400H678Q865 1400 996.5 1349.0Q1128 1298 1197.0 1207.5Q1266 1117 1266 997Q1266 897 1210.0 818.5Q1154 740 1045.0 695.0Q936 650 778 650L831 676Q986 676 1102.0 632.5Q1218 589 1282.0 512.5Q1346 436 1346 337ZM724 618H471V687H706Q795 687 856.0 721.0Q917 755 948.0 821.0Q979 887 979 981Q979 1084 938.5 1160.5Q898 1237 821.5 1279.5Q745 1322 637 1322H546V165Q546 121 573.5 99.5Q601 78 654 78H769Q857 78 918.5 111.0Q980 144 1011.0 204.0Q1042 264 1042 345Q1042 469 961.0 543.5Q880 618 724 618Z"/><path transform="translate(71.46 220.00) scale(0.00750 -0.00750)" d="M444 749H751Q817 749 845.0 776.0Q873 803 886 878Q891 899 901.5 909.0Q912 919 927 920Q960 922 970 883L1051 577Q1057 555 1051.5 541.5Q1046 528 1028 523Q1012 518 997.0 522.5Q982 527 972 543Q941 593 915.0 619.5Q889 646 858.0 656.0Q827 666 781 666H444ZM98 1361Q98 1380 110.0 1390.0Q122 1400 148 1400H926Q960 1400 982.5 1409.5Q1005 1419 1024.0 1428.5Q1043 1438 1065 1438Q1090 1438 1103.5 1423.5Q1117 1409 1126 1375L1208 1079Q1214 1057 1207.5 1043.0Q1201 1029 1183 1023Q1162 1016 1145.0 1024.0Q1128 1032 1117 1053Q1074 1136 1037.5 1187.5Q1001 1239 965.5 1267.0Q930 1295 891.0 1305.0Q852 1315 802 1315H547V173Q547 129 572.5 107.0Q598 85 648 85H828Q895 85 946.0 109.0Q997 133 1047.0 202.0Q1097 271 1159 406Q1168 425 1182.5 432.5Q1197 440 1215 436Q1235 433 1244.0 418.0Q1253 403 1247 379L1158 29Q1148 -4 1134.5 -19.5Q1121 -35 1093 -35Q1073 -35 1054.5 -26.0Q1036 -17 1012.5 -8.5Q989 0 955 0H148Q122 0 110.0 10.5Q98 21 98 39Q98 70 134 81L195 94Q219 100 231.0 112.5Q243 125 243 146V1254Q243 1275 231.0 1287.5Q219 1300 195 1306L134 1319Q98 1330 98 1361Z"/><path transform="translate(82.18 220.00) scale(0.00750 -0.00750)" d="M879 1400Q914 1400 937.5 1409.0Q961 1418 979.5 1426.5Q998 1435 1016 1435Q1042 1435 1055.5 1421.5Q1069 1408 1078 1375L1161 1069Q1167 1049 1156.5 1036.0Q1146 1023 1127 1020Q1111 1017 1095.5 1023.0Q1080 1029 1070 1051Q1016 1159 970.0 1216.0Q924 1273 874.5 1294.0Q825 1315 762 1315H547V146Q547 125 559.0 111.5Q571 98 597 94L691 82Q713 78 722.0 68.0Q731 58 731 39Q731 21 719.0 10.5Q707 0 680 0H148Q122 0 110.0 10.5Q98 21 98 39Q98 70 134 81L195 94Q219 100 231.0 112.5Q243 125 243 146V1254Q243 1275 231.0 1287.5Q219 1300 195 1306L134 1319Q98 1330 98 1361Q98 1380 110.0 1390.0Q122 1400 148 1400ZM435 716H744Q811 716 840.5 743.0Q870 770 884 848Q889 867 899.0 875.5Q909 884 924 885Q959 887 968 850L1044 542Q1049 520 1042.5 508.0Q1036 496 1020 490Q1004 485 989.5 490.5Q975 496 962 513Q932 561 907.0 586.5Q882 612 852.0 622.0Q822 632 775 632H435Z"/><path transform="translate(92.18 220.00) scale(0.00750 -0.00750)" d="M781 1432Q943 1432 1074.0 1378.0Q1205 1324 1299.0 1225.5Q1393 1127 1443.5 992.0Q1494 857 1494 694Q1494 536 1444.0 402.5Q1394 269 1300.5 171.5Q1207 74 1077.0 20.0Q947 -34 787 -34Q626 -34 495.0 20.0Q364 74 270.0 172.5Q176 271 125.5 407.0Q75 543 75 707Q75 864 125.5 996.5Q176 1129 269.0 1227.0Q362 1325 492.0 1378.5Q622 1432 781 1432ZM1182 509Q1182 644 1157.5 768.0Q1133 892 1089.0 996.5Q1045 1101 986.5 1178.5Q928 1256 858.5 1299.5Q789 1343 714 1343Q616 1343 543.0 1290.0Q470 1237 429.5 1136.0Q389 1035 389 892Q389 757 413.5 632.0Q438 507 482.0 402.0Q526 297 584.5 219.0Q643 141 712.5 97.5Q782 54 857 54Q957 54 1029.5 107.5Q1102 161 1142.0 262.0Q1182 363 1182 509Z"/><path transform="translate(104.95 220.00) scale(0.00750 -0.00750)" d="M1337 917Q1337 821 1293.5 742.0Q1250 663 1170.5 610.5Q1091 558 981 538Q945 532 913.0 525.0Q881 518 848.5 513.0Q816 508 777 508Q711 508 654.5 517.0Q598 526 551.5 543.0Q505 560 469 583L476 659Q506 638 544.0 623.5Q582 609 626.5 601.5Q671 594 721 594Q863 594 943.5 674.0Q1024 754 1024 912Q1024 1031 975.5 1123.0Q927 1215 839.0 1268.0Q751 1321 634 1321H547V148Q547 126 557.5 113.5Q568 101 590 94L661 81Q682 74 689.5 64.0Q697 54 697 39Q697 0 646 0H148Q122 0 109.5 10.5Q97 21 97 39Q97 70 133 81L195 94Q219 100 231.0 113.0Q243 126 243 148V1254Q243 1275 231.0 1287.5Q219 1300 195 1306L133 1319Q97 1330 97 1361Q97 1380 109.5 1390.0Q122 1400 148 1400H643Q865 1400 1020.0 1338.5Q1175 1277 1256.0 1168.5Q1337 1060 1337 917ZM763 544 1058 578 1323 151Q1342 121 1362.0 105.5Q1382 90 1415 82Q1441 74 1450.5 64.0Q1460 54 1460 39Q1460 21 1447.5 10.5Q1435 0 1408 0H976Q926 0 926 39Q926 50 932.0 57.0Q938 64 952 71L984 78Q1006 88 1009.5 102.0Q1013 116 998 142Z"/><path transform="translate(116.98 220.00) scale(0.00750 -0.00750)" d="M444 749H751Q817 749 845.0 776.0Q873 803 886 878Q891 899 901.5 909.0Q912 919 927 920Q960 922 970 883L1051 577Q1057 555 1051.5 541.5Q1046 528 1028 523Q1012 518 997.0 522.5Q982 527 972 543Q941 593 915.0 619.5Q889 646 858.0 656.0Q827 666 781 666H444ZM98 1361Q98 1380 110.0 1390.0Q122 1400 148 1400H926Q960 1400 982.5 1409.5Q1005 1419 1024.0 1428.5Q1043 1438 1065 1438Q1090 1438 1103.5 1423.5Q1117 1409 1126 1375L1208 1079Q1214 1057 1207.5 1043.0Q1201 1029 1183 1023Q1162 1016 1145.0 1024.0Q1128 1032 1117 1053Q1074 1136 1037.5 1187.5Q1001 1239 965.5 1267.0Q930 1295 891.0 1305.0Q852 1315 802 1315H547V173Q547 129 572.5 107.0Q598 85 648 85H828Q895 85 946.0 109.0Q997 133 1047.0 202.0Q1097 271 1159 406Q1168 425 1182.5 432.5Q1197 440 1215 436Q1235 433 1244.0 418.0Q1253 403 1247 379L1158 29Q1148 -4 1134.5 -19.5Q1121 -35 1093 -35Q1073 -35 1054.5 -26.0Q1036 -17 1012.5 -8.5Q989 0 955 0H148Q122 0 110.0 10.5Q98 21 98 39Q98 70 134 81L195 94Q219 100 231.0 112.5Q243 125 243 146V1254Q243 1275 231.0 1287.5Q219 1300 195 1306L134 1319Q98 1330 98 1361Z"/></g>
<path d="M 175 171 C 339.25 171, 412.25 204, 540 204 C 667.75 204, 740.75 171, 905 171 L 905 259 C 740.75 259, 667.75 226, 540 226 C 412.25 226, 339.25 259, 175 259 Z" fill="url(#lane)" stroke="#c0441f" stroke-width="1.5" opacity="0.92"/>
<path d="M 915 202 L 945 215 L 915 228 Z" fill="#c0441f"/>
<g fill="#9a3415"><path transform="translate(504.15 157.00) scale(0.00700 -0.00700)" d="M125 772 143 852H633L617 772ZM262 211Q258 196 255.0 183.5Q252 171 250.5 161.0Q249 151 249 143Q249 127 255.0 119.0Q261 111 271 111Q292 111 329.0 136.0Q366 161 411.0 205.5Q456 250 501 310L541 284Q498 217 454.5 162.0Q411 107 369.0 66.5Q327 26 287.5 4.0Q248 -18 211 -18Q168 -18 142.0 7.0Q116 32 116 93Q116 120 121.5 155.5Q127 191 140 236L360 1026H495Z"/><path transform="translate(508.33 157.00) scale(0.00700 -0.00700)" d="M216 233 146 0H13L395 1268Q377 1285 360.0 1298.5Q343 1312 322.5 1323.5Q302 1335 273 1345L281 1370L550 1419H573L289 487L276 489Q318 561 367.0 629.0Q416 697 470.0 751.0Q524 805 582.5 837.0Q641 869 701 869Q784 869 815.5 833.5Q847 798 847 741Q847 709 837.0 670.0Q827 631 810 586L612 71L614 108Q647 108 687.0 122.0Q727 136 770.0 163.0Q813 190 853 227L883 196Q813 114 753.5 66.5Q694 19 644.0 -0.5Q594 -20 549 -20Q484 -20 470.0 -1.5Q456 17 478 73L689 618Q697 639 702.5 659.0Q708 679 708 696Q708 721 692.0 736.0Q676 751 634 751Q586 751 527.0 710.0Q468 669 408.5 597.0Q349 525 298.5 431.5Q248 338 216 233Z"/><path transform="translate(514.86 157.00) scale(0.00700 -0.00700)" d="M497 805Q438 805 391.0 770.0Q344 735 308.5 677.0Q273 619 249.5 549.5Q226 480 214.0 410.0Q202 340 202 282Q202 179 243.0 136.0Q284 93 350 93Q395 93 434.5 109.0Q474 125 510.5 164.5Q547 204 582 276H638Q589 162 540.5 97.5Q492 33 435.5 6.5Q379 -20 304 -20Q229 -20 173.5 9.5Q118 39 87.5 97.0Q57 155 57 240Q57 345 81.5 440.0Q106 535 150.5 613.5Q195 692 253.5 750.0Q312 808 381.0 840.0Q450 872 523 872Q593 872 637.0 847.5Q681 823 701.5 783.5Q722 744 722 699Q722 656 703.5 613.5Q685 571 656 547Q598 523 540.0 500.0Q482 477 423.5 455.5Q365 434 306.5 413.5Q248 393 189 374L192 446Q288 473 357.0 500.0Q426 527 471.5 553.0Q517 579 543.0 605.5Q569 632 580.0 658.5Q591 685 591 712Q591 740 580.0 760.5Q569 781 548.5 793.0Q528 805 497 805Z"/><path transform="translate(523.22 157.00) scale(0.00700 -0.00700)" d="M226 317Q213 273 207.0 235.5Q201 198 201 169Q201 107 227.5 76.5Q254 46 306 46Q360 46 415.5 80.5Q471 115 521.0 173.0Q571 231 610.5 304.0Q650 377 673.0 454.5Q696 532 696 605Q696 673 669.0 708.0Q642 743 587 743Q551 743 510.0 722.0Q469 701 428.0 664.0Q387 627 350.0 579.0Q313 531 284.5 476.5Q256 422 240 366ZM378 1267Q359 1284 341.0 1297.5Q323 1311 302.0 1322.5Q281 1334 252 1344L259 1369L526 1419H549L282 507L273 543Q345 658 412.0 730.5Q479 803 541.0 837.5Q603 872 658 872Q753 872 800.5 810.0Q848 748 848 651Q848 550 817.5 452.0Q787 354 733.5 269.0Q680 184 611.0 119.0Q542 54 465.0 17.0Q388 -20 310 -20Q203 -20 141.5 45.0Q80 110 80 216Q80 246 85.5 278.5Q91 311 101 345Z"/><path transform="translate(529.43 157.00) scale(0.00700 -0.00700)" d="M527 872Q607 872 664.5 837.5Q722 803 753.5 738.0Q785 673 785 580Q785 463 749.5 355.5Q714 248 651.0 163.5Q588 79 503.5 29.5Q419 -20 320 -20Q241 -20 183.0 14.5Q125 49 93.5 114.5Q62 180 62 272Q62 389 97.5 496.5Q133 604 196.0 688.5Q259 773 343.5 822.5Q428 872 527 872ZM322 47Q373 47 420.5 81.0Q468 115 508.5 173.5Q549 232 579.5 306.0Q610 380 627.0 461.0Q644 542 644 620Q644 715 615.5 760.0Q587 805 525 805Q474 805 426.5 771.0Q379 737 338.5 678.5Q298 620 267.5 546.0Q237 472 220.0 391.0Q203 310 203 232Q203 138 231.5 92.5Q260 47 322 47Z"/><path transform="translate(535.37 157.00) scale(0.00700 -0.00700)" d="M125 772 143 852H633L617 772ZM262 211Q258 196 255.0 183.5Q252 171 250.5 161.0Q249 151 249 143Q249 127 255.0 119.0Q261 111 271 111Q292 111 329.0 136.0Q366 161 411.0 205.5Q456 250 501 310L541 284Q498 217 454.5 162.0Q411 107 369.0 66.5Q327 26 287.5 4.0Q248 -18 211 -18Q168 -18 142.0 7.0Q116 32 116 93Q116 120 121.5 155.5Q127 191 140 236L360 1026H495Z"/><path transform="translate(539.55 157.00) scale(0.00700 -0.00700)" d="M125 772 143 852H633L617 772ZM262 211Q258 196 255.0 183.5Q252 171 250.5 161.0Q249 151 249 143Q249 127 255.0 119.0Q261 111 271 111Q292 111 329.0 136.0Q366 161 411.0 205.5Q456 250 501 310L541 284Q498 217 454.5 162.0Q411 107 369.0 66.5Q327 26 287.5 4.0Q248 -18 211 -18Q168 -18 142.0 7.0Q116 32 116 93Q116 120 121.5 155.5Q127 191 140 236L360 1026H495Z"/><path transform="translate(543.74 157.00) scale(0.00700 -0.00700)" d="M404 1268Q386 1285 369.0 1298.5Q352 1312 331.5 1323.5Q311 1335 282 1345L290 1370L559 1419H582L179 81L167 109Q200 105 242.5 118.0Q285 131 331.5 159.0Q378 187 422 227L450 195Q380 113 321.0 66.0Q262 19 212.5 -0.5Q163 -20 118 -20Q71 -20 47.5 -7.0Q24 6 33 35Z"/><path transform="translate(547.17 157.00) scale(0.00700 -0.00700)" d="M497 805Q438 805 391.0 770.0Q344 735 308.5 677.0Q273 619 249.5 549.5Q226 480 214.0 410.0Q202 340 202 282Q202 179 243.0 136.0Q284 93 350 93Q395 93 434.5 109.0Q474 125 510.5 164.5Q547 204 582 276H638Q589 162 540.5 97.5Q492 33 435.5 6.5Q379 -20 304 -20Q229 -20 173.5 9.5Q118 39 87.5 97.0Q57 155 57 240Q57 345 81.5 440.0Q106 535 150.5 613.5Q195 692 253.5 750.0Q312 808 381.0 840.0Q450 872 523 872Q593 872 637.0 847.5Q681 823 701.5 783.5Q722 744 722 699Q722 656 703.5 613.5Q685 571 656 547Q598 523 540.0 500.0Q482 477 423.5 455.5Q365 434 306.5 413.5Q248 393 189 374L192 446Q288 473 357.0 500.0Q426 527 471.5 553.0Q517 579 543.0 605.5Q569 632 580.0 658.5Q591 685 591 712Q591 740 580.0 760.5Q569 781 548.5 793.0Q528 805 497 805Z"/><path transform="translate(552.36 157.00) scale(0.00700 -0.00700)" d="M92 582 56 597Q97 703 145.5 762.5Q194 822 248.0 846.5Q302 871 356 871Q375 871 393.5 868.5Q412 866 430.5 862.0Q449 858 467 852L347 462H341Q385 540 435.5 613.0Q486 686 542.0 743.5Q598 801 658.0 835.0Q718 869 780 869Q863 869 894.5 833.5Q926 798 926 741Q926 709 916.0 670.0Q906 631 889 586L691 71L693 108Q726 108 766.0 122.0Q806 136 849.0 163.0Q892 190 932 227L962 196Q892 114 832.5 66.5Q773 19 723.0 -0.5Q673 -20 628 -20Q563 -20 549.0 -1.5Q535 17 557 73L768 618Q776 639 781.5 659.0Q787 679 787 696Q787 721 771.0 736.0Q755 751 713 751Q665 751 606.0 710.0Q547 669 487.5 597.0Q428 525 377.5 431.5Q327 338 295 233L224 0H89L315 746Q311 746 307.5 746.0Q304 746 300 746Q264 746 230.0 732.0Q196 718 162.0 682.5Q128 647 92 582Z"/><path transform="translate(559.45 157.00) scale(0.00700 -0.00700)" d="M497 805Q438 805 391.0 770.0Q344 735 308.5 677.0Q273 619 249.5 549.5Q226 480 214.0 410.0Q202 340 202 282Q202 179 243.0 136.0Q284 93 350 93Q395 93 434.5 109.0Q474 125 510.5 164.5Q547 204 582 276H638Q589 162 540.5 97.5Q492 33 435.5 6.5Q379 -20 304 -20Q229 -20 173.5 9.5Q118 39 87.5 97.0Q57 155 57 240Q57 345 81.5 440.0Q106 535 150.5 613.5Q195 692 253.5 750.0Q312 808 381.0 840.0Q450 872 523 872Q593 872 637.0 847.5Q681 823 701.5 783.5Q722 744 722 699Q722 656 703.5 613.5Q685 571 656 547Q598 523 540.0 500.0Q482 477 423.5 455.5Q365 434 306.5 413.5Q248 393 189 374L192 446Q288 473 357.0 500.0Q426 527 471.5 553.0Q517 579 543.0 605.5Q569 632 580.0 658.5Q591 685 591 712Q591 740 580.0 760.5Q569 781 548.5 793.0Q528 805 497 805Z"/><path transform="translate(564.64 157.00) scale(0.00700 -0.00700)" d="M458 794Q403 794 356.0 747.0Q309 700 274.5 624.0Q240 548 221.0 458.0Q202 368 202 282Q202 179 234.0 136.0Q266 93 330 93Q371 93 410.0 110.0Q449 127 487.5 167.0Q526 207 563 276H617Q565 162 514.0 97.5Q463 33 407.5 6.5Q352 -20 285 -20Q176 -20 116.5 44.0Q57 108 57 240Q57 371 95.5 485.5Q134 600 200.5 687.0Q267 774 354.5 823.0Q442 872 539 872Q628 872 672.0 833.5Q716 795 716 745Q716 706 693.0 687.0Q670 668 635 667Q620 666 602.0 686.5Q584 707 562 731Q540 755 514.5 774.5Q489 794 458 794Z"/><path transform="translate(569.55 157.00) scale(0.00700 -0.00700)" d="M573 1419 146 0H13L395 1269Q377 1286 360.0 1299.5Q343 1313 322.5 1324.5Q302 1336 273 1346L281 1371L550 1419ZM284 476 289 492Q407 609 489.5 683.5Q572 758 631.0 799.0Q690 840 736.0 856.0Q782 872 826 872Q874 872 902.0 841.0Q930 810 930 768Q930 733 913.0 706.0Q896 679 868.5 663.5Q841 648 807 648Q794 648 784.5 658.5Q775 669 761 693Q748 717 737.0 726.5Q726 736 712 736Q689 736 649.0 716.0Q609 696 560.0 661.5Q511 627 460.0 582.0Q409 537 364 487L391 543Q451 387 489.5 296.0Q528 205 551.5 161.5Q575 118 592.0 105.0Q609 92 626 92Q647 92 678.5 110.5Q710 129 746.5 162.0Q783 195 818 238L850 209Q787 125 738.0 75.0Q689 25 648.0 2.5Q607 -20 567 -20Q537 -20 512.0 -4.5Q487 11 458.0 60.5Q429 110 388.0 209.0Q347 308 284 476Z"/></g>
<line x1="540" y1="163" x2="540" y2="199" stroke="#9a3415" stroke-width="1.2"/>
<!-- NOW lane -->
<g fill="#9a3415"><path transform="translate(60.00 410.00) scale(0.00750 -0.00750)" d="M521 39Q521 21 508.5 10.5Q496 0 470 0H128Q102 0 89.0 10.5Q76 21 76 39Q76 68 114 82L163 96Q209 113 228.0 136.0Q247 159 247 208V1105Q247 1133 241.0 1151.0Q235 1169 209 1200L123 1315Q109 1334 103.5 1345.0Q98 1356 98 1366Q98 1383 109.5 1391.5Q121 1400 140 1400H384Q409 1400 426.0 1390.5Q443 1381 461 1356L1225 295L1185 195V1192Q1185 1240 1166.5 1263.5Q1148 1287 1100 1304L1045 1318Q1007 1334 1007 1361Q1007 1380 1019.5 1390.0Q1032 1400 1058 1400H1400Q1426 1400 1439.0 1390.0Q1452 1380 1452 1361Q1452 1333 1414 1318L1365 1304Q1319 1288 1300.0 1265.0Q1281 1242 1281 1192V269Q1281 241 1286.5 220.5Q1292 200 1304 182L1368 95Q1385 72 1389.0 60.0Q1393 48 1393 37Q1393 20 1381.5 10.0Q1370 0 1348 0H1078Q1037 0 1037 34Q1037 48 1031.5 61.0Q1026 74 1002 107L259 1138L344 1192V207Q344 160 362.5 137.0Q381 114 428 96L483 82Q521 67 521 39Z"/><path transform="translate(72.33 410.00) scale(0.00750 -0.00750)" d="M781 1432Q943 1432 1074.0 1378.0Q1205 1324 1299.0 1225.5Q1393 1127 1443.5 992.0Q1494 857 1494 694Q1494 536 1444.0 402.5Q1394 269 1300.5 171.5Q1207 74 1077.0 20.0Q947 -34 787 -34Q626 -34 495.0 20.0Q364 74 270.0 172.5Q176 271 125.5 407.0Q75 543 75 707Q75 864 125.5 996.5Q176 1129 269.0 1227.0Q362 1325 492.0 1378.5Q622 1432 781 1432ZM1182 509Q1182 644 1157.5 768.0Q1133 892 1089.0 996.5Q1045 1101 986.5 1178.5Q928 1256 858.5 1299.5Q789 1343 714 1343Q616 1343 543.0 1290.0Q470 1237 429.5 1136.0Q389 1035 389 892Q389 757 413.5 632.0Q438 507 482.0 402.0Q526 297 584.5 219.0Q643 141 712.5 97.5Q782 54 857 54Q957 54 1029.5 107.5Q1102 161 1142.0 262.0Q1182 363 1182 509Z"/><path transform="translate(85.10 410.00) scale(0.00750 -0.00750)" d="M1012 1117 1102 1093 815 164Q809 145 805.0 127.0Q801 109 801 85V42Q801 22 790.0 11.0Q779 0 761 0H524Q505 0 493.5 11.0Q482 22 482 42V85Q482 102 479.0 114.5Q476 127 469 152L145 1252Q137 1279 126.0 1291.0Q115 1303 95 1310L48 1323Q31 1329 24.0 1339.5Q17 1350 17 1363Q17 1380 29.5 1390.0Q42 1400 67 1400H535Q561 1400 573.0 1390.0Q585 1380 585 1362Q585 1334 554 1326L485 1314Q463 1308 458.5 1290.0Q454 1272 464 1238L778 153L690 84ZM1656 1361Q1656 1380 1668.5 1390.0Q1681 1400 1707 1400H2012Q2038 1400 2050.0 1389.5Q2062 1379 2062 1362Q2062 1348 2054.5 1339.5Q2047 1331 2026 1323L1990 1310Q1957 1296 1934.0 1267.5Q1911 1239 1896 1182L1612 164Q1605 138 1601.5 122.0Q1598 106 1598 85V42Q1598 22 1587.0 11.0Q1576 0 1558 0H1313Q1295 0 1283.5 11.0Q1272 22 1272 42V85Q1272 101 1270.5 114.5Q1269 128 1261 154L948 1252Q939 1285 930.5 1296.0Q922 1307 905 1312L860 1326Q842 1332 834.5 1340.5Q827 1349 827 1362Q827 1380 840.0 1390.0Q853 1400 878 1400H1335Q1361 1400 1373.0 1390.0Q1385 1380 1385 1362Q1385 1348 1376.5 1338.5Q1368 1329 1350 1323L1286 1312Q1264 1307 1259.0 1291.5Q1254 1276 1265 1237L1568 152L1491 90L1799 1192Q1813 1240 1800.5 1269.5Q1788 1299 1738 1314L1688 1325Q1671 1330 1663.5 1339.0Q1656 1348 1656 1361Z"/></g>
<path d="M 175 361 C 482.35 361, 618.95 394, 858 394 C 874.45 394, 883.85 361, 905 361 L 905 449 C 883.85 449, 874.45 416, 858 416 C 618.95 416, 482.35 449, 175 449 Z" fill="url(#lane)" stroke="#c0441f" stroke-width="1.5" opacity="0.92"/>
<path d="M 915 392 L 945 405 L 915 418 Z" fill="#c0441f"/>
<g fill="#9a3415"><path transform="translate(822.83 347.00) scale(0.00700 -0.00700)" d="M65 35 325 761 354 739Q322 740 280.5 723.0Q239 706 195.0 674.5Q151 643 111 598L81 627Q150 725 207.5 778.0Q265 831 315.0 851.5Q365 872 410 872Q448 872 466.5 857.5Q485 843 476 817L216 71L199 109Q232 105 274.5 118.0Q317 131 363.5 159.0Q410 187 454 227L482 195Q412 113 353.0 66.0Q294 19 244.5 -0.5Q195 -20 150 -20Q95 -20 75.0 -6.0Q55 8 65 35ZM399 1300Q399 1332 413.5 1357.5Q428 1383 453.5 1398.0Q479 1413 513 1413Q564 1413 595.5 1380.5Q627 1348 627 1300Q627 1268 612.5 1242.5Q598 1217 572.5 1202.0Q547 1187 513 1187Q462 1187 430.5 1219.5Q399 1252 399 1300Z"/><path transform="translate(826.57 347.00) scale(0.00700 -0.00700)" d="M125 772 143 852H633L617 772ZM262 211Q258 196 255.0 183.5Q252 171 250.5 161.0Q249 151 249 143Q249 127 255.0 119.0Q261 111 271 111Q292 111 329.0 136.0Q366 161 411.0 205.5Q456 250 501 310L541 284Q498 217 454.5 162.0Q411 107 369.0 66.5Q327 26 287.5 4.0Q248 -18 211 -18Q168 -18 142.0 7.0Q116 32 116 93Q116 120 121.5 155.5Q127 191 140 236L360 1026H495Z"/><path transform="translate(833.92 347.00) scale(0.00700 -0.00700)" d="M1125 71 1127 108Q1160 108 1200.0 122.0Q1240 136 1283.0 163.0Q1326 190 1366 227L1396 196Q1326 114 1266.5 66.5Q1207 19 1157.0 -0.5Q1107 -20 1062 -20Q997 -20 983.0 -1.5Q969 17 991 73L1203 622Q1211 643 1215.5 661.0Q1220 679 1220 695Q1220 721 1204.0 735.5Q1188 750 1148 750Q1103 750 1050.0 713.0Q997 676 943.0 610.0Q889 544 840.5 456.0Q792 368 756 267L672 0H535L739 622Q744 636 747.5 649.0Q751 662 753.0 673.5Q755 685 755 695Q755 721 739.5 735.5Q724 750 686 750Q638 750 583.5 710.0Q529 670 475.5 599.0Q422 528 375.0 434.0Q328 340 295 233L224 0H89L315 746Q311 746 307.5 746.0Q304 746 300 746Q264 746 230.0 732.0Q196 718 162.0 682.5Q128 647 92 582L56 597Q97 703 145.5 762.5Q194 822 248.0 846.5Q302 871 356 871Q375 871 393.5 868.5Q412 866 430.5 862.0Q449 858 467 852L355 490H348Q414 603 468.5 677.5Q523 752 571.0 794.5Q619 837 663.0 854.5Q707 872 751 872Q831 872 864.0 842.5Q897 813 897 764Q897 731 886.0 687.5Q875 644 857 586L842 537H834Q890 631 940.5 695.5Q991 760 1038.0 799.0Q1085 838 1129.5 855.5Q1174 873 1217 873Q1297 873 1329.0 842.5Q1361 812 1361 759Q1361 726 1350.5 683.0Q1340 640 1319 584Z"/><path transform="translate(844.04 347.00) scale(0.00700 -0.00700)" d="M527 872Q607 872 664.5 837.5Q722 803 753.5 738.0Q785 673 785 580Q785 463 749.5 355.5Q714 248 651.0 163.5Q588 79 503.5 29.5Q419 -20 320 -20Q241 -20 183.0 14.5Q125 49 93.5 114.5Q62 180 62 272Q62 389 97.5 496.5Q133 604 196.0 688.5Q259 773 343.5 822.5Q428 872 527 872ZM322 47Q373 47 420.5 81.0Q468 115 508.5 173.5Q549 232 579.5 306.0Q610 380 627.0 461.0Q644 542 644 620Q644 715 615.5 760.0Q587 805 525 805Q474 805 426.5 771.0Q379 737 338.5 678.5Q298 620 267.5 546.0Q237 472 220.0 391.0Q203 310 203 232Q203 138 231.5 92.5Q260 47 322 47Z"/><path transform="translate(849.97 347.00) scale(0.00700 -0.00700)" d="M851 731Q851 648 822.0 547.5Q793 447 740.5 347.0Q688 247 618.0 164.0Q548 81 466.0 30.5Q384 -20 295 -20Q216 -20 169.0 21.0Q122 62 122 132Q122 171 137 214L320 746Q316 746 312.5 746.0Q309 746 305 746Q269 746 235.0 732.0Q201 718 167.0 682.5Q133 647 97 582L61 597Q93 676 129.5 729.0Q166 782 206.0 813.0Q246 844 288.0 857.5Q330 871 372 871Q392 871 411.5 868.5Q431 866 450.5 862.0Q470 858 488 852L277 233Q270 213 266.5 195.5Q263 178 263 164Q263 124 285.5 105.0Q308 86 348 86Q405 86 461.0 122.5Q517 159 566.5 217.0Q616 275 654.0 342.5Q692 410 714.0 473.0Q736 536 736 581Q736 615 720.0 644.5Q704 674 683.5 698.5Q663 723 647.0 741.0Q631 759 631 770Q631 822 665.5 847.0Q700 872 740 872Q794 872 822.5 835.5Q851 799 851 731Z"/><path transform="translate(856.17 347.00) scale(0.00700 -0.00700)" d="M497 805Q438 805 391.0 770.0Q344 735 308.5 677.0Q273 619 249.5 549.5Q226 480 214.0 410.0Q202 340 202 282Q202 179 243.0 136.0Q284 93 350 93Q395 93 434.5 109.0Q474 125 510.5 164.5Q547 204 582 276H638Q589 162 540.5 97.5Q492 33 435.5 6.5Q379 -20 304 -20Q229 -20 173.5 9.5Q118 39 87.5 97.0Q57 155 57 240Q57 345 81.5 440.0Q106 535 150.5 613.5Q195 692 253.5 750.0Q312 808 381.0 840.0Q450 872 523 872Q593 872 637.0 847.5Q681 823 701.5 783.5Q722 744 722 699Q722 656 703.5 613.5Q685 571 656 547Q598 523 540.0 500.0Q482 477 423.5 455.5Q365 434 306.5 413.5Q248 393 189 374L192 446Q288 473 357.0 500.0Q426 527 471.5 553.0Q517 579 543.0 605.5Q569 632 580.0 658.5Q591 685 591 712Q591 740 580.0 760.5Q569 781 548.5 793.0Q528 805 497 805Z"/><path transform="translate(861.36 347.00) scale(0.00700 -0.00700)" d="M713 730Q705 754 678.0 774.0Q651 794 608 794Q534 794 468.5 748.5Q403 703 349.0 630.0Q295 557 255.5 474.5Q216 392 194.5 316.5Q173 241 173 191Q173 147 197.0 125.0Q221 103 258 103Q287 103 328.0 123.0Q369 143 414.0 178.5Q459 214 502.5 262.0Q546 310 581.0 367.5Q616 425 635 487L876 1268Q858 1285 841.0 1298.5Q824 1312 803.5 1323.5Q783 1335 754 1345L762 1370L1031 1419H1054L637 71L620 109Q653 104 695.5 117.0Q738 130 784.5 158.5Q831 187 875 227L903 195Q795 75 716.5 27.5Q638 -20 571 -20Q528 -20 508.5 -2.0Q489 16 499 45L603 367H629Q553 255 491.5 180.5Q430 106 379.5 63.0Q329 20 285.5 1.5Q242 -17 203 -17Q149 -17 109.0 3.0Q69 23 47.0 67.5Q25 112 25 183Q25 259 54.5 350.5Q84 442 136.5 533.0Q189 624 260.0 699.5Q331 775 414.5 821.0Q498 867 589 867Q647 867 684.5 846.5Q722 826 753 785Z"/><path transform="translate(871.05 347.00) scale(0.00700 -0.00700)" d="M216 233 146 0H13L395 1268Q377 1285 360.0 1298.5Q343 1312 322.5 1323.5Q302 1335 273 1345L281 1370L550 1419H573L289 487L276 489Q318 561 367.0 629.0Q416 697 470.0 751.0Q524 805 582.5 837.0Q641 869 701 869Q784 869 815.5 833.5Q847 798 847 741Q847 709 837.0 670.0Q827 631 810 586L612 71L614 108Q647 108 687.0 122.0Q727 136 770.0 163.0Q813 190 853 227L883 196Q813 114 753.5 66.5Q694 19 644.0 -0.5Q594 -20 549 -20Q484 -20 470.0 -1.5Q456 17 478 73L689 618Q697 639 702.5 659.0Q708 679 708 696Q708 721 692.0 736.0Q676 751 634 751Q586 751 527.0 710.0Q468 669 408.5 597.0Q349 525 298.5 431.5Q248 338 216 233Z"/><path transform="translate(877.58 347.00) scale(0.00700 -0.00700)" d="M497 805Q438 805 391.0 770.0Q344 735 308.5 677.0Q273 619 249.5 549.5Q226 480 214.0 410.0Q202 340 202 282Q202 179 243.0 136.0Q284 93 350 93Q395 93 434.5 109.0Q474 125 510.5 164.5Q547 204 582 276H638Q589 162 540.5 97.5Q492 33 435.5 6.5Q379 -20 304 -20Q229 -20 173.5 9.5Q118 39 87.5 97.0Q57 155 57 240Q57 345 81.5 440.0Q106 535 150.5 613.5Q195 692 253.5 750.0Q312 808 381.0 840.0Q450 872 523 872Q593 872 637.0 847.5Q681 823 701.5 783.5Q722 744 722 699Q722 656 703.5 613.5Q685 571 656 547Q598 523 540.0 500.0Q482 477 423.5 455.5Q365 434 306.5 413.5Q248 393 189 374L192 446Q288 473 357.0 500.0Q426 527 471.5 553.0Q517 579 543.0 605.5Q569 632 580.0 658.5Q591 685 591 712Q591 740 580.0 760.5Q569 781 548.5 793.0Q528 805 497 805Z"/><path transform="translate(882.78 347.00) scale(0.00700 -0.00700)" d="M315 746Q311 746 307.5 746.0Q304 746 300 746Q264 746 230.0 732.0Q196 718 162.0 682.5Q128 647 92 582L56 597Q97 703 145.5 762.5Q194 822 248.0 846.5Q302 871 356 871Q375 871 393.5 868.5Q412 866 430.5 862.0Q449 858 467 852L364 517H359Q421 639 479.0 717.5Q537 796 595.0 834.0Q653 872 713 872Q770 872 796.5 844.5Q823 817 823 774Q823 742 807.0 717.0Q791 692 765.0 678.0Q739 664 708 664Q700 664 691.0 671.5Q682 679 669 698Q656 718 644.0 728.0Q632 738 616 738Q591 738 559.5 714.5Q528 691 494.0 648.5Q460 606 426.0 547.5Q392 489 361.0 418.5Q330 348 306 269L224 0H89Z"/><path transform="translate(887.98 347.00) scale(0.00700 -0.00700)" d="M497 805Q438 805 391.0 770.0Q344 735 308.5 677.0Q273 619 249.5 549.5Q226 480 214.0 410.0Q202 340 202 282Q202 179 243.0 136.0Q284 93 350 93Q395 93 434.5 109.0Q474 125 510.5 164.5Q547 204 582 276H638Q589 162 540.5 97.5Q492 33 435.5 6.5Q379 -20 304 -20Q229 -20 173.5 9.5Q118 39 87.5 97.0Q57 155 57 240Q57 345 81.5 440.0Q106 535 150.5 613.5Q195 692 253.5 750.0Q312 808 381.0 840.0Q450 872 523 872Q593 872 637.0 847.5Q681 823 701.5 783.5Q722 744 722 699Q722 656 703.5 613.5Q685 571 656 547Q598 523 540.0 500.0Q482 477 423.5 455.5Q365 434 306.5 413.5Q248 393 189 374L192 446Q288 473 357.0 500.0Q426 527 471.5 553.0Q517 579 543.0 605.5Q569 632 580.0 658.5Q591 685 591 712Q591 740 580.0 760.5Q569 781 548.5 793.0Q528 805 497 805Z"/></g>
<line x1="858" y1="353" x2="858" y2="389" stroke="#9a3415" stroke-width="1.2"/>
</svg>