<svg xmlns="http://www.w3.org/2000/svg" width="760" height="340" viewBox="0 0 760 340">
<defs>
<linearGradient id="card" x1="0" y1="0" x2="0" y2="1"><stop offset="0" stop-color="#fffdf8"/><stop offset="1" stop-color="#f3ede1"/></linearGradient>
<style>.sd{font-family:'Fraunces',Georgia,serif;}.st{font-family:'Newsreader',Georgia,serif;}</style>
</defs>
<rect x="4" y="4" width="752" height="332" rx="14" fill="url(#card)" stroke="#d9d1c2" stroke-width="1.2"/>
<g fill="#9a3415"><path transform="translate(34.00 46.00) scale(0.00650 -0.00650)" d="M444 749H751Q817 749 845.0 776.0Q873 803 886 878Q891 899 901.5 909.0Q912 919 927 920Q960 922 970 883L1051 577Q1057 555 1051.5 541.5Q1046 528 1028 523Q1012 518 997.0 522.5Q982 527 972 543Q941 593 915.0 619.5Q889 646 858.0 656.0Q827 666 781 666H444ZM98 1361Q98 1380 110.0 1390.0Q122 1400 148 1400H926Q960 1400 982.5 1409.5Q1005 1419 1024.0 1428.5Q1043 1438 1065 1438Q1090 1438 1103.5 1423.5Q1117 1409 1126 1375L1208 1079Q1214 1057 1207.5 1043.0Q1201 1029 1183 1023Q1162 1016 1145.0 1024.0Q1128 1032 1117 1053Q1074 1136 1037.5 1187.5Q1001 1239 965.5 1267.0Q930 1295 891.0 1305.0Q852 1315 802 1315H547V173Q547 129 572.5 107.0Q598 85 648 85H828Q895 85 946.0 109.0Q997 133 1047.0 202.0Q1097 271 1159 406Q1168 425 1182.5 432.5Q1197 440 1215 436Q1235 433 1244.0 418.0Q1253 403 1247 379L1158 29Q1148 -4 1134.5 -19.5Q1121 -35 1093 -35Q1073 -35 1054.5 -26.0Q1036 -17 1012.5 -8.5Q989 0 955 0H148Q122 0 110.0 10.5Q98 21 98 39Q98 70 134 81L195 94Q219 100 231.0 112.5Q243 125 243 146V1254Q243 1275 231.0 1287.5Q219 1300 195 1306L134 1319Q98 1330 98 1361Z"/><path transform="translate(44.92 46.00) scale(0.00650 -0.00650)" d="M1247 174Q1270 142 1287.0 124.5Q1304 107 1324.0 98.0Q1344 89 1374 81Q1394 74 1404.5 64.0Q1415 54 1415 39Q1415 21 1402.5 10.5Q1390 0 1364 0H833Q808 0 795.0 10.5Q782 21 782 38Q782 55 793.0 65.5Q804 76 835 84Q873 92 889.5 105.5Q906 119 904.5 138.5Q903 158 885 185L192 1235Q174 1262 158.5 1278.0Q143 1294 125.0 1303.0Q107 1312 81 1319Q56 1328 47.5 1337.5Q39 1347 39 1361Q39 1380 52.0 1390.0Q65 1400 91 1400H609Q636 1400 647.0 1389.5Q658 1379 658 1361Q658 1346 651.0 1336.0Q644 1326 627 1322L572 1312Q536 1305 530.5 1287.5Q525 1270 546 1238ZM805 702 713 734 1038 1185Q1074 1237 1066.0 1267.0Q1058 1297 1011 1309L964 1320Q949 1325 939.5 1335.5Q930 1346 930 1361Q930 1379 942.0 1389.5Q954 1400 980 1400H1310Q1361 1400 1361 1362Q1361 1347 1348.5 1335.5Q1336 1324 1309 1314Q1258 1297 1223.5 1262.5Q1189 1228 1140 1161ZM620 728 712 690 359 208Q322 157 330.0 128.0Q338 99 384 87L428 78Q445 71 453.5 62.5Q462 54 462 39Q462 21 449.5 10.5Q437 0 412 0H80Q55 0 42.0 10.5Q29 21 29 39Q29 53 38.5 63.0Q48 73 74 83Q118 99 148.5 119.5Q179 140 205.5 169.0Q232 198 262 239Z"/><path transform="translate(56.73 46.00) scale(0.00650 -0.00650)" d="M377 706H1227V618H377ZM548 146Q548 125 560.5 112.5Q573 100 596 94L657 81Q694 70 694 39Q694 21 681.5 10.5Q669 0 643 0H149Q123 0 110.5 10.5Q98 21 98 39Q98 70 135 81L196 94Q220 100 232.0 112.5Q244 125 244 146V1254Q244 1275 232.0 1287.5Q220 1300 196 1306L135 1319Q98 1330 98 1361Q98 1380 110.5 1390.0Q123 1400 149 1400H643Q669 1400 681.5 1390.0Q694 1380 694 1361Q694 1330 657 1319L596 1306Q573 1300 560.5 1287.5Q548 1275 548 1254ZM1423 146Q1423 125 1435.0 112.5Q1447 100 1470 94L1532 81Q1568 70 1568 39Q1568 21 1556.0 10.5Q1544 0 1518 0H1024Q998 0 985.5 10.5Q973 21 973 39Q973 70 1009 81L1071 94Q1095 100 1107.0 112.5Q1119 125 1119 146V1254Q1119 1275 1107.0 1287.5Q1095 1300 1071 1306L1009 1319Q973 1330 973 1361Q973 1380 985.5 1390.0Q998 1400 1024 1400H1518Q1544 1400 1556.0 1390.0Q1568 1380 1568 1361Q1568 1330 1532 1319L1470 1306Q1447 1300 1435.0 1287.5Q1423 1275 1423 1254Z"/><path transform="translate(70.06 46.00) scale(0.00650 -0.00650)" d="M547 146Q547 125 559.0 112.5Q571 100 594 94L656 81Q692 70 692 39Q692 21 680.0 10.5Q668 0 642 0H148Q122 0 109.5 10.5Q97 21 97 39Q97 70 133 81L195 94Q219 100 231.0 112.5Q243 125 243 146V1254Q243 1275 231.0 1287.5Q219 1300 195 1306L133 1319Q97 1330 97 1361Q97 1380 109.5 1390.0Q122 1400 148 1400H642Q668 1400 680.0 1390.0Q692 1380 692 1361Q692 1330 656 1319L594 1306Q571 1300 559.0 1287.5Q547 1275 547 1254Z"/><path transform="translate(77.69 46.00) scale(0.00650 -0.00650)" d="M1346 337Q1346 188 1218.0 94.0Q1090 0 836 0H148Q122 0 109.5 10.5Q97 21 97 39Q97 70 134 81L195 94Q219 100 231.0 113.0Q243 126 243 148V1254Q243 1275 231.5 1287.5Q220 1300 195 1306L134 1319Q97 1330 97 1361Q97 1380 109.5 1390.0Q122 1400 148 1400H678Q865 1400 996.5 1349.0Q1128 1298 1197.0 1207.5Q1266 1117 1266 997Q1266 897 1210.0 818.5Q1154 740 1045.0 695.0Q936 650 778 650L831 676Q986 676 1102.0 632.5Q1218 589 1282.0 512.5Q1346 436 1346 337ZM724 618H471V687H706Q795 687 856.0 721.0Q917 755 948.0 821.0Q979 887 979 981Q979 1084 938.5 1160.5Q898 1237 821.5 1279.5Q745 1322 637 1322H546V165Q546 121 573.5 99.5Q601 78 654 78H769Q857 78 918.5 111.0Q980 144 1011.0 204.0Q1042 264 1042 345Q1042 469 961.0 543.5Q880 618 724 618Z"/><path transform="translate(89.26 46.00) scale(0.00650 -0.00650)" d="M547 146Q547 125 559.0 112.5Q571 100 594 94L656 81Q692 70 692 39Q692 21 680.0 10.5Q668 0 642 0H148Q122 0 109.5 10.5Q97 21 97 39Q97 70 133 81L195 94Q219 100 231.0 112.5Q243 125 243 146V1254Q243 1275 231.0 1287.5Q219 1300 195 1306L133 1319Q97 1330 97 1361Q97 1380 109.5 1390.0Q122 1400 148 1400H642Q668 1400 680.0 1390.0Q692 1380 692 1361Q692 1330 656 1319L594 1306Q571 1300 559.0 1287.5Q547 1275 547 1254Z"/><path transform="translate(96.89 46.00) scale(0.00650 -0.00650)" d="M315 1400H1051Q1085 1400 1107.5 1409.0Q1130 1418 1148.0 1426.5Q1166 1435 1184 1435Q1211 1435 1225.5 1421.5Q1240 1408 1249 1374L1315 1040Q1320 1016 1311.5 1000.5Q1303 985 1283 981Q1264 977 1249.5 984.5Q1235 992 1224 1013Q1170 1138 1129.5 1202.0Q1089 1266 1049.5 1289.0Q1010 1312 957 1312H836V146Q836 125 848.0 112.5Q860 100 883 94L945 81Q981 70 981 39Q981 0 931 0H437Q411 0 398.5 10.5Q386 21 386 39Q386 70 422 81L484 94Q508 100 520.0 112.5Q532 125 532 146V1312H410Q358 1312 318.5 1288.0Q279 1264 238.5 1200.0Q198 1136 143 1013Q133 992 118.0 984.5Q103 977 84 981Q64 985 56.0 1000.5Q48 1016 52 1040L118 1374Q127 1408 141.5 1421.5Q156 1435 183 1435Q201 1435 218.5 1426.5Q236 1418 258.5 1409.0Q281 1400 315 1400Z"/><path transform="translate(113.46 46.00) scale(0.00650 -0.00650)" d="M333 564H909L913 475H327ZM438 39Q438 21 426.0 10.5Q414 0 387 0H73Q47 0 34.5 10.5Q22 21 22 38Q22 51 29.5 60.0Q37 69 55 78L89 91Q119 105 138.5 131.0Q158 157 177 221L498 1222Q511 1265 504.0 1285.0Q497 1305 462 1317Q438 1326 428.0 1336.5Q418 1347 418 1362Q418 1380 430.5 1390.0Q443 1400 470 1400H939Q966 1400 978.5 1390.0Q991 1380 991 1362Q991 1346 981.0 1335.5Q971 1325 948 1318Q922 1311 917.0 1297.0Q912 1283 922 1251L1274 180Q1288 136 1305.5 114.5Q1323 93 1354 84Q1380 74 1388.5 64.5Q1397 55 1397 39Q1397 21 1384.0 10.5Q1371 0 1345 0H904Q878 0 865.0 10.5Q852 21 852 39Q852 53 861.0 62.5Q870 72 889 78L945 89Q971 97 971.0 114.0Q971 131 960 168L600 1283L632 1309L288 233Q275 191 277.5 164.5Q280 138 298.5 120.5Q317 103 353 89L402 77Q420 71 429.0 62.5Q438 54 438 39Z"/><path transform="translate(135.63 46.00) scale(0.00650 -0.00650)" d="M283 337Q235 337 196.5 361.0Q158 385 135.0 425.0Q112 465 112 512Q112 560 135.0 599.5Q158 639 196.5 662.5Q235 686 283 686Q331 686 370.0 662.5Q409 639 431.5 599.5Q454 560 454 512Q454 465 431.5 425.0Q409 385 370.0 361.0Q331 337 283 337Z"/><path transform="translate(152.18 46.00) scale(0.00650 -0.00650)" d="M315 1400H1051Q1085 1400 1107.5 1409.0Q1130 1418 1148.0 1426.5Q1166 1435 1184 1435Q1211 1435 1225.5 1421.5Q1240 1408 1249 1374L1315 1040Q1320 1016 1311.5 1000.5Q1303 985 1283 981Q1264 977 1249.5 984.5Q1235 992 1224 1013Q1170 1138 1129.5 1202.0Q1089 1266 1049.5 1289.0Q1010 1312 957 1312H836V146Q836 125 848.0 112.5Q860 100 883 94L945 81Q981 70 981 39Q981 0 931 0H437Q411 0 398.5 10.5Q386 21 386 39Q386 70 422 81L484 94Q508 100 520.0 112.5Q532 125 532 146V1312H410Q358 1312 318.5 1288.0Q279 1264 238.5 1200.0Q198 1136 143 1013Q133 992 118.0 984.5Q103 977 84 981Q64 985 56.0 1000.5Q48 1016 52 1040L118 1374Q127 1408 141.5 1421.5Q156 1435 183 1435Q201 1435 218.5 1426.5Q236 1418 258.5 1409.0Q281 1400 315 1400Z"/><path transform="translate(163.57 46.00) scale(0.00650 -0.00650)" d="M377 706H1227V618H377ZM548 146Q548 125 560.5 112.5Q573 100 596 94L657 81Q694 70 694 39Q694 21 681.5 10.5Q669 0 643 0H149Q123 0 110.5 10.5Q98 21 98 39Q98 70 135 81L196 94Q220 100 232.0 112.5Q244 125 244 146V1254Q244 1275 232.0 1287.5Q220 1300 196 1306L135 1319Q98 1330 98 1361Q98 1380 110.5 1390.0Q123 1400 149 1400H643Q669 1400 681.5 1390.0Q694 1380 694 1361Q694 1330 657 1319L596 1306Q573 1300 560.5 1287.5Q548 1275 548 1254ZM1423 146Q1423 125 1435.0 112.5Q1447 100 1470 94L1532 81Q1568 70 1568 39Q1568 21 1556.0 10.5Q1544 0 1518 0H1024Q998 0 985.5 10.5Q973 21 973 39Q973 70 1009 81L1071 94Q1095 100 1107.0 112.5Q1119 125 1119 146V1254Q1119 1275 1107.0 1287.5Q1095 1300 1071 1306L1009 1319Q973 1330 973 1361Q973 1380 985.5 1390.0Q998 1400 1024 1400H1518Q1544 1400 1556.0 1390.0Q1568 1380 1568 1361Q1568 1330 1532 1319L1470 1306Q1447 1300 1435.0 1287.5Q1423 1275 1423 1254Z"/><path transform="translate(176.90 46.00) scale(0.00650 -0.00650)" d="M444 749H751Q817 749 845.0 776.0Q873 803 886 878Q891 899 901.5 909.0Q912 919 927 920Q960 922 970 883L1051 577Q1057 555 1051.5 541.5Q1046 528 1028 523Q1012 518 997.0 522.5Q982 527 972 543Q941 593 915.0 619.5Q889 646 858.0 656.0Q827 666 781 666H444ZM98 1361Q98 1380 110.0 1390.0Q122 1400 148 1400H926Q960 1400 982.5 1409.5Q1005 1419 1024.0 1428.5Q1043 1438 1065 1438Q1090 1438 1103.5 1423.5Q1117 1409 1126 1375L1208 1079Q1214 1057 1207.5 1043.0Q1201 1029 1183 1023Q1162 1016 1145.0 1024.0Q1128 1032 1117 1053Q1074 1136 1037.5 1187.5Q1001 1239 965.5 1267.0Q930 1295 891.0 1305.0Q852 1315 802 1315H547V173Q547 129 572.5 107.0Q598 85 648 85H828Q895 85 946.0 109.0Q997 133 1047.0 202.0Q1097 271 1159 406Q1168 425 1182.5 432.5Q1197 440 1215 436Q1235 433 1244.0 418.0Q1253 403 1247 379L1158 29Q1148 -4 1134.5 -19.5Q1121 -35 1093 -35Q1073 -35 1054.5 -26.0Q1036 -17 1012.5 -8.5Q989 0 955 0H148Q122 0 110.0 10.5Q98 21 98 39Q98 70 134 81L195 94Q219 100 231.0 112.5Q243 125 243 146V1254Q243 1275 231.0 1287.5Q219 1300 195 1306L134 1319Q98 1330 98 1361Z"/><path transform="translate(193.01 46.00) scale(0.00650 -0.00650)" d="M1322 377Q1319 302 1280.0 228.5Q1241 155 1168.5 95.0Q1096 35 994.5 -0.5Q893 -36 766 -36Q552 -36 397.0 56.5Q242 149 158.0 312.5Q74 476 74 689Q74 851 124.5 986.5Q175 1122 265.5 1222.5Q356 1323 479.0 1378.0Q602 1433 748 1433Q847 1433 910.0 1413.0Q973 1393 1009.0 1373.0Q1045 1353 1063 1353Q1086 1353 1101.0 1371.0Q1116 1389 1131.0 1407.0Q1146 1425 1168 1425Q1183 1425 1193.5 1415.5Q1204 1406 1211 1382L1315 1027Q1321 1007 1311.0 991.5Q1301 976 1281 972Q1261 968 1245.0 976.0Q1229 984 1219 1006Q1165 1129 1099.0 1202.5Q1033 1276 956.5 1308.0Q880 1340 792 1340Q703 1340 628.0 1300.0Q553 1260 498.5 1184.0Q444 1108 414.0 1001.0Q384 894 384 760Q384 553 446.5 410.5Q509 268 617.5 195.0Q726 122 865 122Q1001 122 1100.0 190.0Q1199 258 1249 381Q1259 401 1270.5 408.0Q1282 415 1296 412Q1309 410 1315.5 401.0Q1322 392 1322 377Z"/><path transform="translate(204.50 46.00) scale(0.00650 -0.00650)" d="M781 1432Q943 1432 1074.0 1378.0Q1205 1324 1299.0 1225.5Q1393 1127 1443.5 992.0Q1494 857 1494 694Q1494 536 1444.0 402.5Q1394 269 1300.5 171.5Q1207 74 1077.0 20.0Q947 -34 787 -34Q626 -34 495.0 20.0Q364 74 270.0 172.5Q176 271 125.5 407.0Q75 543 75 707Q75 864 125.5 996.5Q176 1129 269.0 1227.0Q362 1325 492.0 1378.5Q622 1432 781 1432ZM1182 509Q1182 644 1157.5 768.0Q1133 892 1089.0 996.5Q1045 1101 986.5 1178.5Q928 1256 858.5 1299.5Q789 1343 714 1343Q616 1343 543.0 1290.0Q470 1237 429.5 1136.0Q389 1035 389 892Q389 757 413.5 632.0Q438 507 482.0 402.0Q526 297 584.5 219.0Q643 141 712.5 97.5Q782 54 857 54Q957 54 1029.5 107.5Q1102 161 1142.0 262.0Q1182 363 1182 509Z"/><path transform="translate(217.20 46.00) scale(0.00650 -0.00650)" d="M521 39Q521 21 508.5 10.5Q496 0 470 0H128Q102 0 89.0 10.5Q76 21 76 39Q76 68 114 82L163 96Q209 113 228.0 136.0Q247 159 247 208V1105Q247 1133 241.0 1151.0Q235 1169 209 1200L123 1315Q109 1334 103.5 1345.0Q98 1356 98 1366Q98 1383 109.5 1391.5Q121 1400 140 1400H384Q409 1400 426.0 1390.5Q443 1381 461 1356L1225 295L1185 195V1192Q1185 1240 1166.5 1263.5Q1148 1287 1100 1304L1045 1318Q1007 1334 1007 1361Q1007 1380 1019.5 1390.0Q1032 1400 1058 1400H1400Q1426 1400 1439.0 1390.0Q1452 1380 1452 1361Q1452 1333 1414 1318L1365 1304Q1319 1288 1300.0 1265.0Q1281 1242 1281 1192V269Q1281 241 1286.5 220.5Q1292 200 1304 182L1368 95Q1385 72 1389.0 60.0Q1393 48 1393 37Q1393 20 1381.5 10.0Q1370 0 1348 0H1078Q1037 0 1037 34Q1037 48 1031.5 61.0Q1026 74 1002 107L259 1138L344 1192V207Q344 160 362.5 137.0Q381 114 428 96L483 82Q521 67 521 39Z"/><path transform="translate(229.52 46.00) scale(0.00650 -0.00650)" d="M879 1400Q914 1400 937.5 1409.0Q961 1418 979.5 1426.5Q998 1435 1016 1435Q1042 1435 1055.5 1421.5Q1069 1408 1078 1375L1161 1069Q1167 1049 1156.5 1036.0Q1146 1023 1127 1020Q1111 1017 1095.5 1023.0Q1080 1029 1070 1051Q1016 1159 970.0 1216.0Q924 1273 874.5 1294.0Q825 1315 762 1315H547V146Q547 125 559.0 111.5Q571 98 597 94L691 82Q713 78 722.0 68.0Q731 58 731 39Q731 21 719.0 10.5Q707 0 680 0H148Q122 0 110.0 10.5Q98 21 98 39Q98 70 134 81L195 94Q219 100 231.0 112.5Q243 125 243 146V1254Q243 1275 231.0 1287.5Q219 1300 195 1306L134 1319Q98 1330 98 1361Q98 1380 110.0 1390.0Q122 1400 148 1400ZM435 716H744Q811 716 840.5 743.0Q870 770 884 848Q889 867 899.0 875.5Q909 884 924 885Q959 887 968 850L1044 542Q1049 520 1042.5 508.0Q1036 496 1020 490Q1004 485 989.5 490.5Q975 496 962 513Q932 561 907.0 586.5Q882 612 852.0 622.0Q822 632 775 632H435Z"/><path transform="translate(239.81 46.00) scale(0.00650 -0.00650)" d="M547 146Q547 125 559.0 112.5Q571 100 594 94L656 81Q692 70 692 39Q692 21 680.0 10.5Q668 0 642 0H148Q122 0 109.5 10.5Q97 21 97 39Q97 70 133 81L195 94Q219 100 231.0 112.5Q243 125 243 146V1254Q243 1275 231.0 1287.5Q219 1300 195 1306L133 1319Q97 1330 97 1361Q97 1380 109.5 1390.0Q122 1400 148 1400H642Q668 1400 680.0 1390.0Q692 1380 692 1361Q692 1330 656 1319L594 1306Q571 1300 559.0 1287.5Q547 1275 547 1254Z"/><path transform="translate(247.44 46.00) scale(0.00650 -0.00650)" d="M98 39Q98 70 134 81L196 94Q220 100 231.5 112.5Q243 125 243 146V1254Q243 1274 231.5 1287.0Q220 1300 196 1306L133 1319Q98 1330 98 1362Q98 1380 110.0 1390.0Q122 1400 148 1400H670Q855 1400 1006.5 1346.0Q1158 1292 1267.0 1192.0Q1376 1092 1435.0 954.5Q1494 817 1494 650Q1494 459 1406.0 312.5Q1318 166 1154.5 83.0Q991 0 764 0H148Q122 0 110.0 10.5Q98 21 98 39ZM740 85Q871 85 969.5 148.0Q1068 211 1123.0 338.5Q1178 466 1178 661Q1178 814 1141.0 935.0Q1104 1056 1034.0 1141.0Q964 1226 865.0 1270.5Q766 1315 642 1315H547V166Q547 124 571.0 104.5Q595 85 642 85Z"/><path transform="translate(260.13 46.00) scale(0.00650 -0.00650)" d="M444 749H751Q817 749 845.0 776.0Q873 803 886 878Q891 899 901.5 909.0Q912 919 927 920Q960 922 970 883L1051 577Q1057 555 1051.5 541.5Q1046 528 1028 523Q1012 518 997.0 522.5Q982 527 972 543Q941 593 915.0 619.5Q889 646 858.0 656.0Q827 666 781 666H444ZM98 1361Q98 1380 110.0 1390.0Q122 1400 148 1400H926Q960 1400 982.5 1409.5Q1005 1419 1024.0 1428.5Q1043 1438 1065 1438Q1090 1438 1103.5 1423.5Q1117 1409 1126 1375L1208 1079Q1214 1057 1207.5 1043.0Q1201 1029 1183 1023Q1162 1016 1145.0 1024.0Q1128 1032 1117 1053Q1074 1136 1037.5 1187.5Q1001 1239 965.5 1267.0Q930 1295 891.0 1305.0Q852 1315 802 1315H547V173Q547 129 572.5 107.0Q598 85 648 85H828Q895 85 946.0 109.0Q997 133 1047.0 202.0Q1097 271 1159 406Q1168 425 1182.5 432.5Q1197 440 1215 436Q1235 433 1244.0 418.0Q1253 403 1247 379L1158 29Q1148 -4 1134.5 -19.5Q1121 -35 1093 -35Q1073 -35 1054.5 -26.0Q1036 -17 1012.5 -8.5Q989 0 955 0H148Q122 0 110.0 10.5Q98 21 98 39Q98 70 134 81L195 94Q219 100 231.0 112.5Q243 125 243 146V1254Q243 1275 231.0 1287.5Q219 1300 195 1306L134 1319Q98 1330 98 1361Z"/><path transform="translate(271.05 46.00) scale(0.00650 -0.00650)" d="M521 39Q521 21 508.5 10.5Q496 0 470 0H128Q102 0 89.0 10.5Q76 21 76 39Q76 68 114 82L163 96Q209 113 228.0 136.0Q247 159 247 208V1105Q247 1133 241.0 1151.0Q235 1169 209 1200L123 1315Q109 1334 103.5 1345.0Q98 1356 98 1366Q98 1383 109.5 1391.5Q121 1400 140 1400H384Q409 1400 426.0 1390.5Q443 1381 461 1356L1225 295L1185 195V1192Q1185 1240 1166.5 1263.5Q1148 1287 1100 1304L1045 1318Q1007 1334 1007 1361Q1007 1380 1019.5 1390.0Q1032 1400 1058 1400H1400Q1426 1400 1439.0 1390.0Q1452 1380 1452 1361Q1452 1333 1414 1318L1365 1304Q1319 1288 1300.0 1265.0Q1281 1242 1281 1192V269Q1281 241 1286.5 220.5Q1292 200 1304 182L1368 95Q1385 72 1389.0 60.0Q1393 48 1393 37Q1393 20 1381.5 10.0Q1370 0 1348 0H1078Q1037 0 1037 34Q1037 48 1031.5 61.0Q1026 74 1002 107L259 1138L344 1192V207Q344 160 362.5 137.0Q381 114 428 96L483 82Q521 67 521 39Z"/><path transform="translate(283.37 46.00) scale(0.00650 -0.00650)" d="M315 1400H1051Q1085 1400 1107.5 1409.0Q1130 1418 1148.0 1426.5Q1166 1435 1184 1435Q1211 1435 1225.5 1421.5Q1240 1408 1249 1374L1315 1040Q1320 1016 1311.5 1000.5Q1303 985 1283 981Q1264 977 1249.5 984.5Q1235 992 1224 1013Q1170 1138 1129.5 1202.0Q1089 1266 1049.5 1289.0Q1010 1312 957 1312H836V146Q836 125 848.0 112.5Q860 100 883 94L945 81Q981 70 981 39Q981 0 931 0H437Q411 0 398.5 10.5Q386 21 386 39Q386 70 422 81L484 94Q508 100 520.0 112.5Q532 125 532 146V1312H410Q358 1312 318.5 1288.0Q279 1264 238.5 1200.0Q198 1136 143 1013Q133 992 118.0 984.5Q103 977 84 981Q64 985 56.0 1000.5Q48 1016 52 1040L118 1374Q127 1408 141.5 1421.5Q156 1435 183 1435Q201 1435 218.5 1426.5Q236 1418 258.5 1409.0Q281 1400 315 1400Z"/><path transform="translate(299.94 46.00) scale(0.00650 -0.00650)" d="M651 -29Q567 -29 508.0 -8.0Q449 13 412.5 33.5Q376 54 358 54Q341 54 327.5 41.0Q314 28 301.5 11.0Q289 -6 275.5 -19.0Q262 -32 244 -32Q226 -32 214.0 -20.5Q202 -9 197 16L128 362Q124 381 132.0 394.0Q140 407 158 414Q178 421 193.0 413.0Q208 405 219 383Q281 260 348.0 189.0Q415 118 486.5 88.0Q558 58 631 58Q734 58 794.0 112.5Q854 167 854 261Q855 320 827.5 369.5Q800 419 726.0 464.0Q652 509 510 556Q357 607 265.0 671.5Q173 736 131.5 821.5Q90 907 90 1018Q90 1139 148.5 1231.0Q207 1323 311.5 1374.0Q416 1425 555 1425Q644 1425 702.0 1406.0Q760 1387 797.0 1368.0Q834 1349 857 1349Q878 1349 892.5 1368.5Q907 1388 923.0 1408.0Q939 1428 964 1428Q982 1428 994.5 1416.0Q1007 1404 1017 1372L1113 1025Q1120 1003 1112.5 986.0Q1105 969 1086 962Q1066 956 1050.5 963.5Q1035 971 1025 991Q958 1123 885.5 1199.0Q813 1275 737.0 1307.0Q661 1339 584 1339Q481 1339 419.5 1279.0Q358 1219 358 1119Q358 1059 384.5 1008.0Q411 957 483.5 909.5Q556 862 691 813Q848 756 940.0 691.5Q1032 627 1072.0 547.5Q1112 468 1112 365Q1111 256 1056.5 166.5Q1002 77 899.5 24.0Q797 -29 651 -29Z"/><path transform="translate(310.24 46.00) scale(0.00650 -0.00650)" d="M377 706H1227V618H377ZM548 146Q548 125 560.5 112.5Q573 100 596 94L657 81Q694 70 694 39Q694 21 681.5 10.5Q669 0 643 0H149Q123 0 110.5 10.5Q98 21 98 39Q98 70 135 81L196 94Q220 100 232.0 112.5Q244 125 244 146V1254Q244 1275 232.0 1287.5Q220 1300 196 1306L135 1319Q98 1330 98 1361Q98 1380 110.5 1390.0Q123 1400 149 1400H643Q669 1400 681.5 1390.0Q694 1380 694 1361Q694 1330 657 1319L596 1306Q573 1300 560.5 1287.5Q548 1275 548 1254ZM1423 146Q1423 125 1435.0 112.5Q1447 100 1470 94L1532 81Q1568 70 1568 39Q1568 21 1556.0 10.5Q1544 0 1518 0H1024Q998 0 985.5 10.5Q973 21 973 39Q973 70 1009 81L1071 94Q1095 100 1107.0 112.5Q1119 125 1119 146V1254Q1119 1275 1107.0 1287.5Q1095 1300 1071 1306L1009 1319Q973 1330 973 1361Q973 1380 985.5 1390.0Q998 1400 1024 1400H1518Q1544 1400 1556.0 1390.0Q1568 1380 1568 1361Q1568 1330 1532 1319L1470 1306Q1447 1300 1435.0 1287.5Q1423 1275 1423 1254Z"/><path transform="translate(323.58 46.00) scale(0.00650 -0.00650)" d="M547 146Q547 125 559.0 112.5Q571 100 594 94L656 81Q692 70 692 39Q692 21 680.0 10.5Q668 0 642 0H148Q122 0 109.5 10.5Q97 21 97 39Q97 70 133 81L195 94Q219 100 231.0 112.5Q243 125 243 146V1254Q243 1275 231.0 1287.5Q219 1300 195 1306L133 1319Q97 1330 97 1361Q97 1380 109.5 1390.0Q122 1400 148 1400H642Q668 1400 680.0 1390.0Q692 1380 692 1361Q692 1330 656 1319L594 1306Q571 1300 559.0 1287.5Q547 1275 547 1254Z"/><path transform="translate(331.21 46.00) scale(0.00650 -0.00650)" d="M1316 887Q1316 756 1250.0 660.0Q1184 564 1064.5 511.5Q945 459 784 459Q674 459 585.0 482.5Q496 506 428 549L440 624Q478 598 520.0 581.0Q562 564 608.0 555.5Q654 547 702 547Q793 547 864.5 587.5Q936 628 977.0 705.5Q1018 783 1018 894Q1018 1024 969.0 1118.5Q920 1213 832.0 1264.5Q744 1316 627 1316H547V146Q547 125 558.5 111.5Q570 98 594 94L682 82Q703 78 712.0 67.5Q721 57 721 39Q721 21 709.0 10.5Q697 0 671 0H148Q122 0 110.0 10.5Q98 21 98 39Q98 70 134 81L196 94Q220 101 231.5 113.5Q243 126 243 145V1254Q243 1274 231.5 1287.0Q220 1300 197 1306L133 1319Q98 1330 98 1361Q98 1380 110.0 1390.0Q122 1400 148 1400H634Q847 1400 1000.0 1334.5Q1153 1269 1234.5 1153.0Q1316 1037 1316 887Z"/><path transform="translate(342.60 46.00) scale(0.00650 -0.00650)" d="M1316 887Q1316 756 1250.0 660.0Q1184 564 1064.5 511.5Q945 459 784 459Q674 459 585.0 482.5Q496 506 428 549L440 624Q478 598 520.0 581.0Q562 564 608.0 555.5Q654 547 702 547Q793 547 864.5 587.5Q936 628 977.0 705.5Q1018 783 1018 894Q1018 1024 969.0 1118.5Q920 1213 832.0 1264.5Q744 1316 627 1316H547V146Q547 125 558.5 111.5Q570 98 594 94L682 82Q703 78 712.0 67.5Q721 57 721 39Q721 21 709.0 10.5Q697 0 671 0H148Q122 0 110.0 10.5Q98 21 98 39Q98 70 134 81L196 94Q220 101 231.5 113.5Q243 126 243 145V1254Q243 1274 231.5 1287.0Q220 1300 197 1306L133 1319Q98 1330 98 1361Q98 1380 110.0 1390.0Q122 1400 148 1400H634Q847 1400 1000.0 1334.5Q1153 1269 1234.5 1153.0Q1316 1037 1316 887Z"/><path transform="translate(353.99 46.00) scale(0.00650 -0.00650)" d="M444 749H751Q817 749 845.0 776.0Q873 803 886 878Q891 899 901.5 909.0Q912 919 927 920Q960 922 970 883L1051 577Q1057 555 1051.5 541.5Q1046 528 1028 523Q1012 518 997.0 522.5Q982 527 972 543Q941 593 915.0 619.5Q889 646 858.0 656.0Q827 666 781 666H444ZM98 1361Q98 1380 110.0 1390.0Q122 1400 148 1400H926Q960 1400 982.5 1409.5Q1005 1419 1024.0 1428.5Q1043 1438 1065 1438Q1090 1438 1103.5 1423.5Q1117 1409 1126 1375L1208 1079Q1214 1057 1207.5 1043.0Q1201 1029 1183 1023Q1162 1016 1145.0 1024.0Q1128 1032 1117 1053Q1074 1136 1037.5 1187.5Q1001 1239 965.5 1267.0Q930 1295 891.0 1305.0Q852 1315 802 1315H547V173Q547 129 572.5 107.0Q598 85 648 85H828Q895 85 946.0 109.0Q997 133 1047.0 202.0Q1097 271 1159 406Q1168 425 1182.5 432.5Q1197 440 1215 436Q1235 433 1244.0 418.0Q1253 403 1247 379L1158 29Q1148 -4 1134.5 -19.5Q1121 -35 1093 -35Q1073 -35 1054.5 -26.0Q1036 -17 1012.5 -8.5Q989 0 955 0H148Q122 0 110.0 10.5Q98 21 98 39Q98 70 134 81L195 94Q219 100 231.0 112.5Q243 125 243 146V1254Q243 1275 231.0 1287.5Q219 1300 195 1306L134 1319Q98 1330 98 1361Z"/><path transform="translate(364.91 46.00) scale(0.00650 -0.00650)" d="M1337 917Q1337 821 1293.5 742.0Q1250 663 1170.5 610.5Q1091 558 981 538Q945 532 913.0 525.0Q881 518 848.5 513.0Q816 508 777 508Q711 508 654.5 517.0Q598 526 551.5 543.0Q505 560 469 583L476 659Q506 638 544.0 623.5Q582 609 626.5 601.5Q671 594 721 594Q863 594 943.5 674.0Q1024 754 1024 912Q1024 1031 975.5 1123.0Q927 1215 839.0 1268.0Q751 1321 634 1321H547V148Q547 126 557.5 113.5Q568 101 590 94L661 81Q682 74 689.5 64.0Q697 54 697 39Q697 0 646 0H148Q122 0 109.5 10.5Q97 21 97 39Q97 70 133 81L195 94Q219 100 231.0 113.0Q243 126 243 148V1254Q243 1275 231.0 1287.5Q219 1300 195 1306L133 1319Q97 1330 97 1361Q97 1380 109.5 1390.0Q122 1400 148 1400H643Q865 1400 1020.0 1338.5Q1175 1277 1256.0 1168.5Q1337 1060 1337 917ZM763 544 1058 578 1323 151Q1342 121 1362.0 105.5Q1382 90 1415 82Q1441 74 1450.5 64.0Q1460 54 1460 39Q1460 21 1447.5 10.5Q1435 0 1408 0H976Q926 0 926 39Q926 50 932.0 57.0Q938 64 952 71L984 78Q1006 88 1009.5 102.0Q1013 116 998 142Z"/></g>
<!-- character -->
<circle cx="210" cy="158" r="26" fill="#fffdf8" stroke="#1c1a17" stroke-width="2.2"/>
<circle cx="201" cy="154" r="2.6" fill="#1c1a17"/><circle cx="219" cy="154" r="2.6" fill="#1c1a17"/>
<path d="M199 165 Q210 176 221 165" fill="none" stroke="#1c1a17" stroke-width="2" stroke-linecap="round"/>
<path d="M210 184 L210 244" stroke="#1c1a17" stroke-width="3" stroke-linecap="round"/>
<path d="M210 198 L283 160" stroke="#1c1a17" stroke-width="3" stroke-linecap="round"/>
<path d="M210 198 L176 220" stroke="#1c1a17" stroke-width="3" stroke-linecap="round"/>
<path d="M210 244 L191 278" stroke="#1c1a17" stroke-width="3" stroke-linecap="round"/>
<path d="M210 244 L229 278" stroke="#1c1a17" stroke-width="3" stroke-linecap="round"/>
<circle cx="288" cy="158" r="7" fill="#fffdf8" stroke="#1c1a17" stroke-width="2"/>
<!-- deploy button -->
<rect x="300" y="138" width="156" height="48" rx="11" fill="#c0441f" stroke="#9a3415" stroke-width="1.5"/>
<g fill="#fff"><path transform="translate(335.67 169.00) scale(0.00950 -0.00950)" d="M98 39Q98 70 134 81L196 94Q220 100 231.5 112.5Q243 125 243 146V1254Q243 1274 231.5 1287.0Q220 1300 196 1306L133 1319Q98 1330 98 1362Q98 1380 110.0 1390.0Q122 1400 148 1400H670Q855 1400 1006.5 1346.0Q1158 1292 1267.0 1192.0Q1376 1092 1435.0 954.5Q1494 817 1494 650Q1494 459 1406.0 312.5Q1318 166 1154.5 83.0Q991 0 764 0H148Q122 0 110.0 10.5Q98 21 98 39ZM740 85Q871 85 969.5 148.0Q1068 211 1123.0 338.5Q1178 466 1178 661Q1178 814 1141.0 935.0Q1104 1056 1034.0 1141.0Q964 1226 865.0 1270.5Q766 1315 642 1315H547V166Q547 124 571.0 104.5Q595 85 642 85Z"/><path transform="translate(351.55 169.00) scale(0.00950 -0.00950)" d="M444 749H751Q817 749 845.0 776.0Q873 803 886 878Q891 899 901.5 909.0Q912 919 927 920Q960 922 970 883L1051 577Q1057 555 1051.5 541.5Q1046 528 1028 523Q1012 518 997.0 522.5Q982 527 972 543Q941 593 915.0 619.5Q889 646 858.0 656.0Q827 666 781 666H444ZM98 1361Q98 1380 110.0 1390.0Q122 1400 148 1400H926Q960 1400 982.5 1409.5Q1005 1419 1024.0 1428.5Q1043 1438 1065 1438Q1090 1438 1103.5 1423.5Q1117 1409 1126 1375L1208 1079Q1214 1057 1207.5 1043.0Q1201 1029 1183 1023Q1162 1016 1145.0 1024.0Q1128 1032 1117 1053Q1074 1136 1037.5 1187.5Q1001 1239 965.5 1267.0Q930 1295 891.0 1305.0Q852 1315 802 1315H547V173Q547 129 572.5 107.0Q598 85 648 85H828Q895 85 946.0 109.0Q997 133 1047.0 202.0Q1097 271 1159 406Q1168 425 1182.5 432.5Q1197 440 1215 436Q1235 433 1244.0 418.0Q1253 403 1247 379L1158 29Q1148 -4 1134.5 -19.5Q1121 -35 1093 -35Q1073 -35 1054.5 -26.0Q1036 -17 1012.5 -8.5Q989 0 955 0H148Q122 0 110.0 10.5Q98 21 98 39Q98 70 134 81L195 94Q219 100 231.0 112.5Q243 125 243 146V1254Q243 1275 231.0 1287.5Q219 1300 195 1306L134 1319Q98 1330 98 1361Z"/><path transform="translate(364.87 169.00) scale(0.00950 -0.00950)" d="M1316 887Q1316 756 1250.0 660.0Q1184 564 1064.5 511.5Q945 459 784 459Q674 459 585.0 482.5Q496 506 428 549L440 624Q478 598 520.0 581.0Q562 564 608.0 555.5Q654 547 702 547Q793 547 864.5 587.5Q936 628 977.0 705.5Q1018 783 1018 894Q1018 1024 969.0 1118.5Q920 1213 832.0 1264.5Q744 1316 627 1316H547V146Q547 125 558.5 111.5Q570 98 594 94L682 82Q703 78 712.0 67.5Q721 57 721 39Q721 21 709.0 10.5Q697 0 671 0H148Q122 0 110.0 10.5Q98 21 98 39Q98 70 134 81L196 94Q220 101 231.5 113.5Q243 126 243 145V1254Q243 1274 231.5 1287.0Q220 1300 197 1306L133 1319Q98 1330 98 1361Q98 1380 110.0 1390.0Q122 1400 148 1400H634Q847 1400 1000.0 1334.5Q1153 1269 1234.5 1153.0Q1316 1037 1316 887Z"/><path transform="translate(378.86 169.00) scale(0.00950 -0.00950)" d="M656 1319 594 1306Q571 1300 559.0 1287.5Q547 1275 547 1254V150Q547 115 567.0 100.0Q587 85 628 85H798Q853 85 894.0 101.0Q935 117 969.5 158.0Q1004 199 1039 275L1107 423Q1117 444 1131.5 451.5Q1146 459 1165 454Q1186 450 1194.0 435.5Q1202 421 1195 397L1105 28Q1095 -5 1081.0 -20.0Q1067 -35 1041 -35Q1023 -35 1004.0 -26.5Q985 -18 961.0 -9.0Q937 0 902 0H148Q122 0 109.5 10.5Q97 21 97 39Q97 70 133 81L195 94Q219 100 231.0 112.5Q243 125 243 146V1254Q243 1275 231.0 1287.5Q219 1300 195 1306L133 1319Q97 1330 97 1361Q97 1380 109.5 1390.0Q122 1400 148 1400H642Q668 1400 680.0 1390.0Q692 1380 692 1361Q692 1330 656 1319Z"/><path transform="translate(391.59 169.00) scale(0.00950 -0.00950)" d="M781 1432Q943 1432 1074.0 1378.0Q1205 1324 1299.0 1225.5Q1393 1127 1443.5 992.0Q1494 857 1494 694Q1494 536 1444.0 402.5Q1394 269 1300.5 171.5Q1207 74 1077.0 20.0Q947 -34 787 -34Q626 -34 495.0 20.0Q364 74 270.0 172.5Q176 271 125.5 407.0Q75 543 75 707Q75 864 125.5 996.5Q176 1129 269.0 1227.0Q362 1325 492.0 1378.5Q622 1432 781 1432ZM1182 509Q1182 644 1157.5 768.0Q1133 892 1089.0 996.5Q1045 1101 986.5 1178.5Q928 1256 858.5 1299.5Q789 1343 714 1343Q616 1343 543.0 1290.0Q470 1237 429.5 1136.0Q389 1035 389 892Q389 757 413.5 632.0Q438 507 482.0 402.0Q526 297 584.5 219.0Q643 141 712.5 97.5Q782 54 857 54Q957 54 1029.5 107.5Q1102 161 1142.0 262.0Q1182 363 1182 509Z"/><path transform="translate(407.51 169.00) scale(0.00950 -0.00950)" d="M821 459 573 417 158 1250Q143 1281 130.0 1293.0Q117 1305 95 1311L63 1321Q43 1327 35.0 1337.5Q27 1348 27 1361Q27 1380 40.0 1390.0Q53 1400 79 1400H561Q587 1400 601.0 1390.0Q615 1380 615 1362Q615 1329 573 1319L519 1309Q485 1301 478.5 1286.5Q472 1272 486 1241L816 535L729 489L1061 1182Q1083 1228 1070.0 1262.0Q1057 1296 1005 1310L957 1321Q942 1326 933.5 1336.0Q925 1346 925 1361Q925 1380 938.0 1390.0Q951 1400 976 1400H1282Q1309 1400 1321.5 1390.0Q1334 1380 1334 1361Q1334 1347 1326.5 1338.0Q1319 1329 1300 1321L1284 1315Q1261 1307 1242.0 1291.5Q1223 1276 1205.0 1248.5Q1187 1221 1164 1174ZM538 512 842 514V146Q842 125 854.5 112.5Q867 100 890 94L952 81Q988 70 988 39Q988 21 976.0 10.5Q964 0 937 0H443Q417 0 405.0 10.5Q393 21 393 39Q393 70 429 81L491 94Q515 100 526.5 112.5Q538 125 538 146Z"/></g>
<!-- speech bubble -->
<rect x="320" y="56" width="400" height="70" rx="16" fill="#fffdf8" stroke="#1c1a17" stroke-width="1.6"/>
<path d="M360 126 L342 150 L388 126 Z" fill="#fffdf8" stroke="#1c1a17" stroke-width="1.6"/>
<path d="M360 126 L388 126" stroke="#fffdf8" stroke-width="2.4"/>
<g fill="#1c1a17"><path transform="translate(405.12 84.00) scale(0.00825 -0.00825)" d="M561 39V0H85V39L243 91V1249L85 1301V1340H561V1301L403 1249V91Z"/><path transform="translate(414.12 84.00) scale(0.00825 -0.00825)" d="M602 37 757 85V558Q757 612 734.0 651.5Q711 691 666.0 712.5Q621 734 556 734Q477 734 409.5 704.5Q342 675 316 634L277 666Q330 723 377.5 762.5Q425 802 470.5 826.0Q516 850 564.0 861.0Q612 872 665 872Q786 872 844.5 794.5Q903 717 903 549V85L1057 37V0H602ZM481 0H28V37L180 85V1218Q167 1234 146.0 1250.0Q125 1266 95.0 1282.5Q65 1299 26 1315V1335L316 1419H336L326 1259V85L481 37Z"/><path transform="translate(422.97 84.00) scale(0.00825 -0.00825)" d="M602 543 618 473Q500 446 425.0 418.5Q350 391 308.0 362.0Q266 333 249.5 300.5Q233 268 233 229Q233 161 273.5 125.0Q314 89 372 89Q419 89 458.0 113.0Q497 137 520.5 176.0Q544 215 544 260V620Q544 692 507.0 735.0Q470 778 385 778Q355 778 316.0 768.5Q277 759 240 740L291 786Q288 758 282.5 730.0Q277 702 269.5 680.0Q262 658 251 646Q235 629 211.0 621.0Q187 613 163 613Q132 613 114.0 627.5Q96 642 96 664Q96 695 126.5 729.5Q157 764 207.5 794.5Q258 825 320.0 844.0Q382 863 446 863Q533 863 587.0 836.5Q641 810 665.5 758.5Q690 707 690 632V175Q690 144 699.0 123.5Q708 103 725.5 92.5Q743 82 769 82Q792 82 818.5 91.0Q845 100 870 115V69Q829 24 783.5 3.0Q738 -18 699 -18Q651 -18 616.5 3.5Q582 25 564.0 65.5Q546 106 546 161L552 171Q539 115 503.5 72.0Q468 29 418.5 4.5Q369 -20 313 -20Q213 -20 148.0 36.0Q83 92 83 197Q83 253 105.5 299.0Q128 345 185.0 385.5Q242 426 343.5 464.5Q445 503 602 543Z"/><path transform="translate(430.10 84.00) scale(0.00825 -0.00825)" d="M858 772 537 -20H489L119 762L-5 809V852H406V809L276 767L559 170H544L776 772L646 809V852H965V809Z"/><path transform="translate(438.30 84.00) scale(0.00825 -0.00825)" d="M474 872Q571 872 642.0 829.0Q713 786 755.5 703.5Q798 621 808 502H196L198 569L712 593L644 551Q637 623 615.5 677.5Q594 732 556.0 762.5Q518 793 459 793Q389 793 336.0 754.5Q283 716 253.5 642.0Q224 568 224 461Q224 350 267.5 269.0Q311 188 389.0 144.0Q467 100 571 100Q609 100 645.5 110.0Q682 120 718.0 140.0Q754 160 788 189L813 162Q763 100 711.0 59.5Q659 19 601.0 -0.5Q543 -20 476 -20Q360 -20 269.5 36.5Q179 93 127.0 191.0Q75 289 75 414Q75 540 123.0 644.0Q171 748 260.5 810.0Q350 872 474 872Z"/><path transform="translate(449.22 84.00) scale(0.00825 -0.00825)" d="M348 689V85L503 37V0H50V37L202 85V674Q186 691 154.0 707.0Q122 723 54 745V770L297 872H318ZM624 37 779 85V558Q779 612 756.0 651.5Q733 691 688.0 712.5Q643 734 578 734Q499 734 431.5 704.5Q364 675 338 634L299 666Q352 723 399.5 762.5Q447 802 492.5 826.0Q538 850 586.0 861.0Q634 872 687 872Q808 872 866.5 794.5Q925 717 925 549V85L1079 37V0H624Z"/><path transform="translate(458.25 84.00) scale(0.00825 -0.00825)" d="M508 57Q583 57 642.0 93.5Q701 130 735.0 206.5Q769 283 769 402Q769 530 735.5 617.5Q702 705 642.0 750.0Q582 795 501 795Q426 795 367.0 758.5Q308 722 274.0 645.5Q240 569 240 450Q240 323 273.5 235.0Q307 147 367.5 102.0Q428 57 508 57ZM502 -20Q376 -20 279.5 35.5Q183 91 129.0 189.5Q75 288 75 416Q75 548 131.5 651.0Q188 754 285.5 813.0Q383 872 507 872Q634 872 730.0 816.5Q826 761 880.0 663.0Q934 565 934 436Q934 304 877.5 201.0Q821 98 723.5 39.0Q626 -20 502 -20Z"/><path transform="translate(470.24 84.00) scale(0.00825 -0.00825)" d="M267 1181Q214 1181 180.5 1215.5Q147 1250 147 1300Q147 1350 180.5 1384.5Q214 1419 267 1419Q320 1419 353.5 1384.5Q387 1350 387 1300Q387 1250 353.5 1215.5Q320 1181 267 1181ZM356 872 350 710V85L505 37V0H52V37L204 85V686Q193 698 169.5 712.5Q146 727 116.5 741.0Q87 755 56 764V795L338 872Z"/><path transform="translate(474.65 84.00) scale(0.00825 -0.00825)" d="M755 596Q755 679 696.0 734.0Q637 789 523 789Q434 789 371.5 745.0Q309 701 277.0 620.5Q245 540 245 430Q245 320 280.5 243.5Q316 167 379.0 127.5Q442 88 525 88Q602 88 672.5 112.5Q743 137 810 189V118Q738 75 688.0 47.5Q638 20 600.0 5.5Q562 -9 529.5 -14.5Q497 -20 461 -20Q336 -20 250.0 31.0Q164 82 120.0 173.0Q76 264 76 382Q76 497 113.5 587.5Q151 678 216.5 741.5Q282 805 366.5 838.5Q451 872 545 872Q593 872 639.0 864.0Q685 856 734.0 839.5Q783 823 839 795L755 738V1246Q743 1261 724.0 1274.0Q705 1287 680.5 1299.5Q656 1312 627 1324V1342L891 1419H910L901 1257V140Q910 130 925.0 120.5Q940 111 958.0 102.0Q976 93 994.0 87.0Q1012 81 1028 79V49L789 -16H769L755 136Z"/><path transform="translate(483.41 84.00) scale(0.00825 -0.00825)" d="M474 872Q571 872 642.0 829.0Q713 786 755.5 703.5Q798 621 808 502H196L198 569L712 593L644 551Q637 623 615.5 677.5Q594 732 556.0 762.5Q518 793 459 793Q389 793 336.0 754.5Q283 716 253.5 642.0Q224 568 224 461Q224 350 267.5 269.0Q311 188 389.0 144.0Q467 100 571 100Q609 100 645.5 110.0Q682 120 718.0 140.0Q754 160 788 189L813 162Q763 100 711.0 59.5Q659 19 601.0 -0.5Q543 -20 476 -20Q360 -20 269.5 36.5Q179 93 127.0 191.0Q75 289 75 414Q75 540 123.0 644.0Q171 748 260.5 810.0Q350 872 474 872Z"/><path transform="translate(490.66 84.00) scale(0.00825 -0.00825)" d="M602 543 618 473Q500 446 425.0 418.5Q350 391 308.0 362.0Q266 333 249.5 300.5Q233 268 233 229Q233 161 273.5 125.0Q314 89 372 89Q419 89 458.0 113.0Q497 137 520.5 176.0Q544 215 544 260V620Q544 692 507.0 735.0Q470 778 385 778Q355 778 316.0 768.5Q277 759 240 740L291 786Q288 758 282.5 730.0Q277 702 269.5 680.0Q262 658 251 646Q235 629 211.0 621.0Q187 613 163 613Q132 613 114.0 627.5Q96 642 96 664Q96 695 126.5 729.5Q157 764 207.5 794.5Q258 825 320.0 844.0Q382 863 446 863Q533 863 587.0 836.5Q641 810 665.5 758.5Q690 707 690 632V175Q690 144 699.0 123.5Q708 103 725.5 92.5Q743 82 769 82Q792 82 818.5 91.0Q845 100 870 115V69Q829 24 783.5 3.0Q738 -18 699 -18Q651 -18 616.5 3.5Q582 25 564.0 65.5Q546 106 546 161L552 171Q539 115 503.5 72.0Q468 29 418.5 4.5Q369 -20 313 -20Q213 -20 148.0 36.0Q83 92 83 197Q83 253 105.5 299.0Q128 345 185.0 385.5Q242 426 343.5 464.5Q445 503 602 543Z"/><path transform="translate(501.45 84.00) scale(0.00825 -0.00825)" d="M1216 772 1086 809V852H1405V809L1298 772L1042 -20H994L697 678H734L442 -20H394L129 762L5 809V852H411V809L281 767L481 170H444L736 872H770L1070 170H1033Z"/><path transform="translate(513.23 84.00) scale(0.00825 -0.00825)" d="M602 37 757 85V558Q757 612 734.0 651.5Q711 691 666.0 712.5Q621 734 556 734Q477 734 409.5 704.5Q342 675 316 634L277 666Q330 723 377.5 762.5Q425 802 470.5 826.0Q516 850 564.0 861.0Q612 872 665 872Q786 872 844.5 794.5Q903 717 903 549V85L1057 37V0H602ZM481 0H28V37L180 85V1218Q167 1234 146.0 1250.0Q125 1266 95.0 1282.5Q65 1299 26 1315V1335L316 1419H336L326 1259V85L481 37Z"/><path transform="translate(522.08 84.00) scale(0.00825 -0.00825)" d="M602 543 618 473Q500 446 425.0 418.5Q350 391 308.0 362.0Q266 333 249.5 300.5Q233 268 233 229Q233 161 273.5 125.0Q314 89 372 89Q419 89 458.0 113.0Q497 137 520.5 176.0Q544 215 544 260V620Q544 692 507.0 735.0Q470 778 385 778Q355 778 316.0 768.5Q277 759 240 740L291 786Q288 758 282.5 730.0Q277 702 269.5 680.0Q262 658 251 646Q235 629 211.0 621.0Q187 613 163 613Q132 613 114.0 627.5Q96 642 96 664Q96 695 126.5 729.5Q157 764 207.5 794.5Q258 825 320.0 844.0Q382 863 446 863Q533 863 587.0 836.5Q641 810 665.5 758.5Q690 707 690 632V175Q690 144 699.0 123.5Q708 103 725.5 92.5Q743 82 769 82Q792 82 818.5 91.0Q845 100 870 115V69Q829 24 783.5 3.0Q738 -18 699 -18Q651 -18 616.5 3.5Q582 25 564.0 65.5Q546 106 546 161L552 171Q539 115 503.5 72.0Q468 29 418.5 4.5Q369 -20 313 -20Q213 -20 148.0 36.0Q83 92 83 197Q83 253 105.5 299.0Q128 345 185.0 385.5Q242 426 343.5 464.5Q445 503 602 543Z"/><path transform="translate(529.21 84.00) scale(0.00825 -0.00825)" d="M306 240Q306 173 346.5 139.5Q387 106 462 106Q497 106 538.0 113.0Q579 120 627 134V87Q569 46 525.5 23.5Q482 1 447.0 -7.5Q412 -16 378 -16Q312 -16 263.0 8.5Q214 33 187.0 81.5Q160 130 160 201V717L52 792V810Q74 826 95.5 842.5Q117 859 139.0 876.0Q161 893 183.0 910.5Q205 928 228.0 946.0Q251 964 275 983H306V822ZM249 760V852H598L582 760Z"/><path transform="translate(538.18 84.00) scale(0.00825 -0.00825)" d="M306 240Q306 173 346.5 139.5Q387 106 462 106Q497 106 538.0 113.0Q579 120 627 134V87Q569 46 525.5 23.5Q482 1 447.0 -7.5Q412 -16 378 -16Q312 -16 263.0 8.5Q214 33 187.0 81.5Q160 130 160 201V717L52 792V810Q74 826 95.5 842.5Q117 859 139.0 876.0Q161 893 183.0 910.5Q205 928 228.0 946.0Q251 964 275 983H306V822ZM249 760V852H598L582 760Z"/><path transform="translate(543.48 84.00) scale(0.00825 -0.00825)" d="M602 37 757 85V558Q757 612 734.0 651.5Q711 691 666.0 712.5Q621 734 556 734Q477 734 409.5 704.5Q342 675 316 634L277 666Q330 723 377.5 762.5Q425 802 470.5 826.0Q516 850 564.0 861.0Q612 872 665 872Q786 872 844.5 794.5Q903 717 903 549V85L1057 37V0H602ZM481 0H28V37L180 85V1218Q167 1234 146.0 1250.0Q125 1266 95.0 1282.5Q65 1299 26 1315V1335L316 1419H336L326 1259V85L481 37Z"/><path transform="translate(552.34 84.00) scale(0.00825 -0.00825)" d="M267 1181Q214 1181 180.5 1215.5Q147 1250 147 1300Q147 1350 180.5 1384.5Q214 1419 267 1419Q320 1419 353.5 1384.5Q387 1350 387 1300Q387 1250 353.5 1215.5Q320 1181 267 1181ZM356 872 350 710V85L505 37V0H52V37L204 85V686Q193 698 169.5 712.5Q146 727 116.5 741.0Q87 755 56 764V795L338 872Z"/><path transform="translate(556.74 84.00) scale(0.00825 -0.00825)" d="M381 872Q437 872 483.0 861.0Q529 850 587 821L602 585H559L461 828L529 744Q492 773 458.5 787.5Q425 802 384 802Q309 802 265.5 769.0Q222 736 222 677Q222 628 249.0 597.0Q276 566 320.0 543.5Q364 521 414 498Q452 481 489.0 459.5Q526 438 556.0 408.0Q586 378 604.5 336.0Q623 294 623 235Q623 153 582.5 96.0Q542 39 472.5 9.5Q403 -20 314 -20Q256 -20 210.5 -11.5Q165 -3 120 16L75 257H122L256 8L134 86Q172 68 197.5 59.0Q223 50 244.0 47.5Q265 45 287 45Q382 45 437.5 83.0Q493 121 493 196Q493 238 473.5 266.0Q454 294 421.5 314.5Q389 335 351.0 352.0Q313 369 277 387Q229 412 189.0 443.0Q149 474 125.0 521.0Q101 568 101 638Q101 712 137.5 764.0Q174 816 237.5 844.0Q301 872 381 872Z"/><path transform="translate(566.24 84.00) scale(0.00825 -0.00825)" d="M546 872Q628 872 676.5 853.5Q725 835 746.5 808.0Q768 781 768 755Q768 727 756.5 706.0Q745 685 724.0 673.5Q703 662 676 662Q647 662 624.0 674.5Q601 687 581.5 705.5Q562 724 542.5 742.5Q523 761 500.0 773.5Q477 786 448 786Q393 786 341.5 753.5Q290 721 256.5 654.0Q223 587 223 485Q223 367 263.0 280.5Q303 194 376.0 147.0Q449 100 548 100Q603 100 655.5 123.0Q708 146 757 189L781 162Q733 100 683.0 59.5Q633 19 577.0 -0.5Q521 -20 456 -20Q344 -20 258.0 35.5Q172 91 123.5 186.5Q75 282 75 402Q75 497 106.0 582.0Q137 667 196.5 732.0Q256 797 344.0 834.5Q432 872 546 872Z"/><path transform="translate(573.08 84.00) scale(0.00825 -0.00825)" d="M508 57Q583 57 642.0 93.5Q701 130 735.0 206.5Q769 283 769 402Q769 530 735.5 617.5Q702 705 642.0 750.0Q582 795 501 795Q426 795 367.0 758.5Q308 722 274.0 645.5Q240 569 240 450Q240 323 273.5 235.0Q307 147 367.5 102.0Q428 57 508 57ZM502 -20Q376 -20 279.5 35.5Q183 91 129.0 189.5Q75 288 75 416Q75 548 131.5 651.0Q188 754 285.5 813.0Q383 872 507 872Q634 872 730.0 816.5Q826 761 880.0 663.0Q934 565 934 436Q934 304 877.5 201.0Q821 98 723.5 39.0Q626 -20 502 -20Z"/><path transform="translate(581.40 84.00) scale(0.00825 -0.00825)" d="M755 596Q755 679 696.0 734.0Q637 789 523 789Q434 789 371.5 745.0Q309 701 277.0 620.5Q245 540 245 430Q245 320 280.5 243.5Q316 167 379.0 127.5Q442 88 525 88Q602 88 672.5 112.5Q743 137 810 189V118Q738 75 688.0 47.5Q638 20 600.0 5.5Q562 -9 529.5 -14.5Q497 -20 461 -20Q336 -20 250.0 31.0Q164 82 120.0 173.0Q76 264 76 382Q76 497 113.5 587.5Q151 678 216.5 741.5Q282 805 366.5 838.5Q451 872 545 872Q593 872 639.0 864.0Q685 856 734.0 839.5Q783 823 839 795L755 738V1246Q743 1261 724.0 1274.0Q705 1287 680.5 1299.5Q656 1312 627 1324V1342L891 1419H910L901 1257V140Q910 130 925.0 120.5Q940 111 958.0 102.0Q976 93 994.0 87.0Q1012 81 1028 79V49L789 -16H769L755 136Z"/><path transform="translate(590.16 84.00) scale(0.00825 -0.00825)" d="M474 872Q571 872 642.0 829.0Q713 786 755.5 703.5Q798 621 808 502H196L198 569L712 593L644 551Q637 623 615.5 677.5Q594 732 556.0 762.5Q518 793 459 793Q389 793 336.0 754.5Q283 716 253.5 642.0Q224 568 224 461Q224 350 267.5 269.0Q311 188 389.0 144.0Q467 100 571 100Q609 100 645.5 110.0Q682 120 718.0 140.0Q754 160 788 189L813 162Q763 100 711.0 59.5Q659 19 601.0 -0.5Q543 -20 476 -20Q360 -20 269.5 36.5Q179 93 127.0 191.0Q75 289 75 414Q75 540 123.0 644.0Q171 748 260.5 810.0Q350 872 474 872Z"/><path transform="translate(601.08 84.00) scale(0.00825 -0.00825)" d="M755 596Q755 679 696.0 734.0Q637 789 523 789Q434 789 371.5 745.0Q309 701 277.0 620.5Q245 540 245 430Q245 320 280.5 243.5Q316 167 379.0 127.5Q442 88 525 88Q602 88 672.5 112.5Q743 137 810 189V118Q738 75 688.0 47.5Q638 20 600.0 5.5Q562 -9 529.5 -14.5Q497 -20 461 -20Q336 -20 250.0 31.0Q164 82 120.0 173.0Q76 264 76 382Q76 497 113.5 587.5Q151 678 216.5 741.5Q282 805 366.5 838.5Q451 872 545 872Q593 872 639.0 864.0Q685 856 734.0 839.5Q783 823 839 795L755 738V1246Q743 1261 724.0 1274.0Q705 1287 680.5 1299.5Q656 1312 627 1324V1342L891 1419H910L901 1257V140Q910 130 925.0 120.5Q940 111 958.0 102.0Q976 93 994.0 87.0Q1012 81 1028 79V49L789 -16H769L755 136Z"/><path transform="translate(609.84 84.00) scale(0.00825 -0.00825)" d="M508 57Q583 57 642.0 93.5Q701 130 735.0 206.5Q769 283 769 402Q769 530 735.5 617.5Q702 705 642.0 750.0Q582 795 501 795Q426 795 367.0 758.5Q308 722 274.0 645.5Q240 569 240 450Q240 323 273.5 235.0Q307 147 367.5 102.0Q428 57 508 57ZM502 -20Q376 -20 279.5 35.5Q183 91 129.0 189.5Q75 288 75 416Q75 548 131.5 651.0Q188 754 285.5 813.0Q383 872 507 872Q634 872 730.0 816.5Q826 761 880.0 663.0Q934 565 934 436Q934 304 877.5 201.0Q821 98 723.5 39.0Q626 -20 502 -20Z"/><path transform="translate(618.16 84.00) scale(0.00825 -0.00825)" d="M474 872Q571 872 642.0 829.0Q713 786 755.5 703.5Q798 621 808 502H196L198 569L712 593L644 551Q637 623 615.5 677.5Q594 732 556.0 762.5Q518 793 459 793Q389 793 336.0 754.5Q283 716 253.5 642.0Q224 568 224 461Q224 350 267.5 269.0Q311 188 389.0 144.0Q467 100 571 100Q609 100 645.5 110.0Q682 120 718.0 140.0Q754 160 788 189L813 162Q763 100 711.0 59.5Q659 19 601.0 -0.5Q543 -20 476 -20Q360 -20 269.5 36.5Q179 93 127.0 191.0Q75 289 75 414Q75 540 123.0 644.0Q171 748 260.5 810.0Q350 872 474 872Z"/><path transform="translate(625.41 84.00) scale(0.00825 -0.00825)" d="M381 872Q437 872 483.0 861.0Q529 850 587 821L602 585H559L461 828L529 744Q492 773 458.5 787.5Q425 802 384 802Q309 802 265.5 769.0Q222 736 222 677Q222 628 249.0 597.0Q276 566 320.0 543.5Q364 521 414 498Q452 481 489.0 459.5Q526 438 556.0 408.0Q586 378 604.5 336.0Q623 294 623 235Q623 153 582.5 96.0Q542 39 472.5 9.5Q403 -20 314 -20Q256 -20 210.5 -11.5Q165 -3 120 16L75 257H122L256 8L134 86Q172 68 197.5 59.0Q223 50 244.0 47.5Q265 45 287 45Q382 45 437.5 83.0Q493 121 493 196Q493 238 473.5 266.0Q454 294 421.5 314.5Q389 335 351.0 352.0Q313 369 277 387Q229 412 189.0 443.0Q149 474 125.0 521.0Q101 568 101 638Q101 712 137.5 764.0Q174 816 237.5 844.0Q301 872 381 872Z"/><path transform="translate(631.25 84.00) scale(0.00825 -0.00825)" d="M220 224Q273 224 307.0 189.5Q341 155 341 105Q341 56 307.0 21.0Q273 -14 220 -14Q168 -14 133.5 21.0Q99 56 99 105Q99 155 133.5 189.5Q168 224 220 224Z"/></g>
<g fill="#9a3415"><path transform="translate(490.21 110.00) scale(0.00900 -0.00900)" d="M651 -29Q567 -29 508.0 -8.0Q449 13 412.5 33.5Q376 54 358 54Q341 54 327.5 41.0Q314 28 301.5 11.0Q289 -6 275.5 -19.0Q262 -32 244 -32Q226 -32 214.0 -20.5Q202 -9 197 16L128 362Q124 381 132.0 394.0Q140 407 158 414Q178 421 193.0 413.0Q208 405 219 383Q281 260 348.0 189.0Q415 118 486.5 88.0Q558 58 631 58Q734 58 794.0 112.5Q854 167 854 261Q855 320 827.5 369.5Q800 419 726.0 464.0Q652 509 510 556Q357 607 265.0 671.5Q173 736 131.5 821.5Q90 907 90 1018Q90 1139 148.5 1231.0Q207 1323 311.5 1374.0Q416 1425 555 1425Q644 1425 702.0 1406.0Q760 1387 797.0 1368.0Q834 1349 857 1349Q878 1349 892.5 1368.5Q907 1388 923.0 1408.0Q939 1428 964 1428Q982 1428 994.5 1416.0Q1007 1404 1017 1372L1113 1025Q1120 1003 1112.5 986.0Q1105 969 1086 962Q1066 956 1050.5 963.5Q1035 971 1025 991Q958 1123 885.5 1199.0Q813 1275 737.0 1307.0Q661 1339 584 1339Q481 1339 419.5 1279.0Q358 1219 358 1119Q358 1059 384.5 1008.0Q411 957 483.5 909.5Q556 862 691 813Q848 756 940.0 691.5Q1032 627 1072.0 547.5Q1112 468 1112 365Q1111 256 1056.5 166.5Q1002 77 899.5 24.0Q797 -29 651 -29Z"/><path transform="translate(501.01 110.00) scale(0.00900 -0.00900)" d="M451 1432V140Q451 113 459.0 100.0Q467 87 484 81L524 71Q552 60 552 37Q552 0 505 0H116Q92 0 81.0 9.5Q70 19 70 35Q70 47 78.0 56.0Q86 65 102 71L144 81Q162 87 170.0 99.5Q178 112 178 140V1277Q178 1299 171.0 1308.5Q164 1318 149 1321L94 1324Q78 1327 71.0 1335.0Q64 1343 64 1355Q64 1369 72.5 1377.5Q81 1386 103 1394L309 1464Q341 1476 360.5 1481.0Q380 1486 397 1486Q424 1486 437.5 1471.5Q451 1457 451 1432ZM422 680 383 721 422 755Q542 863 629.0 910.0Q716 957 793 957Q911 957 976.0 879.0Q1041 801 1055 667L1115 144Q1118 114 1125.5 100.0Q1133 86 1151 80L1189 71Q1206 65 1213.5 56.0Q1221 47 1221 35Q1221 19 1210.0 9.5Q1199 0 1175 0H781Q734 0 734 37Q734 60 762 71L803 81Q822 87 831.5 101.0Q841 115 838 144L783 629Q773 715 740.0 757.5Q707 800 641 800Q600 800 555.5 778.5Q511 757 462 715Z"/><path transform="translate(512.10 110.00) scale(0.00900 -0.00900)" d="M452 898V140Q452 113 460.0 99.5Q468 86 485 81L526 71Q543 66 550.5 57.0Q558 48 558 35Q558 19 547.0 9.5Q536 0 512 0H116Q93 0 82.0 9.5Q71 19 71 35Q71 47 78.5 56.0Q86 65 103 71L145 81Q162 87 170.5 99.5Q179 112 179 140V743Q179 765 172.0 774.5Q165 784 149 787L94 790Q79 793 72.0 801.0Q65 809 65 821Q65 835 73.5 843.5Q82 852 104 860L309 930Q343 942 362.5 947.0Q382 952 396 952Q424 952 438.0 937.5Q452 923 452 898ZM296 1100Q219 1100 172.5 1141.5Q126 1183 126 1249Q126 1315 173.0 1355.5Q220 1396 296 1396Q374 1396 421.0 1355.0Q468 1314 468 1249Q468 1183 421.0 1141.5Q374 1100 296 1100Z"/><path transform="translate(517.55 110.00) scale(0.00900 -0.00900)" d="M430 900V784L439 763V-326Q439 -354 447.5 -367.5Q456 -381 473 -385L528 -395Q544 -400 552.0 -409.5Q560 -419 560 -432Q560 -448 549.0 -457.0Q538 -466 514 -466H106Q82 -466 71.0 -457.0Q60 -448 60 -432Q60 -419 68.0 -410.0Q76 -401 92 -395L133 -385Q150 -380 158.0 -367.0Q166 -354 166 -326V744Q166 766 159.0 775.5Q152 785 137 788L82 791Q66 794 59.5 802.0Q53 810 53 822Q53 836 61.0 844.0Q69 852 92 861L288 931Q319 944 338.5 948.5Q358 953 374 953Q402 953 416.0 938.5Q430 924 430 900ZM390 664 351 713Q429 829 526.0 893.0Q623 957 742 957Q858 957 949.0 898.0Q1040 839 1092.0 734.5Q1144 630 1144 492Q1144 334 1082.5 218.0Q1021 102 915.0 39.0Q809 -24 677 -24Q562 -24 476.0 28.0Q390 80 334 181L393 229Q438 152 496.5 113.0Q555 74 623 74Q692 74 745.5 114.5Q799 155 830.0 241.0Q861 327 861 462Q861 589 831.5 671.0Q802 753 750.5 793.0Q699 833 633 833Q566 833 504.5 791.5Q443 750 390 664Z"/><path transform="translate(532.15 110.00) scale(0.00900 -0.00900)" d="M452 898V140Q452 113 460.0 99.5Q468 86 485 81L526 71Q543 66 550.5 57.0Q558 48 558 35Q558 19 547.0 9.5Q536 0 512 0H116Q93 0 82.0 9.5Q71 19 71 35Q71 47 78.5 56.0Q86 65 103 71L145 81Q162 87 170.5 99.5Q179 112 179 140V743Q179 765 172.0 774.5Q165 784 149 787L94 790Q79 793 72.0 801.0Q65 809 65 821Q65 835 73.5 843.5Q82 852 104 860L309 930Q343 942 362.5 947.0Q382 952 396 952Q424 952 438.0 937.5Q452 923 452 898ZM296 1100Q219 1100 172.5 1141.5Q126 1183 126 1249Q126 1315 173.0 1355.5Q220 1396 296 1396Q374 1396 421.0 1355.0Q468 1314 468 1249Q468 1183 421.0 1141.5Q374 1100 296 1100Z"/><path transform="translate(537.60 110.00) scale(0.00900 -0.00900)" d="M122 849 68 863Q48 869 39.5 878.0Q31 887 31 900Q31 916 42.5 925.0Q54 934 72 934H139Q159 934 173.0 941.5Q187 949 202 969L327 1129Q344 1151 361.0 1161.5Q378 1172 394 1172Q412 1172 422.0 1160.5Q432 1149 432 1127V275Q432 203 460.0 165.5Q488 128 539 128Q572 128 592.0 140.5Q612 153 624.5 171.0Q637 189 648.5 204.5Q660 220 676 226Q688 228 696.0 219.5Q704 211 703 191Q700 132 665.0 84.5Q630 37 569.0 8.5Q508 -20 429 -20Q303 -20 232.0 42.5Q161 105 161 232V797Q161 819 152.5 830.5Q144 842 122 849ZM328 850 330 934H654Q675 934 686.0 926.0Q697 918 697 902Q697 880 674.5 865.0Q652 850 603 850Z"/><path transform="translate(544.30 110.00) scale(0.00900 -0.00900)" d="M306 1481Q394 1481 435.0 1440.0Q476 1399 476 1332Q476 1308 472.0 1280.5Q468 1253 461 1223L354 508Q348 479 336.5 464.5Q325 450 305 450Q284 450 273.0 464.5Q262 479 255 508L149 1224Q142 1256 138.5 1282.0Q135 1308 135 1332Q135 1399 177.0 1440.0Q219 1481 306 1481ZM303 -20Q256 -20 217.5 4.0Q179 28 156.0 68.0Q133 108 133 155Q133 203 156.0 242.5Q179 282 217.5 305.5Q256 329 303 329Q352 329 391.0 305.5Q430 282 452.5 242.5Q475 203 475 155Q475 108 452.5 68.0Q430 28 391.0 4.0Q352 -20 303 -20Z"/></g>
<g fill="#6f685a"><path transform="translate(175.91 314.00) scale(0.00800 -0.00800)" d="M1351 1246H368L479 1267L258 979L221 998L371 1408H388L485 1324L419 1340H1358L1273 1324L1429 1408H1446L1346 978H1309L1272 1265ZM796 1279H948L585 83L724 38L712 0H260L272 38L434 86Z"/><path transform="translate(185.72 314.00) scale(0.00800 -0.00800)" d="M216 233 146 0H13L395 1268Q377 1285 360.0 1298.5Q343 1312 322.5 1323.5Q302 1335 273 1345L281 1370L550 1419H573L289 487L276 489Q318 561 367.0 629.0Q416 697 470.0 751.0Q524 805 582.5 837.0Q641 869 701 869Q784 869 815.5 833.5Q847 798 847 741Q847 709 837.0 670.0Q827 631 810 586L612 71L614 108Q647 108 687.0 122.0Q727 136 770.0 163.0Q813 190 853 227L883 196Q813 114 753.5 66.5Q694 19 644.0 -0.5Q594 -20 549 -20Q484 -20 470.0 -1.5Q456 17 478 73L689 618Q697 639 702.5 659.0Q708 679 708 696Q708 721 692.0 736.0Q676 751 634 751Q586 751 527.0 710.0Q468 669 408.5 597.0Q349 525 298.5 431.5Q248 338 216 233Z"/><path transform="translate(193.18 314.00) scale(0.00800 -0.00800)" d="M497 805Q438 805 391.0 770.0Q344 735 308.5 677.0Q273 619 249.5 549.5Q226 480 214.0 410.0Q202 340 202 282Q202 179 243.0 136.0Q284 93 350 93Q395 93 434.5 109.0Q474 125 510.5 164.5Q547 204 582 276H638Q589 162 540.5 97.5Q492 33 435.5 6.5Q379 -20 304 -20Q229 -20 173.5 9.5Q118 39 87.5 97.0Q57 155 57 240Q57 345 81.5 440.0Q106 535 150.5 613.5Q195 692 253.5 750.0Q312 808 381.0 840.0Q450 872 523 872Q593 872 637.0 847.5Q681 823 701.5 783.5Q722 744 722 699Q722 656 703.5 613.5Q685 571 656 547Q598 523 540.0 500.0Q482 477 423.5 455.5Q365 434 306.5 413.5Q248 393 189 374L192 446Q288 473 357.0 500.0Q426 527 471.5 553.0Q517 579 543.0 605.5Q569 632 580.0 658.5Q591 685 591 712Q591 740 580.0 760.5Q569 781 548.5 793.0Q528 805 497 805Z"/><path transform="translate(202.73 314.00) scale(0.00800 -0.00800)" d="M1125 71 1127 108Q1160 108 1200.0 122.0Q1240 136 1283.0 163.0Q1326 190 1366 227L1396 196Q1326 114 1266.5 66.5Q1207 19 1157.0 -0.5Q1107 -20 1062 -20Q997 -20 983.0 -1.5Q969 17 991 73L1203 622Q1211 643 1215.5 661.0Q1220 679 1220 695Q1220 721 1204.0 735.5Q1188 750 1148 750Q1103 750 1050.0 713.0Q997 676 943.0 610.0Q889 544 840.5 456.0Q792 368 756 267L672 0H535L739 622Q744 636 747.5 649.0Q751 662 753.0 673.5Q755 685 755 695Q755 721 739.5 735.5Q724 750 686 750Q638 750 583.5 710.0Q529 670 475.5 599.0Q422 528 375.0 434.0Q328 340 295 233L224 0H89L315 746Q311 746 307.5 746.0Q304 746 300 746Q264 746 230.0 732.0Q196 718 162.0 682.5Q128 647 92 582L56 597Q97 703 145.5 762.5Q194 822 248.0 846.5Q302 871 356 871Q375 871 393.5 868.5Q412 866 430.5 862.0Q449 858 467 852L355 490H348Q414 603 468.5 677.5Q523 752 571.0 794.5Q619 837 663.0 854.5Q707 872 751 872Q831 872 864.0 842.5Q897 813 897 764Q897 731 886.0 687.5Q875 644 857 586L842 537H834Q890 631 940.5 695.5Q991 760 1038.0 799.0Q1085 838 1129.5 855.5Q1174 873 1217 873Q1297 873 1329.0 842.5Q1361 812 1361 759Q1361 726 1350.5 683.0Q1340 640 1319 584Z"/><path transform="translate(214.29 314.00) scale(0.00800 -0.00800)" d="M527 872Q607 872 664.5 837.5Q722 803 753.5 738.0Q785 673 785 580Q785 463 749.5 355.5Q714 248 651.0 163.5Q588 79 503.5 29.5Q419 -20 320 -20Q241 -20 183.0 14.5Q125 49 93.5 114.5Q62 180 62 272Q62 389 97.5 496.5Q133 604 196.0 688.5Q259 773 343.5 822.5Q428 872 527 872ZM322 47Q373 47 420.5 81.0Q468 115 508.5 173.5Q549 232 579.5 306.0Q610 380 627.0 461.0Q644 542 644 620Q644 715 615.5 760.0Q587 805 525 805Q474 805 426.5 771.0Q379 737 338.5 678.5Q298 620 267.5 546.0Q237 472 220.0 391.0Q203 310 203 232Q203 138 231.5 92.5Q260 47 322 47Z"/><path transform="translate(221.08 314.00) scale(0.00800 -0.00800)" d="M88 202Q102 202 115.0 186.0Q128 170 157 125Q186 80 213.5 63.0Q241 46 269 46Q309 46 340.5 60.5Q372 75 390.0 103.5Q408 132 408 173Q408 202 398.5 232.0Q389 262 364.5 299.5Q340 337 294 389Q249 441 223.0 482.0Q197 523 186.5 558.0Q176 593 176 626Q176 694 207.0 750.0Q238 806 299.0 839.0Q360 872 448 872Q515 872 556.5 854.5Q598 837 618.0 808.0Q638 779 638 744Q638 721 628.0 702.5Q618 684 600.0 673.5Q582 663 558 663Q548 663 534.0 674.5Q520 686 493 724Q466 762 437.5 781.0Q409 800 383 800Q333 800 305.0 771.5Q277 743 277 691Q277 669 288.0 641.0Q299 613 324.5 575.0Q350 537 393 484Q437 432 463.0 387.5Q489 343 501.0 305.5Q513 268 513 234Q513 162 474.0 104.5Q435 47 368.0 13.5Q301 -20 216 -20Q143 -20 95.5 0.0Q48 20 25.0 52.0Q2 84 2 119Q2 142 13.0 161.0Q24 180 43.5 191.0Q63 202 88 202Z"/><path transform="translate(226.23 314.00) scale(0.00800 -0.00800)" d="M125 772 143 852H633L617 772ZM262 211Q258 196 255.0 183.5Q252 171 250.5 161.0Q249 151 249 143Q249 127 255.0 119.0Q261 111 271 111Q292 111 329.0 136.0Q366 161 411.0 205.5Q456 250 501 310L541 284Q498 217 454.5 162.0Q411 107 369.0 66.5Q327 26 287.5 4.0Q248 -18 211 -18Q168 -18 142.0 7.0Q116 32 116 93Q116 120 121.5 155.5Q127 191 140 236L360 1026H495Z"/><path transform="translate(234.63 314.00) scale(0.00800 -0.00800)" d="M713 730Q705 754 678.0 774.0Q651 794 608 794Q534 794 468.5 748.5Q403 703 349.0 630.0Q295 557 255.5 474.5Q216 392 194.5 316.5Q173 241 173 191Q173 147 197.0 125.0Q221 103 258 103Q287 103 328.0 123.0Q369 143 414.0 178.5Q459 214 502.5 262.0Q546 310 581.0 367.5Q616 425 635 487L876 1268Q858 1285 841.0 1298.5Q824 1312 803.5 1323.5Q783 1335 754 1345L762 1370L1031 1419H1054L637 71L620 109Q653 104 695.5 117.0Q738 130 784.5 158.5Q831 187 875 227L903 195Q795 75 716.5 27.5Q638 -20 571 -20Q528 -20 508.5 -2.0Q489 16 499 45L603 367H629Q553 255 491.5 180.5Q430 106 379.5 63.0Q329 20 285.5 1.5Q242 -17 203 -17Q149 -17 109.0 3.0Q69 23 47.0 67.5Q25 112 25 183Q25 259 54.5 350.5Q84 442 136.5 533.0Q189 624 260.0 699.5Q331 775 414.5 821.0Q498 867 589 867Q647 867 684.5 846.5Q722 826 753 785Z"/><path transform="translate(242.08 314.00) scale(0.00800 -0.00800)" d="M488 45 592 367H618Q543 256 483.0 181.5Q423 107 373.5 63.5Q324 20 282.5 1.5Q241 -17 202 -17Q148 -17 108.0 3.0Q68 23 46.0 66.5Q24 110 24 180Q24 255 53.0 345.5Q82 436 133.5 525.5Q185 615 254.5 690.0Q324 765 406.5 810.0Q489 855 578 855Q636 855 673.5 835.0Q711 815 742 774L702 720Q694 744 667.0 763.5Q640 783 597 783Q525 783 461.0 738.0Q397 693 344.0 621.0Q291 549 252.5 467.5Q214 386 193.0 311.5Q172 237 172 188Q172 145 196.0 124.0Q220 103 257 103Q290 103 341.0 132.0Q392 161 447.0 212.5Q502 264 549.5 334.5Q597 405 624 487L741 852H862H877L626 71L609 109Q642 104 684.5 117.0Q727 130 773.5 158.5Q820 187 864 227L892 195Q784 75 705.5 27.5Q627 -20 560 -20Q517 -20 497.5 -2.0Q478 16 488 45Z"/><path transform="translate(249.47 314.00) scale(0.00800 -0.00800)" d="M92 582 56 597Q97 703 145.5 762.5Q194 822 248.0 846.5Q302 871 356 871Q375 871 393.5 868.5Q412 866 430.5 862.0Q449 858 467 852L347 462H341Q385 540 435.5 613.0Q486 686 542.0 743.5Q598 801 658.0 835.0Q718 869 780 869Q863 869 894.5 833.5Q926 798 926 741Q926 709 916.0 670.0Q906 631 889 586L691 71L693 108Q726 108 766.0 122.0Q806 136 849.0 163.0Q892 190 932 227L962 196Q892 114 832.5 66.5Q773 19 723.0 -0.5Q673 -20 628 -20Q563 -20 549.0 -1.5Q535 17 557 73L768 618Q776 639 781.5 659.0Q787 679 787 696Q787 721 771.0 736.0Q755 751 713 751Q665 751 606.0 710.0Q547 669 487.5 597.0Q428 525 377.5 431.5Q327 338 295 233L224 0H89L315 746Q311 746 307.5 746.0Q304 746 300 746Q264 746 230.0 732.0Q196 718 162.0 682.5Q128 647 92 582Z"/><path transform="translate(257.56 314.00) scale(0.00800 -0.00800)" d="M818 725Q797 725 781.5 734.0Q766 743 749.0 756.0Q732 769 709.0 782.0Q686 795 651.5 804.0Q617 813 565 813L542 860Q619 848 673.5 852.0Q728 856 770.5 864.0Q813 872 854 872Q880 872 893.0 860.0Q906 848 906 824Q906 801 898.5 783.0Q891 765 878.5 752.0Q866 739 850.5 732.0Q835 725 818 725ZM330 302Q365 302 399.0 320.0Q433 338 463.5 371.5Q494 405 517.0 451.5Q540 498 553.5 555.0Q567 612 567 678Q567 748 542.5 779.0Q518 810 474 810Q439 810 405.0 792.0Q371 774 340.5 740.5Q310 707 287.0 660.5Q264 614 250.5 557.0Q237 500 237 434Q237 364 261.5 333.0Q286 302 330 302ZM486 872Q555 872 603.0 843.0Q651 814 676.5 762.5Q702 711 702 641Q702 561 671.5 488.5Q641 416 587.5 360.0Q534 304 465.0 272.0Q396 240 318 240Q249 240 201.0 269.0Q153 298 127.5 350.0Q102 402 102 471Q102 551 132.5 623.5Q163 696 216.5 752.0Q270 808 339.0 840.0Q408 872 486 872ZM302 -530Q207 -530 131.5 -515.0Q56 -500 3.0 -470.5Q-50 -441 -78.0 -397.5Q-106 -354 -106 -298Q-106 -234 -64.0 -187.0Q-22 -140 60.5 -109.0Q143 -78 266 -63H351V-87Q277 -90 216.5 -105.0Q156 -120 112.5 -145.0Q69 -170 46.0 -204.5Q23 -239 23 -281Q23 -338 55.0 -379.5Q87 -421 149.5 -444.0Q212 -467 303 -467Q396 -467 455.5 -443.0Q515 -419 544.0 -380.5Q573 -342 573 -299Q573 -258 553.0 -227.0Q533 -196 492.5 -172.0Q452 -148 391.5 -126.5Q331 -105 251 -82Q181 -62 144.0 -33.0Q107 -4 93.5 28.5Q80 61 80 93Q80 134 103.5 169.0Q127 204 172.0 232.0Q217 260 279 278L323 257Q260 247 227.5 220.0Q195 193 195 161Q195 145 202.5 129.5Q210 114 230.0 98.0Q250 82 288.0 64.5Q326 47 386 26Q506 -15 573.5 -57.5Q641 -100 668.0 -148.0Q695 -196 695 -257Q695 -316 667.5 -366.0Q640 -416 588.5 -452.5Q537 -489 464.5 -509.5Q392 -530 302 -530Z"/><path transform="translate(263.91 314.00) scale(0.00800 -0.00800)" d="M497 805Q438 805 391.0 770.0Q344 735 308.5 677.0Q273 619 249.5 549.5Q226 480 214.0 410.0Q202 340 202 282Q202 179 243.0 136.0Q284 93 350 93Q395 93 434.5 109.0Q474 125 510.5 164.5Q547 204 582 276H638Q589 162 540.5 97.5Q492 33 435.5 6.5Q379 -20 304 -20Q229 -20 173.5 9.5Q118 39 87.5 97.0Q57 155 57 240Q57 345 81.5 440.0Q106 535 150.5 613.5Q195 692 253.5 750.0Q312 808 381.0 840.0Q450 872 523 872Q593 872 637.0 847.5Q681 823 701.5 783.5Q722 744 722 699Q722 656 703.5 613.5Q685 571 656 547Q598 523 540.0 500.0Q482 477 423.5 455.5Q365 434 306.5 413.5Q248 393 189 374L192 446Q288 473 357.0 500.0Q426 527 471.5 553.0Q517 579 543.0 605.5Q569 632 580.0 658.5Q591 685 591 712Q591 740 580.0 760.5Q569 781 548.5 793.0Q528 805 497 805Z"/><path transform="translate(269.84 314.00) scale(0.00800 -0.00800)" d="M315 746Q311 746 307.5 746.0Q304 746 300 746Q264 746 230.0 732.0Q196 718 162.0 682.5Q128 647 92 582L56 597Q97 703 145.5 762.5Q194 822 248.0 846.5Q302 871 356 871Q375 871 393.5 868.5Q412 866 430.5 862.0Q449 858 467 852L364 517H359Q421 639 479.0 717.5Q537 796 595.0 834.0Q653 872 713 872Q770 872 796.5 844.5Q823 817 823 774Q823 742 807.0 717.0Q791 692 765.0 678.0Q739 664 708 664Q700 664 691.0 671.5Q682 679 669 698Q656 718 644.0 728.0Q632 738 616 738Q591 738 559.5 714.5Q528 691 494.0 648.5Q460 606 426.0 547.5Q392 489 361.0 418.5Q330 348 306 269L224 0H89Z"/><path transform="translate(275.79 314.00) scale(0.00800 -0.00800)" d="M527 872Q607 872 664.5 837.5Q722 803 753.5 738.0Q785 673 785 580Q785 463 749.5 355.5Q714 248 651.0 163.5Q588 79 503.5 29.5Q419 -20 320 -20Q241 -20 183.0 14.5Q125 49 93.5 114.5Q62 180 62 272Q62 389 97.5 496.5Q133 604 196.0 688.5Q259 773 343.5 822.5Q428 872 527 872ZM322 47Q373 47 420.5 81.0Q468 115 508.5 173.5Q549 232 579.5 306.0Q610 380 627.0 461.0Q644 542 644 620Q644 715 615.5 760.0Q587 805 525 805Q474 805 426.5 771.0Q379 737 338.5 678.5Q298 620 267.5 546.0Q237 472 220.0 391.0Q203 310 203 232Q203 138 231.5 92.5Q260 47 322 47Z"/><path transform="translate(282.57 314.00) scale(0.00800 -0.00800)" d="M541 35 650 389H657Q583 260 523.5 179.0Q464 98 414.0 55.0Q364 12 320.0 -4.0Q276 -20 232 -20Q163 -20 132.0 11.0Q101 42 101 95Q101 127 111.5 170.0Q122 213 143 268L335 781L361 740Q327 742 282.5 725.5Q238 709 191.0 676.5Q144 644 100 598L67 628Q137 722 196.5 775.0Q256 828 309.0 850.0Q362 872 410 872Q452 872 471.5 857.5Q491 843 481 817L259 220Q252 199 247.5 181.5Q243 164 243 150Q243 127 257.0 114.5Q271 102 303 102Q345 102 399.5 140.5Q454 179 510.5 248.5Q567 318 617.5 412.5Q668 507 702 619L773 852H908L674 80L675 109Q708 105 750.5 118.0Q793 131 839.5 159.0Q886 187 930 227L958 195Q852 71 772.5 25.5Q693 -20 626 -20Q571 -20 552.0 -6.5Q533 7 541 35Z"/><path transform="translate(290.31 314.00) scale(0.00800 -0.00800)" d="M88 202Q102 202 115.0 186.0Q128 170 157 125Q186 80 213.5 63.0Q241 46 269 46Q309 46 340.5 60.5Q372 75 390.0 103.5Q408 132 408 173Q408 202 398.5 232.0Q389 262 364.5 299.5Q340 337 294 389Q249 441 223.0 482.0Q197 523 186.5 558.0Q176 593 176 626Q176 694 207.0 750.0Q238 806 299.0 839.0Q360 872 448 872Q515 872 556.5 854.5Q598 837 618.0 808.0Q638 779 638 744Q638 721 628.0 702.5Q618 684 600.0 673.5Q582 663 558 663Q548 663 534.0 674.5Q520 686 493 724Q466 762 437.5 781.0Q409 800 383 800Q333 800 305.0 771.5Q277 743 277 691Q277 669 288.0 641.0Q299 613 324.5 575.0Q350 537 393 484Q437 432 463.0 387.5Q489 343 501.0 305.5Q513 268 513 234Q513 162 474.0 104.5Q435 47 368.0 13.5Q301 -20 216 -20Q143 -20 95.5 0.0Q48 20 25.0 52.0Q2 84 2 119Q2 142 13.0 161.0Q24 180 43.5 191.0Q63 202 88 202Z"/><path transform="translate(299.08 314.00) scale(0.00800 -0.00800)" d="M88 202Q102 202 115.0 186.0Q128 170 157 125Q186 80 213.5 63.0Q241 46 269 46Q309 46 340.5 60.5Q372 75 390.0 103.5Q408 132 408 173Q408 202 398.5 232.0Q389 262 364.5 299.5Q340 337 294 389Q249 441 223.0 482.0Q197 523 186.5 558.0Q176 593 176 626Q176 694 207.0 750.0Q238 806 299.0 839.0Q360 872 448 872Q515 872 556.5 854.5Q598 837 618.0 808.0Q638 779 638 744Q638 721 628.0 702.5Q618 684 600.0 673.5Q582 663 558 663Q548 663 534.0 674.5Q520 686 493 724Q466 762 437.5 781.0Q409 800 383 800Q333 800 305.0 771.5Q277 743 277 691Q277 669 288.0 641.0Q299 613 324.5 575.0Q350 537 393 484Q437 432 463.0 387.5Q489 343 501.0 305.5Q513 268 513 234Q513 162 474.0 104.5Q435 47 368.0 13.5Q301 -20 216 -20Q143 -20 95.5 0.0Q48 20 25.0 52.0Q2 84 2 119Q2 142 13.0 161.0Q24 180 43.5 191.0Q63 202 88 202Z"/><path transform="translate(304.23 314.00) scale(0.00800 -0.00800)" d="M497 805Q438 805 391.0 770.0Q344 735 308.5 677.0Q273 619 249.5 549.5Q226 480 214.0 410.0Q202 340 202 282Q202 179 243.0 136.0Q284 93 350 93Q395 93 434.5 109.0Q474 125 510.5 164.5Q547 204 582 276H638Q589 162 540.5 97.5Q492 33 435.5 6.5Q379 -20 304 -20Q229 -20 173.5 9.5Q118 39 87.5 97.0Q57 155 57 240Q57 345 81.5 440.0Q106 535 150.5 613.5Q195 692 253.5 750.0Q312 808 381.0 840.0Q450 872 523 872Q593 872 637.0 847.5Q681 823 701.5 783.5Q722 744 722 699Q722 656 703.5 613.5Q685 571 656 547Q598 523 540.0 500.0Q482 477 423.5 455.5Q365 434 306.5 413.5Q248 393 189 374L192 446Q288 473 357.0 500.0Q426 527 471.5 553.0Q517 579 543.0 605.5Q569 632 580.0 658.5Q591 685 591 712Q591 740 580.0 760.5Q569 781 548.5 793.0Q528 805 497 805Z"/><path transform="translate(310.16 314.00) scale(0.00800 -0.00800)" d="M92 582 56 597Q97 703 145.5 762.5Q194 822 248.0 846.5Q302 871 356 871Q375 871 393.5 868.5Q412 866 430.5 862.0Q449 858 467 852L347 462H341Q385 540 435.5 613.0Q486 686 542.0 743.5Q598 801 658.0 835.0Q718 869 780 869Q863 869 894.5 833.5Q926 798 926 741Q926 709 916.0 670.0Q906 631 889 586L691 71L693 108Q726 108 766.0 122.0Q806 136 849.0 163.0Q892 190 932 227L962 196Q892 114 832.5 66.5Q773 19 723.0 -0.5Q673 -20 628 -20Q563 -20 549.0 -1.5Q535 17 557 73L768 618Q776 639 781.5 659.0Q787 679 787 696Q787 721 771.0 736.0Q755 751 713 751Q665 751 606.0 710.0Q547 669 487.5 597.0Q428 525 377.5 431.5Q327 338 295 233L224 0H89L315 746Q311 746 307.5 746.0Q304 746 300 746Q264 746 230.0 732.0Q196 718 162.0 682.5Q128 647 92 582Z"/><path transform="translate(318.26 314.00) scale(0.00800 -0.00800)" d="M125 772 143 852H633L617 772ZM262 211Q258 196 255.0 183.5Q252 171 250.5 161.0Q249 151 249 143Q249 127 255.0 119.0Q261 111 271 111Q292 111 329.0 136.0Q366 161 411.0 205.5Q456 250 501 310L541 284Q498 217 454.5 162.0Q411 107 369.0 66.5Q327 26 287.5 4.0Q248 -18 211 -18Q168 -18 142.0 7.0Q116 32 116 93Q116 120 121.5 155.5Q127 191 140 236L360 1026H495Z"/><path transform="translate(323.04 314.00) scale(0.00800 -0.00800)" d="M497 805Q438 805 391.0 770.0Q344 735 308.5 677.0Q273 619 249.5 549.5Q226 480 214.0 410.0Q202 340 202 282Q202 179 243.0 136.0Q284 93 350 93Q395 93 434.5 109.0Q474 125 510.5 164.5Q547 204 582 276H638Q589 162 540.5 97.5Q492 33 435.5 6.5Q379 -20 304 -20Q229 -20 173.5 9.5Q118 39 87.5 97.0Q57 155 57 240Q57 345 81.5 440.0Q106 535 150.5 613.5Q195 692 253.5 750.0Q312 808 381.0 840.0Q450 872 523 872Q593 872 637.0 847.5Q681 823 701.5 783.5Q722 744 722 699Q722 656 703.5 613.5Q685 571 656 547Q598 523 540.0 500.0Q482 477 423.5 455.5Q365 434 306.5 413.5Q248 393 189 374L192 446Q288 473 357.0 500.0Q426 527 471.5 553.0Q517 579 543.0 605.5Q569 632 580.0 658.5Q591 685 591 712Q591 740 580.0 760.5Q569 781 548.5 793.0Q528 805 497 805Z"/><path transform="translate(328.98 314.00) scale(0.00800 -0.00800)" d="M92 582 56 597Q97 703 145.5 762.5Q194 822 248.0 846.5Q302 871 356 871Q375 871 393.5 868.5Q412 866 430.5 862.0Q449 858 467 852L347 462H341Q385 540 435.5 613.0Q486 686 542.0 743.5Q598 801 658.0 835.0Q718 869 780 869Q863 869 894.5 833.5Q926 798 926 741Q926 709 916.0 670.0Q906 631 889 586L691 71L693 108Q726 108 766.0 122.0Q806 136 849.0 163.0Q892 190 932 227L962 196Q892 114 832.5 66.5Q773 19 723.0 -0.5Q673 -20 628 -20Q563 -20 549.0 -1.5Q535 17 557 73L768 618Q776 639 781.5 659.0Q787 679 787 696Q787 721 771.0 736.0Q755 751 713 751Q665 751 606.0 710.0Q547 669 487.5 597.0Q428 525 377.5 431.5Q327 338 295 233L224 0H89L315 746Q311 746 307.5 746.0Q304 746 300 746Q264 746 230.0 732.0Q196 718 162.0 682.5Q128 647 92 582Z"/><path transform="translate(337.08 314.00) scale(0.00800 -0.00800)" d="M458 794Q403 794 356.0 747.0Q309 700 274.5 624.0Q240 548 221.0 458.0Q202 368 202 282Q202 179 234.0 136.0Q266 93 330 93Q371 93 410.0 110.0Q449 127 487.5 167.0Q526 207 563 276H617Q565 162 514.0 97.5Q463 33 407.5 6.5Q352 -20 285 -20Q176 -20 116.5 44.0Q57 108 57 240Q57 371 95.5 485.5Q134 600 200.5 687.0Q267 774 354.5 823.0Q442 872 539 872Q628 872 672.0 833.5Q716 795 716 745Q716 706 693.0 687.0Q670 668 635 667Q620 666 602.0 686.5Q584 707 562 731Q540 755 514.5 774.5Q489 794 458 794Z"/><path transform="translate(342.69 314.00) scale(0.00800 -0.00800)" d="M497 805Q438 805 391.0 770.0Q344 735 308.5 677.0Q273 619 249.5 549.5Q226 480 214.0 410.0Q202 340 202 282Q202 179 243.0 136.0Q284 93 350 93Q395 93 434.5 109.0Q474 125 510.5 164.5Q547 204 582 276H638Q589 162 540.5 97.5Q492 33 435.5 6.5Q379 -20 304 -20Q229 -20 173.5 9.5Q118 39 87.5 97.0Q57 155 57 240Q57 345 81.5 440.0Q106 535 150.5 613.5Q195 692 253.5 750.0Q312 808 381.0 840.0Q450 872 523 872Q593 872 637.0 847.5Q681 823 701.5 783.5Q722 744 722 699Q722 656 703.5 613.5Q685 571 656 547Q598 523 540.0 500.0Q482 477 423.5 455.5Q365 434 306.5 413.5Q248 393 189 374L192 446Q288 473 357.0 500.0Q426 527 471.5 553.0Q517 579 543.0 605.5Q569 632 580.0 658.5Q591 685 591 712Q591 740 580.0 760.5Q569 781 548.5 793.0Q528 805 497 805Z"/><path transform="translate(352.24 314.00) scale(0.00800 -0.00800)" d="M65 35 325 761 354 739Q322 740 280.5 723.0Q239 706 195.0 674.5Q151 643 111 598L81 627Q150 725 207.5 778.0Q265 831 315.0 851.5Q365 872 410 872Q448 872 466.5 857.5Q485 843 476 817L216 71L199 109Q232 105 274.5 118.0Q317 131 363.5 159.0Q410 187 454 227L482 195Q412 113 353.0 66.0Q294 19 244.5 -0.5Q195 -20 150 -20Q95 -20 75.0 -6.0Q55 8 65 35ZM399 1300Q399 1332 413.5 1357.5Q428 1383 453.5 1398.0Q479 1413 513 1413Q564 1413 595.5 1380.5Q627 1348 627 1300Q627 1268 612.5 1242.5Q598 1217 572.5 1202.0Q547 1187 513 1187Q462 1187 430.5 1219.5Q399 1252 399 1300Z"/><path transform="translate(356.52 314.00) scale(0.00800 -0.00800)" d="M92 582 56 597Q97 703 145.5 762.5Q194 822 248.0 846.5Q302 871 356 871Q375 871 393.5 868.5Q412 866 430.5 862.0Q449 858 467 852L347 462H341Q385 540 435.5 613.0Q486 686 542.0 743.5Q598 801 658.0 835.0Q718 869 780 869Q863 869 894.5 833.5Q926 798 926 741Q926 709 916.0 670.0Q906 631 889 586L691 71L693 108Q726 108 766.0 122.0Q806 136 849.0 163.0Q892 190 932 227L962 196Q892 114 832.5 66.5Q773 19 723.0 -0.5Q673 -20 628 -20Q563 -20 549.0 -1.5Q535 17 557 73L768 618Q776 639 781.5 659.0Q787 679 787 696Q787 721 771.0 736.0Q755 751 713 751Q665 751 606.0 710.0Q547 669 487.5 597.0Q428 525 377.5 431.5Q327 338 295 233L224 0H89L315 746Q311 746 307.5 746.0Q304 746 300 746Q264 746 230.0 732.0Q196 718 162.0 682.5Q128 647 92 582Z"/><path transform="translate(368.24 314.00) scale(0.00800 -0.00800)" d="M88 202Q102 202 115.0 186.0Q128 170 157 125Q186 80 213.5 63.0Q241 46 269 46Q309 46 340.5 60.5Q372 75 390.0 103.5Q408 132 408 173Q408 202 398.5 232.0Q389 262 364.5 299.5Q340 337 294 389Q249 441 223.0 482.0Q197 523 186.5 558.0Q176 593 176 626Q176 694 207.0 750.0Q238 806 299.0 839.0Q360 872 448 872Q515 872 556.5 854.5Q598 837 618.0 808.0Q638 779 638 744Q638 721 628.0 702.5Q618 684 600.0 673.5Q582 663 558 663Q548 663 534.0 674.5Q520 686 493 724Q466 762 437.5 781.0Q409 800 383 800Q333 800 305.0 771.5Q277 743 277 691Q277 669 288.0 641.0Q299 613 324.5 575.0Q350 537 393 484Q437 432 463.0 387.5Q489 343 501.0 305.5Q513 268 513 234Q513 162 474.0 104.5Q435 47 368.0 13.5Q301 -20 216 -20Q143 -20 95.5 0.0Q48 20 25.0 52.0Q2 84 2 119Q2 142 13.0 161.0Q24 180 43.5 191.0Q63 202 88 202Z"/><path transform="translate(373.39 314.00) scale(0.00800 -0.00800)" d="M527 872Q607 872 664.5 837.5Q722 803 753.5 738.0Q785 673 785 580Q785 463 749.5 355.5Q714 248 651.0 163.5Q588 79 503.5 29.5Q419 -20 320 -20Q241 -20 183.0 14.5Q125 49 93.5 114.5Q62 180 62 272Q62 389 97.5 496.5Q133 604 196.0 688.5Q259 773 343.5 822.5Q428 872 527 872ZM322 47Q373 47 420.5 81.0Q468 115 508.5 173.5Q549 232 579.5 306.0Q610 380 627.0 461.0Q644 542 644 620Q644 715 615.5 760.0Q587 805 525 805Q474 805 426.5 771.0Q379 737 338.5 678.5Q298 620 267.5 546.0Q237 472 220.0 391.0Q203 310 203 232Q203 138 231.5 92.5Q260 47 322 47Z"/><path transform="translate(380.17 314.00) scale(0.00800 -0.00800)" d="M107 772 122 852H682L666 772ZM324 193Q284 -10 230.5 -149.0Q177 -288 111.5 -372.0Q46 -456 -30.0 -493.0Q-106 -530 -191 -530Q-278 -530 -321.5 -497.0Q-365 -464 -365 -413Q-365 -381 -342.5 -353.5Q-320 -326 -286 -326Q-266 -326 -248.0 -343.5Q-230 -361 -208 -387Q-186 -413 -160.5 -425.0Q-135 -437 -110 -437Q-68 -437 -31.0 -416.5Q6 -396 39.0 -341.5Q72 -287 103.0 -188.5Q134 -90 165 66L327 892Q360 1061 430.5 1178.5Q501 1296 605.0 1357.5Q709 1419 841 1419Q914 1419 964.0 1401.5Q1014 1384 1039.5 1354.5Q1065 1325 1065 1287Q1065 1253 1041.0 1228.5Q1017 1204 974 1204Q948 1204 927.5 1232.5Q907 1261 884 1286Q862 1312 833.5 1325.5Q805 1339 765 1339Q692 1339 637.0 1304.0Q582 1269 545.0 1197.5Q508 1126 486 1017Z"/><path transform="translate(384.80 314.00) scale(0.00800 -0.00800)" d="M125 772 143 852H633L617 772ZM262 211Q258 196 255.0 183.5Q252 171 250.5 161.0Q249 151 249 143Q249 127 255.0 119.0Q261 111 271 111Q292 111 329.0 136.0Q366 161 411.0 205.5Q456 250 501 310L541 284Q498 217 454.5 162.0Q411 107 369.0 66.5Q327 26 287.5 4.0Q248 -18 211 -18Q168 -18 142.0 7.0Q116 32 116 93Q116 120 121.5 155.5Q127 191 140 236L360 1026H495Z"/><path transform="translate(389.58 314.00) scale(0.00800 -0.00800)" d="M725 852H855L675 223Q669 201 666.0 183.5Q663 166 663 152Q663 116 682.0 101.0Q701 86 737 86Q790 86 841.5 122.5Q893 159 938.5 217.0Q984 275 1019.5 342.5Q1055 410 1075.0 473.0Q1095 536 1095 581Q1095 615 1079.0 644.5Q1063 674 1042.5 698.5Q1022 723 1006.0 741.0Q990 759 990 770Q990 822 1024.5 847.0Q1059 872 1099 872Q1135 872 1160.0 855.5Q1185 839 1197.5 808.0Q1210 777 1210 731Q1210 648 1182.5 547.5Q1155 447 1105.5 347.0Q1056 247 990.0 164.0Q924 81 846.5 30.5Q769 -20 686 -20Q618 -20 581.0 10.5Q544 41 544 113Q544 138 548.5 168.5Q553 199 563 235L579 295H599Q565 210 524.0 150.0Q483 90 439.5 52.5Q396 15 353.0 -2.5Q310 -20 271 -20Q205 -20 165.0 18.5Q125 57 125 129Q125 179 146 242L319 746Q315 746 311.5 746.0Q308 746 304 746Q268 746 234.0 732.0Q200 718 166.0 682.5Q132 647 96 582L60 597Q92 676 128.5 729.0Q165 782 205.0 813.0Q245 844 287.0 857.5Q329 871 371 871Q391 871 410.5 868.5Q430 866 449.5 862.0Q469 858 487 852L273 223Q267 204 264.0 188.0Q261 172 261 158Q261 122 281.0 104.0Q301 86 337 86Q389 86 441.5 136.5Q494 187 538.5 269.5Q583 352 610 449Z"/><path transform="translate(399.58 314.00) scale(0.00800 -0.00800)" d="M488 45 592 367H618Q543 256 483.0 181.5Q423 107 373.5 63.5Q324 20 282.5 1.5Q241 -17 202 -17Q148 -17 108.0 3.0Q68 23 46.0 66.5Q24 110 24 180Q24 255 53.0 345.5Q82 436 133.5 525.5Q185 615 254.5 690.0Q324 765 406.5 810.0Q489 855 578 855Q636 855 673.5 835.0Q711 815 742 774L702 720Q694 744 667.0 763.5Q640 783 597 783Q525 783 461.0 738.0Q397 693 344.0 621.0Q291 549 252.5 467.5Q214 386 193.0 311.5Q172 237 172 188Q172 145 196.0 124.0Q220 103 257 103Q290 103 341.0 132.0Q392 161 447.0 212.5Q502 264 549.5 334.5Q597 405 624 487L741 852H862H877L626 71L609 109Q642 104 684.5 117.0Q727 130 773.5 158.5Q820 187 864 227L892 195Q784 75 705.5 27.5Q627 -20 560 -20Q517 -20 497.5 -2.0Q478 16 488 45Z"/><path transform="translate(406.96 314.00) scale(0.00800 -0.00800)" d="M315 746Q311 746 307.5 746.0Q304 746 300 746Q264 746 230.0 732.0Q196 718 162.0 682.5Q128 647 92 582L56 597Q97 703 145.5 762.5Q194 822 248.0 846.5Q302 871 356 871Q375 871 393.5 868.5Q412 866 430.5 862.0Q449 858 467 852L364 517H359Q421 639 479.0 717.5Q537 796 595.0 834.0Q653 872 713 872Q770 872 796.5 844.5Q823 817 823 774Q823 742 807.0 717.0Q791 692 765.0 678.0Q739 664 708 664Q700 664 691.0 671.5Q682 679 669 698Q656 718 644.0 728.0Q632 738 616 738Q591 738 559.5 714.5Q528 691 494.0 648.5Q460 606 426.0 547.5Q392 489 361.0 418.5Q330 348 306 269L224 0H89Z"/><path transform="translate(412.91 314.00) scale(0.00800 -0.00800)" d="M497 805Q438 805 391.0 770.0Q344 735 308.5 677.0Q273 619 249.5 549.5Q226 480 214.0 410.0Q202 340 202 282Q202 179 243.0 136.0Q284 93 350 93Q395 93 434.5 109.0Q474 125 510.5 164.5Q547 204 582 276H638Q589 162 540.5 97.5Q492 33 435.5 6.5Q379 -20 304 -20Q229 -20 173.5 9.5Q118 39 87.5 97.0Q57 155 57 240Q57 345 81.5 440.0Q106 535 150.5 613.5Q195 692 253.5 750.0Q312 808 381.0 840.0Q450 872 523 872Q593 872 637.0 847.5Q681 823 701.5 783.5Q722 744 722 699Q722 656 703.5 613.5Q685 571 656 547Q598 523 540.0 500.0Q482 477 423.5 455.5Q365 434 306.5 413.5Q248 393 189 374L192 446Q288 473 357.0 500.0Q426 527 471.5 553.0Q517 579 543.0 605.5Q569 632 580.0 658.5Q591 685 591 712Q591 740 580.0 760.5Q569 781 548.5 793.0Q528 805 497 805Z"/><path transform="translate(418.84 314.00) scale(0.00800 -0.00800)" d="M-136 -299Q-39 -243 14.5 -195.0Q68 -147 89.5 -106.0Q111 -65 111 -31Q111 -4 98.0 14.0Q85 32 67.5 46.0Q50 60 37.0 71.5Q24 83 24 96Q24 133 40.5 161.5Q57 190 87.0 206.5Q117 223 158 223Q204 223 235.0 192.5Q266 162 266 105Q266 53 248.5 0.0Q231 -53 189.5 -108.0Q148 -163 75.5 -223.5Q3 -284 -108 -351Z"/><path transform="translate(426.04 314.00) scale(0.00800 -0.00800)" d="M92 582 56 597Q97 703 145.5 762.5Q194 822 248.0 846.5Q302 871 356 871Q375 871 393.5 868.5Q412 866 430.5 862.0Q449 858 467 852L347 462H341Q385 540 435.5 613.0Q486 686 542.0 743.5Q598 801 658.0 835.0Q718 869 780 869Q863 869 894.5 833.5Q926 798 926 741Q926 709 916.0 670.0Q906 631 889 586L691 71L693 108Q726 108 766.0 122.0Q806 136 849.0 163.0Q892 190 932 227L962 196Q892 114 832.5 66.5Q773 19 723.0 -0.5Q673 -20 628 -20Q563 -20 549.0 -1.5Q535 17 557 73L768 618Q776 639 781.5 659.0Q787 679 787 696Q787 721 771.0 736.0Q755 751 713 751Q665 751 606.0 710.0Q547 669 487.5 597.0Q428 525 377.5 431.5Q327 338 295 233L224 0H89L315 746Q311 746 307.5 746.0Q304 746 300 746Q264 746 230.0 732.0Q196 718 162.0 682.5Q128 647 92 582Z"/><path transform="translate(434.14 314.00) scale(0.00800 -0.00800)" d="M527 872Q607 872 664.5 837.5Q722 803 753.5 738.0Q785 673 785 580Q785 463 749.5 355.5Q714 248 651.0 163.5Q588 79 503.5 29.5Q419 -20 320 -20Q241 -20 183.0 14.5Q125 49 93.5 114.5Q62 180 62 272Q62 389 97.5 496.5Q133 604 196.0 688.5Q259 773 343.5 822.5Q428 872 527 872ZM322 47Q373 47 420.5 81.0Q468 115 508.5 173.5Q549 232 579.5 306.0Q610 380 627.0 461.0Q644 542 644 620Q644 715 615.5 760.0Q587 805 525 805Q474 805 426.5 771.0Q379 737 338.5 678.5Q298 620 267.5 546.0Q237 472 220.0 391.0Q203 310 203 232Q203 138 231.5 92.5Q260 47 322 47Z"/><path transform="translate(440.92 314.00) scale(0.00800 -0.00800)" d="M725 852H855L675 223Q669 201 666.0 183.5Q663 166 663 152Q663 116 682.0 101.0Q701 86 737 86Q790 86 841.5 122.5Q893 159 938.5 217.0Q984 275 1019.5 342.5Q1055 410 1075.0 473.0Q1095 536 1095 581Q1095 615 1079.0 644.5Q1063 674 1042.5 698.5Q1022 723 1006.0 741.0Q990 759 990 770Q990 822 1024.5 847.0Q1059 872 1099 872Q1135 872 1160.0 855.5Q1185 839 1197.5 808.0Q1210 777 1210 731Q1210 648 1182.5 547.5Q1155 447 1105.5 347.0Q1056 247 990.0 164.0Q924 81 846.5 30.5Q769 -20 686 -20Q618 -20 581.0 10.5Q544 41 544 113Q544 138 548.5 168.5Q553 199 563 235L579 295H599Q565 210 524.0 150.0Q483 90 439.5 52.5Q396 15 353.0 -2.5Q310 -20 271 -20Q205 -20 165.0 18.5Q125 57 125 129Q125 179 146 242L319 746Q315 746 311.5 746.0Q308 746 304 746Q268 746 234.0 732.0Q200 718 166.0 682.5Q132 647 96 582L60 597Q92 676 128.5 729.0Q165 782 205.0 813.0Q245 844 287.0 857.5Q329 871 371 871Q391 871 410.5 868.5Q430 866 449.5 862.0Q469 858 487 852L273 223Q267 204 264.0 188.0Q261 172 261 158Q261 122 281.0 104.0Q301 86 337 86Q389 86 441.5 136.5Q494 187 538.5 269.5Q583 352 610 449Z"/><path transform="translate(454.54 314.00) scale(0.00800 -0.00800)" d="M488 45 592 367H618Q543 256 483.0 181.5Q423 107 373.5 63.5Q324 20 282.5 1.5Q241 -17 202 -17Q148 -17 108.0 3.0Q68 23 46.0 66.5Q24 110 24 180Q24 255 53.0 345.5Q82 436 133.5 525.5Q185 615 254.5 690.0Q324 765 406.5 810.0Q489 855 578 855Q636 855 673.5 835.0Q711 815 742 774L702 720Q694 744 667.0 763.5Q640 783 597 783Q525 783 461.0 738.0Q397 693 344.0 621.0Q291 549 252.5 467.5Q214 386 193.0 311.5Q172 237 172 188Q172 145 196.0 124.0Q220 103 257 103Q290 103 341.0 132.0Q392 161 447.0 212.5Q502 264 549.5 334.5Q597 405 624 487L741 852H862H877L626 71L609 109Q642 104 684.5 117.0Q727 130 773.5 158.5Q820 187 864 227L892 195Q784 75 705.5 27.5Q627 -20 560 -20Q517 -20 497.5 -2.0Q478 16 488 45Z"/><path transform="translate(461.92 314.00) scale(0.00800 -0.00800)" d="M851 731Q851 648 822.0 547.5Q793 447 740.5 347.0Q688 247 618.0 164.0Q548 81 466.0 30.5Q384 -20 295 -20Q216 -20 169.0 21.0Q122 62 122 132Q122 171 137 214L320 746Q316 746 312.5 746.0Q309 746 305 746Q269 746 235.0 732.0Q201 718 167.0 682.5Q133 647 97 582L61 597Q93 676 129.5 729.0Q166 782 206.0 813.0Q246 844 288.0 857.5Q330 871 372 871Q392 871 411.5 868.5Q431 866 450.5 862.0Q470 858 488 852L277 233Q270 213 266.5 195.5Q263 178 263 164Q263 124 285.5 105.0Q308 86 348 86Q405 86 461.0 122.5Q517 159 566.5 217.0Q616 275 654.0 342.5Q692 410 714.0 473.0Q736 536 736 581Q736 615 720.0 644.5Q704 674 683.5 698.5Q663 723 647.0 741.0Q631 759 631 770Q631 822 665.5 847.0Q700 872 740 872Q794 872 822.5 835.5Q851 799 851 731Z"/><path transform="translate(469.00 314.00) scale(0.00800 -0.00800)" d="M488 45 592 367H618Q543 256 483.0 181.5Q423 107 373.5 63.5Q324 20 282.5 1.5Q241 -17 202 -17Q148 -17 108.0 3.0Q68 23 46.0 66.5Q24 110 24 180Q24 255 53.0 345.5Q82 436 133.5 525.5Q185 615 254.5 690.0Q324 765 406.5 810.0Q489 855 578 855Q636 855 673.5 835.0Q711 815 742 774L702 720Q694 744 667.0 763.5Q640 783 597 783Q525 783 461.0 738.0Q397 693 344.0 621.0Q291 549 252.5 467.5Q214 386 193.0 311.5Q172 237 172 188Q172 145 196.0 124.0Q220 103 257 103Q290 103 341.0 132.0Q392 161 447.0 212.5Q502 264 549.5 334.5Q597 405 624 487L741 852H862H877L626 71L609 109Q642 104 684.5 117.0Q727 130 773.5 158.5Q820 187 864 227L892 195Q784 75 705.5 27.5Q627 -20 560 -20Q517 -20 497.5 -2.0Q478 16 488 45Z"/><path transform="translate(476.39 314.00) scale(0.00800 -0.00800)" d="M65 35 325 761 354 739Q322 740 280.5 723.0Q239 706 195.0 674.5Q151 643 111 598L81 627Q150 725 207.5 778.0Q265 831 315.0 851.5Q365 872 410 872Q448 872 466.5 857.5Q485 843 476 817L216 71L199 109Q232 105 274.5 118.0Q317 131 363.5 159.0Q410 187 454 227L482 195Q412 113 353.0 66.0Q294 19 244.5 -0.5Q195 -20 150 -20Q95 -20 75.0 -6.0Q55 8 65 35ZM399 1300Q399 1332 413.5 1357.5Q428 1383 453.5 1398.0Q479 1413 513 1413Q564 1413 595.5 1380.5Q627 1348 627 1300Q627 1268 612.5 1242.5Q598 1217 572.5 1202.0Q547 1187 513 1187Q462 1187 430.5 1219.5Q399 1252 399 1300Z"/><path transform="translate(480.67 314.00) scale(0.00800 -0.00800)" d="M404 1268Q386 1285 369.0 1298.5Q352 1312 331.5 1323.5Q311 1335 282 1345L290 1370L559 1419H582L179 81L167 109Q200 105 242.5 118.0Q285 131 331.5 159.0Q378 187 422 227L450 195Q380 113 321.0 66.0Q262 19 212.5 -0.5Q163 -20 118 -20Q71 -20 47.5 -7.0Q24 6 33 35Z"/><path transform="translate(484.59 314.00) scale(0.00800 -0.00800)" d="M488 45 592 367H618Q543 256 483.0 181.5Q423 107 373.5 63.5Q324 20 282.5 1.5Q241 -17 202 -17Q148 -17 108.0 3.0Q68 23 46.0 66.5Q24 110 24 180Q24 255 53.0 345.5Q82 436 133.5 525.5Q185 615 254.5 690.0Q324 765 406.5 810.0Q489 855 578 855Q636 855 673.5 835.0Q711 815 742 774L702 720Q694 744 667.0 763.5Q640 783 597 783Q525 783 461.0 738.0Q397 693 344.0 621.0Q291 549 252.5 467.5Q214 386 193.0 311.5Q172 237 172 188Q172 145 196.0 124.0Q220 103 257 103Q290 103 341.0 132.0Q392 161 447.0 212.5Q502 264 549.5 334.5Q597 405 624 487L741 852H862H877L626 71L609 109Q642 104 684.5 117.0Q727 130 773.5 158.5Q820 187 864 227L892 195Q784 75 705.5 27.5Q627 -20 560 -20Q517 -20 497.5 -2.0Q478 16 488 45Z"/><path transform="translate(491.97 314.00) scale(0.00800 -0.00800)" d="M226 317Q213 273 207.0 235.5Q201 198 201 169Q201 107 227.5 76.5Q254 46 306 46Q360 46 415.5 80.5Q471 115 521.0 173.0Q571 231 610.5 304.0Q650 377 673.0 454.5Q696 532 696 605Q696 673 669.0 708.0Q642 743 587 743Q551 743 510.0 722.0Q469 701 428.0 664.0Q387 627 350.0 579.0Q313 531 284.5 476.5Q256 422 240 366ZM378 1267Q359 1284 341.0 1297.5Q323 1311 302.0 1322.5Q281 1334 252 1344L259 1369L526 1419H549L282 507L273 543Q345 658 412.0 730.5Q479 803 541.0 837.5Q603 872 658 872Q753 872 800.5 810.0Q848 748 848 651Q848 550 817.5 452.0Q787 354 733.5 269.0Q680 184 611.0 119.0Q542 54 465.0 17.0Q388 -20 310 -20Q203 -20 141.5 45.0Q80 110 80 216Q80 246 85.5 278.5Q91 311 101 345Z"/><path transform="translate(499.07 314.00) scale(0.00800 -0.00800)" d="M404 1268Q386 1285 369.0 1298.5Q352 1312 331.5 1323.5Q311 1335 282 1345L290 1370L559 1419H582L179 81L167 109Q200 105 242.5 118.0Q285 131 331.5 159.0Q378 187 422 227L450 195Q380 113 321.0 66.0Q262 19 212.5 -0.5Q163 -20 118 -20Q71 -20 47.5 -7.0Q24 6 33 35Z"/><path transform="translate(502.99 314.00) scale(0.00800 -0.00800)" d="M497 805Q438 805 391.0 770.0Q344 735 308.5 677.0Q273 619 249.5 549.5Q226 480 214.0 410.0Q202 340 202 282Q202 179 243.0 136.0Q284 93 350 93Q395 93 434.5 109.0Q474 125 510.5 164.5Q547 204 582 276H638Q589 162 540.5 97.5Q492 33 435.5 6.5Q379 -20 304 -20Q229 -20 173.5 9.5Q118 39 87.5 97.0Q57 155 57 240Q57 345 81.5 440.0Q106 535 150.5 613.5Q195 692 253.5 750.0Q312 808 381.0 840.0Q450 872 523 872Q593 872 637.0 847.5Q681 823 701.5 783.5Q722 744 722 699Q722 656 703.5 613.5Q685 571 656 547Q598 523 540.0 500.0Q482 477 423.5 455.5Q365 434 306.5 413.5Q248 393 189 374L192 446Q288 473 357.0 500.0Q426 527 471.5 553.0Q517 579 543.0 605.5Q569 632 580.0 658.5Q591 685 591 712Q591 740 580.0 760.5Q569 781 548.5 793.0Q528 805 497 805Z"/><path transform="translate(512.54 314.00) scale(0.00800 -0.00800)" d="M125 772 143 852H633L617 772ZM262 211Q258 196 255.0 183.5Q252 171 250.5 161.0Q249 151 249 143Q249 127 255.0 119.0Q261 111 271 111Q292 111 329.0 136.0Q366 161 411.0 205.5Q456 250 501 310L541 284Q498 217 454.5 162.0Q411 107 369.0 66.5Q327 26 287.5 4.0Q248 -18 211 -18Q168 -18 142.0 7.0Q116 32 116 93Q116 120 121.5 155.5Q127 191 140 236L360 1026H495Z"/><path transform="translate(517.32 314.00) scale(0.00800 -0.00800)" d="M527 872Q607 872 664.5 837.5Q722 803 753.5 738.0Q785 673 785 580Q785 463 749.5 355.5Q714 248 651.0 163.5Q588 79 503.5 29.5Q419 -20 320 -20Q241 -20 183.0 14.5Q125 49 93.5 114.5Q62 180 62 272Q62 389 97.5 496.5Q133 604 196.0 688.5Q259 773 343.5 822.5Q428 872 527 872ZM322 47Q373 47 420.5 81.0Q468 115 508.5 173.5Q549 232 579.5 306.0Q610 380 627.0 461.0Q644 542 644 620Q644 715 615.5 760.0Q587 805 525 805Q474 805 426.5 771.0Q379 737 338.5 678.5Q298 620 267.5 546.0Q237 472 220.0 391.0Q203 310 203 232Q203 138 231.5 92.5Q260 47 322 47Z"/><path transform="translate(527.72 314.00) scale(0.00800 -0.00800)" d="M497 805Q438 805 391.0 770.0Q344 735 308.5 677.0Q273 619 249.5 549.5Q226 480 214.0 410.0Q202 340 202 282Q202 179 243.0 136.0Q284 93 350 93Q395 93 434.5 109.0Q474 125 510.5 164.5Q547 204 582 276H638Q589 162 540.5 97.5Q492 33 435.5 6.5Q379 -20 304 -20Q229 -20 173.5 9.5Q118 39 87.5 97.0Q57 155 57 240Q57 345 81.5 440.0Q106 535 150.5 613.5Q195 692 253.5 750.0Q312 808 381.0 840.0Q450 872 523 872Q593 872 637.0 847.5Q681 823 701.5 783.5Q722 744 722 699Q722 656 703.5 613.5Q685 571 656 547Q598 523 540.0 500.0Q482 477 423.5 455.5Q365 434 306.5 413.5Q248 393 189 374L192 446Q288 473 357.0 500.0Q426 527 471.5 553.0Q517 579 543.0 605.5Q569 632 580.0 658.5Q591 685 591 712Q591 740 580.0 760.5Q569 781 548.5 793.0Q528 805 497 805Z"/><path transform="translate(533.66 314.00) scale(0.00800 -0.00800)" d="M851 731Q851 648 822.0 547.5Q793 447 740.5 347.0Q688 247 618.0 164.0Q548 81 466.0 30.5Q384 -20 295 -20Q216 -20 169.0 21.0Q122 62 122 132Q122 171 137 214L320 746Q316 746 312.5 746.0Q309 746 305 746Q269 746 235.0 732.0Q201 718 167.0 682.5Q133 647 97 582L61 597Q93 676 129.5 729.0Q166 782 206.0 813.0Q246 844 288.0 857.5Q330 871 372 871Q392 871 411.5 868.5Q431 866 450.5 862.0Q470 858 488 852L277 233Q270 213 266.5 195.5Q263 178 263 164Q263 124 285.5 105.0Q308 86 348 86Q405 86 461.0 122.5Q517 159 566.5 217.0Q616 275 654.0 342.5Q692 410 714.0 473.0Q736 536 736 581Q736 615 720.0 644.5Q704 674 683.5 698.5Q663 723 647.0 741.0Q631 759 631 770Q631 822 665.5 847.0Q700 872 740 872Q794 872 822.5 835.5Q851 799 851 731Z"/><path transform="translate(540.74 314.00) scale(0.00800 -0.00800)" d="M497 805Q438 805 391.0 770.0Q344 735 308.5 677.0Q273 619 249.5 549.5Q226 480 214.0 410.0Q202 340 202 282Q202 179 243.0 136.0Q284 93 350 93Q395 93 434.5 109.0Q474 125 510.5 164.5Q547 204 582 276H638Q589 162 540.5 97.5Q492 33 435.5 6.5Q379 -20 304 -20Q229 -20 173.5 9.5Q118 39 87.5 97.0Q57 155 57 240Q57 345 81.5 440.0Q106 535 150.5 613.5Q195 692 253.5 750.0Q312 808 381.0 840.0Q450 872 523 872Q593 872 637.0 847.5Q681 823 701.5 783.5Q722 744 722 699Q722 656 703.5 613.5Q685 571 656 547Q598 523 540.0 500.0Q482 477 423.5 455.5Q365 434 306.5 413.5Q248 393 189 374L192 446Q288 473 357.0 500.0Q426 527 471.5 553.0Q517 579 543.0 605.5Q569 632 580.0 658.5Q591 685 591 712Q591 740 580.0 760.5Q569 781 548.5 793.0Q528 805 497 805Z"/><path transform="translate(546.68 314.00) scale(0.00800 -0.00800)" d="M315 746Q311 746 307.5 746.0Q304 746 300 746Q264 746 230.0 732.0Q196 718 162.0 682.5Q128 647 92 582L56 597Q97 703 145.5 762.5Q194 822 248.0 846.5Q302 871 356 871Q375 871 393.5 868.5Q412 866 430.5 862.0Q449 858 467 852L364 517H359Q421 639 479.0 717.5Q537 796 595.0 834.0Q653 872 713 872Q770 872 796.5 844.5Q823 817 823 774Q823 742 807.0 717.0Q791 692 765.0 678.0Q739 664 708 664Q700 664 691.0 671.5Q682 679 669 698Q656 718 644.0 728.0Q632 738 616 738Q591 738 559.5 714.5Q528 691 494.0 648.5Q460 606 426.0 547.5Q392 489 361.0 418.5Q330 348 306 269L224 0H89Z"/><path transform="translate(552.62 314.00) scale(0.00800 -0.00800)" d="M107 513H66Q79 617 100.5 686.5Q122 756 151.5 796.5Q181 837 219.0 854.5Q257 872 303 872Q326 872 342.5 861.5Q359 851 372.5 823.0Q386 795 397 743Q409 691 423.0 590.5Q437 490 457.0 327.5Q477 165 505 -74L378 -169Q360 -10 345.5 108.5Q331 227 320.0 314.0Q309 401 300.0 466.0Q291 531 283 582Q272 651 265.0 683.0Q258 715 251.5 724.0Q245 733 234 733Q211 733 188.5 714.0Q166 695 145.5 647.0Q125 599 107 513ZM424 -69 457 -33Q538 90 590.5 194.0Q643 298 673.5 398.0Q704 498 716.0 608.0Q728 718 727 854Q759 865 784.5 868.5Q810 872 834 872Q860 872 873.5 861.0Q887 850 887 825Q887 773 876.5 712.0Q866 651 842.5 578.5Q819 506 780.5 419.5Q742 333 686.5 229.5Q631 126 556 2Q431 -204 333.0 -320.0Q235 -436 151.0 -483.0Q67 -530 -18 -530Q-91 -530 -123.5 -497.5Q-156 -465 -156 -412Q-156 -371 -132.5 -345.0Q-109 -319 -75 -319Q-66 -319 -55.0 -327.0Q-44 -335 -16 -364Q13 -392 36.5 -402.5Q60 -413 82 -413Q119 -413 176.0 -370.0Q233 -327 298.0 -249.5Q363 -172 424 -69Z"/><path transform="translate(559.80 314.00) scale(0.00800 -0.00800)" d="M527 872Q607 872 664.5 837.5Q722 803 753.5 738.0Q785 673 785 580Q785 463 749.5 355.5Q714 248 651.0 163.5Q588 79 503.5 29.5Q419 -20 320 -20Q241 -20 183.0 14.5Q125 49 93.5 114.5Q62 180 62 272Q62 389 97.5 496.5Q133 604 196.0 688.5Q259 773 343.5 822.5Q428 872 527 872ZM322 47Q373 47 420.5 81.0Q468 115 508.5 173.5Q549 232 579.5 306.0Q610 380 627.0 461.0Q644 542 644 620Q644 715 615.5 760.0Q587 805 525 805Q474 805 426.5 771.0Q379 737 338.5 678.5Q298 620 267.5 546.0Q237 472 220.0 391.0Q203 310 203 232Q203 138 231.5 92.5Q260 47 322 47Z"/><path transform="translate(566.58 314.00) scale(0.00800 -0.00800)" d="M92 582 56 597Q97 703 145.5 762.5Q194 822 248.0 846.5Q302 871 356 871Q375 871 393.5 868.5Q412 866 430.5 862.0Q449 858 467 852L347 462H341Q385 540 435.5 613.0Q486 686 542.0 743.5Q598 801 658.0 835.0Q718 869 780 869Q863 869 894.5 833.5Q926 798 926 741Q926 709 916.0 670.0Q906 631 889 586L691 71L693 108Q726 108 766.0 122.0Q806 136 849.0 163.0Q892 190 932 227L962 196Q892 114 832.5 66.5Q773 19 723.0 -0.5Q673 -20 628 -20Q563 -20 549.0 -1.5Q535 17 557 73L768 618Q776 639 781.5 659.0Q787 679 787 696Q787 721 771.0 736.0Q755 751 713 751Q665 751 606.0 710.0Q547 669 487.5 597.0Q428 525 377.5 431.5Q327 338 295 233L224 0H89L315 746Q311 746 307.5 746.0Q304 746 300 746Q264 746 230.0 732.0Q196 718 162.0 682.5Q128 647 92 582Z"/><path transform="translate(574.68 314.00) scale(0.00800 -0.00800)" d="M497 805Q438 805 391.0 770.0Q344 735 308.5 677.0Q273 619 249.5 549.5Q226 480 214.0 410.0Q202 340 202 282Q202 179 243.0 136.0Q284 93 350 93Q395 93 434.5 109.0Q474 125 510.5 164.5Q547 204 582 276H638Q589 162 540.5 97.5Q492 33 435.5 6.5Q379 -20 304 -20Q229 -20 173.5 9.5Q118 39 87.5 97.0Q57 155 57 240Q57 345 81.5 440.0Q106 535 150.5 613.5Q195 692 253.5 750.0Q312 808 381.0 840.0Q450 872 523 872Q593 872 637.0 847.5Q681 823 701.5 783.5Q722 744 722 699Q722 656 703.5 613.5Q685 571 656 547Q598 523 540.0 500.0Q482 477 423.5 455.5Q365 434 306.5 413.5Q248 393 189 374L192 446Q288 473 357.0 500.0Q426 527 471.5 553.0Q517 579 543.0 605.5Q569 632 580.0 658.5Q591 685 591 712Q591 740 580.0 760.5Q569 781 548.5 793.0Q528 805 497 805Z"/><path transform="translate(580.61 314.00) scale(0.00800 -0.00800)" d="M157 224Q205 224 234.5 195.0Q264 166 264 124Q264 87 246.0 55.5Q228 24 197.0 5.0Q166 -14 125 -14Q77 -14 47.5 15.0Q18 44 18 86Q18 123 36.0 154.5Q54 186 85.5 205.0Q117 224 157 224Z"/></g></svg>