<svg xmlns="http://www.w3.org/2000/svg" width="760" height="360" viewBox="0 0 760 360">
<defs>
<linearGradient id="card" x1="0" y1="0" x2="0" y2="1"><stop offset="0" stop-color="#fffdf8"/><stop offset="1" stop-color="#f3ede1"/></linearGradient>
<style>.sd{font-family:'Fraunces',Georgia,serif;}.st{font-family:'Newsreader',Georgia,serif;}</style>
</defs>
<rect x="4" y="4" width="752" height="352" rx="14" fill="url(#card)" stroke="#d9d1c2" stroke-width="1.2"/>
<g fill="#9a3415"><path transform="translate(34.00 46.00) scale(0.00650 -0.00650)" d="M444 749H751Q817 749 845.0 776.0Q873 803 886 878Q891 899 901.5 909.0Q912 919 927 920Q960 922 970 883L1051 577Q1057 555 1051.5 541.5Q1046 528 1028 523Q1012 518 997.0 522.5Q982 527 972 543Q941 593 915.0 619.5Q889 646 858.0 656.0Q827 666 781 666H444ZM98 1361Q98 1380 110.0 1390.0Q122 1400 148 1400H926Q960 1400 982.5 1409.5Q1005 1419 1024.0 1428.5Q1043 1438 1065 1438Q1090 1438 1103.5 1423.5Q1117 1409 1126 1375L1208 1079Q1214 1057 1207.5 1043.0Q1201 1029 1183 1023Q1162 1016 1145.0 1024.0Q1128 1032 1117 1053Q1074 1136 1037.5 1187.5Q1001 1239 965.5 1267.0Q930 1295 891.0 1305.0Q852 1315 802 1315H547V173Q547 129 572.5 107.0Q598 85 648 85H828Q895 85 946.0 109.0Q997 133 1047.0 202.0Q1097 271 1159 406Q1168 425 1182.5 432.5Q1197 440 1215 436Q1235 433 1244.0 418.0Q1253 403 1247 379L1158 29Q1148 -4 1134.5 -19.5Q1121 -35 1093 -35Q1073 -35 1054.5 -26.0Q1036 -17 1012.5 -8.5Q989 0 955 0H148Q122 0 110.0 10.5Q98 21 98 39Q98 70 134 81L195 94Q219 100 231.0 112.5Q243 125 243 146V1254Q243 1275 231.0 1287.5Q219 1300 195 1306L134 1319Q98 1330 98 1361Z"/><path transform="translate(44.92 46.00) scale(0.00650 -0.00650)" d="M1247 174Q1270 142 1287.0 124.5Q1304 107 1324.0 98.0Q1344 89 1374 81Q1394 74 1404.5 64.0Q1415 54 1415 39Q1415 21 1402.5 10.5Q1390 0 1364 0H833Q808 0 795.0 10.5Q782 21 782 38Q782 55 793.0 65.5Q804 76 835 84Q873 92 889.5 105.5Q906 119 904.5 138.5Q903 158 885 185L192 1235Q174 1262 158.5 1278.0Q143 1294 125.0 1303.0Q107 1312 81 1319Q56 1328 47.5 1337.5Q39 1347 39 1361Q39 1380 52.0 1390.0Q65 1400 91 1400H609Q636 1400 647.0 1389.5Q658 1379 658 1361Q658 1346 651.0 1336.0Q644 1326 627 1322L572 1312Q536 1305 530.5 1287.5Q525 1270 546 1238ZM805 702 713 734 1038 1185Q1074 1237 1066.0 1267.0Q1058 1297 1011 1309L964 1320Q949 1325 939.5 1335.5Q930 1346 930 1361Q930 1379 942.0 1389.5Q954 1400 980 1400H1310Q1361 1400 1361 1362Q1361 1347 1348.5 1335.5Q1336 1324 1309 1314Q1258 1297 1223.5 1262.5Q1189 1228 1140 1161ZM620 728 712 690 359 208Q322 157 330.0 128.0Q338 99 384 87L428 78Q445 71 453.5 62.5Q462 54 462 39Q462 21 449.5 10.5Q437 0 412 0H80Q55 0 42.0 10.5Q29 21 29 39Q29 53 38.5 63.0Q48 73 74 83Q118 99 148.5 119.5Q179 140 205.5 169.0Q232 198 262 239Z"/><path transform="translate(56.73 46.00) scale(0.00650 -0.00650)" d="M377 706H1227V618H377ZM548 146Q548 125 560.5 112.5Q573 100 596 94L657 81Q694 70 694 39Q694 21 681.5 10.5Q669 0 643 0H149Q123 0 110.5 10.5Q98 21 98 39Q98 70 135 81L196 94Q220 100 232.0 112.5Q244 125 244 146V1254Q244 1275 232.0 1287.5Q220 1300 196 1306L135 1319Q98 1330 98 1361Q98 1380 110.5 1390.0Q123 1400 149 1400H643Q669 1400 681.5 1390.0Q694 1380 694 1361Q694 1330 657 1319L596 1306Q573 1300 560.5 1287.5Q548 1275 548 1254ZM1423 146Q1423 125 1435.0 112.5Q1447 100 1470 94L1532 81Q1568 70 1568 39Q1568 21 1556.0 10.5Q1544 0 1518 0H1024Q998 0 985.5 10.5Q973 21 973 39Q973 70 1009 81L1071 94Q1095 100 1107.0 112.5Q1119 125 1119 146V1254Q1119 1275 1107.0 1287.5Q1095 1300 1071 1306L1009 1319Q973 1330 973 1361Q973 1380 985.5 1390.0Q998 1400 1024 1400H1518Q1544 1400 1556.0 1390.0Q1568 1380 1568 1361Q1568 1330 1532 1319L1470 1306Q1447 1300 1435.0 1287.5Q1423 1275 1423 1254Z"/><path transform="translate(70.06 46.00) scale(0.00650 -0.00650)" d="M547 146Q547 125 559.0 112.5Q571 100 594 94L656 81Q692 70 692 39Q692 21 680.0 10.5Q668 0 642 0H148Q122 0 109.5 10.5Q97 21 97 39Q97 70 133 81L195 94Q219 100 231.0 112.5Q243 125 243 146V1254Q243 1275 231.0 1287.5Q219 1300 195 1306L133 1319Q97 1330 97 1361Q97 1380 109.5 1390.0Q122 1400 148 1400H642Q668 1400 680.0 1390.0Q692 1380 692 1361Q692 1330 656 1319L594 1306Q571 1300 559.0 1287.5Q547 1275 547 1254Z"/><path transform="translate(77.69 46.00) scale(0.00650 -0.00650)" d="M1346 337Q1346 188 1218.0 94.0Q1090 0 836 0H148Q122 0 109.5 10.5Q97 21 97 39Q97 70 134 81L195 94Q219 100 231.0 113.0Q243 126 243 148V1254Q243 1275 231.5 1287.5Q220 1300 195 1306L134 1319Q97 1330 97 1361Q97 1380 109.5 1390.0Q122 1400 148 1400H678Q865 1400 996.5 1349.0Q1128 1298 1197.0 1207.5Q1266 1117 1266 997Q1266 897 1210.0 818.5Q1154 740 1045.0 695.0Q936 650 778 650L831 676Q986 676 1102.0 632.5Q1218 589 1282.0 512.5Q1346 436 1346 337ZM724 618H471V687H706Q795 687 856.0 721.0Q917 755 948.0 821.0Q979 887 979 981Q979 1084 938.5 1160.5Q898 1237 821.5 1279.5Q745 1322 637 1322H546V165Q546 121 573.5 99.5Q601 78 654 78H769Q857 78 918.5 111.0Q980 144 1011.0 204.0Q1042 264 1042 345Q1042 469 961.0 543.5Q880 618 724 618Z"/><path transform="translate(89.26 46.00) scale(0.00650 -0.00650)" d="M547 146Q547 125 559.0 112.5Q571 100 594 94L656 81Q692 70 692 39Q692 21 680.0 10.5Q668 0 642 0H148Q122 0 109.5 10.5Q97 21 97 39Q97 70 133 81L195 94Q219 100 231.0 112.5Q243 125 243 146V1254Q243 1275 231.0 1287.5Q219 1300 195 1306L133 1319Q97 1330 97 1361Q97 1380 109.5 1390.0Q122 1400 148 1400H642Q668 1400 680.0 1390.0Q692 1380 692 1361Q692 1330 656 1319L594 1306Q571 1300 559.0 1287.5Q547 1275 547 1254Z"/><path transform="translate(96.89 46.00) scale(0.00650 -0.00650)" d="M315 1400H1051Q1085 1400 1107.5 1409.0Q1130 1418 1148.0 1426.5Q1166 1435 1184 1435Q1211 1435 1225.5 1421.5Q1240 1408 1249 1374L1315 1040Q1320 1016 1311.5 1000.5Q1303 985 1283 981Q1264 977 1249.5 984.5Q1235 992 1224 1013Q1170 1138 1129.5 1202.0Q1089 1266 1049.5 1289.0Q1010 1312 957 1312H836V146Q836 125 848.0 112.5Q860 100 883 94L945 81Q981 70 981 39Q981 0 931 0H437Q411 0 398.5 10.5Q386 21 386 39Q386 70 422 81L484 94Q508 100 520.0 112.5Q532 125 532 146V1312H410Q358 1312 318.5 1288.0Q279 1264 238.5 1200.0Q198 1136 143 1013Q133 992 118.0 984.5Q103 977 84 981Q64 985 56.0 1000.5Q48 1016 52 1040L118 1374Q127 1408 141.5 1421.5Q156 1435 183 1435Q201 1435 218.5 1426.5Q236 1418 258.5 1409.0Q281 1400 315 1400Z"/><path transform="translate(113.46 46.00) scale(0.00650 -0.00650)" d="M1322 377Q1319 302 1280.0 228.5Q1241 155 1168.5 95.0Q1096 35 994.5 -0.5Q893 -36 766 -36Q552 -36 397.0 56.5Q242 149 158.0 312.5Q74 476 74 689Q74 851 124.5 986.5Q175 1122 265.5 1222.5Q356 1323 479.0 1378.0Q602 1433 748 1433Q847 1433 910.0 1413.0Q973 1393 1009.0 1373.0Q1045 1353 1063 1353Q1086 1353 1101.0 1371.0Q1116 1389 1131.0 1407.0Q1146 1425 1168 1425Q1183 1425 1193.5 1415.5Q1204 1406 1211 1382L1315 1027Q1321 1007 1311.0 991.5Q1301 976 1281 972Q1261 968 1245.0 976.0Q1229 984 1219 1006Q1165 1129 1099.0 1202.5Q1033 1276 956.5 1308.0Q880 1340 792 1340Q703 1340 628.0 1300.0Q553 1260 498.5 1184.0Q444 1108 414.0 1001.0Q384 894 384 760Q384 553 446.5 410.5Q509 268 617.5 195.0Q726 122 865 122Q1001 122 1100.0 190.0Q1199 258 1249 381Q1259 401 1270.5 408.0Q1282 415 1296 412Q1309 410 1315.5 401.0Q1322 392 1322 377Z"/><path transform="translate(135.31 46.00) scale(0.00650 -0.00650)" d="M283 337Q235 337 196.5 361.0Q158 385 135.0 425.0Q112 465 112 512Q112 560 135.0 599.5Q158 639 196.5 662.5Q235 686 283 686Q331 686 370.0 662.5Q409 639 431.5 599.5Q454 560 454 512Q454 465 431.5 425.0Q409 385 370.0 361.0Q331 337 283 337Z"/><path transform="translate(151.87 46.00) scale(0.00650 -0.00650)" d="M315 1400H1051Q1085 1400 1107.5 1409.0Q1130 1418 1148.0 1426.5Q1166 1435 1184 1435Q1211 1435 1225.5 1421.5Q1240 1408 1249 1374L1315 1040Q1320 1016 1311.5 1000.5Q1303 985 1283 981Q1264 977 1249.5 984.5Q1235 992 1224 1013Q1170 1138 1129.5 1202.0Q1089 1266 1049.5 1289.0Q1010 1312 957 1312H836V146Q836 125 848.0 112.5Q860 100 883 94L945 81Q981 70 981 39Q981 0 931 0H437Q411 0 398.5 10.5Q386 21 386 39Q386 70 422 81L484 94Q508 100 520.0 112.5Q532 125 532 146V1312H410Q358 1312 318.5 1288.0Q279 1264 238.5 1200.0Q198 1136 143 1013Q133 992 118.0 984.5Q103 977 84 981Q64 985 56.0 1000.5Q48 1016 52 1040L118 1374Q127 1408 141.5 1421.5Q156 1435 183 1435Q201 1435 218.5 1426.5Q236 1418 258.5 1409.0Q281 1400 315 1400Z"/><path transform="translate(163.25 46.00) scale(0.00650 -0.00650)" d="M377 706H1227V618H377ZM548 146Q548 125 560.5 112.5Q573 100 596 94L657 81Q694 70 694 39Q694 21 681.5 10.5Q669 0 643 0H149Q123 0 110.5 10.5Q98 21 98 39Q98 70 135 81L196 94Q220 100 232.0 112.5Q244 125 244 146V1254Q244 1275 232.0 1287.5Q220 1300 196 1306L135 1319Q98 1330 98 1361Q98 1380 110.5 1390.0Q123 1400 149 1400H643Q669 1400 681.5 1390.0Q694 1380 694 1361Q694 1330 657 1319L596 1306Q573 1300 560.5 1287.5Q548 1275 548 1254ZM1423 146Q1423 125 1435.0 112.5Q1447 100 1470 94L1532 81Q1568 70 1568 39Q1568 21 1556.0 10.5Q1544 0 1518 0H1024Q998 0 985.5 10.5Q973 21 973 39Q973 70 1009 81L1071 94Q1095 100 1107.0 112.5Q1119 125 1119 146V1254Q1119 1275 1107.0 1287.5Q1095 1300 1071 1306L1009 1319Q973 1330 973 1361Q973 1380 985.5 1390.0Q998 1400 1024 1400H1518Q1544 1400 1556.0 1390.0Q1568 1380 1568 1361Q1568 1330 1532 1319L1470 1306Q1447 1300 1435.0 1287.5Q1423 1275 1423 1254Z"/><path transform="translate(176.59 46.00) scale(0.00650 -0.00650)" d="M444 749H751Q817 749 845.0 776.0Q873 803 886 878Q891 899 901.5 909.0Q912 919 927 920Q960 922 970 883L1051 577Q1057 555 1051.5 541.5Q1046 528 1028 523Q1012 518 997.0 522.5Q982 527 972 543Q941 593 915.0 619.5Q889 646 858.0 656.0Q827 666 781 666H444ZM98 1361Q98 1380 110.0 1390.0Q122 1400 148 1400H926Q960 1400 982.5 1409.5Q1005 1419 1024.0 1428.5Q1043 1438 1065 1438Q1090 1438 1103.5 1423.5Q1117 1409 1126 1375L1208 1079Q1214 1057 1207.5 1043.0Q1201 1029 1183 1023Q1162 1016 1145.0 1024.0Q1128 1032 1117 1053Q1074 1136 1037.5 1187.5Q1001 1239 965.5 1267.0Q930 1295 891.0 1305.0Q852 1315 802 1315H547V173Q547 129 572.5 107.0Q598 85 648 85H828Q895 85 946.0 109.0Q997 133 1047.0 202.0Q1097 271 1159 406Q1168 425 1182.5 432.5Q1197 440 1215 436Q1235 433 1244.0 418.0Q1253 403 1247 379L1158 29Q1148 -4 1134.5 -19.5Q1121 -35 1093 -35Q1073 -35 1054.5 -26.0Q1036 -17 1012.5 -8.5Q989 0 955 0H148Q122 0 110.0 10.5Q98 21 98 39Q98 70 134 81L195 94Q219 100 231.0 112.5Q243 125 243 146V1254Q243 1275 231.0 1287.5Q219 1300 195 1306L134 1319Q98 1330 98 1361Z"/><path transform="translate(192.70 46.00) scale(0.00650 -0.00650)" d="M879 1400Q914 1400 937.5 1409.0Q961 1418 979.5 1426.5Q998 1435 1016 1435Q1042 1435 1055.5 1421.5Q1069 1408 1078 1375L1161 1069Q1167 1049 1156.5 1036.0Q1146 1023 1127 1020Q1111 1017 1095.5 1023.0Q1080 1029 1070 1051Q1016 1159 970.0 1216.0Q924 1273 874.5 1294.0Q825 1315 762 1315H547V146Q547 125 559.0 111.5Q571 98 597 94L691 82Q713 78 722.0 68.0Q731 58 731 39Q731 21 719.0 10.5Q707 0 680 0H148Q122 0 110.0 10.5Q98 21 98 39Q98 70 134 81L195 94Q219 100 231.0 112.5Q243 125 243 146V1254Q243 1275 231.0 1287.5Q219 1300 195 1306L134 1319Q98 1330 98 1361Q98 1380 110.0 1390.0Q122 1400 148 1400ZM435 716H744Q811 716 840.5 743.0Q870 770 884 848Q889 867 899.0 875.5Q909 884 924 885Q959 887 968 850L1044 542Q1049 520 1042.5 508.0Q1036 496 1020 490Q1004 485 989.5 490.5Q975 496 962 513Q932 561 907.0 586.5Q882 612 852.0 622.0Q822 632 775 632H435Z"/><path transform="translate(202.99 46.00) scale(0.00650 -0.00650)" d="M781 1432Q943 1432 1074.0 1378.0Q1205 1324 1299.0 1225.5Q1393 1127 1443.5 992.0Q1494 857 1494 694Q1494 536 1444.0 402.5Q1394 269 1300.5 171.5Q1207 74 1077.0 20.0Q947 -34 787 -34Q626 -34 495.0 20.0Q364 74 270.0 172.5Q176 271 125.5 407.0Q75 543 75 707Q75 864 125.5 996.5Q176 1129 269.0 1227.0Q362 1325 492.0 1378.5Q622 1432 781 1432ZM1182 509Q1182 644 1157.5 768.0Q1133 892 1089.0 996.5Q1045 1101 986.5 1178.5Q928 1256 858.5 1299.5Q789 1343 714 1343Q616 1343 543.0 1290.0Q470 1237 429.5 1136.0Q389 1035 389 892Q389 757 413.5 632.0Q438 507 482.0 402.0Q526 297 584.5 219.0Q643 141 712.5 97.5Q782 54 857 54Q957 54 1029.5 107.5Q1102 161 1142.0 262.0Q1182 363 1182 509Z"/><path transform="translate(215.70 46.00) scale(0.00650 -0.00650)" d="M1337 917Q1337 821 1293.5 742.0Q1250 663 1170.5 610.5Q1091 558 981 538Q945 532 913.0 525.0Q881 518 848.5 513.0Q816 508 777 508Q711 508 654.5 517.0Q598 526 551.5 543.0Q505 560 469 583L476 659Q506 638 544.0 623.5Q582 609 626.5 601.5Q671 594 721 594Q863 594 943.5 674.0Q1024 754 1024 912Q1024 1031 975.5 1123.0Q927 1215 839.0 1268.0Q751 1321 634 1321H547V148Q547 126 557.5 113.5Q568 101 590 94L661 81Q682 74 689.5 64.0Q697 54 697 39Q697 0 646 0H148Q122 0 109.5 10.5Q97 21 97 39Q97 70 133 81L195 94Q219 100 231.0 113.0Q243 126 243 148V1254Q243 1275 231.0 1287.5Q219 1300 195 1306L133 1319Q97 1330 97 1361Q97 1380 109.5 1390.0Q122 1400 148 1400H643Q865 1400 1020.0 1338.5Q1175 1277 1256.0 1168.5Q1337 1060 1337 917ZM763 544 1058 578 1323 151Q1342 121 1362.0 105.5Q1382 90 1415 82Q1441 74 1450.5 64.0Q1460 54 1460 39Q1460 21 1447.5 10.5Q1435 0 1408 0H976Q926 0 926 39Q926 50 932.0 57.0Q938 64 952 71L984 78Q1006 88 1009.5 102.0Q1013 116 998 142Z"/><path transform="translate(227.76 46.00) scale(0.00650 -0.00650)" d="M450 536 1056 1148Q1096 1187 1107.5 1218.5Q1119 1250 1106.5 1273.5Q1094 1297 1060 1308L1008 1320Q989 1327 980.5 1336.5Q972 1346 972 1361Q972 1380 985.0 1390.0Q998 1400 1024 1400H1420Q1446 1400 1458.5 1390.0Q1471 1380 1471 1362Q1471 1346 1460.5 1337.0Q1450 1328 1419 1317Q1401 1312 1382.0 1303.0Q1363 1294 1338.0 1275.0Q1313 1256 1275.0 1222.5Q1237 1189 1179 1134L489 454ZM694 740 925 937 1397 161Q1419 124 1441.5 108.0Q1464 92 1496 86Q1523 77 1532.0 65.5Q1541 54 1541 38Q1541 21 1528.0 10.5Q1515 0 1489 0H1003Q977 0 964.0 10.5Q951 21 951 39Q951 55 960.0 65.0Q969 75 984 80L1041 90Q1061 95 1062.5 111.5Q1064 128 1045 160ZM547 146Q547 125 558.0 113.0Q569 101 590 94L647 81Q668 73 675.5 63.5Q683 54 683 39Q683 21 671.0 10.5Q659 0 633 0H148Q122 0 110.0 10.5Q98 21 98 39Q98 70 134 81L195 94Q219 100 231.0 112.5Q243 125 243 146V1254Q243 1275 231.0 1287.5Q219 1300 195 1306L134 1319Q98 1330 98 1361Q98 1380 110.0 1390.0Q122 1400 148 1400H642Q669 1400 681.0 1390.0Q693 1380 693 1361Q693 1330 657 1319L595 1306Q572 1300 559.5 1287.5Q547 1275 547 1254Z"/><path transform="translate(245.52 46.00) scale(0.00650 -0.00650)" d="M547 146Q547 125 559.0 112.5Q571 100 594 94L656 81Q692 70 692 39Q692 21 680.0 10.5Q668 0 642 0H148Q122 0 109.5 10.5Q97 21 97 39Q97 70 133 81L195 94Q219 100 231.0 112.5Q243 125 243 146V1254Q243 1275 231.0 1287.5Q219 1300 195 1306L133 1319Q97 1330 97 1361Q97 1380 109.5 1390.0Q122 1400 148 1400H642Q668 1400 680.0 1390.0Q692 1380 692 1361Q692 1330 656 1319L594 1306Q571 1300 559.0 1287.5Q547 1275 547 1254Z"/><path transform="translate(253.15 46.00) scale(0.00650 -0.00650)" d="M521 39Q521 21 508.5 10.5Q496 0 470 0H128Q102 0 89.0 10.5Q76 21 76 39Q76 68 114 82L163 96Q209 113 228.0 136.0Q247 159 247 208V1105Q247 1133 241.0 1151.0Q235 1169 209 1200L123 1315Q109 1334 103.5 1345.0Q98 1356 98 1366Q98 1383 109.5 1391.5Q121 1400 140 1400H384Q409 1400 426.0 1390.5Q443 1381 461 1356L1225 295L1185 195V1192Q1185 1240 1166.5 1263.5Q1148 1287 1100 1304L1045 1318Q1007 1334 1007 1361Q1007 1380 1019.5 1390.0Q1032 1400 1058 1400H1400Q1426 1400 1439.0 1390.0Q1452 1380 1452 1361Q1452 1333 1414 1318L1365 1304Q1319 1288 1300.0 1265.0Q1281 1242 1281 1192V269Q1281 241 1286.5 220.5Q1292 200 1304 182L1368 95Q1385 72 1389.0 60.0Q1393 48 1393 37Q1393 20 1381.5 10.0Q1370 0 1348 0H1078Q1037 0 1037 34Q1037 48 1031.5 61.0Q1026 74 1002 107L259 1138L344 1192V207Q344 160 362.5 137.0Q381 114 428 96L483 82Q521 67 521 39Z"/><path transform="translate(270.65 46.00) scale(0.00650 -0.00650)" d="M315 1400H1051Q1085 1400 1107.5 1409.0Q1130 1418 1148.0 1426.5Q1166 1435 1184 1435Q1211 1435 1225.5 1421.5Q1240 1408 1249 1374L1315 1040Q1320 1016 1311.5 1000.5Q1303 985 1283 981Q1264 977 1249.5 984.5Q1235 992 1224 1013Q1170 1138 1129.5 1202.0Q1089 1266 1049.5 1289.0Q1010 1312 957 1312H836V146Q836 125 848.0 112.5Q860 100 883 94L945 81Q981 70 981 39Q981 0 931 0H437Q411 0 398.5 10.5Q386 21 386 39Q386 70 422 81L484 94Q508 100 520.0 112.5Q532 125 532 146V1312H410Q358 1312 318.5 1288.0Q279 1264 238.5 1200.0Q198 1136 143 1013Q133 992 118.0 984.5Q103 977 84 981Q64 985 56.0 1000.5Q48 1016 52 1040L118 1374Q127 1408 141.5 1421.5Q156 1435 183 1435Q201 1435 218.5 1426.5Q236 1418 258.5 1409.0Q281 1400 315 1400Z"/><path transform="translate(282.03 46.00) scale(0.00650 -0.00650)" d="M377 706H1227V618H377ZM548 146Q548 125 560.5 112.5Q573 100 596 94L657 81Q694 70 694 39Q694 21 681.5 10.5Q669 0 643 0H149Q123 0 110.5 10.5Q98 21 98 39Q98 70 135 81L196 94Q220 100 232.0 112.5Q244 125 244 146V1254Q244 1275 232.0 1287.5Q220 1300 196 1306L135 1319Q98 1330 98 1361Q98 1380 110.5 1390.0Q123 1400 149 1400H643Q669 1400 681.5 1390.0Q694 1380 694 1361Q694 1330 657 1319L596 1306Q573 1300 560.5 1287.5Q548 1275 548 1254ZM1423 146Q1423 125 1435.0 112.5Q1447 100 1470 94L1532 81Q1568 70 1568 39Q1568 21 1556.0 10.5Q1544 0 1518 0H1024Q998 0 985.5 10.5Q973 21 973 39Q973 70 1009 81L1071 94Q1095 100 1107.0 112.5Q1119 125 1119 146V1254Q1119 1275 1107.0 1287.5Q1095 1300 1071 1306L1009 1319Q973 1330 973 1361Q973 1380 985.5 1390.0Q998 1400 1024 1400H1518Q1544 1400 1556.0 1390.0Q1568 1380 1568 1361Q1568 1330 1532 1319L1470 1306Q1447 1300 1435.0 1287.5Q1423 1275 1423 1254Z"/><path transform="translate(295.37 46.00) scale(0.00650 -0.00650)" d="M444 749H751Q817 749 845.0 776.0Q873 803 886 878Q891 899 901.5 909.0Q912 919 927 920Q960 922 970 883L1051 577Q1057 555 1051.5 541.5Q1046 528 1028 523Q1012 518 997.0 522.5Q982 527 972 543Q941 593 915.0 619.5Q889 646 858.0 656.0Q827 666 781 666H444ZM98 1361Q98 1380 110.0 1390.0Q122 1400 148 1400H926Q960 1400 982.5 1409.5Q1005 1419 1024.0 1428.5Q1043 1438 1065 1438Q1090 1438 1103.5 1423.5Q1117 1409 1126 1375L1208 1079Q1214 1057 1207.5 1043.0Q1201 1029 1183 1023Q1162 1016 1145.0 1024.0Q1128 1032 1117 1053Q1074 1136 1037.5 1187.5Q1001 1239 965.5 1267.0Q930 1295 891.0 1305.0Q852 1315 802 1315H547V173Q547 129 572.5 107.0Q598 85 648 85H828Q895 85 946.0 109.0Q997 133 1047.0 202.0Q1097 271 1159 406Q1168 425 1182.5 432.5Q1197 440 1215 436Q1235 433 1244.0 418.0Q1253 403 1247 379L1158 29Q1148 -4 1134.5 -19.5Q1121 -35 1093 -35Q1073 -35 1054.5 -26.0Q1036 -17 1012.5 -8.5Q989 0 955 0H148Q122 0 110.0 10.5Q98 21 98 39Q98 70 134 81L195 94Q219 100 231.0 112.5Q243 125 243 146V1254Q243 1275 231.0 1287.5Q219 1300 195 1306L134 1319Q98 1330 98 1361Z"/><path transform="translate(311.48 46.00) scale(0.00650 -0.00650)" d="M1337 917Q1337 821 1293.5 742.0Q1250 663 1170.5 610.5Q1091 558 981 538Q945 532 913.0 525.0Q881 518 848.5 513.0Q816 508 777 508Q711 508 654.5 517.0Q598 526 551.5 543.0Q505 560 469 583L476 659Q506 638 544.0 623.5Q582 609 626.5 601.5Q671 594 721 594Q863 594 943.5 674.0Q1024 754 1024 912Q1024 1031 975.5 1123.0Q927 1215 839.0 1268.0Q751 1321 634 1321H547V148Q547 126 557.5 113.5Q568 101 590 94L661 81Q682 74 689.5 64.0Q697 54 697 39Q697 0 646 0H148Q122 0 109.5 10.5Q97 21 97 39Q97 70 133 81L195 94Q219 100 231.0 113.0Q243 126 243 148V1254Q243 1275 231.0 1287.5Q219 1300 195 1306L133 1319Q97 1330 97 1361Q97 1380 109.5 1390.0Q122 1400 148 1400H643Q865 1400 1020.0 1338.5Q1175 1277 1256.0 1168.5Q1337 1060 1337 917ZM763 544 1058 578 1323 151Q1342 121 1362.0 105.5Q1382 90 1415 82Q1441 74 1450.5 64.0Q1460 54 1460 39Q1460 21 1447.5 10.5Q1435 0 1408 0H976Q926 0 926 39Q926 50 932.0 57.0Q938 64 952 71L984 78Q1006 88 1009.5 102.0Q1013 116 998 142Z"/><path transform="translate(323.54 46.00) scale(0.00650 -0.00650)" d="M781 1432Q943 1432 1074.0 1378.0Q1205 1324 1299.0 1225.5Q1393 1127 1443.5 992.0Q1494 857 1494 694Q1494 536 1444.0 402.5Q1394 269 1300.5 171.5Q1207 74 1077.0 20.0Q947 -34 787 -34Q626 -34 495.0 20.0Q364 74 270.0 172.5Q176 271 125.5 407.0Q75 543 75 707Q75 864 125.5 996.5Q176 1129 269.0 1227.0Q362 1325 492.0 1378.5Q622 1432 781 1432ZM1182 509Q1182 644 1157.5 768.0Q1133 892 1089.0 996.5Q1045 1101 986.5 1178.5Q928 1256 858.5 1299.5Q789 1343 714 1343Q616 1343 543.0 1290.0Q470 1237 429.5 1136.0Q389 1035 389 892Q389 757 413.5 632.0Q438 507 482.0 402.0Q526 297 584.5 219.0Q643 141 712.5 97.5Q782 54 857 54Q957 54 1029.5 107.5Q1102 161 1142.0 262.0Q1182 363 1182 509Z"/><path transform="translate(336.24 46.00) scale(0.00650 -0.00650)" d="M333 564H909L913 475H327ZM438 39Q438 21 426.0 10.5Q414 0 387 0H73Q47 0 34.5 10.5Q22 21 22 38Q22 51 29.5 60.0Q37 69 55 78L89 91Q119 105 138.5 131.0Q158 157 177 221L498 1222Q511 1265 504.0 1285.0Q497 1305 462 1317Q438 1326 428.0 1336.5Q418 1347 418 1362Q418 1380 430.5 1390.0Q443 1400 470 1400H939Q966 1400 978.5 1390.0Q991 1380 991 1362Q991 1346 981.0 1335.5Q971 1325 948 1318Q922 1311 917.0 1297.0Q912 1283 922 1251L1274 180Q1288 136 1305.5 114.5Q1323 93 1354 84Q1380 74 1388.5 64.5Q1397 55 1397 39Q1397 21 1384.0 10.5Q1371 0 1345 0H904Q878 0 865.0 10.5Q852 21 852 39Q852 53 861.0 62.5Q870 72 889 78L945 89Q971 97 971.0 114.0Q971 131 960 168L600 1283L632 1309L288 233Q275 191 277.5 164.5Q280 138 298.5 120.5Q317 103 353 89L402 77Q420 71 429.0 62.5Q438 54 438 39Z"/><path transform="translate(348.04 46.00) scale(0.00650 -0.00650)" d="M98 39Q98 70 134 81L196 94Q220 100 231.5 112.5Q243 125 243 146V1254Q243 1274 231.5 1287.0Q220 1300 196 1306L133 1319Q98 1330 98 1362Q98 1380 110.0 1390.0Q122 1400 148 1400H670Q855 1400 1006.5 1346.0Q1158 1292 1267.0 1192.0Q1376 1092 1435.0 954.5Q1494 817 1494 650Q1494 459 1406.0 312.5Q1318 166 1154.5 83.0Q991 0 764 0H148Q122 0 110.0 10.5Q98 21 98 39ZM740 85Q871 85 969.5 148.0Q1068 211 1123.0 338.5Q1178 466 1178 661Q1178 814 1141.0 935.0Q1104 1056 1034.0 1141.0Q964 1226 865.0 1270.5Q766 1315 642 1315H547V166Q547 124 571.0 104.5Q595 85 642 85Z"/></g>
<!-- paths -->
<path d="M372 232 C 300 218, 240 195, 180 165" fill="none" stroke="#c9b89c" stroke-width="3" stroke-linecap="round"/>
<path d="M396 232 C 470 220, 540 200, 600 168" fill="none" stroke="#9a9080" stroke-width="3" stroke-linecap="round" stroke-dasharray="2 9"/>
<!-- character at fork (raised, shorter legs to clear caption) -->
<circle cx="384" cy="214" r="19" fill="#fffdf8" stroke="#1c1a17" stroke-width="2.2"/>
<circle cx="377" cy="211" r="2.2" fill="#1c1a17"/><circle cx="391" cy="211" r="2.2" fill="#1c1a17"/>
<path d="M377 220 Q384 225 391 220" fill="none" stroke="#1c1a17" stroke-width="1.8" stroke-linecap="round"/>
<path d="M384 233 L384 272" stroke="#1c1a17" stroke-width="3" stroke-linecap="round"/>
<path d="M384 244 L366 232 M384 244 L402 232" stroke="#1c1a17" stroke-width="3" stroke-linecap="round"/>
<path d="M384 272 L371 296 M384 272 L397 296" stroke="#1c1a17" stroke-width="3" stroke-linecap="round"/>
<!-- LEFT: safe archway -->
<path d="M96 160 L96 112 Q96 78 138 78 Q180 78 180 112 L180 160 Z" fill="#fffdf8" stroke="#c0441f" stroke-width="2.2"/>
<circle cx="138" cy="74" r="13" fill="#c0441f"/>
<path d="M131 74 L136 80 L146 68" fill="none" stroke="#fff" stroke-width="2.4" stroke-linecap="round" stroke-linejoin="round"/>
<g fill="#1c1a17"><path transform="translate(87.52 120.00) scale(0.00725 -0.00725)" d="M651 -29Q567 -29 508.0 -8.0Q449 13 412.5 33.5Q376 54 358 54Q341 54 327.5 41.0Q314 28 301.5 11.0Q289 -6 275.5 -19.0Q262 -32 244 -32Q226 -32 214.0 -20.5Q202 -9 197 16L128 362Q124 381 132.0 394.0Q140 407 158 414Q178 421 193.0 413.0Q208 405 219 383Q281 260 348.0 189.0Q415 118 486.5 88.0Q558 58 631 58Q734 58 794.0 112.5Q854 167 854 261Q855 320 827.5 369.5Q800 419 726.0 464.0Q652 509 510 556Q357 607 265.0 671.5Q173 736 131.5 821.5Q90 907 90 1018Q90 1139 148.5 1231.0Q207 1323 311.5 1374.0Q416 1425 555 1425Q644 1425 702.0 1406.0Q760 1387 797.0 1368.0Q834 1349 857 1349Q878 1349 892.5 1368.5Q907 1388 923.0 1408.0Q939 1428 964 1428Q982 1428 994.5 1416.0Q1007 1404 1017 1372L1113 1025Q1120 1003 1112.5 986.0Q1105 969 1086 962Q1066 956 1050.5 963.5Q1035 971 1025 991Q958 1123 885.5 1199.0Q813 1275 737.0 1307.0Q661 1339 584 1339Q481 1339 419.5 1279.0Q358 1219 358 1119Q358 1059 384.5 1008.0Q411 957 483.5 909.5Q556 862 691 813Q848 756 940.0 691.5Q1032 627 1072.0 547.5Q1112 468 1112 365Q1111 256 1056.5 166.5Q1002 77 899.5 24.0Q797 -29 651 -29Z"/><path transform="translate(96.23 120.00) scale(0.00725 -0.00725)" d="M333 564H909L913 475H327ZM438 39Q438 21 426.0 10.5Q414 0 387 0H73Q47 0 34.5 10.5Q22 21 22 38Q22 51 29.5 60.0Q37 69 55 78L89 91Q119 105 138.5 131.0Q158 157 177 221L498 1222Q511 1265 504.0 1285.0Q497 1305 462 1317Q438 1326 428.0 1336.5Q418 1347 418 1362Q418 1380 430.5 1390.0Q443 1400 470 1400H939Q966 1400 978.5 1390.0Q991 1380 991 1362Q991 1346 981.0 1335.5Q971 1325 948 1318Q922 1311 917.0 1297.0Q912 1283 922 1251L1274 180Q1288 136 1305.5 114.5Q1323 93 1354 84Q1380 74 1388.5 64.5Q1397 55 1397 39Q1397 21 1384.0 10.5Q1371 0 1345 0H904Q878 0 865.0 10.5Q852 21 852 39Q852 53 861.0 62.5Q870 72 889 78L945 89Q971 97 971.0 114.0Q971 131 960 168L600 1283L632 1309L288 233Q275 191 277.5 164.5Q280 138 298.5 120.5Q317 103 353 89L402 77Q420 71 429.0 62.5Q438 54 438 39Z"/><path transform="translate(106.60 120.00) scale(0.00725 -0.00725)" d="M879 1400Q914 1400 937.5 1409.0Q961 1418 979.5 1426.5Q998 1435 1016 1435Q1042 1435 1055.5 1421.5Q1069 1408 1078 1375L1161 1069Q1167 1049 1156.5 1036.0Q1146 1023 1127 1020Q1111 1017 1095.5 1023.0Q1080 1029 1070 1051Q1016 1159 970.0 1216.0Q924 1273 874.5 1294.0Q825 1315 762 1315H547V146Q547 125 559.0 111.5Q571 98 597 94L691 82Q713 78 722.0 68.0Q731 58 731 39Q731 21 719.0 10.5Q707 0 680 0H148Q122 0 110.0 10.5Q98 21 98 39Q98 70 134 81L195 94Q219 100 231.0 112.5Q243 125 243 146V1254Q243 1275 231.0 1287.5Q219 1300 195 1306L134 1319Q98 1330 98 1361Q98 1380 110.0 1390.0Q122 1400 148 1400ZM435 716H744Q811 716 840.5 743.0Q870 770 884 848Q889 867 899.0 875.5Q909 884 924 885Q959 887 968 850L1044 542Q1049 520 1042.5 508.0Q1036 496 1020 490Q1004 485 989.5 490.5Q975 496 962 513Q932 561 907.0 586.5Q882 612 852.0 622.0Q822 632 775 632H435Z"/><path transform="translate(115.29 120.00) scale(0.00725 -0.00725)" d="M444 749H751Q817 749 845.0 776.0Q873 803 886 878Q891 899 901.5 909.0Q912 919 927 920Q960 922 970 883L1051 577Q1057 555 1051.5 541.5Q1046 528 1028 523Q1012 518 997.0 522.5Q982 527 972 543Q941 593 915.0 619.5Q889 646 858.0 656.0Q827 666 781 666H444ZM98 1361Q98 1380 110.0 1390.0Q122 1400 148 1400H926Q960 1400 982.5 1409.5Q1005 1419 1024.0 1428.5Q1043 1438 1065 1438Q1090 1438 1103.5 1423.5Q1117 1409 1126 1375L1208 1079Q1214 1057 1207.5 1043.0Q1201 1029 1183 1023Q1162 1016 1145.0 1024.0Q1128 1032 1117 1053Q1074 1136 1037.5 1187.5Q1001 1239 965.5 1267.0Q930 1295 891.0 1305.0Q852 1315 802 1315H547V173Q547 129 572.5 107.0Q598 85 648 85H828Q895 85 946.0 109.0Q997 133 1047.0 202.0Q1097 271 1159 406Q1168 425 1182.5 432.5Q1197 440 1215 436Q1235 433 1244.0 418.0Q1253 403 1247 379L1158 29Q1148 -4 1134.5 -19.5Q1121 -35 1093 -35Q1073 -35 1054.5 -26.0Q1036 -17 1012.5 -8.5Q989 0 955 0H148Q122 0 110.0 10.5Q98 21 98 39Q98 70 134 81L195 94Q219 100 231.0 112.5Q243 125 243 146V1254Q243 1275 231.0 1287.5Q219 1300 195 1306L134 1319Q98 1330 98 1361Z"/><path transform="translate(127.68 120.00) scale(0.00725 -0.00725)" d="M98 39Q98 70 134 81L196 94Q220 100 231.5 112.5Q243 125 243 146V1254Q243 1274 231.5 1287.0Q220 1300 196 1306L133 1319Q98 1330 98 1362Q98 1380 110.0 1390.0Q122 1400 148 1400H670Q855 1400 1006.5 1346.0Q1158 1292 1267.0 1192.0Q1376 1092 1435.0 954.5Q1494 817 1494 650Q1494 459 1406.0 312.5Q1318 166 1154.5 83.0Q991 0 764 0H148Q122 0 110.0 10.5Q98 21 98 39ZM740 85Q871 85 969.5 148.0Q1068 211 1123.0 338.5Q1178 466 1178 661Q1178 814 1141.0 935.0Q1104 1056 1034.0 1141.0Q964 1226 865.0 1270.5Q766 1315 642 1315H547V166Q547 124 571.0 104.5Q595 85 642 85Z"/><path transform="translate(139.04 120.00) scale(0.00725 -0.00725)" d="M444 749H751Q817 749 845.0 776.0Q873 803 886 878Q891 899 901.5 909.0Q912 919 927 920Q960 922 970 883L1051 577Q1057 555 1051.5 541.5Q1046 528 1028 523Q1012 518 997.0 522.5Q982 527 972 543Q941 593 915.0 619.5Q889 646 858.0 656.0Q827 666 781 666H444ZM98 1361Q98 1380 110.0 1390.0Q122 1400 148 1400H926Q960 1400 982.5 1409.5Q1005 1419 1024.0 1428.5Q1043 1438 1065 1438Q1090 1438 1103.5 1423.5Q1117 1409 1126 1375L1208 1079Q1214 1057 1207.5 1043.0Q1201 1029 1183 1023Q1162 1016 1145.0 1024.0Q1128 1032 1117 1053Q1074 1136 1037.5 1187.5Q1001 1239 965.5 1267.0Q930 1295 891.0 1305.0Q852 1315 802 1315H547V173Q547 129 572.5 107.0Q598 85 648 85H828Q895 85 946.0 109.0Q997 133 1047.0 202.0Q1097 271 1159 406Q1168 425 1182.5 432.5Q1197 440 1215 436Q1235 433 1244.0 418.0Q1253 403 1247 379L1158 29Q1148 -4 1134.5 -19.5Q1121 -35 1093 -35Q1073 -35 1054.5 -26.0Q1036 -17 1012.5 -8.5Q989 0 955 0H148Q122 0 110.0 10.5Q98 21 98 39Q98 70 134 81L195 94Q219 100 231.0 112.5Q243 125 243 146V1254Q243 1275 231.0 1287.5Q219 1300 195 1306L134 1319Q98 1330 98 1361Z"/><path transform="translate(148.44 120.00) scale(0.00725 -0.00725)" d="M1316 887Q1316 756 1250.0 660.0Q1184 564 1064.5 511.5Q945 459 784 459Q674 459 585.0 482.5Q496 506 428 549L440 624Q478 598 520.0 581.0Q562 564 608.0 555.5Q654 547 702 547Q793 547 864.5 587.5Q936 628 977.0 705.5Q1018 783 1018 894Q1018 1024 969.0 1118.5Q920 1213 832.0 1264.5Q744 1316 627 1316H547V146Q547 125 558.5 111.5Q570 98 594 94L682 82Q703 78 712.0 67.5Q721 57 721 39Q721 21 709.0 10.5Q697 0 671 0H148Q122 0 110.0 10.5Q98 21 98 39Q98 70 134 81L196 94Q220 101 231.5 113.5Q243 126 243 145V1254Q243 1274 231.5 1287.0Q220 1300 197 1306L133 1319Q98 1330 98 1361Q98 1380 110.0 1390.0Q122 1400 148 1400H634Q847 1400 1000.0 1334.5Q1153 1269 1234.5 1153.0Q1316 1037 1316 887Z"/><path transform="translate(158.36 120.00) scale(0.00725 -0.00725)" d="M656 1319 594 1306Q571 1300 559.0 1287.5Q547 1275 547 1254V150Q547 115 567.0 100.0Q587 85 628 85H798Q853 85 894.0 101.0Q935 117 969.5 158.0Q1004 199 1039 275L1107 423Q1117 444 1131.5 451.5Q1146 459 1165 454Q1186 450 1194.0 435.5Q1202 421 1195 397L1105 28Q1095 -5 1081.0 -20.0Q1067 -35 1041 -35Q1023 -35 1004.0 -26.5Q985 -18 961.0 -9.0Q937 0 902 0H148Q122 0 109.5 10.5Q97 21 97 39Q97 70 133 81L195 94Q219 100 231.0 112.5Q243 125 243 146V1254Q243 1275 231.0 1287.5Q219 1300 195 1306L133 1319Q97 1330 97 1361Q97 1380 109.5 1390.0Q122 1400 148 1400H642Q668 1400 680.0 1390.0Q692 1380 692 1361Q692 1330 656 1319Z"/><path transform="translate(167.31 120.00) scale(0.00725 -0.00725)" d="M781 1432Q943 1432 1074.0 1378.0Q1205 1324 1299.0 1225.5Q1393 1127 1443.5 992.0Q1494 857 1494 694Q1494 536 1444.0 402.5Q1394 269 1300.5 171.5Q1207 74 1077.0 20.0Q947 -34 787 -34Q626 -34 495.0 20.0Q364 74 270.0 172.5Q176 271 125.5 407.0Q75 543 75 707Q75 864 125.5 996.5Q176 1129 269.0 1227.0Q362 1325 492.0 1378.5Q622 1432 781 1432ZM1182 509Q1182 644 1157.5 768.0Q1133 892 1089.0 996.5Q1045 1101 986.5 1178.5Q928 1256 858.5 1299.5Q789 1343 714 1343Q616 1343 543.0 1290.0Q470 1237 429.5 1136.0Q389 1035 389 892Q389 757 413.5 632.0Q438 507 482.0 402.0Q526 297 584.5 219.0Q643 141 712.5 97.5Q782 54 857 54Q957 54 1029.5 107.5Q1102 161 1142.0 262.0Q1182 363 1182 509Z"/><path transform="translate(178.69 120.00) scale(0.00725 -0.00725)" d="M821 459 573 417 158 1250Q143 1281 130.0 1293.0Q117 1305 95 1311L63 1321Q43 1327 35.0 1337.5Q27 1348 27 1361Q27 1380 40.0 1390.0Q53 1400 79 1400H561Q587 1400 601.0 1390.0Q615 1380 615 1362Q615 1329 573 1319L519 1309Q485 1301 478.5 1286.5Q472 1272 486 1241L816 535L729 489L1061 1182Q1083 1228 1070.0 1262.0Q1057 1296 1005 1310L957 1321Q942 1326 933.5 1336.0Q925 1346 925 1361Q925 1380 938.0 1390.0Q951 1400 976 1400H1282Q1309 1400 1321.5 1390.0Q1334 1380 1334 1361Q1334 1347 1326.5 1338.0Q1319 1329 1300 1321L1284 1315Q1261 1307 1242.0 1291.5Q1223 1276 1205.0 1248.5Q1187 1221 1164 1174ZM538 512 842 514V146Q842 125 854.5 112.5Q867 100 890 94L952 81Q988 70 988 39Q988 21 976.0 10.5Q964 0 937 0H443Q417 0 405.0 10.5Q393 21 393 39Q393 70 429 81L491 94Q515 100 526.5 112.5Q538 125 538 146Z"/></g>
<g fill="#6f685a"><path transform="translate(117.26 142.00) scale(0.00650 -0.00650)" d="M527 872Q607 872 664.5 837.5Q722 803 753.5 738.0Q785 673 785 580Q785 463 749.5 355.5Q714 248 651.0 163.5Q588 79 503.5 29.5Q419 -20 320 -20Q241 -20 183.0 14.5Q125 49 93.5 114.5Q62 180 62 272Q62 389 97.5 496.5Q133 604 196.0 688.5Q259 773 343.5 822.5Q428 872 527 872ZM322 47Q373 47 420.5 81.0Q468 115 508.5 173.5Q549 232 579.5 306.0Q610 380 627.0 461.0Q644 542 644 620Q644 715 615.5 760.0Q587 805 525 805Q474 805 426.5 771.0Q379 737 338.5 678.5Q298 620 267.5 546.0Q237 472 220.0 391.0Q203 310 203 232Q203 138 231.5 92.5Q260 47 322 47Z"/><path transform="translate(122.77 142.00) scale(0.00650 -0.00650)" d="M92 582 56 597Q97 703 145.5 762.5Q194 822 248.0 846.5Q302 871 356 871Q375 871 393.5 868.5Q412 866 430.5 862.0Q449 858 467 852L347 462H341Q385 540 435.5 613.0Q486 686 542.0 743.5Q598 801 658.0 835.0Q718 869 780 869Q863 869 894.5 833.5Q926 798 926 741Q926 709 916.0 670.0Q906 631 889 586L691 71L693 108Q726 108 766.0 122.0Q806 136 849.0 163.0Q892 190 932 227L962 196Q892 114 832.5 66.5Q773 19 723.0 -0.5Q673 -20 628 -20Q563 -20 549.0 -1.5Q535 17 557 73L768 618Q776 639 781.5 659.0Q787 679 787 696Q787 721 771.0 736.0Q755 751 713 751Q665 751 606.0 710.0Q547 669 487.5 597.0Q428 525 377.5 431.5Q327 338 295 233L224 0H89L315 746Q311 746 307.5 746.0Q304 746 300 746Q264 746 230.0 732.0Q196 718 162.0 682.5Q128 647 92 582Z"/><path transform="translate(129.35 142.00) scale(0.00650 -0.00650)" d="M497 805Q438 805 391.0 770.0Q344 735 308.5 677.0Q273 619 249.5 549.5Q226 480 214.0 410.0Q202 340 202 282Q202 179 243.0 136.0Q284 93 350 93Q395 93 434.5 109.0Q474 125 510.5 164.5Q547 204 582 276H638Q589 162 540.5 97.5Q492 33 435.5 6.5Q379 -20 304 -20Q229 -20 173.5 9.5Q118 39 87.5 97.0Q57 155 57 240Q57 345 81.5 440.0Q106 535 150.5 613.5Q195 692 253.5 750.0Q312 808 381.0 840.0Q450 872 523 872Q593 872 637.0 847.5Q681 823 701.5 783.5Q722 744 722 699Q722 656 703.5 613.5Q685 571 656 547Q598 523 540.0 500.0Q482 477 423.5 455.5Q365 434 306.5 413.5Q248 393 189 374L192 446Q288 473 357.0 500.0Q426 527 471.5 553.0Q517 579 543.0 605.5Q569 632 580.0 658.5Q591 685 591 712Q591 740 580.0 760.5Q569 781 548.5 793.0Q528 805 497 805Z"/><path transform="translate(137.11 142.00) scale(0.00650 -0.00650)" d="M458 794Q403 794 356.0 747.0Q309 700 274.5 624.0Q240 548 221.0 458.0Q202 368 202 282Q202 179 234.0 136.0Q266 93 330 93Q371 93 410.0 110.0Q449 127 487.5 167.0Q526 207 563 276H617Q565 162 514.0 97.5Q463 33 407.5 6.5Q352 -20 285 -20Q176 -20 116.5 44.0Q57 108 57 240Q57 371 95.5 485.5Q134 600 200.5 687.0Q267 774 354.5 823.0Q442 872 539 872Q628 872 672.0 833.5Q716 795 716 745Q716 706 693.0 687.0Q670 668 635 667Q620 666 602.0 686.5Q584 707 562 731Q540 755 514.5 774.5Q489 794 458 794Z"/><path transform="translate(141.67 142.00) scale(0.00650 -0.00650)" d="M404 1268Q386 1285 369.0 1298.5Q352 1312 331.5 1323.5Q311 1335 282 1345L290 1370L559 1419H582L179 81L167 109Q200 105 242.5 118.0Q285 131 331.5 159.0Q378 187 422 227L450 195Q380 113 321.0 66.0Q262 19 212.5 -0.5Q163 -20 118 -20Q71 -20 47.5 -7.0Q24 6 33 35Z"/><path transform="translate(144.85 142.00) scale(0.00650 -0.00650)" d="M65 35 325 761 354 739Q322 740 280.5 723.0Q239 706 195.0 674.5Q151 643 111 598L81 627Q150 725 207.5 778.0Q265 831 315.0 851.5Q365 872 410 872Q448 872 466.5 857.5Q485 843 476 817L216 71L199 109Q232 105 274.5 118.0Q317 131 363.5 159.0Q410 187 454 227L482 195Q412 113 353.0 66.0Q294 19 244.5 -0.5Q195 -20 150 -20Q95 -20 75.0 -6.0Q55 8 65 35ZM399 1300Q399 1332 413.5 1357.5Q428 1383 453.5 1398.0Q479 1413 513 1413Q564 1413 595.5 1380.5Q627 1348 627 1300Q627 1268 612.5 1242.5Q598 1217 572.5 1202.0Q547 1187 513 1187Q462 1187 430.5 1219.5Q399 1252 399 1300Z"/><path transform="translate(148.33 142.00) scale(0.00650 -0.00650)" d="M458 794Q403 794 356.0 747.0Q309 700 274.5 624.0Q240 548 221.0 458.0Q202 368 202 282Q202 179 234.0 136.0Q266 93 330 93Q371 93 410.0 110.0Q449 127 487.5 167.0Q526 207 563 276H617Q565 162 514.0 97.5Q463 33 407.5 6.5Q352 -20 285 -20Q176 -20 116.5 44.0Q57 108 57 240Q57 371 95.5 485.5Q134 600 200.5 687.0Q267 774 354.5 823.0Q442 872 539 872Q628 872 672.0 833.5Q716 795 716 745Q716 706 693.0 687.0Q670 668 635 667Q620 666 602.0 686.5Q584 707 562 731Q540 755 514.5 774.5Q489 794 458 794Z"/><path transform="translate(152.89 142.00) scale(0.00650 -0.00650)" d="M573 1419 146 0H13L395 1269Q377 1286 360.0 1299.5Q343 1313 322.5 1324.5Q302 1336 273 1346L281 1371L550 1419ZM284 476 289 492Q407 609 489.5 683.5Q572 758 631.0 799.0Q690 840 736.0 856.0Q782 872 826 872Q874 872 902.0 841.0Q930 810 930 768Q930 733 913.0 706.0Q896 679 868.5 663.5Q841 648 807 648Q794 648 784.5 658.5Q775 669 761 693Q748 717 737.0 726.5Q726 736 712 736Q689 736 649.0 716.0Q609 696 560.0 661.5Q511 627 460.0 582.0Q409 537 364 487L391 543Q451 387 489.5 296.0Q528 205 551.5 161.5Q575 118 592.0 105.0Q609 92 626 92Q647 92 678.5 110.5Q710 129 746.5 162.0Q783 195 818 238L850 209Q787 125 738.0 75.0Q689 25 648.0 2.5Q607 -20 567 -20Q537 -20 512.0 -4.5Q487 11 458.0 60.5Q429 110 388.0 209.0Q347 308 284 476Z"/></g>
<!-- RIGHT: sketchy doorway -->
<path d="M556 162 L556 104 Q556 92 572 90 L632 84 L640 160 Z" fill="#352f28" stroke="#1c1a17" stroke-width="1.8"/>
<g fill="#cdbfa6"><path transform="translate(579.60 116.00) scale(0.00675 -0.00675)" d="M309 286Q297 239 294.0 212.5Q291 186 291 172Q291 120 319.0 82.5Q347 45 416 45Q461 45 509.5 76.0Q558 107 603.5 161.5Q649 216 685.0 286.0Q721 356 742.5 435.5Q764 515 764 596Q764 671 738.0 707.5Q712 744 653 744Q615 744 575.0 722.0Q535 700 497.0 662.0Q459 624 425.5 575.0Q392 526 367.5 472.0Q343 418 329 365ZM177 73H253L116 -424L286 -473L272 -510H-180L-166 -473L-17 -424L304 746Q303 746 301.5 746.0Q300 746 298 746Q262 746 227.5 732.0Q193 718 159.0 682.5Q125 647 90 582L54 597Q95 703 142.5 763.0Q190 823 241.5 848.0Q293 873 345 873Q372 873 399.5 867.5Q427 862 453 854L359 502L352 532Q413 651 475.5 726.0Q538 801 598.5 836.5Q659 872 712 872Q819 872 866.0 802.5Q913 733 913 643Q913 544 887.5 448.0Q862 352 816.0 267.5Q770 183 706.5 118.5Q643 54 565.5 17.0Q488 -20 402 -20Q341 -20 275.0 2.0Q209 24 177 73Z"/><path transform="translate(586.08 116.00) scale(0.00675 -0.00675)" d="M488 45 592 367H618Q543 256 483.0 181.5Q423 107 373.5 63.5Q324 20 282.5 1.5Q241 -17 202 -17Q148 -17 108.0 3.0Q68 23 46.0 66.5Q24 110 24 180Q24 255 53.0 345.5Q82 436 133.5 525.5Q185 615 254.5 690.0Q324 765 406.5 810.0Q489 855 578 855Q636 855 673.5 835.0Q711 815 742 774L702 720Q694 744 667.0 763.5Q640 783 597 783Q525 783 461.0 738.0Q397 693 344.0 621.0Q291 549 252.5 467.5Q214 386 193.0 311.5Q172 237 172 188Q172 145 196.0 124.0Q220 103 257 103Q290 103 341.0 132.0Q392 161 447.0 212.5Q502 264 549.5 334.5Q597 405 624 487L741 852H862H877L626 71L609 109Q642 104 684.5 117.0Q727 130 773.5 158.5Q820 187 864 227L892 195Q784 75 705.5 27.5Q627 -20 560 -20Q517 -20 497.5 -2.0Q478 16 488 45Z"/><path transform="translate(592.31 116.00) scale(0.00675 -0.00675)" d="M88 202Q102 202 115.0 186.0Q128 170 157 125Q186 80 213.5 63.0Q241 46 269 46Q309 46 340.5 60.5Q372 75 390.0 103.5Q408 132 408 173Q408 202 398.5 232.0Q389 262 364.5 299.5Q340 337 294 389Q249 441 223.0 482.0Q197 523 186.5 558.0Q176 593 176 626Q176 694 207.0 750.0Q238 806 299.0 839.0Q360 872 448 872Q515 872 556.5 854.5Q598 837 618.0 808.0Q638 779 638 744Q638 721 628.0 702.5Q618 684 600.0 673.5Q582 663 558 663Q548 663 534.0 674.5Q520 686 493 724Q466 762 437.5 781.0Q409 800 383 800Q333 800 305.0 771.5Q277 743 277 691Q277 669 288.0 641.0Q299 613 324.5 575.0Q350 537 393 484Q437 432 463.0 387.5Q489 343 501.0 305.5Q513 268 513 234Q513 162 474.0 104.5Q435 47 368.0 13.5Q301 -20 216 -20Q143 -20 95.5 0.0Q48 20 25.0 52.0Q2 84 2 119Q2 142 13.0 161.0Q24 180 43.5 191.0Q63 202 88 202Z"/><path transform="translate(596.66 116.00) scale(0.00675 -0.00675)" d="M125 772 143 852H633L617 772ZM262 211Q258 196 255.0 183.5Q252 171 250.5 161.0Q249 151 249 143Q249 127 255.0 119.0Q261 111 271 111Q292 111 329.0 136.0Q366 161 411.0 205.5Q456 250 501 310L541 284Q498 217 454.5 162.0Q411 107 369.0 66.5Q327 26 287.5 4.0Q248 -18 211 -18Q168 -18 142.0 7.0Q116 32 116 93Q116 120 121.5 155.5Q127 191 140 236L360 1026H495Z"/><path transform="translate(600.70 116.00) scale(0.00675 -0.00675)" d="M497 805Q438 805 391.0 770.0Q344 735 308.5 677.0Q273 619 249.5 549.5Q226 480 214.0 410.0Q202 340 202 282Q202 179 243.0 136.0Q284 93 350 93Q395 93 434.5 109.0Q474 125 510.5 164.5Q547 204 582 276H638Q589 162 540.5 97.5Q492 33 435.5 6.5Q379 -20 304 -20Q229 -20 173.5 9.5Q118 39 87.5 97.0Q57 155 57 240Q57 345 81.5 440.0Q106 535 150.5 613.5Q195 692 253.5 750.0Q312 808 381.0 840.0Q450 872 523 872Q593 872 637.0 847.5Q681 823 701.5 783.5Q722 744 722 699Q722 656 703.5 613.5Q685 571 656 547Q598 523 540.0 500.0Q482 477 423.5 455.5Q365 434 306.5 413.5Q248 393 189 374L192 446Q288 473 357.0 500.0Q426 527 471.5 553.0Q517 579 543.0 605.5Q569 632 580.0 658.5Q591 685 591 712Q591 740 580.0 760.5Q569 781 548.5 793.0Q528 805 497 805Z"/><path transform="translate(608.76 116.00) scale(0.00675 -0.00675)" d="M65 35 325 761 354 739Q322 740 280.5 723.0Q239 706 195.0 674.5Q151 643 111 598L81 627Q150 725 207.5 778.0Q265 831 315.0 851.5Q365 872 410 872Q448 872 466.5 857.5Q485 843 476 817L216 71L199 109Q232 105 274.5 118.0Q317 131 363.5 159.0Q410 187 454 227L482 195Q412 113 353.0 66.0Q294 19 244.5 -0.5Q195 -20 150 -20Q95 -20 75.0 -6.0Q55 8 65 35ZM399 1300Q399 1332 413.5 1357.5Q428 1383 453.5 1398.0Q479 1413 513 1413Q564 1413 595.5 1380.5Q627 1348 627 1300Q627 1268 612.5 1242.5Q598 1217 572.5 1202.0Q547 1187 513 1187Q462 1187 430.5 1219.5Q399 1252 399 1300Z"/><path transform="translate(612.37 116.00) scale(0.00675 -0.00675)" d="M125 772 143 852H633L617 772ZM262 211Q258 196 255.0 183.5Q252 171 250.5 161.0Q249 151 249 143Q249 127 255.0 119.0Q261 111 271 111Q292 111 329.0 136.0Q366 161 411.0 205.5Q456 250 501 310L541 284Q498 217 454.5 162.0Q411 107 369.0 66.5Q327 26 287.5 4.0Q248 -18 211 -18Q168 -18 142.0 7.0Q116 32 116 93Q116 120 121.5 155.5Q127 191 140 236L360 1026H495Z"/></g>
<g fill="#cdbfa6"><path transform="translate(569.85 136.00) scale(0.00675 -0.00675)" d="M88 202Q102 202 115.0 186.0Q128 170 157 125Q186 80 213.5 63.0Q241 46 269 46Q309 46 340.5 60.5Q372 75 390.0 103.5Q408 132 408 173Q408 202 398.5 232.0Q389 262 364.5 299.5Q340 337 294 389Q249 441 223.0 482.0Q197 523 186.5 558.0Q176 593 176 626Q176 694 207.0 750.0Q238 806 299.0 839.0Q360 872 448 872Q515 872 556.5 854.5Q598 837 618.0 808.0Q638 779 638 744Q638 721 628.0 702.5Q618 684 600.0 673.5Q582 663 558 663Q548 663 534.0 674.5Q520 686 493 724Q466 762 437.5 781.0Q409 800 383 800Q333 800 305.0 771.5Q277 743 277 691Q277 669 288.0 641.0Q299 613 324.5 575.0Q350 537 393 484Q437 432 463.0 387.5Q489 343 501.0 305.5Q513 268 513 234Q513 162 474.0 104.5Q435 47 368.0 13.5Q301 -20 216 -20Q143 -20 95.5 0.0Q48 20 25.0 52.0Q2 84 2 119Q2 142 13.0 161.0Q24 180 43.5 191.0Q63 202 88 202Z"/><path transform="translate(574.20 136.00) scale(0.00675 -0.00675)" d="M527 872Q607 872 664.5 837.5Q722 803 753.5 738.0Q785 673 785 580Q785 463 749.5 355.5Q714 248 651.0 163.5Q588 79 503.5 29.5Q419 -20 320 -20Q241 -20 183.0 14.5Q125 49 93.5 114.5Q62 180 62 272Q62 389 97.5 496.5Q133 604 196.0 688.5Q259 773 343.5 822.5Q428 872 527 872ZM322 47Q373 47 420.5 81.0Q468 115 508.5 173.5Q549 232 579.5 306.0Q610 380 627.0 461.0Q644 542 644 620Q644 715 615.5 760.0Q587 805 525 805Q474 805 426.5 771.0Q379 737 338.5 678.5Q298 620 267.5 546.0Q237 472 220.0 391.0Q203 310 203 232Q203 138 231.5 92.5Q260 47 322 47Z"/><path transform="translate(579.92 136.00) scale(0.00675 -0.00675)" d="M1125 71 1127 108Q1160 108 1200.0 122.0Q1240 136 1283.0 163.0Q1326 190 1366 227L1396 196Q1326 114 1266.5 66.5Q1207 19 1157.0 -0.5Q1107 -20 1062 -20Q997 -20 983.0 -1.5Q969 17 991 73L1203 622Q1211 643 1215.5 661.0Q1220 679 1220 695Q1220 721 1204.0 735.5Q1188 750 1148 750Q1103 750 1050.0 713.0Q997 676 943.0 610.0Q889 544 840.5 456.0Q792 368 756 267L672 0H535L739 622Q744 636 747.5 649.0Q751 662 753.0 673.5Q755 685 755 695Q755 721 739.5 735.5Q724 750 686 750Q638 750 583.5 710.0Q529 670 475.5 599.0Q422 528 375.0 434.0Q328 340 295 233L224 0H89L315 746Q311 746 307.5 746.0Q304 746 300 746Q264 746 230.0 732.0Q196 718 162.0 682.5Q128 647 92 582L56 597Q97 703 145.5 762.5Q194 822 248.0 846.5Q302 871 356 871Q375 871 393.5 868.5Q412 866 430.5 862.0Q449 858 467 852L355 490H348Q414 603 468.5 677.5Q523 752 571.0 794.5Q619 837 663.0 854.5Q707 872 751 872Q831 872 864.0 842.5Q897 813 897 764Q897 731 886.0 687.5Q875 644 857 586L842 537H834Q890 631 940.5 695.5Q991 760 1038.0 799.0Q1085 838 1129.5 855.5Q1174 873 1217 873Q1297 873 1329.0 842.5Q1361 812 1361 759Q1361 726 1350.5 683.0Q1340 640 1319 584Z"/><path transform="translate(589.68 136.00) scale(0.00675 -0.00675)" d="M497 805Q438 805 391.0 770.0Q344 735 308.5 677.0Q273 619 249.5 549.5Q226 480 214.0 410.0Q202 340 202 282Q202 179 243.0 136.0Q284 93 350 93Q395 93 434.5 109.0Q474 125 510.5 164.5Q547 204 582 276H638Q589 162 540.5 97.5Q492 33 435.5 6.5Q379 -20 304 -20Q229 -20 173.5 9.5Q118 39 87.5 97.0Q57 155 57 240Q57 345 81.5 440.0Q106 535 150.5 613.5Q195 692 253.5 750.0Q312 808 381.0 840.0Q450 872 523 872Q593 872 637.0 847.5Q681 823 701.5 783.5Q722 744 722 699Q722 656 703.5 613.5Q685 571 656 547Q598 523 540.0 500.0Q482 477 423.5 455.5Q365 434 306.5 413.5Q248 393 189 374L192 446Q288 473 357.0 500.0Q426 527 471.5 553.0Q517 579 543.0 605.5Q569 632 580.0 658.5Q591 685 591 712Q591 740 580.0 760.5Q569 781 548.5 793.0Q528 805 497 805Z"/><path transform="translate(594.68 136.00) scale(0.00675 -0.00675)" d="M725 852H855L675 223Q669 201 666.0 183.5Q663 166 663 152Q663 116 682.0 101.0Q701 86 737 86Q790 86 841.5 122.5Q893 159 938.5 217.0Q984 275 1019.5 342.5Q1055 410 1075.0 473.0Q1095 536 1095 581Q1095 615 1079.0 644.5Q1063 674 1042.5 698.5Q1022 723 1006.0 741.0Q990 759 990 770Q990 822 1024.5 847.0Q1059 872 1099 872Q1135 872 1160.0 855.5Q1185 839 1197.5 808.0Q1210 777 1210 731Q1210 648 1182.5 547.5Q1155 447 1105.5 347.0Q1056 247 990.0 164.0Q924 81 846.5 30.5Q769 -20 686 -20Q618 -20 581.0 10.5Q544 41 544 113Q544 138 548.5 168.5Q553 199 563 235L579 295H599Q565 210 524.0 150.0Q483 90 439.5 52.5Q396 15 353.0 -2.5Q310 -20 271 -20Q205 -20 165.0 18.5Q125 57 125 129Q125 179 146 242L319 746Q315 746 311.5 746.0Q308 746 304 746Q268 746 234.0 732.0Q200 718 166.0 682.5Q132 647 96 582L60 597Q92 676 128.5 729.0Q165 782 205.0 813.0Q245 844 287.0 857.5Q329 871 371 871Q391 871 410.5 868.5Q430 866 449.5 862.0Q469 858 487 852L273 223Q267 204 264.0 188.0Q261 172 261 158Q261 122 281.0 104.0Q301 86 337 86Q389 86 441.5 136.5Q494 187 538.5 269.5Q583 352 610 449Z"/><path transform="translate(603.12 136.00) scale(0.00675 -0.00675)" d="M216 233 146 0H13L395 1268Q377 1285 360.0 1298.5Q343 1312 322.5 1323.5Q302 1335 273 1345L281 1370L550 1419H573L289 487L276 489Q318 561 367.0 629.0Q416 697 470.0 751.0Q524 805 582.5 837.0Q641 869 701 869Q784 869 815.5 833.5Q847 798 847 741Q847 709 837.0 670.0Q827 631 810 586L612 71L614 108Q647 108 687.0 122.0Q727 136 770.0 163.0Q813 190 853 227L883 196Q813 114 753.5 66.5Q694 19 644.0 -0.5Q594 -20 549 -20Q484 -20 470.0 -1.5Q456 17 478 73L689 618Q697 639 702.5 659.0Q708 679 708 696Q708 721 692.0 736.0Q676 751 634 751Q586 751 527.0 710.0Q468 669 408.5 597.0Q349 525 298.5 431.5Q248 338 216 233Z"/><path transform="translate(609.42 136.00) scale(0.00675 -0.00675)" d="M497 805Q438 805 391.0 770.0Q344 735 308.5 677.0Q273 619 249.5 549.5Q226 480 214.0 410.0Q202 340 202 282Q202 179 243.0 136.0Q284 93 350 93Q395 93 434.5 109.0Q474 125 510.5 164.5Q547 204 582 276H638Q589 162 540.5 97.5Q492 33 435.5 6.5Q379 -20 304 -20Q229 -20 173.5 9.5Q118 39 87.5 97.0Q57 155 57 240Q57 345 81.5 440.0Q106 535 150.5 613.5Q195 692 253.5 750.0Q312 808 381.0 840.0Q450 872 523 872Q593 872 637.0 847.5Q681 823 701.5 783.5Q722 744 722 699Q722 656 703.5 613.5Q685 571 656 547Q598 523 540.0 500.0Q482 477 423.5 455.5Q365 434 306.5 413.5Q248 393 189 374L192 446Q288 473 357.0 500.0Q426 527 471.5 553.0Q517 579 543.0 605.5Q569 632 580.0 658.5Q591 685 591 712Q591 740 580.0 760.5Q569 781 548.5 793.0Q528 805 497 805Z"/><path transform="translate(614.43 136.00) scale(0.00675 -0.00675)" d="M315 746Q311 746 307.5 746.0Q304 746 300 746Q264 746 230.0 732.0Q196 718 162.0 682.5Q128 647 92 582L56 597Q97 703 145.5 762.5Q194 822 248.0 846.5Q302 871 356 871Q375 871 393.5 868.5Q412 866 430.5 862.0Q449 858 467 852L364 517H359Q421 639 479.0 717.5Q537 796 595.0 834.0Q653 872 713 872Q770 872 796.5 844.5Q823 817 823 774Q823 742 807.0 717.0Q791 692 765.0 678.0Q739 664 708 664Q700 664 691.0 671.5Q682 679 669 698Q656 718 644.0 728.0Q632 738 616 738Q591 738 559.5 714.5Q528 691 494.0 648.5Q460 606 426.0 547.5Q392 489 361.0 418.5Q330 348 306 269L224 0H89Z"/><path transform="translate(619.44 136.00) scale(0.00675 -0.00675)" d="M497 805Q438 805 391.0 770.0Q344 735 308.5 677.0Q273 619 249.5 549.5Q226 480 214.0 410.0Q202 340 202 282Q202 179 243.0 136.0Q284 93 350 93Q395 93 434.5 109.0Q474 125 510.5 164.5Q547 204 582 276H638Q589 162 540.5 97.5Q492 33 435.5 6.5Q379 -20 304 -20Q229 -20 173.5 9.5Q118 39 87.5 97.0Q57 155 57 240Q57 345 81.5 440.0Q106 535 150.5 613.5Q195 692 253.5 750.0Q312 808 381.0 840.0Q450 872 523 872Q593 872 637.0 847.5Q681 823 701.5 783.5Q722 744 722 699Q722 656 703.5 613.5Q685 571 656 547Q598 523 540.0 500.0Q482 477 423.5 455.5Q365 434 306.5 413.5Q248 393 189 374L192 446Q288 473 357.0 500.0Q426 527 471.5 553.0Q517 579 543.0 605.5Q569 632 580.0 658.5Q591 685 591 712Q591 740 580.0 760.5Q569 781 548.5 793.0Q528 805 497 805Z"/><path transform="translate(624.45 136.00) scale(0.00675 -0.00675)" d="M293 224Q341 224 370.5 195.0Q400 166 400 124Q400 87 382.0 55.5Q364 24 333.0 5.0Q302 -14 261 -14Q213 -14 183.5 15.0Q154 44 154 86Q154 123 172.0 154.5Q190 186 221.5 205.0Q253 224 293 224ZM527 1360Q603 1360 669.0 1331.0Q735 1302 785.5 1251.0Q836 1200 864.5 1131.5Q893 1063 893 983Q893 870 846.0 787.0Q799 704 688.5 661.5Q578 619 387 626L481 739L376 396H335L376 754Q533 746 629.0 772.0Q725 798 769.0 859.0Q813 920 813 1017Q813 1082 789.5 1136.0Q766 1190 724.0 1223.0Q682 1256 626 1256Q572 1256 536.5 1245.0Q501 1234 477.0 1219.0Q453 1204 431.0 1193.0Q409 1182 382 1182Q348 1182 329.0 1201.0Q310 1220 310 1250Q310 1281 329.0 1306.0Q348 1331 395.5 1345.5Q443 1360 527 1360Z"/></g>
<!-- raccoon peeking -->
<ellipse cx="540" cy="168" rx="17" ry="15" fill="#9a9080" stroke="#1c1a17" stroke-width="1.4"/>
<rect x="525" y="161" width="30" height="9" rx="4" fill="#4a443b"/>
<circle cx="534" cy="166" r="2.3" fill="#fff"/><circle cx="547" cy="166" r="2.3" fill="#fff"/>
<path d="M528 152 L524 144 M552 152 L556 144" stroke="#1c1a17" stroke-width="1.6" stroke-linecap="round"/>
<g fill="#6f685a"><path transform="translate(187.76 334.00) scale(0.00800 -0.00800)" d="M605 1200 191 83 330 38 318 0H-71L-59 38L103 86L539 1245L394 1302L406 1340H723L850 157H794L1654 1340H1732V1310L762 -19H721L587 1194ZM1670 1340H1972L1960 1302L1794 1250L1521 83L1660 38L1648 0H1194L1206 38L1368 86Z"/><path transform="translate(202.48 334.00) scale(0.00800 -0.00800)" d="M488 45 592 367H618Q543 256 483.0 181.5Q423 107 373.5 63.5Q324 20 282.5 1.5Q241 -17 202 -17Q148 -17 108.0 3.0Q68 23 46.0 66.5Q24 110 24 180Q24 255 53.0 345.5Q82 436 133.5 525.5Q185 615 254.5 690.0Q324 765 406.5 810.0Q489 855 578 855Q636 855 673.5 835.0Q711 815 742 774L702 720Q694 744 667.0 763.5Q640 783 597 783Q525 783 461.0 738.0Q397 693 344.0 621.0Q291 549 252.5 467.5Q214 386 193.0 311.5Q172 237 172 188Q172 145 196.0 124.0Q220 103 257 103Q290 103 341.0 132.0Q392 161 447.0 212.5Q502 264 549.5 334.5Q597 405 624 487L741 852H862H877L626 71L609 109Q642 104 684.5 117.0Q727 130 773.5 158.5Q820 187 864 227L892 195Q784 75 705.5 27.5Q627 -20 560 -20Q517 -20 497.5 -2.0Q478 16 488 45Z"/><path transform="translate(209.86 334.00) scale(0.00800 -0.00800)" d="M573 1419 146 0H13L395 1269Q377 1286 360.0 1299.5Q343 1313 322.5 1324.5Q302 1336 273 1346L281 1371L550 1419ZM284 476 289 492Q407 609 489.5 683.5Q572 758 631.0 799.0Q690 840 736.0 856.0Q782 872 826 872Q874 872 902.0 841.0Q930 810 930 768Q930 733 913.0 706.0Q896 679 868.5 663.5Q841 648 807 648Q794 648 784.5 658.5Q775 669 761 693Q748 717 737.0 726.5Q726 736 712 736Q689 736 649.0 716.0Q609 696 560.0 661.5Q511 627 460.0 582.0Q409 537 364 487L391 543Q451 387 489.5 296.0Q528 205 551.5 161.5Q575 118 592.0 105.0Q609 92 626 92Q647 92 678.5 110.5Q710 129 746.5 162.0Q783 195 818 238L850 209Q787 125 738.0 75.0Q689 25 648.0 2.5Q607 -20 567 -20Q537 -20 512.0 -4.5Q487 11 458.0 60.5Q429 110 388.0 209.0Q347 308 284 476Z"/><path transform="translate(217.06 334.00) scale(0.00800 -0.00800)" d="M497 805Q438 805 391.0 770.0Q344 735 308.5 677.0Q273 619 249.5 549.5Q226 480 214.0 410.0Q202 340 202 282Q202 179 243.0 136.0Q284 93 350 93Q395 93 434.5 109.0Q474 125 510.5 164.5Q547 204 582 276H638Q589 162 540.5 97.5Q492 33 435.5 6.5Q379 -20 304 -20Q229 -20 173.5 9.5Q118 39 87.5 97.0Q57 155 57 240Q57 345 81.5 440.0Q106 535 150.5 613.5Q195 692 253.5 750.0Q312 808 381.0 840.0Q450 872 523 872Q593 872 637.0 847.5Q681 823 701.5 783.5Q722 744 722 699Q722 656 703.5 613.5Q685 571 656 547Q598 523 540.0 500.0Q482 477 423.5 455.5Q365 434 306.5 413.5Q248 393 189 374L192 446Q288 473 357.0 500.0Q426 527 471.5 553.0Q517 579 543.0 605.5Q569 632 580.0 658.5Q591 685 591 712Q591 740 580.0 760.5Q569 781 548.5 793.0Q528 805 497 805Z"/><path transform="translate(226.61 334.00) scale(0.00800 -0.00800)" d="M125 772 143 852H633L617 772ZM262 211Q258 196 255.0 183.5Q252 171 250.5 161.0Q249 151 249 143Q249 127 255.0 119.0Q261 111 271 111Q292 111 329.0 136.0Q366 161 411.0 205.5Q456 250 501 310L541 284Q498 217 454.5 162.0Q411 107 369.0 66.5Q327 26 287.5 4.0Q248 -18 211 -18Q168 -18 142.0 7.0Q116 32 116 93Q116 120 121.5 155.5Q127 191 140 236L360 1026H495Z"/><path transform="translate(231.40 334.00) scale(0.00800 -0.00800)" d="M216 233 146 0H13L395 1268Q377 1285 360.0 1298.5Q343 1312 322.5 1323.5Q302 1335 273 1345L281 1370L550 1419H573L289 487L276 489Q318 561 367.0 629.0Q416 697 470.0 751.0Q524 805 582.5 837.0Q641 869 701 869Q784 869 815.5 833.5Q847 798 847 741Q847 709 837.0 670.0Q827 631 810 586L612 71L614 108Q647 108 687.0 122.0Q727 136 770.0 163.0Q813 190 853 227L883 196Q813 114 753.5 66.5Q694 19 644.0 -0.5Q594 -20 549 -20Q484 -20 470.0 -1.5Q456 17 478 73L689 618Q697 639 702.5 659.0Q708 679 708 696Q708 721 692.0 736.0Q676 751 634 751Q586 751 527.0 710.0Q468 669 408.5 597.0Q349 525 298.5 431.5Q248 338 216 233Z"/><path transform="translate(238.86 334.00) scale(0.00800 -0.00800)" d="M497 805Q438 805 391.0 770.0Q344 735 308.5 677.0Q273 619 249.5 549.5Q226 480 214.0 410.0Q202 340 202 282Q202 179 243.0 136.0Q284 93 350 93Q395 93 434.5 109.0Q474 125 510.5 164.5Q547 204 582 276H638Q589 162 540.5 97.5Q492 33 435.5 6.5Q379 -20 304 -20Q229 -20 173.5 9.5Q118 39 87.5 97.0Q57 155 57 240Q57 345 81.5 440.0Q106 535 150.5 613.5Q195 692 253.5 750.0Q312 808 381.0 840.0Q450 872 523 872Q593 872 637.0 847.5Q681 823 701.5 783.5Q722 744 722 699Q722 656 703.5 613.5Q685 571 656 547Q598 523 540.0 500.0Q482 477 423.5 455.5Q365 434 306.5 413.5Q248 393 189 374L192 446Q288 473 357.0 500.0Q426 527 471.5 553.0Q517 579 543.0 605.5Q569 632 580.0 658.5Q591 685 591 712Q591 740 580.0 760.5Q569 781 548.5 793.0Q528 805 497 805Z"/><path transform="translate(248.41 334.00) scale(0.00800 -0.00800)" d="M88 202Q102 202 115.0 186.0Q128 170 157 125Q186 80 213.5 63.0Q241 46 269 46Q309 46 340.5 60.5Q372 75 390.0 103.5Q408 132 408 173Q408 202 398.5 232.0Q389 262 364.5 299.5Q340 337 294 389Q249 441 223.0 482.0Q197 523 186.5 558.0Q176 593 176 626Q176 694 207.0 750.0Q238 806 299.0 839.0Q360 872 448 872Q515 872 556.5 854.5Q598 837 618.0 808.0Q638 779 638 744Q638 721 628.0 702.5Q618 684 600.0 673.5Q582 663 558 663Q548 663 534.0 674.5Q520 686 493 724Q466 762 437.5 781.0Q409 800 383 800Q333 800 305.0 771.5Q277 743 277 691Q277 669 288.0 641.0Q299 613 324.5 575.0Q350 537 393 484Q437 432 463.0 387.5Q489 343 501.0 305.5Q513 268 513 234Q513 162 474.0 104.5Q435 47 368.0 13.5Q301 -20 216 -20Q143 -20 95.5 0.0Q48 20 25.0 52.0Q2 84 2 119Q2 142 13.0 161.0Q24 180 43.5 191.0Q63 202 88 202Z"/><path transform="translate(253.56 334.00) scale(0.00800 -0.00800)" d="M488 45 592 367H618Q543 256 483.0 181.5Q423 107 373.5 63.5Q324 20 282.5 1.5Q241 -17 202 -17Q148 -17 108.0 3.0Q68 23 46.0 66.5Q24 110 24 180Q24 255 53.0 345.5Q82 436 133.5 525.5Q185 615 254.5 690.0Q324 765 406.5 810.0Q489 855 578 855Q636 855 673.5 835.0Q711 815 742 774L702 720Q694 744 667.0 763.5Q640 783 597 783Q525 783 461.0 738.0Q397 693 344.0 621.0Q291 549 252.5 467.5Q214 386 193.0 311.5Q172 237 172 188Q172 145 196.0 124.0Q220 103 257 103Q290 103 341.0 132.0Q392 161 447.0 212.5Q502 264 549.5 334.5Q597 405 624 487L741 852H862H877L626 71L609 109Q642 104 684.5 117.0Q727 130 773.5 158.5Q820 187 864 227L892 195Q784 75 705.5 27.5Q627 -20 560 -20Q517 -20 497.5 -2.0Q478 16 488 45Z"/><path transform="translate(260.95 334.00) scale(0.00800 -0.00800)" d="M107 772 122 852H682L666 772ZM324 193Q284 -10 230.5 -149.0Q177 -288 111.5 -372.0Q46 -456 -30.0 -493.0Q-106 -530 -191 -530Q-278 -530 -321.5 -497.0Q-365 -464 -365 -413Q-365 -381 -342.5 -353.5Q-320 -326 -286 -326Q-266 -326 -248.0 -343.5Q-230 -361 -208 -387Q-186 -413 -160.5 -425.0Q-135 -437 -110 -437Q-68 -437 -31.0 -416.5Q6 -396 39.0 -341.5Q72 -287 103.0 -188.5Q134 -90 165 66L327 892Q360 1061 430.5 1178.5Q501 1296 605.0 1357.5Q709 1419 841 1419Q914 1419 964.0 1401.5Q1014 1384 1039.5 1354.5Q1065 1325 1065 1287Q1065 1253 1041.0 1228.5Q1017 1204 974 1204Q948 1204 927.5 1232.5Q907 1261 884 1286Q862 1312 833.5 1325.5Q805 1339 765 1339Q692 1339 637.0 1304.0Q582 1269 545.0 1197.5Q508 1126 486 1017Z"/><path transform="translate(265.57 334.00) scale(0.00800 -0.00800)" d="M497 805Q438 805 391.0 770.0Q344 735 308.5 677.0Q273 619 249.5 549.5Q226 480 214.0 410.0Q202 340 202 282Q202 179 243.0 136.0Q284 93 350 93Q395 93 434.5 109.0Q474 125 510.5 164.5Q547 204 582 276H638Q589 162 540.5 97.5Q492 33 435.5 6.5Q379 -20 304 -20Q229 -20 173.5 9.5Q118 39 87.5 97.0Q57 155 57 240Q57 345 81.5 440.0Q106 535 150.5 613.5Q195 692 253.5 750.0Q312 808 381.0 840.0Q450 872 523 872Q593 872 637.0 847.5Q681 823 701.5 783.5Q722 744 722 699Q722 656 703.5 613.5Q685 571 656 547Q598 523 540.0 500.0Q482 477 423.5 455.5Q365 434 306.5 413.5Q248 393 189 374L192 446Q288 473 357.0 500.0Q426 527 471.5 553.0Q517 579 543.0 605.5Q569 632 580.0 658.5Q591 685 591 712Q591 740 580.0 760.5Q569 781 548.5 793.0Q528 805 497 805Z"/><path transform="translate(275.12 334.00) scale(0.00800 -0.00800)" d="M309 286Q297 239 294.0 212.5Q291 186 291 172Q291 120 319.0 82.5Q347 45 416 45Q461 45 509.5 76.0Q558 107 603.5 161.5Q649 216 685.0 286.0Q721 356 742.5 435.5Q764 515 764 596Q764 671 738.0 707.5Q712 744 653 744Q615 744 575.0 722.0Q535 700 497.0 662.0Q459 624 425.5 575.0Q392 526 367.5 472.0Q343 418 329 365ZM177 73H253L116 -424L286 -473L272 -510H-180L-166 -473L-17 -424L304 746Q303 746 301.5 746.0Q300 746 298 746Q262 746 227.5 732.0Q193 718 159.0 682.5Q125 647 90 582L54 597Q95 703 142.5 763.0Q190 823 241.5 848.0Q293 873 345 873Q372 873 399.5 867.5Q427 862 453 854L359 502L352 532Q413 651 475.5 726.0Q538 801 598.5 836.5Q659 872 712 872Q819 872 866.0 802.5Q913 733 913 643Q913 544 887.5 448.0Q862 352 816.0 267.5Q770 183 706.5 118.5Q643 54 565.5 17.0Q488 -20 402 -20Q341 -20 275.0 2.0Q209 24 177 73Z"/><path transform="translate(282.81 334.00) scale(0.00800 -0.00800)" d="M488 45 592 367H618Q543 256 483.0 181.5Q423 107 373.5 63.5Q324 20 282.5 1.5Q241 -17 202 -17Q148 -17 108.0 3.0Q68 23 46.0 66.5Q24 110 24 180Q24 255 53.0 345.5Q82 436 133.5 525.5Q185 615 254.5 690.0Q324 765 406.5 810.0Q489 855 578 855Q636 855 673.5 835.0Q711 815 742 774L702 720Q694 744 667.0 763.5Q640 783 597 783Q525 783 461.0 738.0Q397 693 344.0 621.0Q291 549 252.5 467.5Q214 386 193.0 311.5Q172 237 172 188Q172 145 196.0 124.0Q220 103 257 103Q290 103 341.0 132.0Q392 161 447.0 212.5Q502 264 549.5 334.5Q597 405 624 487L741 852H862H877L626 71L609 109Q642 104 684.5 117.0Q727 130 773.5 158.5Q820 187 864 227L892 195Q784 75 705.5 27.5Q627 -20 560 -20Q517 -20 497.5 -2.0Q478 16 488 45Z"/><path transform="translate(290.20 334.00) scale(0.00800 -0.00800)" d="M125 772 143 852H633L617 772ZM262 211Q258 196 255.0 183.5Q252 171 250.5 161.0Q249 151 249 143Q249 127 255.0 119.0Q261 111 271 111Q292 111 329.0 136.0Q366 161 411.0 205.5Q456 250 501 310L541 284Q498 217 454.5 162.0Q411 107 369.0 66.5Q327 26 287.5 4.0Q248 -18 211 -18Q168 -18 142.0 7.0Q116 32 116 93Q116 120 121.5 155.5Q127 191 140 236L360 1026H495Z"/><path transform="translate(294.98 334.00) scale(0.00800 -0.00800)" d="M216 233 146 0H13L395 1268Q377 1285 360.0 1298.5Q343 1312 322.5 1323.5Q302 1335 273 1345L281 1370L550 1419H573L289 487L276 489Q318 561 367.0 629.0Q416 697 470.0 751.0Q524 805 582.5 837.0Q641 869 701 869Q784 869 815.5 833.5Q847 798 847 741Q847 709 837.0 670.0Q827 631 810 586L612 71L614 108Q647 108 687.0 122.0Q727 136 770.0 163.0Q813 190 853 227L883 196Q813 114 753.5 66.5Q694 19 644.0 -0.5Q594 -20 549 -20Q484 -20 470.0 -1.5Q456 17 478 73L689 618Q697 639 702.5 659.0Q708 679 708 696Q708 721 692.0 736.0Q676 751 634 751Q586 751 527.0 710.0Q468 669 408.5 597.0Q349 525 298.5 431.5Q248 338 216 233Z"/><path transform="translate(306.06 334.00) scale(0.00800 -0.00800)" d="M125 772 143 852H633L617 772ZM262 211Q258 196 255.0 183.5Q252 171 250.5 161.0Q249 151 249 143Q249 127 255.0 119.0Q261 111 271 111Q292 111 329.0 136.0Q366 161 411.0 205.5Q456 250 501 310L541 284Q498 217 454.5 162.0Q411 107 369.0 66.5Q327 26 287.5 4.0Q248 -18 211 -18Q168 -18 142.0 7.0Q116 32 116 93Q116 120 121.5 155.5Q127 191 140 236L360 1026H495Z"/><path transform="translate(310.84 334.00) scale(0.00800 -0.00800)" d="M216 233 146 0H13L395 1268Q377 1285 360.0 1298.5Q343 1312 322.5 1323.5Q302 1335 273 1345L281 1370L550 1419H573L289 487L276 489Q318 561 367.0 629.0Q416 697 470.0 751.0Q524 805 582.5 837.0Q641 869 701 869Q784 869 815.5 833.5Q847 798 847 741Q847 709 837.0 670.0Q827 631 810 586L612 71L614 108Q647 108 687.0 122.0Q727 136 770.0 163.0Q813 190 853 227L883 196Q813 114 753.5 66.5Q694 19 644.0 -0.5Q594 -20 549 -20Q484 -20 470.0 -1.5Q456 17 478 73L689 618Q697 639 702.5 659.0Q708 679 708 696Q708 721 692.0 736.0Q676 751 634 751Q586 751 527.0 710.0Q468 669 408.5 597.0Q349 525 298.5 431.5Q248 338 216 233Z"/><path transform="translate(318.31 334.00) scale(0.00800 -0.00800)" d="M497 805Q438 805 391.0 770.0Q344 735 308.5 677.0Q273 619 249.5 549.5Q226 480 214.0 410.0Q202 340 202 282Q202 179 243.0 136.0Q284 93 350 93Q395 93 434.5 109.0Q474 125 510.5 164.5Q547 204 582 276H638Q589 162 540.5 97.5Q492 33 435.5 6.5Q379 -20 304 -20Q229 -20 173.5 9.5Q118 39 87.5 97.0Q57 155 57 240Q57 345 81.5 440.0Q106 535 150.5 613.5Q195 692 253.5 750.0Q312 808 381.0 840.0Q450 872 523 872Q593 872 637.0 847.5Q681 823 701.5 783.5Q722 744 722 699Q722 656 703.5 613.5Q685 571 656 547Q598 523 540.0 500.0Q482 477 423.5 455.5Q365 434 306.5 413.5Q248 393 189 374L192 446Q288 473 357.0 500.0Q426 527 471.5 553.0Q517 579 543.0 605.5Q569 632 580.0 658.5Q591 685 591 712Q591 740 580.0 760.5Q569 781 548.5 793.0Q528 805 497 805Z"/><path transform="translate(327.86 334.00) scale(0.00800 -0.00800)" d="M497 805Q438 805 391.0 770.0Q344 735 308.5 677.0Q273 619 249.5 549.5Q226 480 214.0 410.0Q202 340 202 282Q202 179 243.0 136.0Q284 93 350 93Q395 93 434.5 109.0Q474 125 510.5 164.5Q547 204 582 276H638Q589 162 540.5 97.5Q492 33 435.5 6.5Q379 -20 304 -20Q229 -20 173.5 9.5Q118 39 87.5 97.0Q57 155 57 240Q57 345 81.5 440.0Q106 535 150.5 613.5Q195 692 253.5 750.0Q312 808 381.0 840.0Q450 872 523 872Q593 872 637.0 847.5Q681 823 701.5 783.5Q722 744 722 699Q722 656 703.5 613.5Q685 571 656 547Q598 523 540.0 500.0Q482 477 423.5 455.5Q365 434 306.5 413.5Q248 393 189 374L192 446Q288 473 357.0 500.0Q426 527 471.5 553.0Q517 579 543.0 605.5Q569 632 580.0 658.5Q591 685 591 712Q591 740 580.0 760.5Q569 781 548.5 793.0Q528 805 497 805Z"/><path transform="translate(333.80 334.00) scale(0.00800 -0.00800)" d="M488 45 592 367H618Q543 256 483.0 181.5Q423 107 373.5 63.5Q324 20 282.5 1.5Q241 -17 202 -17Q148 -17 108.0 3.0Q68 23 46.0 66.5Q24 110 24 180Q24 255 53.0 345.5Q82 436 133.5 525.5Q185 615 254.5 690.0Q324 765 406.5 810.0Q489 855 578 855Q636 855 673.5 835.0Q711 815 742 774L702 720Q694 744 667.0 763.5Q640 783 597 783Q525 783 461.0 738.0Q397 693 344.0 621.0Q291 549 252.5 467.5Q214 386 193.0 311.5Q172 237 172 188Q172 145 196.0 124.0Q220 103 257 103Q290 103 341.0 132.0Q392 161 447.0 212.5Q502 264 549.5 334.5Q597 405 624 487L741 852H862H877L626 71L609 109Q642 104 684.5 117.0Q727 130 773.5 158.5Q820 187 864 227L892 195Q784 75 705.5 27.5Q627 -20 560 -20Q517 -20 497.5 -2.0Q478 16 488 45Z"/><path transform="translate(341.18 334.00) scale(0.00800 -0.00800)" d="M88 202Q102 202 115.0 186.0Q128 170 157 125Q186 80 213.5 63.0Q241 46 269 46Q309 46 340.5 60.5Q372 75 390.0 103.5Q408 132 408 173Q408 202 398.5 232.0Q389 262 364.5 299.5Q340 337 294 389Q249 441 223.0 482.0Q197 523 186.5 558.0Q176 593 176 626Q176 694 207.0 750.0Q238 806 299.0 839.0Q360 872 448 872Q515 872 556.5 854.5Q598 837 618.0 808.0Q638 779 638 744Q638 721 628.0 702.5Q618 684 600.0 673.5Q582 663 558 663Q548 663 534.0 674.5Q520 686 493 724Q466 762 437.5 781.0Q409 800 383 800Q333 800 305.0 771.5Q277 743 277 691Q277 669 288.0 641.0Q299 613 324.5 575.0Q350 537 393 484Q437 432 463.0 387.5Q489 343 501.0 305.5Q513 268 513 234Q513 162 474.0 104.5Q435 47 368.0 13.5Q301 -20 216 -20Q143 -20 95.5 0.0Q48 20 25.0 52.0Q2 84 2 119Q2 142 13.0 161.0Q24 180 43.5 191.0Q63 202 88 202Z"/><path transform="translate(346.33 334.00) scale(0.00800 -0.00800)" d="M107 513H66Q79 617 100.5 686.5Q122 756 151.5 796.5Q181 837 219.0 854.5Q257 872 303 872Q326 872 342.5 861.5Q359 851 372.5 823.0Q386 795 397 743Q409 691 423.0 590.5Q437 490 457.0 327.5Q477 165 505 -74L378 -169Q360 -10 345.5 108.5Q331 227 320.0 314.0Q309 401 300.0 466.0Q291 531 283 582Q272 651 265.0 683.0Q258 715 251.5 724.0Q245 733 234 733Q211 733 188.5 714.0Q166 695 145.5 647.0Q125 599 107 513ZM424 -69 457 -33Q538 90 590.5 194.0Q643 298 673.5 398.0Q704 498 716.0 608.0Q728 718 727 854Q759 865 784.5 868.5Q810 872 834 872Q860 872 873.5 861.0Q887 850 887 825Q887 773 876.5 712.0Q866 651 842.5 578.5Q819 506 780.5 419.5Q742 333 686.5 229.5Q631 126 556 2Q431 -204 333.0 -320.0Q235 -436 151.0 -483.0Q67 -530 -18 -530Q-91 -530 -123.5 -497.5Q-156 -465 -156 -412Q-156 -371 -132.5 -345.0Q-109 -319 -75 -319Q-66 -319 -55.0 -327.0Q-44 -335 -16 -364Q13 -392 36.5 -402.5Q60 -413 82 -413Q119 -413 176.0 -370.0Q233 -327 298.0 -249.5Q363 -172 424 -69Z"/><path transform="translate(357.12 334.00) scale(0.00800 -0.00800)" d="M309 286Q297 239 294.0 212.5Q291 186 291 172Q291 120 319.0 82.5Q347 45 416 45Q461 45 509.5 76.0Q558 107 603.5 161.5Q649 216 685.0 286.0Q721 356 742.5 435.5Q764 515 764 596Q764 671 738.0 707.5Q712 744 653 744Q615 744 575.0 722.0Q535 700 497.0 662.0Q459 624 425.5 575.0Q392 526 367.5 472.0Q343 418 329 365ZM177 73H253L116 -424L286 -473L272 -510H-180L-166 -473L-17 -424L304 746Q303 746 301.5 746.0Q300 746 298 746Q262 746 227.5 732.0Q193 718 159.0 682.5Q125 647 90 582L54 597Q95 703 142.5 763.0Q190 823 241.5 848.0Q293 873 345 873Q372 873 399.5 867.5Q427 862 453 854L359 502L352 532Q413 651 475.5 726.0Q538 801 598.5 836.5Q659 872 712 872Q819 872 866.0 802.5Q913 733 913 643Q913 544 887.5 448.0Q862 352 816.0 267.5Q770 183 706.5 118.5Q643 54 565.5 17.0Q488 -20 402 -20Q341 -20 275.0 2.0Q209 24 177 73Z"/><path transform="translate(364.81 334.00) scale(0.00800 -0.00800)" d="M488 45 592 367H618Q543 256 483.0 181.5Q423 107 373.5 63.5Q324 20 282.5 1.5Q241 -17 202 -17Q148 -17 108.0 3.0Q68 23 46.0 66.5Q24 110 24 180Q24 255 53.0 345.5Q82 436 133.5 525.5Q185 615 254.5 690.0Q324 765 406.5 810.0Q489 855 578 855Q636 855 673.5 835.0Q711 815 742 774L702 720Q694 744 667.0 763.5Q640 783 597 783Q525 783 461.0 738.0Q397 693 344.0 621.0Q291 549 252.5 467.5Q214 386 193.0 311.5Q172 237 172 188Q172 145 196.0 124.0Q220 103 257 103Q290 103 341.0 132.0Q392 161 447.0 212.5Q502 264 549.5 334.5Q597 405 624 487L741 852H862H877L626 71L609 109Q642 104 684.5 117.0Q727 130 773.5 158.5Q820 187 864 227L892 195Q784 75 705.5 27.5Q627 -20 560 -20Q517 -20 497.5 -2.0Q478 16 488 45Z"/><path transform="translate(372.20 334.00) scale(0.00800 -0.00800)" d="M125 772 143 852H633L617 772ZM262 211Q258 196 255.0 183.5Q252 171 250.5 161.0Q249 151 249 143Q249 127 255.0 119.0Q261 111 271 111Q292 111 329.0 136.0Q366 161 411.0 205.5Q456 250 501 310L541 284Q498 217 454.5 162.0Q411 107 369.0 66.5Q327 26 287.5 4.0Q248 -18 211 -18Q168 -18 142.0 7.0Q116 32 116 93Q116 120 121.5 155.5Q127 191 140 236L360 1026H495Z"/><path transform="translate(376.98 334.00) scale(0.00800 -0.00800)" d="M216 233 146 0H13L395 1268Q377 1285 360.0 1298.5Q343 1312 322.5 1323.5Q302 1335 273 1345L281 1370L550 1419H573L289 487L276 489Q318 561 367.0 629.0Q416 697 470.0 751.0Q524 805 582.5 837.0Q641 869 701 869Q784 869 815.5 833.5Q847 798 847 741Q847 709 837.0 670.0Q827 631 810 586L612 71L614 108Q647 108 687.0 122.0Q727 136 770.0 163.0Q813 190 853 227L883 196Q813 114 753.5 66.5Q694 19 644.0 -0.5Q594 -20 549 -20Q484 -20 470.0 -1.5Q456 17 478 73L689 618Q697 639 702.5 659.0Q708 679 708 696Q708 721 692.0 736.0Q676 751 634 751Q586 751 527.0 710.0Q468 669 408.5 597.0Q349 525 298.5 431.5Q248 338 216 233Z"/><path transform="translate(384.44 334.00) scale(0.00800 -0.00800)" d="M-136 -299Q-39 -243 14.5 -195.0Q68 -147 89.5 -106.0Q111 -65 111 -31Q111 -4 98.0 14.0Q85 32 67.5 46.0Q50 60 37.0 71.5Q24 83 24 96Q24 133 40.5 161.5Q57 190 87.0 206.5Q117 223 158 223Q204 223 235.0 192.5Q266 162 266 105Q266 53 248.5 0.0Q231 -53 189.5 -108.0Q148 -163 75.5 -223.5Q3 -284 -108 -351Z"/><path transform="translate(391.64 334.00) scale(0.00800 -0.00800)" d="M527 872Q607 872 664.5 837.5Q722 803 753.5 738.0Q785 673 785 580Q785 463 749.5 355.5Q714 248 651.0 163.5Q588 79 503.5 29.5Q419 -20 320 -20Q241 -20 183.0 14.5Q125 49 93.5 114.5Q62 180 62 272Q62 389 97.5 496.5Q133 604 196.0 688.5Q259 773 343.5 822.5Q428 872 527 872ZM322 47Q373 47 420.5 81.0Q468 115 508.5 173.5Q549 232 579.5 306.0Q610 380 627.0 461.0Q644 542 644 620Q644 715 615.5 760.0Q587 805 525 805Q474 805 426.5 771.0Q379 737 338.5 678.5Q298 620 267.5 546.0Q237 472 220.0 391.0Q203 310 203 232Q203 138 231.5 92.5Q260 47 322 47Z"/><path transform="translate(398.43 334.00) scale(0.00800 -0.00800)" d="M315 746Q311 746 307.5 746.0Q304 746 300 746Q264 746 230.0 732.0Q196 718 162.0 682.5Q128 647 92 582L56 597Q97 703 145.5 762.5Q194 822 248.0 846.5Q302 871 356 871Q375 871 393.5 868.5Q412 866 430.5 862.0Q449 858 467 852L364 517H359Q421 639 479.0 717.5Q537 796 595.0 834.0Q653 872 713 872Q770 872 796.5 844.5Q823 817 823 774Q823 742 807.0 717.0Q791 692 765.0 678.0Q739 664 708 664Q700 664 691.0 671.5Q682 679 669 698Q656 718 644.0 728.0Q632 738 616 738Q591 738 559.5 714.5Q528 691 494.0 648.5Q460 606 426.0 547.5Q392 489 361.0 418.5Q330 348 306 269L224 0H89Z"/><path transform="translate(407.99 334.00) scale(0.00800 -0.00800)" d="M125 772 143 852H633L617 772ZM262 211Q258 196 255.0 183.5Q252 171 250.5 161.0Q249 151 249 143Q249 127 255.0 119.0Q261 111 271 111Q292 111 329.0 136.0Q366 161 411.0 205.5Q456 250 501 310L541 284Q498 217 454.5 162.0Q411 107 369.0 66.5Q327 26 287.5 4.0Q248 -18 211 -18Q168 -18 142.0 7.0Q116 32 116 93Q116 120 121.5 155.5Q127 191 140 236L360 1026H495Z"/><path transform="translate(412.77 334.00) scale(0.00800 -0.00800)" d="M216 233 146 0H13L395 1268Q377 1285 360.0 1298.5Q343 1312 322.5 1323.5Q302 1335 273 1345L281 1370L550 1419H573L289 487L276 489Q318 561 367.0 629.0Q416 697 470.0 751.0Q524 805 582.5 837.0Q641 869 701 869Q784 869 815.5 833.5Q847 798 847 741Q847 709 837.0 670.0Q827 631 810 586L612 71L614 108Q647 108 687.0 122.0Q727 136 770.0 163.0Q813 190 853 227L883 196Q813 114 753.5 66.5Q694 19 644.0 -0.5Q594 -20 549 -20Q484 -20 470.0 -1.5Q456 17 478 73L689 618Q697 639 702.5 659.0Q708 679 708 696Q708 721 692.0 736.0Q676 751 634 751Q586 751 527.0 710.0Q468 669 408.5 597.0Q349 525 298.5 431.5Q248 338 216 233Z"/><path transform="translate(420.24 334.00) scale(0.00800 -0.00800)" d="M497 805Q438 805 391.0 770.0Q344 735 308.5 677.0Q273 619 249.5 549.5Q226 480 214.0 410.0Q202 340 202 282Q202 179 243.0 136.0Q284 93 350 93Q395 93 434.5 109.0Q474 125 510.5 164.5Q547 204 582 276H638Q589 162 540.5 97.5Q492 33 435.5 6.5Q379 -20 304 -20Q229 -20 173.5 9.5Q118 39 87.5 97.0Q57 155 57 240Q57 345 81.5 440.0Q106 535 150.5 613.5Q195 692 253.5 750.0Q312 808 381.0 840.0Q450 872 523 872Q593 872 637.0 847.5Q681 823 701.5 783.5Q722 744 722 699Q722 656 703.5 613.5Q685 571 656 547Q598 523 540.0 500.0Q482 477 423.5 455.5Q365 434 306.5 413.5Q248 393 189 374L192 446Q288 473 357.0 500.0Q426 527 471.5 553.0Q517 579 543.0 605.5Q569 632 580.0 658.5Q591 685 591 712Q591 740 580.0 760.5Q569 781 548.5 793.0Q528 805 497 805Z"/><path transform="translate(426.17 334.00) scale(0.00800 -0.00800)" d="M107 513H66Q79 617 100.5 686.5Q122 756 151.5 796.5Q181 837 219.0 854.5Q257 872 303 872Q326 872 342.5 861.5Q359 851 372.5 823.0Q386 795 397 743Q409 691 423.0 590.5Q437 490 457.0 327.5Q477 165 505 -74L378 -169Q360 -10 345.5 108.5Q331 227 320.0 314.0Q309 401 300.0 466.0Q291 531 283 582Q272 651 265.0 683.0Q258 715 251.5 724.0Q245 733 234 733Q211 733 188.5 714.0Q166 695 145.5 647.0Q125 599 107 513ZM424 -69 457 -33Q538 90 590.5 194.0Q643 298 673.5 398.0Q704 498 716.0 608.0Q728 718 727 854Q759 865 784.5 868.5Q810 872 834 872Q860 872 873.5 861.0Q887 850 887 825Q887 773 876.5 712.0Q866 651 842.5 578.5Q819 506 780.5 419.5Q742 333 686.5 229.5Q631 126 556 2Q431 -204 333.0 -320.0Q235 -436 151.0 -483.0Q67 -530 -18 -530Q-91 -530 -123.5 -497.5Q-156 -465 -156 -412Q-156 -371 -132.5 -345.0Q-109 -319 -75 -319Q-66 -319 -55.0 -327.0Q-44 -335 -16 -364Q13 -392 36.5 -402.5Q60 -413 82 -413Q119 -413 176.0 -370.0Q233 -327 298.0 -249.5Q363 -172 424 -69Z"/><path transform="translate(436.96 334.00) scale(0.00800 -0.00800)" d="M725 852H855L675 223Q669 201 666.0 183.5Q663 166 663 152Q663 116 682.0 101.0Q701 86 737 86Q790 86 841.5 122.5Q893 159 938.5 217.0Q984 275 1019.5 342.5Q1055 410 1075.0 473.0Q1095 536 1095 581Q1095 615 1079.0 644.5Q1063 674 1042.5 698.5Q1022 723 1006.0 741.0Q990 759 990 770Q990 822 1024.5 847.0Q1059 872 1099 872Q1135 872 1160.0 855.5Q1185 839 1197.5 808.0Q1210 777 1210 731Q1210 648 1182.5 547.5Q1155 447 1105.5 347.0Q1056 247 990.0 164.0Q924 81 846.5 30.5Q769 -20 686 -20Q618 -20 581.0 10.5Q544 41 544 113Q544 138 548.5 168.5Q553 199 563 235L579 295H599Q565 210 524.0 150.0Q483 90 439.5 52.5Q396 15 353.0 -2.5Q310 -20 271 -20Q205 -20 165.0 18.5Q125 57 125 129Q125 179 146 242L319 746Q315 746 311.5 746.0Q308 746 304 746Q268 746 234.0 732.0Q200 718 166.0 682.5Q132 647 96 582L60 597Q92 676 128.5 729.0Q165 782 205.0 813.0Q245 844 287.0 857.5Q329 871 371 871Q391 871 410.5 868.5Q430 866 449.5 862.0Q469 858 487 852L273 223Q267 204 264.0 188.0Q261 172 261 158Q261 122 281.0 104.0Q301 86 337 86Q389 86 441.5 136.5Q494 187 538.5 269.5Q583 352 610 449Z"/><path transform="translate(446.96 334.00) scale(0.00800 -0.00800)" d="M65 35 325 761 354 739Q322 740 280.5 723.0Q239 706 195.0 674.5Q151 643 111 598L81 627Q150 725 207.5 778.0Q265 831 315.0 851.5Q365 872 410 872Q448 872 466.5 857.5Q485 843 476 817L216 71L199 109Q232 105 274.5 118.0Q317 131 363.5 159.0Q410 187 454 227L482 195Q412 113 353.0 66.0Q294 19 244.5 -0.5Q195 -20 150 -20Q95 -20 75.0 -6.0Q55 8 65 35ZM399 1300Q399 1332 413.5 1357.5Q428 1383 453.5 1398.0Q479 1413 513 1413Q564 1413 595.5 1380.5Q627 1348 627 1300Q627 1268 612.5 1242.5Q598 1217 572.5 1202.0Q547 1187 513 1187Q462 1187 430.5 1219.5Q399 1252 399 1300Z"/><path transform="translate(451.24 334.00) scale(0.00800 -0.00800)" d="M404 1268Q386 1285 369.0 1298.5Q352 1312 331.5 1323.5Q311 1335 282 1345L290 1370L559 1419H582L179 81L167 109Q200 105 242.5 118.0Q285 131 331.5 159.0Q378 187 422 227L450 195Q380 113 321.0 66.0Q262 19 212.5 -0.5Q163 -20 118 -20Q71 -20 47.5 -7.0Q24 6 33 35Z"/><path transform="translate(455.16 334.00) scale(0.00800 -0.00800)" d="M404 1268Q386 1285 369.0 1298.5Q352 1312 331.5 1323.5Q311 1335 282 1345L290 1370L559 1419H582L179 81L167 109Q200 105 242.5 118.0Q285 131 331.5 159.0Q378 187 422 227L450 195Q380 113 321.0 66.0Q262 19 212.5 -0.5Q163 -20 118 -20Q71 -20 47.5 -7.0Q24 6 33 35Z"/><path transform="translate(462.70 334.00) scale(0.00800 -0.00800)" d="M125 772 143 852H633L617 772ZM262 211Q258 196 255.0 183.5Q252 171 250.5 161.0Q249 151 249 143Q249 127 255.0 119.0Q261 111 271 111Q292 111 329.0 136.0Q366 161 411.0 205.5Q456 250 501 310L541 284Q498 217 454.5 162.0Q411 107 369.0 66.5Q327 26 287.5 4.0Q248 -18 211 -18Q168 -18 142.0 7.0Q116 32 116 93Q116 120 121.5 155.5Q127 191 140 236L360 1026H495Z"/><path transform="translate(467.48 334.00) scale(0.00800 -0.00800)" d="M488 45 592 367H618Q543 256 483.0 181.5Q423 107 373.5 63.5Q324 20 282.5 1.5Q241 -17 202 -17Q148 -17 108.0 3.0Q68 23 46.0 66.5Q24 110 24 180Q24 255 53.0 345.5Q82 436 133.5 525.5Q185 615 254.5 690.0Q324 765 406.5 810.0Q489 855 578 855Q636 855 673.5 835.0Q711 815 742 774L702 720Q694 744 667.0 763.5Q640 783 597 783Q525 783 461.0 738.0Q397 693 344.0 621.0Q291 549 252.5 467.5Q214 386 193.0 311.5Q172 237 172 188Q172 145 196.0 124.0Q220 103 257 103Q290 103 341.0 132.0Q392 161 447.0 212.5Q502 264 549.5 334.5Q597 405 624 487L741 852H862H877L626 71L609 109Q642 104 684.5 117.0Q727 130 773.5 158.5Q820 187 864 227L892 195Q784 75 705.5 27.5Q627 -20 560 -20Q517 -20 497.5 -2.0Q478 16 488 45Z"/><path transform="translate(474.87 334.00) scale(0.00800 -0.00800)" d="M573 1419 146 0H13L395 1269Q377 1286 360.0 1299.5Q343 1313 322.5 1324.5Q302 1336 273 1346L281 1371L550 1419ZM284 476 289 492Q407 609 489.5 683.5Q572 758 631.0 799.0Q690 840 736.0 856.0Q782 872 826 872Q874 872 902.0 841.0Q930 810 930 768Q930 733 913.0 706.0Q896 679 868.5 663.5Q841 648 807 648Q794 648 784.5 658.5Q775 669 761 693Q748 717 737.0 726.5Q726 736 712 736Q689 736 649.0 716.0Q609 696 560.0 661.5Q511 627 460.0 582.0Q409 537 364 487L391 543Q451 387 489.5 296.0Q528 205 551.5 161.5Q575 118 592.0 105.0Q609 92 626 92Q647 92 678.5 110.5Q710 129 746.5 162.0Q783 195 818 238L850 209Q787 125 738.0 75.0Q689 25 648.0 2.5Q607 -20 567 -20Q537 -20 512.0 -4.5Q487 11 458.0 60.5Q429 110 388.0 209.0Q347 308 284 476Z"/><path transform="translate(482.07 334.00) scale(0.00800 -0.00800)" d="M497 805Q438 805 391.0 770.0Q344 735 308.5 677.0Q273 619 249.5 549.5Q226 480 214.0 410.0Q202 340 202 282Q202 179 243.0 136.0Q284 93 350 93Q395 93 434.5 109.0Q474 125 510.5 164.5Q547 204 582 276H638Q589 162 540.5 97.5Q492 33 435.5 6.5Q379 -20 304 -20Q229 -20 173.5 9.5Q118 39 87.5 97.0Q57 155 57 240Q57 345 81.5 440.0Q106 535 150.5 613.5Q195 692 253.5 750.0Q312 808 381.0 840.0Q450 872 523 872Q593 872 637.0 847.5Q681 823 701.5 783.5Q722 744 722 699Q722 656 703.5 613.5Q685 571 656 547Q598 523 540.0 500.0Q482 477 423.5 455.5Q365 434 306.5 413.5Q248 393 189 374L192 446Q288 473 357.0 500.0Q426 527 471.5 553.0Q517 579 543.0 605.5Q569 632 580.0 658.5Q591 685 591 712Q591 740 580.0 760.5Q569 781 548.5 793.0Q528 805 497 805Z"/><path transform="translate(491.62 334.00) scale(0.00800 -0.00800)" d="M125 772 143 852H633L617 772ZM262 211Q258 196 255.0 183.5Q252 171 250.5 161.0Q249 151 249 143Q249 127 255.0 119.0Q261 111 271 111Q292 111 329.0 136.0Q366 161 411.0 205.5Q456 250 501 310L541 284Q498 217 454.5 162.0Q411 107 369.0 66.5Q327 26 287.5 4.0Q248 -18 211 -18Q168 -18 142.0 7.0Q116 32 116 93Q116 120 121.5 155.5Q127 191 140 236L360 1026H495Z"/><path transform="translate(496.40 334.00) scale(0.00800 -0.00800)" d="M216 233 146 0H13L395 1268Q377 1285 360.0 1298.5Q343 1312 322.5 1323.5Q302 1335 273 1345L281 1370L550 1419H573L289 487L276 489Q318 561 367.0 629.0Q416 697 470.0 751.0Q524 805 582.5 837.0Q641 869 701 869Q784 869 815.5 833.5Q847 798 847 741Q847 709 837.0 670.0Q827 631 810 586L612 71L614 108Q647 108 687.0 122.0Q727 136 770.0 163.0Q813 190 853 227L883 196Q813 114 753.5 66.5Q694 19 644.0 -0.5Q594 -20 549 -20Q484 -20 470.0 -1.5Q456 17 478 73L689 618Q697 639 702.5 659.0Q708 679 708 696Q708 721 692.0 736.0Q676 751 634 751Q586 751 527.0 710.0Q468 669 408.5 597.0Q349 525 298.5 431.5Q248 338 216 233Z"/><path transform="translate(503.87 334.00) scale(0.00800 -0.00800)" d="M497 805Q438 805 391.0 770.0Q344 735 308.5 677.0Q273 619 249.5 549.5Q226 480 214.0 410.0Q202 340 202 282Q202 179 243.0 136.0Q284 93 350 93Q395 93 434.5 109.0Q474 125 510.5 164.5Q547 204 582 276H638Q589 162 540.5 97.5Q492 33 435.5 6.5Q379 -20 304 -20Q229 -20 173.5 9.5Q118 39 87.5 97.0Q57 155 57 240Q57 345 81.5 440.0Q106 535 150.5 613.5Q195 692 253.5 750.0Q312 808 381.0 840.0Q450 872 523 872Q593 872 637.0 847.5Q681 823 701.5 783.5Q722 744 722 699Q722 656 703.5 613.5Q685 571 656 547Q598 523 540.0 500.0Q482 477 423.5 455.5Q365 434 306.5 413.5Q248 393 189 374L192 446Q288 473 357.0 500.0Q426 527 471.5 553.0Q517 579 543.0 605.5Q569 632 580.0 658.5Q591 685 591 712Q591 740 580.0 760.5Q569 781 548.5 793.0Q528 805 497 805Z"/><path transform="translate(513.42 334.00) scale(0.00800 -0.00800)" d="M527 872Q607 872 664.5 837.5Q722 803 753.5 738.0Q785 673 785 580Q785 463 749.5 355.5Q714 248 651.0 163.5Q588 79 503.5 29.5Q419 -20 320 -20Q241 -20 183.0 14.5Q125 49 93.5 114.5Q62 180 62 272Q62 389 97.5 496.5Q133 604 196.0 688.5Q259 773 343.5 822.5Q428 872 527 872ZM322 47Q373 47 420.5 81.0Q468 115 508.5 173.5Q549 232 579.5 306.0Q610 380 627.0 461.0Q644 542 644 620Q644 715 615.5 760.0Q587 805 525 805Q474 805 426.5 771.0Q379 737 338.5 678.5Q298 620 267.5 546.0Q237 472 220.0 391.0Q203 310 203 232Q203 138 231.5 92.5Q260 47 322 47Z"/><path transform="translate(520.20 334.00) scale(0.00800 -0.00800)" d="M125 772 143 852H633L617 772ZM262 211Q258 196 255.0 183.5Q252 171 250.5 161.0Q249 151 249 143Q249 127 255.0 119.0Q261 111 271 111Q292 111 329.0 136.0Q366 161 411.0 205.5Q456 250 501 310L541 284Q498 217 454.5 162.0Q411 107 369.0 66.5Q327 26 287.5 4.0Q248 -18 211 -18Q168 -18 142.0 7.0Q116 32 116 93Q116 120 121.5 155.5Q127 191 140 236L360 1026H495Z"/><path transform="translate(524.99 334.00) scale(0.00800 -0.00800)" d="M216 233 146 0H13L395 1268Q377 1285 360.0 1298.5Q343 1312 322.5 1323.5Q302 1335 273 1345L281 1370L550 1419H573L289 487L276 489Q318 561 367.0 629.0Q416 697 470.0 751.0Q524 805 582.5 837.0Q641 869 701 869Q784 869 815.5 833.5Q847 798 847 741Q847 709 837.0 670.0Q827 631 810 586L612 71L614 108Q647 108 687.0 122.0Q727 136 770.0 163.0Q813 190 853 227L883 196Q813 114 753.5 66.5Q694 19 644.0 -0.5Q594 -20 549 -20Q484 -20 470.0 -1.5Q456 17 478 73L689 618Q697 639 702.5 659.0Q708 679 708 696Q708 721 692.0 736.0Q676 751 634 751Q586 751 527.0 710.0Q468 669 408.5 597.0Q349 525 298.5 431.5Q248 338 216 233Z"/><path transform="translate(532.45 334.00) scale(0.00800 -0.00800)" d="M497 805Q438 805 391.0 770.0Q344 735 308.5 677.0Q273 619 249.5 549.5Q226 480 214.0 410.0Q202 340 202 282Q202 179 243.0 136.0Q284 93 350 93Q395 93 434.5 109.0Q474 125 510.5 164.5Q547 204 582 276H638Q589 162 540.5 97.5Q492 33 435.5 6.5Q379 -20 304 -20Q229 -20 173.5 9.5Q118 39 87.5 97.0Q57 155 57 240Q57 345 81.5 440.0Q106 535 150.5 613.5Q195 692 253.5 750.0Q312 808 381.0 840.0Q450 872 523 872Q593 872 637.0 847.5Q681 823 701.5 783.5Q722 744 722 699Q722 656 703.5 613.5Q685 571 656 547Q598 523 540.0 500.0Q482 477 423.5 455.5Q365 434 306.5 413.5Q248 393 189 374L192 446Q288 473 357.0 500.0Q426 527 471.5 553.0Q517 579 543.0 605.5Q569 632 580.0 658.5Q591 685 591 712Q591 740 580.0 760.5Q569 781 548.5 793.0Q528 805 497 805Z"/><path transform="translate(538.39 334.00) scale(0.00800 -0.00800)" d="M315 746Q311 746 307.5 746.0Q304 746 300 746Q264 746 230.0 732.0Q196 718 162.0 682.5Q128 647 92 582L56 597Q97 703 145.5 762.5Q194 822 248.0 846.5Q302 871 356 871Q375 871 393.5 868.5Q412 866 430.5 862.0Q449 858 467 852L364 517H359Q421 639 479.0 717.5Q537 796 595.0 834.0Q653 872 713 872Q770 872 796.5 844.5Q823 817 823 774Q823 742 807.0 717.0Q791 692 765.0 678.0Q739 664 708 664Q700 664 691.0 671.5Q682 679 669 698Q656 718 644.0 728.0Q632 738 616 738Q591 738 559.5 714.5Q528 691 494.0 648.5Q460 606 426.0 547.5Q392 489 361.0 418.5Q330 348 306 269L224 0H89Z"/><path transform="translate(547.95 334.00) scale(0.00800 -0.00800)" d="M527 872Q607 872 664.5 837.5Q722 803 753.5 738.0Q785 673 785 580Q785 463 749.5 355.5Q714 248 651.0 163.5Q588 79 503.5 29.5Q419 -20 320 -20Q241 -20 183.0 14.5Q125 49 93.5 114.5Q62 180 62 272Q62 389 97.5 496.5Q133 604 196.0 688.5Q259 773 343.5 822.5Q428 872 527 872ZM322 47Q373 47 420.5 81.0Q468 115 508.5 173.5Q549 232 579.5 306.0Q610 380 627.0 461.0Q644 542 644 620Q644 715 615.5 760.0Q587 805 525 805Q474 805 426.5 771.0Q379 737 338.5 678.5Q298 620 267.5 546.0Q237 472 220.0 391.0Q203 310 203 232Q203 138 231.5 92.5Q260 47 322 47Z"/><path transform="translate(554.73 334.00) scale(0.00800 -0.00800)" d="M92 582 56 597Q97 703 145.5 762.5Q194 822 248.0 846.5Q302 871 356 871Q375 871 393.5 868.5Q412 866 430.5 862.0Q449 858 467 852L347 462H341Q385 540 435.5 613.0Q486 686 542.0 743.5Q598 801 658.0 835.0Q718 869 780 869Q863 869 894.5 833.5Q926 798 926 741Q926 709 916.0 670.0Q906 631 889 586L691 71L693 108Q726 108 766.0 122.0Q806 136 849.0 163.0Q892 190 932 227L962 196Q892 114 832.5 66.5Q773 19 723.0 -0.5Q673 -20 628 -20Q563 -20 549.0 -1.5Q535 17 557 73L768 618Q776 639 781.5 659.0Q787 679 787 696Q787 721 771.0 736.0Q755 751 713 751Q665 751 606.0 710.0Q547 669 487.5 597.0Q428 525 377.5 431.5Q327 338 295 233L224 0H89L315 746Q311 746 307.5 746.0Q304 746 300 746Q264 746 230.0 732.0Q196 718 162.0 682.5Q128 647 92 582Z"/><path transform="translate(562.83 334.00) scale(0.00800 -0.00800)" d="M497 805Q438 805 391.0 770.0Q344 735 308.5 677.0Q273 619 249.5 549.5Q226 480 214.0 410.0Q202 340 202 282Q202 179 243.0 136.0Q284 93 350 93Q395 93 434.5 109.0Q474 125 510.5 164.5Q547 204 582 276H638Q589 162 540.5 97.5Q492 33 435.5 6.5Q379 -20 304 -20Q229 -20 173.5 9.5Q118 39 87.5 97.0Q57 155 57 240Q57 345 81.5 440.0Q106 535 150.5 613.5Q195 692 253.5 750.0Q312 808 381.0 840.0Q450 872 523 872Q593 872 637.0 847.5Q681 823 701.5 783.5Q722 744 722 699Q722 656 703.5 613.5Q685 571 656 547Q598 523 540.0 500.0Q482 477 423.5 455.5Q365 434 306.5 413.5Q248 393 189 374L192 446Q288 473 357.0 500.0Q426 527 471.5 553.0Q517 579 543.0 605.5Q569 632 580.0 658.5Q591 685 591 712Q591 740 580.0 760.5Q569 781 548.5 793.0Q528 805 497 805Z"/><path transform="translate(568.76 334.00) scale(0.00800 -0.00800)" d="M157 224Q205 224 234.5 195.0Q264 166 264 124Q264 87 246.0 55.5Q228 24 197.0 5.0Q166 -14 125 -14Q77 -14 47.5 15.0Q18 44 18 86Q18 123 36.0 154.5Q54 186 85.5 205.0Q117 224 157 224Z"/></g>
</svg>